<svg xmlns="http://www.w3.org/2000/svg" width="61.568" height="74.859" viewBox="0 0 61.568 74.859">
    <defs>
        <style>
            .cls-1{fill:#79ff79}.cls-2{fill:#29e088}.cls-3{fill:#fe2544}.cls-4{fill:#f79a7c}.cls-5{fill:#fcad97}.cls-6{fill:#ffccb7}.cls-7{fill:#b55434}.cls-8{fill:#08c165}.cls-9{fill:#db765a}.cls-10{fill:#f4a698}.cls-12{fill:#52efff}.cls-14{fill:#e00e36}.cls-15{fill:#c4002f}
        </style>
    </defs>
    <g id="love-and-romance" transform="translate(-45.454)">
        <g id="Group_692" data-name="Group 692" transform="translate(52.911 19.229)">
            <g id="Group_689" data-name="Group 689" transform="translate(35.484 .125)">
                <g id="Group_688" data-name="Group 688">
                    <ellipse id="Ellipse_125" cx="4.485" cy="2.594" class="cls-1" data-name="Ellipse 125" rx="4.485" ry="2.594" transform="rotate(-45 7.654 3.17)"/>
                </g>
            </g>
            <g id="Group_691" data-name="Group 691">
                <g id="Group_690" data-name="Group 690">
                    <ellipse id="Ellipse_126" cx="2.594" cy="4.485" class="cls-1" data-name="Ellipse 126" rx="2.594" ry="4.485" transform="rotate(-45 4.574 1.895)"/>
                    <ellipse id="Ellipse_127" cx="2.594" cy="4.485" class="cls-2" data-name="Ellipse 127" rx="2.594" ry="4.485" transform="rotate(-21.099 7.616 -13.03)"/>
                </g>
            </g>
        </g>
        <g id="Group_699" data-name="Group 699" transform="translate(45.952 36.97)">
            <g id="Group_695" data-name="Group 695">
                <g id="Group_694" data-name="Group 694">
                    <g id="Group_693" data-name="Group 693">
                        <ellipse id="Ellipse_128" cx="2.594" cy="4.485" class="cls-1" data-name="Ellipse 128" rx="2.594" ry="4.485" transform="rotate(-45 6.714 2.781)"/>
                        <path id="Path_1203" d="M68.6 264.357a1.1 1.1 0 0 0-.867-1.075 1.1 1.1 0 0 0-2.149 0 1.1 1.1 0 0 0 0 2.149 1.1 1.1 0 0 0 2.149 0 1.1 1.1 0 0 0 .867-1.074z" class="cls-3" data-name="Path 1203" transform="translate(-62.396 -261.018)"/>
                        <ellipse id="Ellipse_129" cx="2.594" cy="4.485" class="cls-2" data-name="Ellipse 129" rx="2.594" ry="4.485" transform="rotate(-21.099 6.963 -9.526)"/>
                    </g>
                </g>
            </g>
            <g id="Group_698" data-name="Group 698" transform="translate(48.632 .022)">
                <g id="Group_697" data-name="Group 697">
                    <g id="Group_696" data-name="Group 696">
                        <ellipse id="Ellipse_130" cx="4.485" cy="2.594" class="cls-1" data-name="Ellipse 130" rx="4.485" ry="2.594" transform="rotate(-45 10.877 1.799)"/>
                        <ellipse id="Ellipse_131" cx="4.485" cy="2.594" class="cls-2" data-name="Ellipse 131" rx="4.485" ry="2.594" transform="rotate(-68.901 6.099 4.184)"/>
                    </g>
                </g>
            </g>
        </g>
        <g id="Group_711" data-name="Group 711" transform="translate(45.454 9.531)">
            <g id="Group_701" data-name="Group 701" transform="translate(17.618)">
                <g id="Group_700" data-name="Group 700">
                    <path id="Path_1204" d="M189.536 65.182h-20.829a2.751 2.751 0 0 0-2.751 2.751v15.244h26.331V67.933a2.751 2.751 0 0 0-2.751-2.751z" class="cls-4" data-name="Path 1204" transform="translate(-165.956 -65.182)"/>
                    <path id="Path_1205" d="M188.492 65.182h-19.785a2.751 2.751 0 0 0-2.751 2.751v15.245h12.929c6.116-4.827 10.041-4.82 10.041-13.215a26.467 26.467 0 0 0-.434-4.781z" class="cls-5" data-name="Path 1205" transform="translate(-165.956 -65.182)"/>
                    <path id="Path_1206" d="M184.658 65.182h-15.951a2.751 2.751 0 0 0-2.751 2.751v15.245h7.144c7.068-5.331 11.637-6.315 11.637-15.851q-.001-1.082-.079-2.145z" class="cls-6" data-name="Path 1206" transform="translate(-165.956 -65.182)"/>
                    <path id="Path_1207" d="M191.351 145.876a3.365 3.365 0 0 0-4.758 0l-.066.066a3.365 3.365 0 0 1-4.759 0l-.065-.065a3.365 3.365 0 0 0-4.759 0l-.066.066a3.365 3.365 0 0 1-4.758 0l-.066-.066a3.365 3.365 0 0 0-4.758 0l-.066.066a3.331 3.331 0 0 1-1.278.8v4.495h26.331v-4.423z" class="cls-7" data-name="Path 1207" transform="translate(-165.953 -133.237)"/>
                </g>
            </g>
            <g id="Group_707" data-name="Group 707" transform="translate(5.903 9.717)">
                <g id="Group_704" data-name="Group 704" transform="translate(2.273 9.18)">
                    <path id="Path_1208" d="M146.59 197.18v16h-45.215v-16a2.752 2.752 0 0 1 2.751-2.751h39.713a2.752 2.752 0 0 1 2.751 2.751z" class="cls-4" data-name="Path 1208" transform="translate(-101.375 -194.429)"/>
                    <path id="Path_1209" d="M143.235 199.21c0 8.395-3.856 12.6-10.041 13.97h-31.812v-16a2.751 2.751 0 0 1 2.751-2.751H142.8a26.353 26.353 0 0 1 .435 4.781z" class="cls-5" data-name="Path 1209" transform="translate(-101.381 -194.428)"/>
                    <path id="Path_1210" d="M138.416 199.21c0 8.395-3.855 12.6-10.04 13.97h-26.994v-16a2.751 2.751 0 0 1 2.751-2.751h33.85a26.484 26.484 0 0 1 .433 4.781z" class="cls-6" data-name="Path 1210" transform="translate(-101.381 -194.428)"/>
                    <path id="Path_1211" d="M146.59 281.227v4.423h-45.215v-4.423l.933-.933a3.365 3.365 0 0 1 4.758 0l.066.066a3.365 3.365 0 0 0 4.758 0l.066-.066a3.365 3.365 0 0 1 4.759 0l.065.065a3.365 3.365 0 0 0 4.759 0l.066-.066a3.365 3.365 0 0 1 4.758 0l.066.066a3.365 3.365 0 0 0 4.758 0l.066-.066a3.365 3.365 0 0 1 4.759 0l.065.065a3.365 3.365 0 0 0 4.759 0l.066-.066a3.365 3.365 0 0 1 4.758 0z" class="cls-7" data-name="Path 1211" transform="translate(-101.375 -266.899)"/>
                    <g id="Group_703" data-name="Group 703" transform="translate(6.667 9.771)">
                        <g id="Group_702" data-name="Group 702">
                            <circle id="Ellipse_132" cx="1.497" cy="1.497" r="1.497" class="cls-2" data-name="Ellipse 132"/>
                            <circle id="Ellipse_133" cx="1.497" cy="1.497" r="1.497" class="cls-2" data-name="Ellipse 133" transform="translate(9.629)"/>
                            <circle id="Ellipse_134" cx="1.497" cy="1.497" r="1.497" class="cls-2" data-name="Ellipse 134" transform="translate(19.257)"/>
                        </g>
                        <circle id="Ellipse_135" cx="1.497" cy="1.497" r="1.497" class="cls-8" data-name="Ellipse 135" transform="translate(28.886)"/>
                    </g>
                </g>
                <g id="Group_706" data-name="Group 706">
                    <ellipse id="Ellipse_136" cx="4.485" cy="2.594" class="cls-2" data-name="Ellipse 136" rx="4.485" ry="2.594" transform="rotate(-68.901 23.577 -21.293)"/>
                    <path id="Path_1212" d="M355.63 165.754a6.482 6.482 0 1 0-.867 1.075 1.1 1.1 0 0 0 .867-1.075z" class="cls-3" data-name="Path 1212" transform="translate(-312.867 -159.109)"/>
                    <path id="Path_1213" d="M133.329 187.395H88.085a2.259 2.259 0 1 1 0-4.519h45.244a2.259 2.259 0 0 1 0 4.519z" class="cls-9" data-name="Path 1213" transform="translate(-85.826 -175.385)"/>
                    <g id="Group_705" data-name="Group 705" transform="translate(6.481 7.491)">
                        <path id="Path_1214" d="M142.605 187.395h-10.2a2.259 2.259 0 1 1 0-4.519h10.2a2.259 2.259 0 1 1 0 4.519z" class="cls-10" data-name="Path 1214" transform="translate(-130.151 -182.876)"/>
                        <circle id="Ellipse_137" cx="2.259" cy="2.259" r="2.259" class="cls-10" data-name="Ellipse 137" transform="translate(17.057)"/>
                    </g>
                </g>
            </g>
            <g id="Group_708" data-name="Group 708" transform="translate(0 36.28)">
                <path id="Path_1215" d="M125.932 324.085v19.735H72.179v-19.735a3.271 3.271 0 0 1 3.271-3.271h47.212a3.271 3.271 0 0 1 3.27 3.271z" class="cls-4" data-name="Path 1215" transform="translate(-68.272 -319.718)"/>
                <path id="Path_1216" d="M121.939 326.5c0 9.98-4.666 11.585-11.936 17.323h-37.82v-19.738a3.271 3.271 0 0 1 3.271-3.271h45.971a31.443 31.443 0 0 1 .514 5.686z" class="cls-5" data-name="Path 1216" transform="translate(-68.275 -319.718)"/>
                <path id="Path_1217" d="M116.959 323.364c0 11.336-5.432 14.119-13.835 20.457H72.183v-19.736a3.271 3.271 0 0 1 3.271-3.271h41.413q.091 1.263.092 2.55z" class="cls-6" data-name="Path 1217" transform="translate(-68.275 -319.718)"/>
                <path id="Path_1218" d="M125.932 428.883v5.258H72.179v-5.258l1.109-1.109a4 4 0 0 1 5.656 0l.079.078a4 4 0 0 0 5.657 0l.078-.078a4 4 0 0 1 5.657 0l.077.077a4 4 0 0 0 5.657 0l.078-.078a4 4 0 0 1 5.657 0l.078.078a4 4 0 0 0 5.657 0l.078-.078a4 4 0 0 1 5.657 0l.077.077a4 4 0 0 0 5.657 0l.078-.078a4 4 0 0 1 5.657 0z" class="cls-7" data-name="Path 1218" transform="translate(-68.272 -410.04)"/>
                <path id="Path_1219" fill="#06d0ff" d="M105.6 476.671H46.876a1.422 1.422 0 0 1-1.422-1.422v-3.206a1.422 1.422 0 0 1 1.422-1.422H105.6a1.422 1.422 0 0 1 1.422 1.422v3.206a1.422 1.422 0 0 1-1.422 1.422z" data-name="Path 1219" transform="translate(-45.454 -447.622)"/>
                <path id="Path_1220" d="M118.064 317.838H66.512a2.259 2.259 0 1 1 0-4.519h51.552a2.259 2.259 0 1 1 0 4.519z" class="cls-9" data-name="Path 1220" transform="translate(-61.504 -313.319)"/>
                <path id="Path_1221" d="M111.445 317.838h-10.2a2.259 2.259 0 1 1 0-4.519h10.2a2.259 2.259 0 1 1 0 4.519z" class="cls-10" data-name="Path 1221" transform="translate(-91.163 -313.319)"/>
                <circle id="Ellipse_138" cx="2.259" cy="2.259" r="2.259" class="cls-10" data-name="Ellipse 138" transform="translate(24.885)"/>
                <path id="Path_1222" d="M90.962 474.812H71.81a2.1 2.1 0 0 1 0-4.19h19.152a2.1 2.1 0 0 1 0 4.19z" class="cls-12" data-name="Path 1222" transform="translate(-66.168 -447.623)"/>
                <circle id="Ellipse_139" cx="2.177" cy="2.177" r="2.177" class="cls-12" data-name="Ellipse 139" transform="translate(29.634 22.999)"/>
                <path id="Path_1223" fill="#00addb" d="M420.192 472.039v3.207a1.422 1.422 0 0 1-1.422 1.422h-6.516a7.3 7.3 0 0 0 5.011-6.051h1.5a1.422 1.422 0 0 1 1.427 1.422z" data-name="Path 1223" transform="translate(-358.624 -447.618)"/>
            </g>
            <g id="Group_710" data-name="Group 710" transform="translate(11.834 49.706)">
                <g id="Group_709" data-name="Group 709">
                    <circle id="Ellipse_140" cx="1.78" cy="1.78" r="1.78" class="cls-2" data-name="Ellipse 140"/>
                    <circle id="Ellipse_141" cx="1.78" cy="1.78" r="1.78" class="cls-2" data-name="Ellipse 141" transform="translate(11.447)"/>
                    <circle id="Ellipse_142" cx="1.78" cy="1.78" r="1.78" class="cls-2" data-name="Ellipse 142" transform="translate(22.894)"/>
                </g>
                <circle id="Ellipse_143" cx="1.78" cy="1.78" r="1.78" class="cls-8" data-name="Ellipse 143" transform="translate(34.34)"/>
            </g>
        </g>
        <g id="Group_714" data-name="Group 714" transform="translate(64.334)">
            <g id="Group_712" data-name="Group 712" transform="translate(2.418 5.79)">
                <path id="Path_1224" d="M244.591 39.6a73.8 73.8 0 0 1 4.68 16.825 1.582 1.582 0 0 0 1.564 1.336h3.479a1.583 1.583 0 0 0 1.563-1.838 73.234 73.234 0 0 0-4.6-16.322h-6.687z" class="cls-14" data-name="Path 1224" transform="translate(-236.773 -39.604)"/>
                <path id="Path_1225" d="M251.277 39.6a73.206 73.206 0 0 1 4.6 16.323 1.583 1.583 0 0 1-1.562 1.838h-3.167a10.409 10.409 0 0 0-5.456-15.409c-.339-.921-.706-1.844-1.1-2.751z" class="cls-15" data-name="Path 1225" transform="translate(-236.773 -39.601)"/>
                <path id="Path_1226" d="M202.427 39.6a73.794 73.794 0 0 0-4.68 16.825 1.582 1.582 0 0 1-1.564 1.336H192.7a1.583 1.583 0 0 1-1.563-1.838 73.233 73.233 0 0 1 4.6-16.322h6.687z" class="cls-14" data-name="Path 1226" transform="translate(-191.12 -39.604)"/>
                <path id="Path_1227" d="M215.5 39.6a73.752 73.752 0 0 0-4.679 16.825 1.582 1.582 0 0 1-1.564 1.335h-2.825a8.028 8.028 0 0 0 .467-13.043c.544-1.7 1.178-3.43 1.913-5.118z" class="cls-15" data-name="Path 1227" transform="translate(-204.197 -39.604)"/>
            </g>
            <g id="Group_713" data-name="Group 713">
                <path id="Path_1228" d="M185.183 2.218L178.539.141a3.047 3.047 0 0 0-3.956 2.909v4.717a3.047 3.047 0 0 0 3.956 2.909l6.644-2.076a1.859 1.859 0 0 0 1.3-1.774V3.992a1.859 1.859 0 0 0-1.3-1.774z" class="cls-3" data-name="Path 1228" transform="translate(-174.583)"/>
                <path id="Path_1229" d="M190.458 8.248v2.834a1.86 1.86 0 0 1-1.3 1.774l-6.643 2.076a3.039 3.039 0 0 1-3.277-.991 8.116 8.116 0 0 0 5.272-7.6 7.99 7.99 0 0 0-.113-1.353l4.762 1.488a1.86 1.86 0 0 1 1.3 1.774z" class="cls-14" data-name="Path 1229" transform="translate(-178.554 -4.257)"/>
                <path id="Path_1230" d="M257.3 2.218l6.648-2.077A3.047 3.047 0 0 1 267.9 3.05v4.717a3.047 3.047 0 0 1-3.956 2.909L257.3 8.6a1.859 1.859 0 0 1-1.3-1.775V3.992a1.858 1.858 0 0 1 1.3-1.774z" class="cls-14" data-name="Path 1230" transform="translate(-244.096)"/>
                <path id="Path_1231" d="M266.269.352a8.828 8.828 0 0 1-2.487 7.6 8.79 8.79 0 0 1-2.682 1.836L257.3 8.6a1.859 1.859 0 0 1-1.3-1.773V3.993a1.857 1.857 0 0 1 1.3-1.773l6.647-2.077a3.024 3.024 0 0 1 2.322.208z" class="cls-3" data-name="Path 1231" transform="translate(-244.096 -.003)"/>
            </g>
        </g>
        <path id="Path_1232" d="M419.478 272.4a6.485 6.485 0 1 0-.867 1.075 1.1 1.1 0 0 0 .867-1.075z" class="cls-3" data-name="Path 1232" transform="translate(-316.023 -230.911)"/>
        <g id="Group_715" data-name="Group 715" transform="translate(68.89 .654)">
            <path id="Path_1233" fill="#fc708a" d="M219.319 5.588a3.819 3.819 0 0 0-5.4 0l-.829.829-.829-.829A3.819 3.819 0 1 0 206.87 11l5.055 5.014a1.654 1.654 0 0 0 2.329 0L219.309 11a3.819 3.819 0 0 0 .011-5.412z" data-name="Path 1233" transform="translate(-205.741 -4.469)"/>
            <path id="Path_1234" fill="#f7a6b7" d="M212.4 35.488l3.176 3.158a1.5 1.5 0 0 0 2.114 0l.022-.021a1.5 1.5 0 0 0 0-2.128l-3.176-3.159a1.5 1.5 0 0 0-2.119.007l-.022.022a1.5 1.5 0 0 0 .005 2.121z" data-name="Path 1234" transform="translate(-211.05 -28.744)"/>
        </g>
    </g>
</svg>
