<svg xmlns="http://www.w3.org/2000/svg" width="454.359" height="312" viewBox="0 0 454.359 312">
    <defs>
        <style>
            .cls-2,.cls-6{fill:#c9ce74}.cls-5{fill:#ebf097}.cls-6{opacity:.5;mix-blend-mode:multiply;isolation:isolate}.cls-8{fill:#202449}.cls-12{fill:#ebae80}.cls-14{fill:#eddcce}.cls-20{fill:#969b45}.cls-23{fill:#fff}.cls-27{opacity:.28}.cls-32{fill:#a3d4f7}.cls-34{fill:#99c7e8}.cls-37{fill:#f74643}.cls-39{fill:#aa321e}
        </style>
    </defs>
    <g id="Group_780" data-name="Group 780" transform="translate(-98.329 -220)">
        <g id="Group_505" data-name="Group 505" opacity="0.3" transform="translate(98.329 438.92)">
            <g id="Group_506" data-name="Group 506">
                <g id="Group_501" data-name="Group 501" transform="translate(1.488 .605)">
                    <path id="Path_858" d="M160.532 231.614a58.1 58.1 0 0 1 15.335 3.746 50.524 50.524 0 0 1 19.735 13.7 47.019 47.019 0 0 1 7.931 12.306 23.377 23.377 0 0 1 2.37 8.607 3.144 3.144 0 0 0 1.935 2.842 6.435 6.435 0 0 1 2.2 1.788 3.076 3.076 0 0 1 .106 4.026 4.724 4.724 0 0 1-2.644 1.771 3.965 3.965 0 0 1-.941.147 5.208 5.208 0 0 0-4.005 1.909 4.484 4.484 0 0 1-.708.639 54.171 54.171 0 0 1-12.142 7.147 61 61 0 0 1-13.343 3.954 74.531 74.531 0 0 1-13.108 1.127 66.782 66.782 0 0 1-10.648-.743c-8.68-1.507-16.893-4.256-24.26-9.227a62.355 62.355 0 0 1-8.962-7.122 32.123 32.123 0 0 1-7.584-11.561 19.854 19.854 0 0 1-.112-13.823 25.964 25.964 0 0 1 8.419-11.816A40.942 40.942 0 0 1 135 233.067a54.615 54.615 0 0 1 11.081-1.937 71.7 71.7 0 0 1 9.15-.186c1.769.084 3.533.437 5.301.67zm-4.95 45.186a24.568 24.568 0 0 0 9.095-.137 21.916 21.916 0 0 0 10.395-4.524c4.105-3.323 5.906-9.039 3.728-13.912a16.813 16.813 0 0 0-4.034-5.51A26.3 26.3 0 0 0 162.4 246.6a29.615 29.615 0 0 0-11.016-.349 21.962 21.962 0 0 0-11.587 5.032c-4.271 3.752-5.771 9.05-2.94 14.5a17.986 17.986 0 0 0 6.839 7.055 26.906 26.906 0 0 0 11.886 3.962z" class="cls-2" data-name="Path 858" transform="translate(-110.461 -230.873)"/>
                    <path id="Path_859" fill="#965a4d" d="M142.76 269.285a28.259 28.259 0 0 1-10.54-3.252 19.935 19.935 0 0 1-6.62-5.379 11.855 11.855 0 0 1 .876-16.576 20.371 20.371 0 0 1 9.691-5.067 30.55 30.55 0 0 1 14.008-.051 27.852 27.852 0 0 1 9.3 3.834 20.759 20.759 0 0 1 5.171 4.761 13.338 13.338 0 0 1 2.689 8.764 8.731 8.731 0 0 1-1.029 3.45 14.818 14.818 0 0 1-6.059 6.43 25.564 25.564 0 0 1-12.2 3.391 24.862 24.862 0 0 1-5.287-.305z" data-name="Path 859" transform="translate(-97.802 -223.273)"/>
                    <path id="Path_860" fill="#dca38a" d="M146.131 247.76a14.29 14.29 0 0 1-1.85-.445 9.588 9.588 0 0 0-2.993-.549c-4.007-.169-8.011-.223-11.877 1.141a14.336 14.336 0 0 1-2.043.47 2.786 2.786 0 0 1-.945.045 1.423 1.423 0 0 1-1.1-2.143 7.841 7.841 0 0 1 3.577-3.321 21.848 21.848 0 0 1 8.815-2.217 31.854 31.854 0 0 1 6.461.423 14.051 14.051 0 0 1 3.977 1.28 3.9 3.9 0 0 1 1.841 1.864 2.3 2.3 0 0 1-1.235 3.3 4.3 4.3 0 0 1-2.628.152z" data-name="Path 860" transform="translate(-95.221 -220.636)"/>
                    <path id="Path_861" d="M142.82 233.621a52.941 52.941 0 0 1 13.343 3.815 44.314 44.314 0 0 1 14.459 9.768 31.719 31.719 0 0 1 5.608 6.963 21.013 21.013 0 0 1 1 2.056 3.977 3.977 0 0 1 .282 1.3 2.209 2.209 0 0 1-1.292 2.166 2.123 2.123 0 0 1-2.35-.159 6.662 6.662 0 0 1-1.86-1.9 36.549 36.549 0 0 0-3.96-5.371 33.737 33.737 0 0 0-9.629-8.007 55.865 55.865 0 0 0-11.914-4.556 82.674 82.674 0 0 0-12.208-2.125c-1.962-.208-3.92-.478-5.877-.725a4.66 4.66 0 0 1-.749-.141 1.11 1.11 0 0 1-.908-.87.99.99 0 0 1 .672-1.047 10.5 10.5 0 0 1 3.587-1.243 59.043 59.043 0 0 1 6.853-.31c1.669.019 3.298.212 4.943.386z" class="cls-5" data-name="Path 861" transform="translate(-93.528 -228.418)"/>
                    <path id="Path_862" d="M153.453 284.778a62.424 62.424 0 0 1-21.98-7.429 60.384 60.384 0 0 1-12.328-9.3 31.853 31.853 0 0 1-7.325-11.291 19.265 19.265 0 0 1 .171-14.537 2.118 2.118 0 0 1 1.437-1.38 7.66 7.66 0 0 1 8.233 2.054 15.36 15.36 0 0 1 3.311 5.538c.733 1.9 1.458 3.807 2.137 5.728a26.9 26.9 0 0 0 12.361 14.758 41.728 41.728 0 0 0 18.883 5.575 40.43 40.43 0 0 0 12.1-1.362 65.648 65.648 0 0 0 12.373-5.026c2.4-1.168 4.783-2.395 7.2-3.548a41.141 41.141 0 0 1 7.921-2.784 20.358 20.358 0 0 1 6.641-.457 3.7 3.7 0 0 1 2.272.876 5.968 5.968 0 0 0 1.272.833 6.157 6.157 0 0 1 2 1.743 2.952 2.952 0 0 1 .276 3.55 4.613 4.613 0 0 1-3.013 2.176 6.4 6.4 0 0 1-1.135.147 5.089 5.089 0 0 0-3.519 1.688 27.081 27.081 0 0 1-4.414 3.325 38.852 38.852 0 0 1-5.087 3.021 62.153 62.153 0 0 1-21.731 6.257 81.44 81.44 0 0 1-12.2.355c-1.72-.088-3.423-.236-5.856-.51z" class="cls-6" data-name="Path 862" transform="translate(-110.479 -220.943)"/>
                    <path id="Path_863" fill="#965a4d" d="M143 266.028a28.272 28.272 0 0 1-14.072-5.314 16.345 16.345 0 0 1-5.408-6.553 5.771 5.771 0 0 1-.376-.876c-.149-.588-.568-1.172-.108-1.8.635.053.966.563 1.374.939a14.1 14.1 0 0 0 3.174 2.1 29.849 29.849 0 0 0 11.436 3.464 26.3 26.3 0 0 0 9.65-.747 9.054 9.054 0 0 0 5.649-3.952 13.578 13.578 0 0 0 1.221-2.993c.445-1.462.882-2.925 1.39-4.365a8.42 8.42 0 0 1 3.693-4.244 1.113 1.113 0 0 1 1.7.153 13.951 13.951 0 0 1 4.848 10.807 9.221 9.221 0 0 1-1.068 3.83 14.639 14.639 0 0 1-5.916 6.322 25.469 25.469 0 0 1-12.183 3.454 24.622 24.622 0 0 1-5.004-.225z" data-name="Path 863" transform="translate(-97.618 -219.945)" style="mix-blend-mode:multiply;isolation:isolate" opacity="0.5"/>
                </g>
                <g id="Group_504" data-name="Group 504">
                    <g id="Group_502" data-name="Group 502">
                        <path id="Path_864" d="M150.552 306.194a42.974 42.974 0 0 1-12.179-3.207 32.55 32.55 0 0 1-3.462-1.619 70.982 70.982 0 0 1-11.542-7.451 37.994 37.994 0 0 1-3.619-3.395 42.028 42.028 0 0 1-6.647-9.511 31.632 31.632 0 0 1-3.343-13.811c-.035-1.968.033-3.94.065-5.91a4.634 4.634 0 0 1 .108-.949 52.734 52.734 0 0 1 3.023-10.036 23.645 23.645 0 0 1 4.842-6.829 40.79 40.79 0 0 1 14.972-9.664 54.61 54.61 0 0 1 16.65-3.13 40.7 40.7 0 0 1 7.627.143c1.129.153 2.28-.014 3.428.147a95.119 95.119 0 0 1 9.342 1.9 57.074 57.074 0 0 1 10.066 3.568 48.666 48.666 0 0 1 15.7 11.342c4.61 5 8.437 10.558 10.477 17.156a17.137 17.137 0 0 1 1.084 5.216 2.41 2.41 0 0 0 1.594 2.38 11.784 11.784 0 0 1 3.366 2.156c.188.171.4.318.572.506 1.66 1.823 2.609 4.724-.084 7.308a6.472 6.472 0 0 1-2.783 1.623 6.153 6.153 0 0 0-3.389 2.331 22.325 22.325 0 0 0-1.378 1.829 27.518 27.518 0 0 1-8.892 8.529 62.081 62.081 0 0 1-13.039 6.337 63.482 63.482 0 0 1-11.855 2.946 75.444 75.444 0 0 1-12.753.788c-2.366-.034-4.691-.322-7.951-.693zm4.634-11.861a57.692 57.692 0 0 0 12.994.514 62.677 62.677 0 0 0 26.22-6.92 36.017 36.017 0 0 0 8.794-6.02 5.1 5.1 0 0 1 3.548-1.641 5.68 5.68 0 0 0 2.209-.555 3.636 3.636 0 0 0 1.7-1.486 2.132 2.132 0 0 0-.139-2.654 7.366 7.366 0 0 0-2.344-1.931 4.059 4.059 0 0 1-2.233-3.74 11.717 11.717 0 0 0-.382-2.64 29.687 29.687 0 0 0-2.44-6.62 46.02 46.02 0 0 0-7.292-10.92 51.959 51.959 0 0 0-15.266-11.634c-6.165-3.054-12.775-4.636-19.514-5.781-1.147-.2-2.29.027-3.43-.133a34.55 34.55 0 0 0-5.14-.308 64.422 64.422 0 0 0-14.586 1.654 33.906 33.906 0 0 0-4.393 1.294 42.5 42.5 0 0 0-12.059 6.9 25.02 25.02 0 0 0-7.853 10.4c-.553 1.494-.866 3.064-1.317 4.581a12.842 12.842 0 0 0-.157 5.845 23.2 23.2 0 0 0 1.635 5.475 29.455 29.455 0 0 0 6.19 9.333 57.209 57.209 0 0 0 15.944 11.387 58.78 58.78 0 0 0 19.311 5.6z" class="cls-8" data-name="Path 864" transform="translate(-109.75 -230.577)"/>
                        <path id="Path_865" d="M143.5 270.33c-5.406-.841-9.95-2.362-13.957-5.281a17.965 17.965 0 0 1-6.126-7.41 11.127 11.127 0 0 1 .723-10.775 17.118 17.118 0 0 1 8.268-6.8A28.549 28.549 0 0 1 145.475 238a31.623 31.623 0 0 1 12.9 3.65 19.644 19.644 0 0 1 7.943 7.527 11.585 11.585 0 0 1-.243 12.823 16.766 16.766 0 0 1-7.968 6.3 26.721 26.721 0 0 1-11.365 2.117 21.215 21.215 0 0 1-3.242-.087zm-.1-1.262a21.5 21.5 0 0 0 2.968.053 26.041 26.041 0 0 0 11.2-1.927 16.742 16.742 0 0 0 7.027-5.112 10.222 10.222 0 0 0 1.811-3.123 11.163 11.163 0 0 0-.615-8.552 17.358 17.358 0 0 0-6.461-6.874 33.375 33.375 0 0 0-11.391-4.215 24.876 24.876 0 0 0-3.044-.11 26.233 26.233 0 0 0-9.08.9 19.355 19.355 0 0 0-8.478 4.6 10.948 10.948 0 0 0-2.225 13.776 16.772 16.772 0 0 0 6.073 6.21 30.98 30.98 0 0 0 12.208 4.375z" class="cls-8" data-name="Path 865" transform="translate(-96.62 -222.913)"/>
                    </g>
                    <g id="Group_503" data-name="Group 503" transform="translate(8.027 51.012)">
                        <path id="Path_866" fill="#4d5286" d="M149.3 277.349a59.637 59.637 0 0 1-19.508-6.488 71.989 71.989 0 0 1-13.838-10.461 14.586 14.586 0 0 1-1.935-2.36 1.479 1.479 0 0 1 .053-1.941 1.6 1.6 0 0 1 2.088-.269 6.836 6.836 0 0 1 1.66 1.274 63.344 63.344 0 0 0 27.51 15.511 55.5 55.5 0 0 0 11.508 1.725 50.059 50.059 0 0 0 11.224-.766 68.659 68.659 0 0 0 19.53-6.445c1.421-.721 2.864-1.4 4.3-2.084a3.173 3.173 0 0 1 .717-.249.4.4 0 0 1 .3.173.457.457 0 0 1 .057.353 2.946 2.946 0 0 1-1.429 1.478 66.15 66.15 0 0 1-18.085 8.519 55.5 55.5 0 0 1-14.1 2.325 38.373 38.373 0 0 1-7.051-.186c-1.072-.164-2.168.197-3.001-.109z" data-name="Path 866" transform="translate(-113.683 -255.565)"/>
                    </g>
                </g>
            </g>
        </g>
        <g id="Group_517" data-name="Group 517" opacity="0.3" transform="translate(403.271 276.588)">
            <g id="Group_516" data-name="Group 516">
                <g id="Group_515" data-name="Group 515" transform="translate(.255 .328)">
                    <path id="Path_884" fill="#e17764" d="M356.753 191.206l-1.494-.18c-.383-.046-.768-.092-1.151-.135a3.5 3.5 0 0 0-3.055 1.076 3.7 3.7 0 0 1-2.516 1.041c-.385.026-.773 0-1.16-.009a3.548 3.548 0 0 1-3.169-2.006 5.215 5.215 0 0 1-.687-2.315 3.788 3.788 0 0 1 1.9-3.606 7.274 7.274 0 0 0 1.227-.869 2.55 2.55 0 0 0 .828-1.736c.025-.463.038-.928.055-1.392a6.052 6.052 0 0 1 1.722-3.953 3.223 3.223 0 0 1 1.675-.993 11.241 11.241 0 0 1 1.583-.345 2.731 2.731 0 0 0 2.273-1.577c.223-.407.444-.816.689-1.21a5.762 5.762 0 0 1 7.249-2.106c.208.1.414.211.629.3a2.45 2.45 0 0 0 2.533-.154 4.009 4.009 0 0 1 .942-.441 2.232 2.232 0 0 1 2.634.654 2.463 2.463 0 0 1 .689 2.654 10.671 10.671 0 0 1-.5 1.04c-.268.515-.553 1.02-.823 1.532a1.794 1.794 0 0 0 .124 1.97 5.516 5.516 0 0 1 .362.594 2.954 2.954 0 0 1-.486 3.536 5.511 5.511 0 0 1-2.49 1.638c-.553.171-1.109.342-1.671.483a3.467 3.467 0 0 0-2.617 2.39 7.319 7.319 0 0 1-.887 1.756 4.855 4.855 0 0 1-4.408 2.363z" data-name="Path 884" transform="translate(-323.541 -155.009)"/>
                    <g id="Group_511" data-name="Group 511" transform="translate(11.174 2.398)">
                        <path id="Path_885" d="M348.159 202.468a36.814 36.814 0 0 1-8.4-.89c-.3-.068-.6-.153-.9-.23a1.407 1.407 0 0 1-1.035-1 25.619 25.619 0 0 1-.936-3.833 29.986 29.986 0 0 1-.432-6.357 39.747 39.747 0 0 1 .7-5.753 36.5 36.5 0 0 1 2.969-8.781 32.4 32.4 0 0 1 4.257-6.624 28.223 28.223 0 0 1 6.754-5.978 20.431 20.431 0 0 1 8.238-2.961 15.284 15.284 0 0 1 9.426 1.739 17.373 17.373 0 0 1 6.518 6.317 13.737 13.737 0 0 1 1.438 2.781 1.027 1.027 0 0 0 .845.686 17.934 17.934 0 0 1 6.455 3.091 7.513 7.513 0 0 1 3.141 5.348 11.494 11.494 0 0 1-1.789 7.516 15.147 15.147 0 0 1-4.468 4.663 55.242 55.242 0 0 1-12.028 6.258 63.484 63.484 0 0 1-11.979 3.239 50.542 50.542 0 0 1-5.184.612c-1.196.081-2.39.18-3.59.157zm10.464-8.841a4.365 4.365 0 0 0 2.169-.427 5.362 5.362 0 0 0 2.235-2.129 16.387 16.387 0 0 0 .964-1.98 2.5 2.5 0 0 1 1.287-1.421 10.727 10.727 0 0 1 1.076-.428c.62-.216 1.251-.408 1.871-.623a5.613 5.613 0 0 0 2.354-1.632 3.013 3.013 0 0 0 .723-2.473 2.66 2.66 0 0 0-.522-1.276 2.371 2.371 0 0 1-.118-2.627c.227-.448.5-.874.751-1.307a4.4 4.4 0 0 0 .613-1.494 1.1 1.1 0 0 0-.1-.777c-.192-.334-.326-.7-.542-1.02a2.369 2.369 0 0 0-2.864-.9 7.917 7.917 0 0 0-1.045.5 2.628 2.628 0 0 1-2.242.128c-.4-.141-.79-.315-1.181-.484a4.7 4.7 0 0 0-2.817-.338 5.677 5.677 0 0 0-3.838 2.358 13.81 13.81 0 0 0-.885 1.5 2.684 2.684 0 0 1-2.188 1.518c-.306.035-.613.083-.917.135a4.682 4.682 0 0 0-3.591 2.971 6.782 6.782 0 0 0-.579 3.281 2.561 2.561 0 0 1-1.1 2.3c-.335.259-.712.463-1.065.7a3.832 3.832 0 0 0-1.628 4.247 11.4 11.4 0 0 0 .694 1.715 3.186 3.186 0 0 0 2.447 1.761 4.912 4.912 0 0 0 4.611-1.284 2.552 2.552 0 0 1 1.769-.748 6.824 6.824 0 0 1 1.846.114 8.05 8.05 0 0 0 1.812.14z" class="cls-12" data-name="Path 885" transform="translate(-336.422 -159.92)"/>
                    </g>
                    <path id="Path_886" fill="#dbc0aa" d="M359.94 221.8a29.719 29.719 0 0 1-11.859-2.1 30.532 30.532 0 0 1-10.677-6.841 33.425 33.425 0 0 1-4.684-5.6 32.412 32.412 0 0 1-4.88-12.817 31.727 31.727 0 0 1-.374-6.591 30.255 30.255 0 0 1 1.345-7.755 28.1 28.1 0 0 1 2.526-5.35 38.451 38.451 0 0 1 4.637-6.373 34.025 34.025 0 0 1 7.964-6.507 27.953 27.953 0 0 1 7.493-3.074 25.494 25.494 0 0 1 8.408-.72 23.656 23.656 0 0 1 7.716 2.015 4.122 4.122 0 0 1 .687.422.22.22 0 0 1 .062.308c-.063.083-.176.19-.262.185a4.8 4.8 0 0 1-.8-.127 16.931 16.931 0 0 0-3.792-.454 17.891 17.891 0 0 0-6.667 1.379 24.131 24.131 0 0 0-6.584 4.074 30.772 30.772 0 0 0-6.362 7.634 36.571 36.571 0 0 0-4.661 12.683 17.82 17.82 0 0 0-.346 3.345c0 .537-.17 1.076-.16 1.612a33.48 33.48 0 0 0 1.395 9.492 1.531 1.531 0 0 0 1.258 1.17 48.434 48.434 0 0 0 5.37.916 54.2 54.2 0 0 0 5.8.141 23.684 23.684 0 0 0 3.119-.238c1.725-.228 3.451-.465 5.158-.8a61.847 61.847 0 0 0 11.774-3.518 53.63 53.63 0 0 0 10.311-5.545c.572-.4 1.122-.829 1.7-1.21a8.267 8.267 0 0 0 1.755-1.843 13.562 13.562 0 0 0 2.791-5.427 11.725 11.725 0 0 0 .375-2.519 2.319 2.319 0 0 1 .062-.573.359.359 0 0 1 .239-.207.374.374 0 0 1 .3.109 1.613 1.613 0 0 1 .277.5 28.619 28.619 0 0 1 1.046 4.637 30.75 30.75 0 0 1 .2 6.023c-.065 1.194-.243 2.384-.427 3.567a34.888 34.888 0 0 1-2.913 9.394 22.725 22.725 0 0 1-4.967 6.947 35.78 35.78 0 0 1-8.738 6.272 33.091 33.091 0 0 1-9.589 3.055 21.545 21.545 0 0 1-5.026.309z" data-name="Path 886" transform="translate(-327.415 -157.987)"/>
                    <g id="Group_512" data-name="Group 512" transform="translate(2.44 7.337)">
                        <path id="Path_887" d="M334.185 173.18a1.6 1.6 0 0 1-1.526-1.013 1.281 1.281 0 0 1 .774-1.524 14.373 14.373 0 0 1 3.751-1.185 2.664 2.664 0 0 1 1.034.058.845.845 0 0 1 .395 1.449 3.394 3.394 0 0 1-.522.458 10.679 10.679 0 0 1-3.44 1.644c-.186.051-.375.091-.466.113z" class="cls-14" data-name="Path 887" transform="translate(-328.606 -162.568)"/>
                        <path id="Path_888" d="M346.964 200.232c-.127.854-.153 2.018-.411 3.154a1.925 1.925 0 0 1-.377.838 1.151 1.151 0 0 1-2.008-.2 1.467 1.467 0 0 1-.184-1.006 24.086 24.086 0 0 1 1.041-3.924 2.1 2.1 0 0 1 .551-.874.739.739 0 0 1 1.245.228c.163.328.195.628.143 1.784z" class="cls-14" data-name="Path 888" transform="translate(-325.873 -155.693)"/>
                        <path id="Path_889" d="M352 201.148a13.882 13.882 0 0 1 .254-2.6 1.821 1.821 0 0 1 .8-1.356.568.568 0 0 1 .74.076 1.376 1.376 0 0 1 .367.71 15.058 15.058 0 0 1 .418 4.127 2.323 2.323 0 0 1-.231.891 1.152 1.152 0 0 1-1.112.692 1.107 1.107 0 0 1-1.042-.784 4.541 4.541 0 0 1-.194-1.756z" class="cls-14" data-name="Path 889" transform="translate(-323.94 -155.906)"/>
                        <path id="Path_890" d="M334.742 176h.346a.855.855 0 0 1 .844.493.768.768 0 0 1-.289.923 9.674 9.674 0 0 1-1.195.9 8.788 8.788 0 0 1-2.865 1.184 2.553 2.553 0 0 1-1.03.04 1.081 1.081 0 0 1-.691-1.7 1.758 1.758 0 0 1 .8-.646 24.437 24.437 0 0 1 3.855-1.18.79.79 0 0 1 .225-.014z" class="cls-14" data-name="Path 890" transform="translate(-329.317 -160.987)"/>
                        <path id="Path_891" d="M361.956 199.661a3 3 0 0 1-.236 1.356 1.214 1.214 0 0 1-1.171.783 1.116 1.116 0 0 1-1.137-.809 3.547 3.547 0 0 1-.261-1.927 8.54 8.54 0 0 0 .155-1.608 2.574 2.574 0 0 1 .279-1.114c.149-.316.311-.643.736-.639.359 0 .539.259.694.536.057.1.11.2.16.308a6.944 6.944 0 0 1 .781 3.114z" class="cls-14" data-name="Path 891" transform="translate(-322.225 -156.241)"/>
                        <path id="Path_892" d="M365.863 195.53v-1.039a2.791 2.791 0 0 1 .252-1.118.618.618 0 0 1 1.1-.226 2.942 2.942 0 0 1 .645.948 13 13 0 0 1 .773 2.887 1.194 1.194 0 0 1 .01.231 1.515 1.515 0 0 1-1.053 1.489 1.423 1.423 0 0 1-1.5-1.01 3.015 3.015 0 0 1-.226-1.124c.006-.346 0-.692 0-1.039z" class="cls-14" data-name="Path 892" transform="translate(-320.598 -156.916)"/>
                        <path id="Path_893" d="M374.761 193.318a2.9 2.9 0 0 1-.073.6 1.29 1.29 0 0 1-.968.911 1.035 1.035 0 0 1-1.019-.426 1.962 1.962 0 0 1-.333-.473 7.594 7.594 0 0 1-.717-3.029 1.765 1.765 0 0 1 .289-.991.778.778 0 0 1 1.112-.249 1.43 1.43 0 0 1 .442.366 6.338 6.338 0 0 1 1.267 3.291z" class="cls-14" data-name="Path 893" transform="translate(-319.203 -157.728)"/>
                        <path id="Path_894" d="M338.024 202.217a1.017 1.017 0 0 1-1.118-.807 1.377 1.377 0 0 1-.036-.682 7.815 7.815 0 0 1 2.044-3.582.705.705 0 0 1 .833-.239.859.859 0 0 1 .519.948 12.9 12.9 0 0 1-1.134 3.642 1.2 1.2 0 0 1-1.108.72z" class="cls-14" data-name="Path 894" transform="translate(-327.587 -155.966)"/>
                        <path id="Path_895" d="M330.59 186.355a1.11 1.11 0 0 1-1.079-.519.927.927 0 0 1 .11-1.085 2.717 2.717 0 0 1 .57-.574 10.786 10.786 0 0 1 2.994-1.51 2.423 2.423 0 0 1 .8-.1.7.7 0 0 1 .587 1.088 1.991 1.991 0 0 1-.431.54 14.1 14.1 0 0 1-2.879 1.947 3.5 3.5 0 0 1-.672.213z" class="cls-14" data-name="Path 895" transform="translate(-329.383 -159.404)"/>
                        <path id="Path_896" d="M364.365 203.267a7.032 7.032 0 0 1 .376-1.7 1.434 1.434 0 0 1 .476-.639.666.666 0 0 1 .85 0 1.568 1.568 0 0 1 .463.651 8.385 8.385 0 0 1 .579 2.349 1.938 1.938 0 0 1-.352 1.317 1.094 1.094 0 0 1-1.965-.092 5.638 5.638 0 0 1-.427-1.886z" class="cls-14" data-name="Path 896" transform="translate(-320.958 -155.019)"/>
                        <path id="Path_897" d="M342.913 164.7a1.34 1.34 0 0 1-.141.346 2.878 2.878 0 0 1-.937.843 17.918 17.918 0 0 1-2.526 1.13 1.322 1.322 0 0 1-1.011 0 1.027 1.027 0 0 1-.309-1.774 2.593 2.593 0 0 1 .682-.426 16.621 16.621 0 0 1 3.217-.906.865.865 0 0 1 1.025.787z" class="cls-14" data-name="Path 897" transform="translate(-327.404 -163.9)"/>
                        <path id="Path_898" d="M331.17 192.472c-.782.022-1.174-.392-1.123-.955a1.732 1.732 0 0 1 .644-1.2c.835-.686 1.69-1.349 2.55-2a1.872 1.872 0 0 1 .633-.278.684.684 0 0 1 .852.877 2.436 2.436 0 0 1-.608.977c-.659.7-1.346 1.386-2.041 2.057a1.746 1.746 0 0 1-.907.522z" class="cls-14" data-name="Path 898" transform="translate(-329.225 -158.093)"/>
                        <path id="Path_899" d="M355.739 206.55a7.1 7.1 0 0 1 .433-2.148 1.292 1.292 0 0 1 .465-.649.618.618 0 0 1 .839.073.457.457 0 0 1 .073.091 4.8 4.8 0 0 1 .551 3.669 1.179 1.179 0 0 1-.29.491 1.075 1.075 0 0 1-1.771-.192 2.2 2.2 0 0 1-.3-1.335z" class="cls-14" data-name="Path 899" transform="translate(-323.036 -154.333)"/>
                        <path id="Path_900" d="M335.761 192.7a.657.657 0 0 1 .733.634 1.524 1.524 0 0 1-.149.548 8.839 8.839 0 0 1-2.226 2.77 1.969 1.969 0 0 1-.488.3.744.744 0 0 1-.938-.2.786.786 0 0 1-.227-1.035 8.372 8.372 0 0 1 3.026-2.943.894.894 0 0 1 .269-.074z" class="cls-14" data-name="Path 900" transform="translate(-328.668 -156.964)"/>
                        <path id="Path_901" d="M370.3 199.261a3.5 3.5 0 0 1 .391-1.793.737.737 0 0 1 1.251-.2 1.821 1.821 0 0 1 .423.54 7.024 7.024 0 0 1 .552 2 1.025 1.025 0 0 1 0 .231 1.43 1.43 0 0 1-1.13 1.421 1.358 1.358 0 0 1-1.372-1.168 8.081 8.081 0 0 1-.115-1.031z" class="cls-14" data-name="Path 901" transform="translate(-319.53 -155.927)"/>
                        <path id="Path_902" d="M350.556 207.189a6.041 6.041 0 0 1-.006.808 1.125 1.125 0 0 1-.979.991 1.062 1.062 0 0 1-1.055-.893 2.888 2.888 0 0 1-.079-.686 6.941 6.941 0 0 1 .334-1.928 1.559 1.559 0 0 1 .269-.506.68.68 0 0 1 1.158.077 2.677 2.677 0 0 1 .331 1.1c.04.344.042.692.061 1.039z" class="cls-14" data-name="Path 902" transform="translate(-324.795 -154.077)"/>
                        <path id="Path_903" d="M375.608 187a1.721 1.721 0 0 1 .311-1.088.7.7 0 0 1 1.1-.119 4.5 4.5 0 0 1 1.16 2.207 1.227 1.227 0 0 1-.171.887.953.953 0 0 1-1.695.141 3.662 3.662 0 0 1-.705-2.028z" class="cls-14" data-name="Path 903" transform="translate(-318.251 -158.681)"/>
                    </g>
                    <g id="Group_513" data-name="Group 513" transform="translate(22.642 17.491)">
                        <path id="Path_904" d="M348.01 181.082a3.562 3.562 0 0 1 .074-.476.762.762 0 0 1 1-.511 2.923 2.923 0 0 1 1.865 1.9 1.123 1.123 0 0 1-1.322 1.374 1.484 1.484 0 0 1-.61-.3 3.219 3.219 0 0 1-1.007-1.987z" class="cls-12" data-name="Path 904" transform="translate(-345.099 -170.166)"/>
                        <path id="Path_905" d="M361.394 179.977a1.282 1.282 0 0 1-.72 1.228 1.107 1.107 0 0 1-1.3-.16 2.146 2.146 0 0 1-.83-2.154 1.025 1.025 0 0 1 1.209-.814 2.413 2.413 0 0 1 1.641 1.9z" class="cls-12" data-name="Path 905" transform="translate(-342.571 -170.645)"/>
                        <path id="Path_906" d="M355.411 174.367a2.693 2.693 0 0 1 2 1.7 1.217 1.217 0 0 1-.445 1.232 1.117 1.117 0 0 1-1.29.12 2.6 2.6 0 0 1-1.192-2.214.926.926 0 0 1 .927-.838z" class="cls-12" data-name="Path 906" transform="translate(-343.544 -171.534)"/>
                        <path id="Path_907" d="M355.739 180.731a2.288 2.288 0 0 1 1.9 2.02 1.241 1.241 0 0 1-1.653 1.1 2.149 2.149 0 0 1-1.15-2.5.979.979 0 0 1 .903-.62z" class="cls-12" data-name="Path 907" transform="translate(-343.476 -170.001)"/>
                        <path id="Path_908" d="M348.612 186.15a1.129 1.129 0 0 1-1.622 1.013 1.9 1.9 0 0 1-.514-.454 4.9 4.9 0 0 1-.788-1.789.8.8 0 0 1 .392-.89.745.745 0 0 1 .871-.011 4.6 4.6 0 0 1 1.54 1.691 1.5 1.5 0 0 1 .121.44z" class="cls-12" data-name="Path 908" transform="translate(-345.664 -169.242)"/>
                        <path id="Path_909" d="M361.017 174.817a1.053 1.053 0 0 1-1.606.975 2.588 2.588 0 0 1-1.25-2.112.929.929 0 0 1 1.439-.86 3.982 3.982 0 0 1 1.274 1.325 1.2 1.2 0 0 1 .143.672z" class="cls-12" data-name="Path 909" transform="translate(-342.655 -171.943)"/>
                        <path id="Path_910" d="M353.692 178.295c.015 1.1-.735 1.588-1.568 1.183a2.724 2.724 0 0 1-1.211-2.127.893.893 0 0 1 1.318-.812 2.213 2.213 0 0 1 1.461 1.756z" class="cls-12" data-name="Path 910" transform="translate(-344.401 -171.037)"/>
                        <path id="Path_911" d="M352.3 182.578a.75.75 0 0 1 .227.03 3.29 3.29 0 0 1 1.673 1.681.971.971 0 0 1-.393 1.123.91.91 0 0 1-1.085.012 3.073 3.073 0 0 1-1.23-1.9.852.852 0 0 1 .808-.946z" class="cls-12" data-name="Path 911" transform="translate(-344.265 -169.556)"/>
                        <path id="Path_912" d="M362.866 172.084a1.913 1.913 0 0 1 1.638 1.57 1.19 1.19 0 0 1-1.571 1.178 1.765 1.765 0 0 1-1-2.005 1.01 1.01 0 0 1 .933-.743z" class="cls-12" data-name="Path 912" transform="translate(-341.756 -172.084)"/>
                    </g>
                    <g id="Group_514" data-name="Group 514" transform="translate(28.028 6.053)">
                        <path id="Path_913" fill="#f4d7c3" d="M356.9 162.869a15.733 15.733 0 0 1 10.537 3.513 15.321 15.321 0 0 1 1.408 1.375 1.486 1.486 0 0 1 .413 1.052 1.372 1.372 0 0 1-1.892 1.231 5.424 5.424 0 0 1-1.036-.737 16.494 16.494 0 0 0-4.745-2.856 14.283 14.283 0 0 0-9.1-.441c-.445.125-.893.247-1.348.342a1.449 1.449 0 0 1-.571 0 .681.681 0 0 1-.5-.978 2.039 2.039 0 0 1 .766-.849 9.7 9.7 0 0 1 3.41-1.4 10.8 10.8 0 0 1 2.658-.252z" data-name="Path 913" transform="translate(-350.005 -162.865)"/>
                    </g>
                    <path id="Path_914" fill="#ebae80" d="M348.175 201.54a37.443 37.443 0 0 1-8.4-.895c-.264-.061-.522-.149-.788-.2a1.483 1.483 0 0 1-1.2-1.119 24.462 24.462 0 0 1-.881-3.606 34.218 34.218 0 0 1-.474-5.425 37.853 37.853 0 0 1 .74-6.909 35.549 35.549 0 0 1 2.933-8.67 32.3 32.3 0 0 1 4.257-6.631 28.543 28.543 0 0 1 4.109-4.085c.357-.287.519-.251.708.161a5.776 5.776 0 0 1 .493 3.059 29.961 29.961 0 0 1-2.072 7.833q-1.889 4.813-3.562 9.7a13.726 13.726 0 0 0-.781 5.6 12.67 12.67 0 0 0 .525 3.311 7.161 7.161 0 0 0 3.062 3.678 5.024 5.024 0 0 0 2.443.65 13.132 13.132 0 0 0 3.35-.253c2.123-.429 4.269-.749 6.359-1.341 1.159-.329 2.262-.8 3.4-1.189.989-.34 1.963-.726 2.962-1.032a34.681 34.681 0 0 0 10.8-5.779 30.593 30.593 0 0 0 3.492-3.057 20.406 20.406 0 0 0 5.02-8.907 5.27 5.27 0 0 1 .341-1.344c.094-.159.254-.21.381-.074a4.831 4.831 0 0 1 .649.81 8.565 8.565 0 0 1 1.159 3.374 10.773 10.773 0 0 1-.885 5.646 15.04 15.04 0 0 1-5.37 6.42 55.611 55.611 0 0 1-12.025 6.258 63.653 63.653 0 0 1-11.977 3.24c-1.712.292-3.442.486-5.182.619-1.193.089-2.387.137-3.586.157z" data-name="Path 914" transform="translate(-325.246 -156.585)" style="mix-blend-mode:multiply;isolation:isolate" opacity="0.5"/>
                    <path id="Path_915" fill="#e17764" d="M364.219 177.18v-.928a3.475 3.475 0 0 1 .449-1.786 10.5 10.5 0 0 1 3.188-3.629.864.864 0 0 1 1.257.047 2.683 2.683 0 0 1 .865 3.4c-.129.279-.316.531-.464.8-.222.407-.432.821-.649 1.232a1.909 1.909 0 0 0 .141 2.175 3.3 3.3 0 0 1 .663 1.946 2.7 2.7 0 0 1-.625 1.824 5.717 5.717 0 0 1-2.611 1.865 15.32 15.32 0 0 1-1.559.458 3.621 3.621 0 0 0-2.884 2.561 6.715 6.715 0 0 1-1.652 2.632 4.456 4.456 0 0 1-3.01 1.321 7.157 7.157 0 0 1-2.081-.132 6.7 6.7 0 0 0-.687-.105 3.861 3.861 0 0 0-3.6 1.132 3.037 3.037 0 0 1-1.519.809 6.578 6.578 0 0 1-2.88.042 2.955 2.955 0 0 1-1.59-.912 4.94 4.94 0 0 1-1.387-4.37 3.656 3.656 0 0 1 1.848-2.559 6.705 6.705 0 0 0 1.226-.871 2.549 2.549 0 0 0 .816-1.741c.024-.464.031-.929.055-1.392a5.988 5.988 0 0 1 1.992-4.185c.4-.373.6-.354.969.071a5.16 5.16 0 0 1 1.092 4.889c-.2.785-.525 1.537-.766 2.314-.216.7-.408 1.41-.582 2.123-.084.352.148.579.517.594a1.391 1.391 0 0 0 1.052-.412 5 5 0 0 0 .659-.8 26.579 26.579 0 0 1 3.36-3.982 6.516 6.516 0 0 1 4.8-1.944h1.161c.232 0 .465.006.7-.014 1.406-.12 1.741-.486 1.737-1.889v-.582z" data-name="Path 915" transform="translate(-323.54 -154.952)" style="mix-blend-mode:multiply;isolation:isolate" opacity="0.5"/>
                    <path id="Path_916" fill="#dbc0aa" d="M359.82 219.876a29.584 29.584 0 0 1-11.82-2.14 30.5 30.5 0 0 1-10.655-6.871 33.386 33.386 0 0 1-4.731-5.708 32.475 32.475 0 0 1-4.767-12.614 30.024 30.024 0 0 1-.372-6.705 27.05 27.05 0 0 1 2.74-10.948 45.351 45.351 0 0 1 4.58-7.116c.455-.576.979-1.1 1.479-1.637.2-.212.419-.145.519.139a5.827 5.827 0 0 1 .246 1.6 16.7 16.7 0 0 1-.612 5.168c-.572 2.25-1.2 4.486-1.781 6.733a45.725 45.725 0 0 0-1.4 7.869 24.216 24.216 0 0 0 2.338 12.607 20.565 20.565 0 0 0 1.788 3.119 16.334 16.334 0 0 0 5.317 4.756 17.516 17.516 0 0 0 6.777 2.283 24.159 24.159 0 0 0 5.56-.036 33.536 33.536 0 0 0 9.088-2.708c2.736-1.179 5.481-2.344 8.254-3.433a34.95 34.95 0 0 1 7.445-2.2 16.094 16.094 0 0 1 2.992-.308 15.58 15.58 0 0 1 5.006.877c.516.2.614.4.371.882a21.243 21.243 0 0 1-3.883 5.743 43.028 43.028 0 0 1-4.765 4.241 32.81 32.81 0 0 1-10.68 5.233 29.083 29.083 0 0 1-9.034 1.174z" data-name="Path 916" transform="translate(-327.417 -156.055)" style="mix-blend-mode:multiply;isolation:isolate" opacity="0.5"/>
                </g>
                <path id="Path_917" d="M327.225 189.634a31.882 31.882 0 0 1 1.273-9.31 11.757 11.757 0 0 1 .582-1.64 39.454 39.454 0 0 1 4.937-8.389c.622-.794 1.319-1.519 1.978-2.278a29.149 29.149 0 0 1 4.251-3.929 29.652 29.652 0 0 1 10.6-5.372 33.394 33.394 0 0 1 5.48-.929 23.616 23.616 0 0 1 5.645.324 19.656 19.656 0 0 1 5.322 1.607 16.891 16.891 0 0 1 3.7 2.147 3.923 3.923 0 0 0 .49.309 18.738 18.738 0 0 1 7.17 7.719c.269.515.507 1.045.772 1.562a.923.923 0 0 0 .7.543 13.99 13.99 0 0 1 5.192 2.226c.2.122.381.267.581.385a8.877 8.877 0 0 1 3.308 3.648 23.071 23.071 0 0 1 2.556 7.908 40.8 40.8 0 0 1 .211 4.968 28.3 28.3 0 0 1-.484 5.192 36.56 36.56 0 0 1-2.315 7.773 30.078 30.078 0 0 1-2.358 4.525 12.491 12.491 0 0 1-1.031 1.4 35.441 35.441 0 0 1-6.643 6.117 33.129 33.129 0 0 1-7.351 3.936 35.356 35.356 0 0 1-7.632 1.949 28.278 28.278 0 0 1-6.022.253 33.943 33.943 0 0 1-10.486-2.368 32.885 32.885 0 0 1-15.292-12.714 32.581 32.581 0 0 1-4.667-12.05c-.087-.494-.16-.993-.227-1.49a23.3 23.3 0 0 1-.24-4.022zm39.111-29.425a2.084 2.084 0 0 0 .263.155c.087.037.144 0 .136-.079 0-.016-.06-.034-.093-.038-.1-.012-.208-.02-.313-.03a2.608 2.608 0 0 0-.475-.319 26.47 26.47 0 0 0-8.183-1.49c-1.03.2-2.087.119-3.118.266a26.957 26.957 0 0 0-7.139 1.983 32.474 32.474 0 0 0-12.245 9.36 39.533 39.533 0 0 0-3.827 5.674 23.184 23.184 0 0 0-2.313 5.309 27.362 27.362 0 0 0-1.06 7.914c.019.581 0 1.163 0 1.743a26.255 26.255 0 0 0 .859 6.544 32.838 32.838 0 0 0 3.412 8.485 32.034 32.034 0 0 0 7.336 8.63 31.243 31.243 0 0 0 11.008 5.853 33.517 33.517 0 0 0 7.64 1.351 30.475 30.475 0 0 0 6.823-.395 33.108 33.108 0 0 0 8.844-2.741 34.013 34.013 0 0 0 8.846-6.122 21.2 21.2 0 0 0 4.1-5.022 34.472 34.472 0 0 0 4.407-15.489c.037-1.042-.015-2.073-.021-3.11a25.866 25.866 0 0 0-1.106-6.621 1.327 1.327 0 0 0-.166-.292 1.13 1.13 0 0 0-.076.274 10.581 10.581 0 0 1-.129 1.618 13.651 13.651 0 0 1-2.7 5.976 11.616 11.616 0 0 1-2.871 2.848c-1.1.723-2.15 1.516-3.277 2.2a55.563 55.563 0 0 1-7.534 3.873 67.381 67.381 0 0 1-7.79 2.691 54.315 54.315 0 0 1-11.066 1.975 47.331 47.331 0 0 1-8.932-.123c-1.5-.187-2.973-.506-4.447-.826a1.685 1.685 0 0 1-1.353-1.261 28.767 28.767 0 0 1-1.326-6.938 31.292 31.292 0 0 1 .134-5.911 36.963 36.963 0 0 1 1.422-6.807 33.424 33.424 0 0 1 10.234-15.891 23.377 23.377 0 0 1 5.76-3.66 16.834 16.834 0 0 1 7.659-1.609c.894.043 1.786.036 2.677.051zm-27.217 31.54a26.582 26.582 0 0 0 .749 7.033c.128.565.311 1.118.493 1.669.1.293.287.357.536.213a4.85 4.85 0 0 0 .48-.324q3.116-2.332 6.229-4.667c.155-.117.3-.241.45-.367a.47.47 0 0 0 .122-.622c-.207-.416-.423-.829-.61-1.253a4.179 4.179 0 0 1 1.567-5.588c.325-.21.658-.412.967-.644a2.03 2.03 0 0 0 .877-1.686c0-.194 0-.388.006-.582a7.746 7.746 0 0 1 1.12-3.977 4.714 4.714 0 0 1 3.514-2.407c.383-.045.759-.145 1.143-.2a2 2 0 0 0 1.524-1.128q.359-.663.754-1.308a6.054 6.054 0 0 1 7.7-2.386 8.291 8.291 0 0 0 1.072.444 1.822 1.822 0 0 0 1.669-.154c.4-.236.834-.4 1.251-.6a2.234 2.234 0 0 1 2.014.107 3.17 3.17 0 0 1 1.626 1.74c.136.335.241.347.522.138q1.772-1.316 3.534-2.645c.4-.308.422-.4.211-.886a20.043 20.043 0 0 0-4.267-6.313A15.175 15.175 0 0 0 361.52 161a18.9 18.9 0 0 0-7.912 2.865 26.066 26.066 0 0 0-7.115 6.433 34.949 34.949 0 0 0-7.374 21.45zM350 202.479a32.794 32.794 0 0 0 6.511-.271 66.379 66.379 0 0 0 8.976-1.8 61.978 61.978 0 0 0 11.257-4.307 50.15 50.15 0 0 0 6.263-3.761 14.664 14.664 0 0 0 4.581-5.006 10.87 10.87 0 0 0 1.478-6.347 7.1 7.1 0 0 0-3.088-5.468c-.794-.55-1.622-1.056-2.457-1.541a17.4 17.4 0 0 0-2.982-1.282 1.485 1.485 0 0 0-1.523.234c-1.284 1-2.6 1.956-3.9 2.926a1.2 1.2 0 0 0-.526.741 6.235 6.235 0 0 1-1.067 2.173 2.421 2.421 0 0 0-.062 2.99 3.059 3.059 0 0 1-.1 3.7 5.5 5.5 0 0 1-2.626 2.018 23.593 23.593 0 0 1-2.314.762 2.731 2.731 0 0 0-2 1.911 7.525 7.525 0 0 1-1.07 2.052 5.426 5.426 0 0 1-5.432 2.394c-.537-.063-1.076-.125-1.607-.23a3.166 3.166 0 0 0-2.875.779 5.093 5.093 0 0 1-5.942.725 1.068 1.068 0 0 0-1.268.105q-2.033 1.545-4.079 3.075c-.9.674-1.8 1.339-2.7 2.014-.118.089-.278.2-.208.372.03.076.181.12.285.148a30.231 30.231 0 0 0 5.487.886c1.118.074 2.245.008 2.988.008zm10.818-8.606a4.577 4.577 0 0 0 3.659-1.856 10.133 10.133 0 0 0 1.252-2.353 3.484 3.484 0 0 1 2.07-2.065 10.548 10.548 0 0 1 1.437-.453 6.843 6.843 0 0 0 2.235-.948c1.345-.908 2.469-2.391 1.138-4.329a2.5 2.5 0 0 1-.154-2.741c.194-.378.4-.753.6-1.127.148-.271.328-.527.458-.805a2.239 2.239 0 0 0-.368-2.585 2.172 2.172 0 0 0-2.561-.462c-.284.123-.557.272-.829.421a2.671 2.671 0 0 1-2.353.136c-.288-.112-.565-.253-.845-.385a5.058 5.058 0 0 0-3.61-.351 5 5 0 0 0-2.87 1.843 19.843 19.843 0 0 0-1.113 1.767 3.109 3.109 0 0 1-2.169 1.6c-.341.067-.69.1-1.03.166a4 4 0 0 0-2.52 1.32 5.414 5.414 0 0 0-1.325 3.4c0 .505-.108 1-.139 1.5a3.24 3.24 0 0 1-1.541 2.468c-.311.228-.654.414-.972.635a3.5 3.5 0 0 0-1.313 1.856 3.93 3.93 0 0 0 .356 2.921 3.315 3.315 0 0 0 2.884 2.176 4.318 4.318 0 0 0 3.647-1.036 4.128 4.128 0 0 1 3.759-1.03c.764.124 1.532.217 2.221.316z" class="cls-8" data-name="Path 917" transform="translate(-327.211 -157.723)"/>
            </g>
        </g>
        <g id="Group_535" data-name="Group 535" opacity="0.303" transform="translate(118.172 252.246)">
            <g id="Group_534" data-name="Group 534" transform="translate(.549 .944)">
                <path id="Path_964" d="M346.456 364.315a60.755 60.755 0 0 0 2.2 17.447 66.03 66.03 0 0 0 3.534 9.63 92.6 92.6 0 0 0 9.129 15.287c2.239 3.126 4.389 6.312 6.334 9.635a22.542 22.542 0 0 1 3.08 9.323c.13 1.317.208 2.626.253 3.946a35.844 35.844 0 0 1-.461 6.1 16.864 16.864 0 0 0 .795 8.151c.184.508.348 1.022.512 1.537.093.294.132.608-.157.812-.221.154-.464.044-.674-.079-.26-.152-.5-.331-.763-.481a14.043 14.043 0 0 0-5.767-1.888 22.277 22.277 0 0 0-4.647-.044 15.855 15.855 0 0 1-7.619-.925 5.735 5.735 0 0 1-3.9-4.571 7.048 7.048 0 0 1 .728-4.026 24.077 24.077 0 0 1 2.18-3.936c.512-.741 1.032-1.481 1.474-2.266 1.054-1.883.662-3.4-1.111-4.684a9.834 9.834 0 0 0-3.472-1.442c-1.572-.4-3.141-.8-4.674-1.336a9.268 9.268 0 0 1-2.089-1.035 7.134 7.134 0 0 1-3.355-5.674 8.255 8.255 0 0 1 1.172-4.823 20.13 20.13 0 0 1 5.189-5.689 21.96 21.96 0 0 0 2.764-2.3c1.851-1.989 1.861-3.19-.228-5.208a11.577 11.577 0 0 0-5.213-2.746 32.159 32.159 0 0 0-4.424-.8 20.807 20.807 0 0 1-5.267-1.135 8.671 8.671 0 0 1-4.237-3.21 6.771 6.771 0 0 1-1.049-4.985 8.611 8.611 0 0 1 1.052-3.055 16.636 16.636 0 0 1 4.056-4.772 65.167 65.167 0 0 1 6.138-4.1 16.1 16.1 0 0 0 2.6-1.922 6 6 0 0 0 1.621-6.743 9.353 9.353 0 0 0-2.484-3.71c-.939-.929-1.92-1.817-2.845-2.761a7.637 7.637 0 0 1-1.763-8.637 18.336 18.336 0 0 1 5.177-7.246c2.344-2.067 4.821-3.968 7.182-6.008a15.006 15.006 0 0 0 3.725-4.358c.321-.615.7-.6 1.045 0a43.644 43.644 0 0 0 5.755 7.589c.929 1.02 1.79 2.106 2.805 3.046.618.569 1.251 1.118 1.873 1.682a20.065 20.065 0 0 1 5.039 6.5 8.521 8.521 0 0 1-.336 8.279 16.075 16.075 0 0 1-2.386 3.151c-.8.817-1.626 1.6-2.413 2.43a7.751 7.751 0 0 0-2.018 3.558 4.8 4.8 0 0 0 .39 3.313 8.657 8.657 0 0 0 2.315 2.943 16.25 16.25 0 0 0 5.652 3.095 18.074 18.074 0 0 1 4.769 2.084 10.16 10.16 0 0 1 2.06 1.739 5.58 5.58 0 0 1 .971 6.214 11.79 11.79 0 0 1-3.749 4.767 6.12 6.12 0 0 0-1.665 2.094 2.422 2.422 0 0 0 1.322 3.671 11.775 11.775 0 0 0 2.582.77 18.775 18.775 0 0 1 3.762 1.221 8.528 8.528 0 0 1 4.441 9.831 12.8 12.8 0 0 1-1.447 3.279c-.755 1.155-1.437 2.359-2.133 3.551a10.288 10.288 0 0 0-1.069 2.862 3 3 0 0 0 1.7 3.575 32.992 32.992 0 0 0 3.2 1.2 8.166 8.166 0 0 1 2.545 1.317 6.381 6.381 0 0 1 2.31 5.434 12.865 12.865 0 0 1-2.805 7.835c-.49.606-.9 1.278-1.4 1.881a19.954 19.954 0 0 0-3.426 6.493c-.113.341-.235.682-.363 1.018-.11.287-.26.589-.623.52a.819.819 0 0 1-.569-.642 65.24 65.24 0 0 1-2.67-13.011 73.885 73.885 0 0 0-1.721-12.1 36.557 36.557 0 0 0-3.742-9.139c-1.918-3.337-4.044-6.537-6.148-9.755-2.464-3.771-5-7.5-7.175-11.449a59.241 59.241 0 0 1-3.585-8.058 67.256 67.256 0 0 1-3.6-15.216c-.275-2.263-.5-4.529-.723-6.8-.209-2.094-.172-4.2-.378-6.283-.184-1.861-.216-3.71-.228-5.569 0-.419.034-.841.044-1.26.01-.481.444-.947.047-1.437a2.5 2.5 0 0 0-.569 1.3 56.884 56.884 0 0 0-2.052 9.671 64.813 64.813 0 0 0-.33 7.533z" class="cls-2" data-name="Path 964" transform="translate(-326.599 -329.116)"/>
                <path id="Path_965" d="M358.525 427.419a42.455 42.455 0 0 1 .5-5.552c.6-5.878-.081-11.471-3.222-16.64-2.028-3.34-4.237-6.55-6.5-9.73a88.781 88.781 0 0 1-8.646-14.313 61.671 61.671 0 0 1-5.115-16.263 57.386 57.386 0 0 1-.871-10.208c.017-.718.022-1.442 0-2.16a56.433 56.433 0 0 1 1.123-11.8 20.269 20.269 0 0 1 1.077-3.8.618.618 0 0 1 .407-.275c.218-.049.3.167.356.329a1.5 1.5 0 0 1 .074.532c-.132 2.886.307 5.745.395 8.622.064 2.092.4 4.174.544 6.263.157 2.219.486 4.411.843 6.6a64.069 64.069 0 0 0 5.27 17.337 74.549 74.549 0 0 0 5.029 8.928c2.477 3.759 4.956 7.518 7.381 11.314a53.3 53.3 0 0 1 4.909 9.2A33.935 33.935 0 0 1 364 413.28c.476 3.261.768 6.547 1.123 9.823a53.44 53.44 0 0 0 2.523 11.4 15.653 15.653 0 0 0 2.084 3.98q3.73 5.3 7.5 10.576a22.982 22.982 0 0 1 2.271 3.882c.341.758.287 1.045-.316 1.6a6.749 6.749 0 0 1-3.5 1.731 4.253 4.253 0 0 1-3.926-1.319 30.167 30.167 0 0 1-4.289-5.768c-.978-1.653-1.849-3.367-2.761-5.056q-.857-1.582-1.7-3.173a51.409 51.409 0 0 1-3.83-8.919 16.174 16.174 0 0 1-.532-2.46c-.107-.714-.088-1.439-.122-2.158z" class="cls-5" data-name="Path 965" transform="translate(-314.904 -318.147)"/>
                <g id="Group_533" data-name="Group 533" transform="translate(5.85 45.524)">
                    <path id="Path_966" d="M334.547 368.084c.319-2.663.976-5.36 3.271-7.356a3.727 3.727 0 0 1 1.371-.829 1.708 1.708 0 0 1 2.28 1.753 2.824 2.824 0 0 1-.292 1.211 10.414 10.414 0 0 0-.829 4.375 3.863 3.863 0 0 0 .633 2.384 4.553 4.553 0 0 1 .77 1.611 2.683 2.683 0 0 1-2 3.448 2.916 2.916 0 0 1-2.354-.647 6.472 6.472 0 0 1-2.1-2.643 7.912 7.912 0 0 1-.75-3.307z" class="cls-20" data-name="Path 966" transform="translate(-320.908 -330.069)"/>
                    <path id="Path_967" d="M331.766 359.126a2.258 2.258 0 0 1-1.336-.466 3.378 3.378 0 0 1-1.408-3.3 9 9 0 0 1 4.787-6.989 8.4 8.4 0 0 1 1.5-.593 1.713 1.713 0 0 1 1.827.432 1.5 1.5 0 0 1 .147 1.842c-.186.375-.387.743-.588 1.111a12.505 12.505 0 0 0-1.6 4.549 4.864 4.864 0 0 1-.763 2 3.039 3.039 0 0 1-2.566 1.414z" class="cls-20" data-name="Path 967" transform="translate(-328.985 -347.681)"/>
                    <path id="Path_968" d="M344.082 373.42a12.279 12.279 0 0 0 .287 3.578 3.4 3.4 0 0 1 .088 1.069 2.757 2.757 0 0 1-2.155 2.568 2.711 2.711 0 0 1-2.874-1.393 5.354 5.354 0 0 1-.728-3.112 11.346 11.346 0 0 1 1.084-4.159 5.538 5.538 0 0 1 1.67-2.092 1.461 1.461 0 0 1 2.494.853 4.532 4.532 0 0 1 .13 1.067c.022.54.004 1.082.004 1.621z" class="cls-20" data-name="Path 968" transform="translate(-314.901 -316.057)"/>
                </g>
                <path id="Path_969" d="M354.681 352.359c.233 1.984-.7 3.607-1.721 5.177a14.242 14.242 0 0 1-2.18 2.631q-1.115 1.052-2.16 2.175a7.6 7.6 0 0 0-1.874 3.237 4.852 4.852 0 0 0 .478 3.813 9.25 9.25 0 0 0 2.276 2.754 16.922 16.922 0 0 0 5.508 2.987 18.256 18.256 0 0 1 4.772 2.074 10.275 10.275 0 0 1 2.185 1.864 5.55 5.55 0 0 1 .907 6.067 11.7 11.7 0 0 1-3.727 4.782 6.079 6.079 0 0 0-1.832 2.406 2.356 2.356 0 0 0 1.231 3.3 11.192 11.192 0 0 0 2.746.851 18.292 18.292 0 0 1 3.926 1.283 8.545 8.545 0 0 1 4.389 9.549 12.54 12.54 0 0 1-1.569 3.615c-.731 1.1-1.371 2.253-2.045 3.389a10.686 10.686 0 0 0-1.038 2.687 3.035 3.035 0 0 0 1.748 3.862 30.158 30.158 0 0 0 3.033 1.13 8.1 8.1 0 0 1 2.558 1.295 6.439 6.439 0 0 1 2.349 5.586 12.96 12.96 0 0 1-2.857 7.813c-.642.795-1.221 1.638-1.839 2.45a12.754 12.754 0 0 0-2.038 3.588 8.3 8.3 0 0 1-1.883 2.82.357.357 0 0 1-.588-.1 43.551 43.551 0 0 1-2.214-9.076c-.422-3.389-.7-6.8-1.131-10.189a33.339 33.339 0 0 0-1.873-8.232 4.535 4.535 0 0 1 .14-3.8 26.12 26.12 0 0 0 1.236-3.379 3.357 3.357 0 0 0-1.354-3.953 6.069 6.069 0 0 0-1.545-.912 16.223 16.223 0 0 1-3.588-2.05 12.933 12.933 0 0 1-5.5-9.527 10.759 10.759 0 0 1 .966-5.265c.294-.723.65-1.425.88-2.168.586-1.9.211-2.925-1.459-3.97a21.849 21.849 0 0 0-3.715-1.827 13.357 13.357 0 0 1-4.647-3.011 10.735 10.735 0 0 1-2.96-6.035 13.6 13.6 0 0 1 .571-6.378c.731-2.413 1.606-4.779 2.406-7.173.4-1.194.785-2.4 1.145-3.6a5.589 5.589 0 0 0-.069-3.19 14.732 14.732 0 0 0-3.026-5.483 14.2 14.2 0 0 1-2.541-4.718 22.182 22.182 0 0 1-.971-8.713 7.217 7.217 0 0 1 1.2-3.352c.28-.449.679-.422.956.091a32.46 32.46 0 0 0 3.982 5.552 58.856 58.856 0 0 0 6.7 7.023 17.865 17.865 0 0 1 4.8 6.236 7.674 7.674 0 0 1 .856 4.014z" class="cls-6" data-name="Path 969" transform="translate(-312.768 -329.107)"/>
            </g>
            <path id="Path_970" d="M361.975 444.742a9.682 9.682 0 0 0-2.685.233.983.983 0 0 1-.358.042c-2.5-.208-5.029-.24-7.344-1.466a6.854 6.854 0 0 1-3.654-5.066 3.558 3.558 0 0 1 .047-1.246 12.963 12.963 0 0 1 1.79-4.684c.728-1.172 1.454-2.349 2.227-3.494 1.589-2.357 1.153-4.416-1.837-5.481a39.155 39.155 0 0 0-4.161-1.158 15.454 15.454 0 0 1-4.181-1.636 7.708 7.708 0 0 1-3.575-9.877 14.982 14.982 0 0 1 4.51-6.182c1.248-1.032 2.506-2.055 3.762-3.082.137-.113.282-.226.41-.353 1.628-1.6 1.6-3.149-.147-4.6a13.464 13.464 0 0 0-6-2.766c-1.525-.314-3.075-.52-4.617-.738a21.913 21.913 0 0 1-4.183-1.05 9.037 9.037 0 0 1-4.257-3.208 6.876 6.876 0 0 1-1.265-5.265 10.742 10.742 0 0 1 1.658-4.333c1.883-2.984 4.63-4.99 7.54-6.832 1.371-.866 2.742-1.734 4.08-2.648a5.9 5.9 0 0 0 2.192-2.57 6.161 6.161 0 0 0-.615-5.684 11.125 11.125 0 0 0-2.2-2.607c-.92-.866-1.817-1.751-2.7-2.648a7.9 7.9 0 0 1-2.2-5.562 9.3 9.3 0 0 1 1.214-4.48 19.725 19.725 0 0 1 3.225-4.532 65.4 65.4 0 0 1 7.2-6.26 46.6 46.6 0 0 0 4.193-3.948 8.51 8.51 0 0 0 1.469-2.462.52.52 0 0 1 .981-.037 29.422 29.422 0 0 0 4.078 5.922 56.872 56.872 0 0 0 6.56 6.91 20.158 20.158 0 0 1 5.395 6.9 9.041 9.041 0 0 1-.829 9.541 27.332 27.332 0 0 1-3.58 4.039 12.738 12.738 0 0 0-1.775 2.03 5.072 5.072 0 0 0 .522 6.739 14.771 14.771 0 0 0 6.172 3.906 32.423 32.423 0 0 1 3.705 1.4 19.048 19.048 0 0 1 2.749 1.709 6.483 6.483 0 0 1 2.109 7.879 10.985 10.985 0 0 1-2.445 3.526c-.611.581-1.219 1.16-1.832 1.736a4.623 4.623 0 0 0-1.373 2.283 1.4 1.4 0 0 0 .738 1.812 7.82 7.82 0 0 0 2.178.841c.871.228 1.758.395 2.619.657a10.541 10.541 0 0 1 4.345 2.447 9.073 9.073 0 0 1 1.484 11.535c-.807 1.407-1.614 2.813-2.464 4.193a9.2 9.2 0 0 0-.961 2.32c-.542 1.9 0 3 1.8 3.713.613.24 1.251.427 1.874.642.454.157.907.316 1.356.488a7.235 7.235 0 0 1 4.549 7.764 14.209 14.209 0 0 1-3.323 8.021 22.4 22.4 0 0 0-4.424 7.773 6.012 6.012 0 0 0-.316 1.763 3.078 3.078 0 0 0 .539 1.866c1 1.422 1.967 2.874 2.965 4.3 1.859 2.658 3.737 5.3 5.6 7.96a14.666 14.666 0 0 1 1.479 2.678 1.463 1.463 0 0 1-.255 1.665 6.759 6.759 0 0 1-4.5 2.4 4.27 4.27 0 0 1-3.428-1.312 25.29 25.29 0 0 1-3.85-4.745 123.45 123.45 0 0 1-5.976-10.893 4.778 4.778 0 0 1-.309-.65c-.817-2.592-2.832-3.943-5.159-4.931a18.286 18.286 0 0 0-6.536-1.147zM350.452 351.3h.042a41.132 41.132 0 0 0 .044 5.218c.27 2.087.289 4.186.52 6.273.343 3.1.672 6.2 1.238 9.269a65.394 65.394 0 0 0 3.568 12.45 74.861 74.861 0 0 0 7.3 13.435c2.717 4.107 5.461 8.2 8.014 12.413a39.418 39.418 0 0 1 5.238 13.34c.674 3.666.927 7.379 1.332 11.072a55.729 55.729 0 0 0 1.577 8.3c.184.694.473 1.359.723 2.033.064.172.184.341.392.284.086-.024.162-.174.2-.28a23.437 23.437 0 0 1 4.48-7.754 14.181 14.181 0 0 0 1.025-1.481 13.354 13.354 0 0 0 2.06-6.984 5.956 5.956 0 0 0-3.9-5.517 17.589 17.589 0 0 1-1.876-.635c-.78-.311-1.56-.633-2.305-1.013a3.054 3.054 0 0 1-1.7-2.771 7.439 7.439 0 0 1 .829-3.646 28.675 28.675 0 0 1 2.155-3.747 12.834 12.834 0 0 0 1.952-4.806 4.549 4.549 0 0 0 .02-1.967c-.772-3.2-2.518-5.554-5.814-6.5-.978-.282-1.974-.512-2.957-.787-.635-.179-1.263-.385-1.883-.6a3.629 3.629 0 0 1-1.467-1.018 2.49 2.49 0 0 1-.62-2.5 5.6 5.6 0 0 1 1.991-3.131 13.03 13.03 0 0 0 3.043-3.291 5.742 5.742 0 0 0 1-5.108 5.6 5.6 0 0 0-1.972-2.727 13.093 13.093 0 0 0-3.747-2.126q-1.015-.372-2.04-.711a17.488 17.488 0 0 1-6.216-3.546 8.281 8.281 0 0 1-2.114-2.886 6.122 6.122 0 0 1 1.081-6.574 33.455 33.455 0 0 1 2.734-2.867 19.213 19.213 0 0 0 2.67-3.389 7.428 7.428 0 0 0 .657-7.062 17.849 17.849 0 0 0-5.047-6.908c-.5-.432-1.008-.853-1.479-1.314q-1.865-1.832-3.58-3.8a53.114 53.114 0 0 1-4.061-5.049c-.4-.6-.839-1.172-1.283-1.739a.366.366 0 0 0-.615.012 24.989 24.989 0 0 1-2.077 2.479c-1.964 1.959-4.225 3.558-6.324 5.351a35.252 35.252 0 0 0-4.794 4.6 14.306 14.306 0 0 0-2.594 4.706 7.15 7.15 0 0 0-.466 2.822 7.9 7.9 0 0 0 2.545 5.213c1.148 1.059 2.241 2.173 3.332 3.291a8.663 8.663 0 0 1 2.04 3.764 6.011 6.011 0 0 1-.785 5.169 9.658 9.658 0 0 1-2.671 2.646c-.839.579-1.707 1.118-2.58 1.65a39.7 39.7 0 0 0-5.444 3.833 11.764 11.764 0 0 0-3.877 5.743c-.922 3.391-.022 6.027 2.847 7.8a14.011 14.011 0 0 0 5.272 1.721c1.126.177 2.268.253 3.389.454a19.173 19.173 0 0 1 4.843 1.361 10.853 10.853 0 0 1 4.193 3.029 3.332 3.332 0 0 1-.079 4.593 14.112 14.112 0 0 1-2.1 1.959 33.775 33.775 0 0 0-4.22 3.651 13.118 13.118 0 0 0-2.925 4.914 6.648 6.648 0 0 0 2.477 7.344 14.739 14.739 0 0 0 4.627 1.93c1.332.365 2.668.719 3.99 1.118a6.533 6.533 0 0 1 2.491 1.412 3.748 3.748 0 0 1 .9 5.02c-.223.422-.5.817-.768 1.219-.623.954-1.273 1.9-1.878 2.864a11.258 11.258 0 0 0-1.5 3.261c-.8 3.3.427 5.667 3.465 6.746a12.673 12.673 0 0 0 4.414.767c1.861-.02 3.725-.059 5.586-.066a16.165 16.165 0 0 1 5.981 1.14c.557.218 1.081.517 1.618.785.167.081.363.152.471-.015a.729.729 0 0 0 .076-.5 7.9 7.9 0 0 0-.27-.858 14.723 14.723 0 0 1-.741-4.963c.047-1.621.162-3.227.321-4.843a38.888 38.888 0 0 0 .024-7.742 20.561 20.561 0 0 0-2.035-7.42 98.662 98.662 0 0 0-7.136-11.253 99.466 99.466 0 0 1-9.929-16.9 65.886 65.886 0 0 1-5.314-24.654 64.879 64.879 0 0 1 .576-9.87 59.46 59.46 0 0 1 1.734-8.274 19.434 19.434 0 0 1 .9-2.352c.118-.282.341-.522.689-.427a.7.7 0 0 1 .466.7c.027.3.029.6.029.9q.004 2.153.002 4.317zm20.848 87.861a12.717 12.717 0 0 0 1.175 6.221c.566 1.388 1.152 2.771 1.807 4.117 1.077 2.214 2.178 4.419 3.335 6.591a56.986 56.986 0 0 0 4.061 6.8 19.475 19.475 0 0 0 2.871 3.453 3.4 3.4 0 0 0 2.994.9 6.694 6.694 0 0 0 3.046-1.486.864.864 0 0 0 .267-1.268 24.025 24.025 0 0 0-1.542-2.641c-2.342-3.342-4.73-6.655-7.092-9.983a21.587 21.587 0 0 1-3.4-6.312c-.493-1.67-.966-3.345-1.358-5.039a40.908 40.908 0 0 1-.758-4.25c-.4-3.271-.733-6.55-1.086-9.828a37.037 37.037 0 0 0-5.414-15.5c-3.073-5.022-6.425-9.86-9.6-14.811a69.25 69.25 0 0 1-6.645-13.35 74.846 74.846 0 0 1-3.911-18.075c-.395-3.632-.549-7.29-.782-10.939-.069-1.077-.034-2.16-.049-3.242 0-.12-.01-.24-.012-.358-.005-.194-.086-.218-.177-.039a2.941 2.941 0 0 0-.159.517 39.329 39.329 0 0 0-1.258 7.438c-.147 1.609-.4 3.207-.417 4.836a78.907 78.907 0 0 0 .772 11.837 57.961 57.961 0 0 0 1.253 6.535 66.8 66.8 0 0 0 5.915 14.846 95.708 95.708 0 0 0 6.471 10.172c2.3 3.232 4.573 6.474 6.613 9.875a22.37 22.37 0 0 1 3.524 12.648c-.047 1.138.01 2.283-.012 3.423a14.773 14.773 0 0 1-.145 2.513 23.689 23.689 0 0 0-.287 4.399z" class="cls-8" data-name="Path 970" transform="translate(-326.376 -328.731)"/>
        </g>
        <g id="Group_526" data-name="Group 526" opacity="0.301" transform="translate(468.039 418.921)">
            <g id="Group_525" data-name="Group 525" transform="translate(.603 .467)">
                <path id="Path_940" d="M303.177 394.084c3.294-.278 6.666.711 10.028 1.681a78.114 78.114 0 0 1 10.01 3.774c.637.283 1.3.5 1.957.743.043.016.137-.036.171-.081a.177.177 0 0 0 0-.171 1.686 1.686 0 0 0-.294-.285q-6.1-4.46-12.206-8.91a81.757 81.757 0 0 0-8.015-4.99c-2.684-1.508-5.394-2.969-8.091-4.454a6.316 6.316 0 0 1-1.066-.662 1.264 1.264 0 0 1 .011-2.136 5.966 5.966 0 0 1 1.665-.862 16.468 16.468 0 0 1 4.73-.886 16.018 16.018 0 0 0 3.552-.236 3.91 3.91 0 0 1 1.241.076c.417.04.83.126 1.247.144a43.53 43.53 0 0 1 26.365 10.1 61.625 61.625 0 0 1 13.346 15.521 54.215 54.215 0 0 1 4.58 9.2 15.054 15.054 0 0 1 1.147 4.878 2.926 2.926 0 0 1-1.3 2.69 11.8 11.8 0 0 1-4.793 1.995 15.638 15.638 0 0 1-4.779-.115 5.731 5.731 0 0 1-3-1.429 16.062 16.062 0 0 1-3.07-3.15 34.938 34.938 0 0 0-4.277-4.6 7.814 7.814 0 0 0-3.682-1.93c-1.889-.509-3.8-.931-5.72-1.34a52.329 52.329 0 0 1-16.252-6.027 51.212 51.212 0 0 1-7.665-5.486 9.539 9.539 0 0 1-1.27-1.384.832.832 0 0 1 .388-1.227 4.49 4.49 0 0 1 2.035-.431c.912-.015 1.823-.01 3.007-.01z" class="cls-2" data-name="Path 940" transform="translate(-295.086 -376.541)"/>
                <path id="Path_941" fill="#8c6eab" d="M365.7 414.117a24.137 24.137 0 0 1-3.864 12.848 55.109 55.109 0 0 1-7.966 9.987c-1.849 1.818-3.66 3.669-5.5 5.491a15.5 15.5 0 0 0-2.228 2.778 7.443 7.443 0 0 0-1.243 5.789 2.177 2.177 0 0 1 .047.823.731.731 0 0 1-.341.478.66.66 0 0 1-.574-.043c-.328-.254-.592-.586-.9-.873-.963-.915-1.9-1.862-2.9-2.731-2.847-2.47-6.379-3.426-9.913-4.313-3.119-.781-6.28-1.4-9.413-2.127a24.346 24.346 0 0 1-5.509-2.013 17.479 17.479 0 0 1-8.327-9.081 23.083 23.083 0 0 1-1.681-6.891 27.888 27.888 0 0 1 6.24-20.089 29.51 29.51 0 0 1 5.4-5.244 22.885 22.885 0 0 1 4.629-2.448 1.5 1.5 0 0 1 2.019.563 25.66 25.66 0 0 0 2.679 2.946 6.319 6.319 0 0 0 3.029 1.8 11.609 11.609 0 0 0 8.381-.622 12.605 12.605 0 0 0 1.411-.9 3.371 3.371 0 0 0 1.423-4.028c-.305-1.077-.635-2.147-.92-3.229-.231-.877.215-1.4 1.115-1.2 4.373.945 8.78 1.791 12.875 3.714 6.44 3.027 10.084 8.217 11.574 15.043a12.22 12.22 0 0 1 .457 3.572z" data-name="Path 941" transform="translate(-282.413 -357.667)"/>
                <path id="Path_942" d="M318.893 418.007a26.855 26.855 0 0 1 4.055.673c1.07.251 1.36.049 1.611-1.055.121-.543.148-1.106.218-1.663a9.715 9.715 0 0 1 7.548-8.311 9.068 9.068 0 0 1 6.992 1.524c.68.444 1.2 1.167 2.091 1.252.289-.711.561-1.429.873-2.129.254-.577.541-1.138.835-1.694a11.57 11.57 0 0 1 7.521-5.939 7.67 7.67 0 0 1 7.932 1.981 19.666 19.666 0 0 1 2.666 3.231 3.294 3.294 0 0 1 .469 2.785 26.091 26.091 0 0 1-3.081 7.326 54.489 54.489 0 0 1-7.9 10.046c-1.891 1.876-3.758 3.772-5.652 5.641a16.3 16.3 0 0 0-2.257 2.758 7.52 7.52 0 0 0-1.322 5.973 2 2 0 0 1 .022.824.719.719 0 0 1-.368.453.682.682 0 0 1-.574-.081 11.79 11.79 0 0 1-.886-.886 31.834 31.834 0 0 0-3.572-3.242 18.1 18.1 0 0 0-4.436-2.34 62.779 62.779 0 0 0-8.506-2.291c-1.979-.442-3.974-.826-5.939-1.324a21.659 21.659 0 0 1-7.461-3.274c-2.071-1.492-2.109-1.519-1.1-3.971a9.566 9.566 0 0 1 5.04-5.118 16.449 16.449 0 0 1 5.181-1.149z" class="cls-23" data-name="Path 942" transform="translate(-278.993 -347.019)"/>
                <path id="Path_943" fill="#b891df" d="M307.461 412.338c.283-4.939 1.658-9.446 5.331-13.01a10.637 10.637 0 0 1 2.39-1.676 1.945 1.945 0 0 1 2.334.274 1.875 1.875 0 0 1 .613 2.257 25.3 25.3 0 0 1-1.113 2.477 18.852 18.852 0 0 0-2.367 9.429 9.756 9.756 0 0 1-.471 2.881 3.3 3.3 0 0 1-3.563 2.589 3.419 3.419 0 0 1-3.137-3.13 15.859 15.859 0 0 1-.017-2.091z" data-name="Path 943" transform="translate(-279.733 -350.66)"/>
                <g id="Group_523" data-name="Group 523" transform="translate(23.292 5.884)">
                    <path id="Path_944" d="M322.67 393.533a2.88 2.88 0 0 1-2.046-.765c-1.025-.844-2.013-1.732-3.043-2.569-2.877-2.338-5.881-4.506-8.96-6.572-.637-.426-1.25-.9-1.869-1.349a5.322 5.322 0 0 1-.66-.518 1.5 1.5 0 0 1-.527-1.685 1.52 1.52 0 0 1 1.535-.891 5.136 5.136 0 0 1 1.45.148 19.848 19.848 0 0 1 2.787.913 39.579 39.579 0 0 1 10.122 6.276 11.674 11.674 0 0 1 2.785 2.814 9.17 9.17 0 0 1 .6 1.1c.7 1.743-.235 3.109-2.174 3.098z" class="cls-5" data-name="Path 944" transform="translate(-305.467 -379.182)"/>
                    <path id="Path_945" d="M314.843 390.193a1.853 1.853 0 0 1 2.022-1.768 1.976 1.976 0 0 1 .588.209 10.022 10.022 0 0 1 3.752 3.808 2.241 2.241 0 0 1 .2 1.618 2.147 2.147 0 0 1-3.139 1.319 4.1 4.1 0 0 1-1.214-1.126 16.224 16.224 0 0 1-1.914-3.215c-.133-.317-.227-.652-.295-.845z" class="cls-5" data-name="Path 945" transform="translate(-293.806 -367.72)"/>
                </g>
                <g id="Group_524" data-name="Group 524" style="mix-blend-mode:multiply;isolation:isolate" opacity="0.5">
                    <path id="Path_946" d="M352.163 406.6a2.865 2.865 0 0 1-1.461 2.83 11.737 11.737 0 0 1-4.622 1.878 15.509 15.509 0 0 1-4.782-.112 5.721 5.721 0 0 1-3-1.425 16.14 16.14 0 0 1-3.072-3.15 34.52 34.52 0 0 0-4.277-4.6 8.171 8.171 0 0 0-3.884-1.992c-1.824-.485-3.673-.886-5.52-1.281a52.211 52.211 0 0 1-16.259-6.029 50.985 50.985 0 0 1-7.665-5.488 10.338 10.338 0 0 1-1.27-1.387.757.757 0 0 1 .056-.974.938.938 0 0 1 .947-.31 1.232 1.232 0 0 1 .547.276c2.152 2.006 4.826 3.054 7.506 4.079a48.181 48.181 0 0 0 10.611 2.457c3.823.538 7.591 1.259 11.031 3.18a22.437 22.437 0 0 1 3.3 2.226c1.4 1.151 2.76 2.37 4.082 3.617a23.672 23.672 0 0 0 6.393 4.705 8.76 8.76 0 0 0 5.76.346 4.594 4.594 0 0 0 3.072-2.376c.164-.31.33-.619.518-.913.3-.458.772-.471.963-.016a13.248 13.248 0 0 1 1.026 4.459z" class="cls-2" data-name="Path 946" transform="translate(-293.699 -366.647)"/>
                    <path id="Path_947" d="M305.9 376.56a2.206 2.206 0 0 1 1.927.933c.3.471.612.938.9 1.42a33.507 33.507 0 0 0 6.426 7.719 20.6 20.6 0 0 0 6.561 3.675c.846.33 1.726.581 2.576.9a16.5 16.5 0 0 1 10.01 10.621 2.719 2.719 0 0 1 .2 1.223c-.2 1.355-1.239 1.717-2.1 1.216-1.575-.911-3.164-1.8-4.707-2.762a121.018 121.018 0 0 1-9.927-7.048 118.824 118.824 0 0 0-18.081-11.421c-1.12-.577-2.212-1.2-3.314-1.815a3.927 3.927 0 0 1-.532-.334c-.994-.774-1.008-1.7.007-2.4a5.419 5.419 0 0 1 1.5-.736A26.964 26.964 0 0 1 300.4 377c1.861-.319 3.786.081 5.5-.44z" class="cls-2" data-name="Path 947" transform="translate(-295.087 -376.56)"/>
                </g>
                <path id="Path_948" fill="#4d5286" d="M353.676 413.587a23.946 23.946 0 0 1-3.821 12.81 54.668 54.668 0 0 1-7.954 10c-1.847 1.818-3.658 3.671-5.5 5.491a15.655 15.655 0 0 0-2.352 2.948 7.346 7.346 0 0 0-1.18 5.6 1.956 1.956 0 0 1 .036 1.03.59.59 0 0 1-.839.337c-.269-.215-.507-.473-.758-.714-1.012-.965-1.988-1.97-3.04-2.892-2.836-2.484-6.384-3.39-9.9-4.353-.81-.222-1.645-.345-2.45-.579-.88-.253-1.129-.691-.886-1.586a15.461 15.461 0 0 1 3.754-6.714 53.494 53.494 0 0 1 6.985-6.343 26.886 26.886 0 0 0 4.416-4.18 16.3 16.3 0 0 0 3.689-7.883c.743-4.1-.215-7.909-1.627-11.675a28.542 28.542 0 0 1-1.631-4.757 12.008 12.008 0 0 1 .779-6.992c.328-.774.655-1.169 1.813-.884a43.241 43.241 0 0 1 8.751 2.9c6.328 3.085 9.862 8.271 11.3 15.022a11.608 11.608 0 0 1 .415 3.414z" data-name="Path 948" transform="translate(-270.389 -357.159)" style="mix-blend-mode:multiply;isolation:isolate" opacity="0.5"/>
            </g>
            <path id="Path_949" d="M306.167 376.361a40.627 40.627 0 0 1 8.749.857 44.758 44.758 0 0 1 20.3 9.552 62 62 0 0 1 15.337 18.983c.622 1.178 1.2 2.374 1.775 3.577a1.658 1.658 0 0 0 1.427 1.023 47.973 47.973 0 0 1 12.909 3.559 21.071 21.071 0 0 1 12.036 14.526 21.427 21.427 0 0 1 .765 4.961 23.318 23.318 0 0 1-.57 4.773c-.826 4.378-3.092 8.071-5.677 11.6a62.491 62.491 0 0 1-6.774 7.732c-1.755 1.712-3.48 3.456-5.2 5.2a8.276 8.276 0 0 0-2.686 7 12.707 12.707 0 0 1-.063 2.511.687.687 0 0 1-1.12.446 5.085 5.085 0 0 1-.619-.565c-.386-.406-.77-.815-1.135-1.239a19.413 19.413 0 0 0-10.871-6.357q-5.018-1.124-10.023-2.311a27.328 27.328 0 0 1-7.449-2.791 18.164 18.164 0 0 1-7.613-8.69 25.135 25.135 0 0 1-1.03-16.847 29.434 29.434 0 0 1 6.328-11.724 23.578 23.578 0 0 1 8.751-6.684c.833-.357.913-.767.278-1.407a11.306 11.306 0 0 0-4.3-2.915 43.634 43.634 0 0 0-5.908-1.45 53.124 53.124 0 0 1-21.444-9.184 36.368 36.368 0 0 1-4.346-3.63c-1.236-1.248-1-2.26.678-2.762a16.856 16.856 0 0 1 7.077-.366 58.588 58.588 0 0 1 14.132 3.882c.26.1.509.233.774.323.117.04.337.058.373 0 .139-.22-.063-.357-.211-.471-.5-.388-1-.761-1.508-1.14a125.941 125.941 0 0 0-12.417-8.609c-2.183-1.259-4.411-2.439-6.617-3.655-1.227-.675-2.459-1.337-3.673-2.033a5.544 5.544 0 0 1-1.176-.871 1.65 1.65 0 0 1 .047-2.585 5.89 5.89 0 0 1 2.8-1.38 28.117 28.117 0 0 1 6.222-.844c.552.003 1.111.005 1.672.005zm12.814 64.03a22.606 22.606 0 0 0 2.632 11.387 16.282 16.282 0 0 0 8.437 7.537 45.6 45.6 0 0 0 6.644 1.93 98.287 98.287 0 0 1 11.19 2.829 18.784 18.784 0 0 1 7.418 4.607c.44.451.893.891 1.366 1.3.164.144.411.137.442-.166a6.821 6.821 0 0 0 .031-1.048 8.151 8.151 0 0 1 1.685-5.3 24.5 24.5 0 0 1 2.349-2.684c2.72-2.823 5.654-5.432 8.176-8.453a52.416 52.416 0 0 0 5.928-8.394 20.439 20.439 0 0 0 2.482-7.97 20.812 20.812 0 0 0-1.638-10.669 19.3 19.3 0 0 0-10.317-10.243 73.054 73.054 0 0 0-11.08-3.209 1.887 1.887 0 0 0-.626-.011.486.486 0 0 0-.469.572 6.333 6.333 0 0 0 .323 1.209 9.863 9.863 0 0 1 .44 3.314 3.138 3.138 0 0 1-1.185 2.56 11.2 11.2 0 0 1-9.2 2.576 8.883 8.883 0 0 1-5.648-2.944 22.615 22.615 0 0 1-2.082-2.356 1.072 1.072 0 0 0-1.445-.435 19.034 19.034 0 0 0-3.377 1.683 25.983 25.983 0 0 0-7.178 6.987 27.2 27.2 0 0 0-5.297 15.391zm-12.933-62.668c-.7 0-1.4-.029-2.1 0a31 31 0 0 0-5.6.8 4.341 4.341 0 0 0-1.883.877.645.645 0 0 0 .016 1.07 6.65 6.65 0 0 0 .88.563c1.656.909 3.305 1.838 4.983 2.706a102.193 102.193 0 0 1 14.883 9.433 127.816 127.816 0 0 0 15.458 10.485c.429.236.844.5 1.259.763a.608.608 0 0 1 .283.877.569.569 0 0 1-.747.186 10.7 10.7 0 0 1-1.144-.518c-2-1.01-3.992-2.044-6-3.034a83.949 83.949 0 0 0-13.86-5.452 32.7 32.7 0 0 0-10.966-1.539 11.891 11.891 0 0 0-2.475.424.3.3 0 0 0-.182.478 3.336 3.336 0 0 0 .543.635 50.427 50.427 0 0 0 12.061 7.939 43.266 43.266 0 0 0 8.933 3.031c2.448.59 4.918 1.088 7.369 1.672A12.526 12.526 0 0 1 334 412.4a15.991 15.991 0 0 0 2.574 2.459 1.073 1.073 0 0 1 .379.491 10.683 10.683 0 0 0 2.776 3.381 6.861 6.861 0 0 0 3.66 1.957 11.274 11.274 0 0 0 8.459-1.562 2.238 2.238 0 0 0 1.185-2.071 11.105 11.105 0 0 0-.305-2.7 36.625 36.625 0 0 0-2.991-7.38 70.48 70.48 0 0 0-7.806-11.681 48.349 48.349 0 0 0-18.117-13.966 45.691 45.691 0 0 0-17.766-3.605z" class="cls-8" data-name="Path 949" transform="translate(-294.818 -376.352)"/>
        </g>
        <g id="grocery" class="cls-27" transform="translate(257.028 389.92)">
            <path id="Path_1322" fill="#35a872" d="M244.943 75.657a9.858 9.858 0 0 0-2.154.24 9.827 9.827 0 0 0-14.965-12.727A13.885 13.885 0 0 0 215.458 56a13.687 13.687 0 0 0-13.142 8.98 9.829 9.829 0 0 0-13.737 12.2 9.829 9.829 0 0 0 5.257 18.131h51.108a9.829 9.829 0 1 0 0-19.657z" data-name="Path 1322" transform="translate(-126.748 -18.103)"/>
            <circle id="Ellipse_168" cx="17.691" cy="17.691" r="17.691" fill="#f7b030" data-name="Ellipse 168" transform="translate(45.464 57.554)"/>
            <circle id="Ellipse_169" cx="17.691" cy="17.691" r="17.691" fill="#b1bd70" data-name="Ellipse 169" transform="translate(76.915 63.451)"/>
            <path id="Path_1323" fill="#e9eef2" d="M79.451 95.588a3.931 3.931 0 0 1-3.931 3.932H51.931A3.931 3.931 0 0 1 48 95.588a15.672 15.672 0 0 1 4.924-11.426 15.69 15.69 0 0 0 4.9-11.406V72h11.799v.757a15.69 15.69 0 0 0 4.9 11.406 15.672 15.672 0 0 1 4.928 11.425z" data-name="Path 1323" transform="translate(-24.159 -30.171)"/>
            <path id="Path_1324" d="M79.451 125.76a3.931 3.931 0 0 1-3.931 3.931H51.931A3.931 3.931 0 0 1 48 125.76a15.663 15.663 0 0 1 4.924-11.426A15.573 15.573 0 0 0 54.949 112H72.5a15.575 15.575 0 0 0 2.025 2.334 15.672 15.672 0 0 1 4.926 11.426z" class="cls-32" data-name="Path 1324" transform="translate(-24.159 -60.343)"/>
            <path id="Path_1325" d="M51.931 280H75.52a3.931 3.931 0 0 1 3.931 3.931v17.691a7.863 7.863 0 0 1-7.863 7.863H55.863A7.863 7.863 0 0 1 48 301.623v-17.692A3.931 3.931 0 0 1 51.931 280z" class="cls-32" data-name="Path 1325" transform="translate(-24.159 -187.063)"/>
            <path id="Path_1326" fill="#2d85cc" d="M75.931 40h11.795a3.931 3.931 0 0 1 3.931 3.931v3.931H72v-3.931A3.931 3.931 0 0 1 75.931 40z" data-name="Path 1326" transform="translate(-42.262 -6.034)"/>
            <rect id="Rectangle_3014" width="31.451" height="11.794" class="cls-32" data-name="Rectangle 3014" rx="5.897" transform="translate(23.841 69.348)"/>
            <rect id="Rectangle_3015" width="31.451" height="11.794" class="cls-32" data-name="Rectangle 3015" rx="5.897" transform="translate(23.841 81.143)"/>
            <path id="Path_1327" d="M81.554 227.931H57.966a1.966 1.966 0 0 1 0-3.931h23.588a1.966 1.966 0 0 1 0 3.931z" class="cls-34" data-name="Path 1327" transform="translate(-30.193 -144.823)"/>
            <path id="Path_1328" d="M81.554 275.931H57.966a1.966 1.966 0 0 1 0-3.931h23.588a1.966 1.966 0 0 1 0 3.931z" class="cls-34" data-name="Path 1328" transform="translate(-30.193 -181.029)"/>
            <path id="Path_1329" fill="#eb423f" d="M124.9 278.9H37.1a5.783 5.783 0 0 1-5.85-4.9L24 216h114.011l-7.25 58a5.783 5.783 0 0 1-5.861 4.9z" data-name="Path 1329" transform="translate(-6.056 -138.789)"/>
            <path id="Rectangle_3016" fill="#d13330" d="M0 0H114.011V11.794H0z" data-name="Rectangle 3016" transform="translate(17.944 77.211)"/>
            <path id="Path_1330" d="M361.951 227.765l23.589 43.246a3.931 3.931 0 1 0 6.9-3.765L368.854 224z" class="cls-37" data-name="Path 1330" transform="translate(-260.968 -144.823)"/>
            <path id="Path_1331" d="M54.972 228.1l-23.589 43.246a3.931 3.931 0 1 1-6.9-3.765l23.589-43.246z" class="cls-37" data-name="Path 1331" transform="translate(-6.056 -145.076)"/>
            <path id="Path_1332" d="M89.966 376A1.966 1.966 0 0 0 88 377.966v11.794a1.966 1.966 0 0 0 3.931 0v-11.794A1.966 1.966 0 0 0 89.966 376z" data-name="Path 1332" transform="translate(-54.33 -259.475)"/>
            <path id="Path_1333" d="M121.966 376a1.966 1.966 0 0 0-1.966 1.966v11.794a1.966 1.966 0 0 0 3.931 0v-11.794a1.966 1.966 0 0 0-1.965-1.966z" data-name="Path 1333" transform="translate(-78.467 -259.475)"/>
            <path id="Path_1334" d="M153.966 296a1.966 1.966 0 0 0-1.966 1.966v11.794a1.966 1.966 0 0 0 3.931 0v-11.794a1.966 1.966 0 0 0-1.965-1.966z" data-name="Path 1334" transform="translate(-102.605 -199.132)"/>
            <path id="Path_1335" d="M153.966 376a1.966 1.966 0 0 0-1.966 1.966v11.794a1.966 1.966 0 0 0 3.931 0v-11.794a1.966 1.966 0 0 0-1.965-1.966z" data-name="Path 1335" transform="translate(-102.605 -259.475)"/>
            <path id="Path_1336" d="M185.966 296a1.966 1.966 0 0 0-1.966 1.966v11.794a1.966 1.966 0 0 0 3.931 0v-11.794a1.966 1.966 0 0 0-1.965-1.966z" data-name="Path 1336" transform="translate(-126.742 -199.132)"/>
            <path id="Path_1337" d="M185.966 376a1.966 1.966 0 0 0-1.966 1.966v11.794a1.966 1.966 0 0 0 3.931 0v-11.794a1.966 1.966 0 0 0-1.965-1.966z" data-name="Path 1337" transform="translate(-126.742 -259.475)"/>
            <path id="Path_1338" d="M313.966 296a1.966 1.966 0 0 0-1.966 1.966v11.794a1.966 1.966 0 0 0 3.931 0v-11.794a1.966 1.966 0 0 0-1.965-1.966z" data-name="Path 1338" transform="translate(-223.291 -199.132)"/>
            <path id="Path_1339" d="M313.966 376a1.966 1.966 0 0 0-1.966 1.966v11.794a1.966 1.966 0 0 0 3.931 0v-11.794a1.966 1.966 0 0 0-1.965-1.966z" data-name="Path 1339" transform="translate(-223.291 -259.475)"/>
            <path id="Path_1340" d="M345.966 296a1.966 1.966 0 0 0-1.966 1.966v11.794a1.966 1.966 0 0 0 3.931 0v-11.794a1.966 1.966 0 0 0-1.965-1.966z" data-name="Path 1340" transform="translate(-247.428 -199.132)"/>
            <path id="Path_1341" d="M345.966 376a1.966 1.966 0 0 0-1.966 1.966v11.794a1.966 1.966 0 0 0 3.931 0v-11.794a1.966 1.966 0 0 0-1.965-1.966z" data-name="Path 1341" transform="translate(-247.428 -259.475)"/>
            <path id="Path_1342" d="M377.966 376a1.966 1.966 0 0 0-1.966 1.966v11.794a1.966 1.966 0 0 0 3.931 0v-11.794a1.966 1.966 0 0 0-1.965-1.966z" data-name="Path 1342" transform="translate(-271.565 -259.475)"/>
            <path id="Path_1343" d="M409.966 376a1.966 1.966 0 0 0-1.966 1.966v11.794a1.966 1.966 0 0 0 3.931 0v-11.794a1.966 1.966 0 0 0-1.965-1.966z" data-name="Path 1343" transform="translate(-295.702 -259.475)"/>
            <path id="Path_1344" d="M249.966 296a1.966 1.966 0 0 0-1.966 1.966v11.794a1.966 1.966 0 0 0 3.931 0v-11.794a1.966 1.966 0 0 0-1.965-1.966z" data-name="Path 1344" transform="translate(-175.016 -199.132)"/>
            <path id="Path_1345" d="M249.966 376a1.966 1.966 0 0 0-1.966 1.966v11.794a1.966 1.966 0 0 0 3.931 0v-11.794a1.966 1.966 0 0 0-1.965-1.966z" data-name="Path 1345" transform="translate(-175.016 -259.475)"/>
            <path id="Path_1346" d="M217.966 296a1.966 1.966 0 0 0-1.966 1.966v11.794a1.966 1.966 0 0 0 3.931 0v-11.794a1.966 1.966 0 0 0-1.965-1.966z" data-name="Path 1346" transform="translate(-150.879 -199.132)"/>
            <path id="Path_1347" d="M217.966 376a1.966 1.966 0 0 0-1.966 1.966v11.794a1.966 1.966 0 0 0 3.931 0v-11.794a1.966 1.966 0 0 0-1.965-1.966z" data-name="Path 1347" transform="translate(-150.879 -259.475)"/>
            <path id="Path_1348" d="M281.966 296a1.966 1.966 0 0 0-1.966 1.966v11.794a1.966 1.966 0 0 0 3.931 0v-11.794a1.966 1.966 0 0 0-1.965-1.966z" data-name="Path 1348" transform="translate(-199.153 -199.132)"/>
            <path id="Path_1349" d="M281.966 376a1.966 1.966 0 0 0-1.966 1.966v11.794a1.966 1.966 0 0 0 3.931 0v-11.794a1.966 1.966 0 0 0-1.965-1.966z" data-name="Path 1349" transform="translate(-199.153 -259.475)"/>
            <path id="Path_1350" d="M129.3 114.326l2.922-23.374a1.966 1.966 0 0 0 1.7-1.946V77.211a1.966 1.966 0 0 0-1.966-1.966h-4.978a11.787 11.787 0 0 0-7.518-19.59 11.791 11.791 0 0 0-17.968-13.579 15.963 15.963 0 0 0-12.782-6.145 15.764 15.764 0 0 0-14.2 8.392 11.792 11.792 0 0 0-15.286 11.265c0 .133 0 .265.009.4a19.7 19.7 0 0 0-3.97 1.253 17.735 17.735 0 0 0-3.544-4.677 13.776 13.776 0 0 1-4.231-8.768H49.4a1.966 1.966 0 0 0 1.966-1.966V37.9a5.9 5.9 0 0 0-5.9-5.9H33.67a5.9 5.9 0 0 0-5.9 5.9v3.931a1.966 1.966 0 0 0 1.966 1.966h1.908a13.775 13.775 0 0 1-4.231 8.768 17.521 17.521 0 0 0-5.54 12.854 5.873 5.873 0 0 0 1.506 3.931 5.873 5.873 0 0 0-1.506 3.931v1.966h-3.929a1.966 1.966 0 0 0-1.966 1.966v11.793a1.966 1.966 0 0 0 1.7 1.946l2.93 23.441-3.911 7.17a5.886 5.886 0 0 0 5.892 8.676l.652 5.217a7.751 7.751 0 0 0 7.807 6.625h87.8a7.751 7.751 0 0 0 7.807-6.624l.662-5.3a5.823 5.823 0 0 0 3.529-.676 5.9 5.9 0 0 0 2.353-8zm.692-35.149v7.863h-15.578l-4.289-7.863zm-1.735 11.794l-2.181 17.446-9.515-17.446zM71.018 47.726a7.772 7.772 0 0 1 3.638.893 1.966 1.966 0 0 0 2.777-1.119 11.659 11.659 0 0 1 11.277-7.638 12.006 12.006 0 0 1 10.627 6.121 1.966 1.966 0 0 0 3.2.4 7.863 7.863 0 0 1 13.7 5.272 7.775 7.775 0 0 1-1.723 4.908 1.966 1.966 0 0 0 1.964 3.147 7.863 7.863 0 1 1 1.722 15.536h-4.834a19.661 19.661 0 0 0-31.1-9.4q-.661.535-1.271 1.124a19.652 19.652 0 0 0-17.84-11.382 7.872 7.872 0 0 1 7.863-7.862zm38.167 27.52H80.028a15.727 15.727 0 0 1 29.158 0zm-52.5-14.335a15.733 15.733 0 0 1 21.445 9.524 19.682 19.682 0 0 0-2.278 4.811H57.258V73.28a5.873 5.873 0 0 0-1.506-3.931 5.873 5.873 0 0 0 1.506-3.931 17.851 17.851 0 0 0-.573-4.507zm47.1 18.266l-3.739 2.039a1.966 1.966 0 0 0-.784 2.667l1.722 3.156H48.965l1.677-3.074a1.966 1.966 0 0 0-.784-2.667l-3.89-2.122zM31.7 37.9a1.968 1.968 0 0 1 1.966-1.966h11.798A1.968 1.968 0 0 1 47.43 37.9v1.966H31.7zm14.308 13.76H33.122a17.763 17.763 0 0 0 2.466-7.863h7.957a17.763 17.763 0 0 0 2.467 7.86zm-16.062 3.928h19.242a13.618 13.618 0 0 1 4.139 9.829 1.968 1.968 0 0 1-1.966 1.966H27.773a1.968 1.968 0 0 1-1.966-1.966 13.618 13.618 0 0 1 4.139-9.829zM25.807 73.28a1.968 1.968 0 0 1 1.966-1.966h23.588a1.968 1.968 0 0 1 1.966 1.966v1.966h-27.52zm-5.9 13.76v-7.863h19.912L35.53 87.04zm13.476 3.931l-9.552 17.512-2.186-17.512zM23.6 125.329a1.968 1.968 0 0 1-1.729 1.025 1.941 1.941 0 0 1-.938-.241 1.968 1.968 0 0 1-.785-2.667L42.8 81.926l3.451 1.883zm99.152 9.64a3.819 3.819 0 0 1-3.907 3.18h-87.8a3.82 3.82 0 0 1-3.907-3.18l-.837-6.694a5.9 5.9 0 0 0 .745-1.063l14.48-26.545v9.962a1.966 1.966 0 1 0 3.931 0V98.834a1.964 1.964 0 0 0-1.857-1.961l3.219-5.9h56.3l3.219 5.9a1.964 1.964 0 0 0-1.907 1.963v11.794a1.966 1.966 0 1 0 3.931 0v-10.046l14.479 26.545a5.9 5.9 0 0 0 .754 1.073zm7.154-10.109a1.966 1.966 0 0 1-3.612.387l-22.648-41.52 3.452-1.883 22.648 41.52a1.954 1.954 0 0 1 .163 1.496z" data-name="Path 1350"/>
        </g>
        <g id="meat" class="cls-27" transform="translate(247.049 220.049)">
            <circle id="Ellipse_191" cx="57" cy="57" r="57" fill="#55c7a6" data-name="Ellipse 191" transform="translate(-.049 -.049)"/>
            <g id="Group_779" data-name="Group 779" transform="translate(1.605 7.349)">
                <g id="Group_772" data-name="Group 772" transform="translate(0 32.851)">
                    <g id="Group_769" data-name="Group 769">
                        <path id="Path_1453" d="M78.011 295.455l.029 10.625-70.825 10.048v-9.666z" class="cls-39" data-name="Path 1453" transform="translate(-7.215 -269.926)"/>
                        <path id="Path_1454" d="M7.215 261.629c0-7.465 6.072-14.019 14.785-16.944a63.16 63.16 0 0 0 23.3-14.207 17.467 17.467 0 0 1 12.052-5.115c11.44 0 20.713 12.272 20.713 27.41s-9.558 24.892-20.713 27.41C25.231 287.432 7.22 272.65 7.22 261.63z" class="cls-39" data-name="Path 1454" transform="translate(-7.215 -215.427)"/>
                        <path id="Path_1455" fill="#e33442" d="M7.215 216.967c0-7.465 6.072-14.019 14.785-16.944a63.159 63.159 0 0 0 23.3-14.207 17.467 17.467 0 0 1 12.047-5.116c11.44 0 20.713 12.272 20.713 27.41S68.5 233 57.347 235.52c-32.121 7.249-50.132-8.306-50.132-18.553z" data-name="Path 1455" transform="translate(-7.215 -180.701)"/>
                        <path id="Path_1456" d="M28.093 231.289a8.853 8.853 0 0 1 2.472-5.822 18.117 18.117 0 0 1 7.843-4.907 69.316 69.316 0 0 0 25.721-15.66 10.993 10.993 0 0 1 7.54-3.317c3.614 0 7.074 2.061 9.742 5.8a26.066 26.066 0 0 1 4.416 15.05c0 5.951-1.721 10.925-5.116 14.784a19.913 19.913 0 0 1-10.485 6.23c-21.789 4.917-33.339-1.9-37.293-5.066-3.821-3.054-4.84-5.894-4.84-7.091m-2.459 0c0 2.129 1.514 5.614 5.763 9.011 4.232 3.383 16.54 10.7 39.369 5.544 8.081-1.824 17.518-9.05 17.518-23.412 0-12.854-7.454-23.312-16.616-23.312a13.4 13.4 0 0 0-9.232 3.991 66.875 66.875 0 0 1-24.811 15.118 20.56 20.56 0 0 0-8.9 5.606 11.258 11.258 0 0 0-3.091 7.453z" class="cls-23" data-name="Path 1456" transform="translate(-21.536 -195.022)"/>
                        <circle id="Ellipse_192" cx="7.365" cy="7.365" r="7.365" class="cls-23" data-name="Ellipse 192" transform="translate(42.197 23.106)"/>
                        <circle id="Ellipse_193" cx="4.942" cy="4.942" r="4.942" class="cls-39" data-name="Ellipse 193" transform="translate(44.619 25.529)"/>
                        <g id="Group_766" data-name="Group 766" transform="translate(26.818 17.781)">
                            <path id="Path_1457" d="M128.995 260.626a9.869 9.869 0 0 1 1.149.472c.363.175.714.367 1.055.573a16.549 16.549 0 0 1 1.948 1.382 17.54 17.54 0 0 1 1.738 1.646 7.686 7.686 0 0 1 1.244 2.108c.164.382.33.754.513 1.11a8.09 8.09 0 0 0 .613 1c.444.639.932 1.246 1.42 1.874.252.308.494.628.747.948.128.159.238.329.358.5s.243.333.348.51a8.784 8.784 0 0 1 .6 1.089 7.287 7.287 0 0 1 .436 1.17 9.527 9.527 0 0 1 .255 1.229 11.924 11.924 0 0 1 .1 1.255c0 .21.007.42 0 .629l-.012.56c-.011.365-.04.73-.043 1.1-.055 1.474-.066 2.982.011 4.493a25.98 25.98 0 0 0 .626 4.49 8.733 8.733 0 0 0 .712 2.154 6.522 6.522 0 0 0 .616.992 3.956 3.956 0 0 0 .873.874l-2.318.82a6.525 6.525 0 0 0 .161-1.289 8.825 8.825 0 0 0-.048-1.186 9.784 9.784 0 0 0-.2-1.134c-.089-.371-.2-.734-.3-1.1-.414-1.467-.876-2.925-1.331-4.4-.237-.737-.447-1.485-.653-2.238-.094-.379-.194-.758-.284-1.14s-.157-.77-.23-1.157c-.04-.193-.069-.388-.093-.585l-.077-.589-.033-.3c-.011-.1-.022-.2-.034-.282-.026-.17-.046-.338-.064-.507a4.413 4.413 0 0 0-.078-.5l-.081-.5-.112-.5c-.034-.167-.064-.334-.1-.5s-.076-.333-.1-.5-.077-.336-.106-.509c-.06-.344-.138-.689-.2-1.043a12.534 12.534 0 0 0-.588-2.113 7.769 7.769 0 0 0-1.084-1.927 5.323 5.323 0 0 0-1.751-1.415c-.339-.187-.683-.362-1.009-.549-.163-.094-.321-.191-.471-.295a4.919 4.919 0 0 1-.444-.318l-1.662-1.384c-.553-.462-1.105-.929-1.652-1.406q-.41-.358-.814-.727c-.262-.246-.547-.5-.774-.748z" class="cls-23" data-name="Path 1457" transform="translate(-127.766 -260.626)"/>
                        </g>
                        <g id="Group_767" data-name="Group 767" transform="translate(16.435 22.922)">
                            <path id="Path_1458" d="M86.072 284.652a6.584 6.584 0 0 0-.439.656c-.138.232-.268.469-.394.709-.25.481-.47.977-.677 1.478a21.954 21.954 0 0 0-.982 3.1c-.127.527-.231 1.059-.321 1.594a7.091 7.091 0 0 0-.1 1.625c.067 1.1.361 2.192.4 3.248a16.616 16.616 0 0 1-.185 3.173 9.038 9.038 0 0 0 .052 3.2 14.685 14.685 0 0 0 .934 3.044 10.945 10.945 0 0 0 1.652 2.683l-2.17 1.155c-.318-1.147-.664-2.237-.937-3.343s-.529-2.2-.72-3.3c-.057-.275-.094-.552-.151-.827s-.125-.549-.185-.824-.138-.549-.215-.825l-.213-.832a9.106 9.106 0 0 1-.278-3.389 18.435 18.435 0 0 1 .926-3.3 10.823 10.823 0 0 0 .37-1.624c.038-.274.09-.545.135-.818s.089-.546.135-.818l.552-3.285.269-1.666.128-.847.127-.885z" class="cls-23" data-name="Path 1458" transform="translate(-81.092 -283.735)"/>
                        </g>
                        <g id="Group_768" data-name="Group 768" transform="translate(49.768 5.254)">
                            <path id="Path_1459" d="M233.769 204.319a41.54 41.54 0 0 1 .79 4.269c.2 1.425.363 2.848.514 4.269s.242 2.848.31 4.292a28.131 28.131 0 0 0 .459 4.312 11.79 11.79 0 0 0 1.559 3.974 9.4 9.4 0 0 0 .624.852q.357.425.73.84l1.513 1.652.743.841q.363.427.711.866.688.883 1.3 1.822t1.142 1.937c.171.336.343.673.495 1.023.076.177.154.349.222.533s.133.355.205.574l-2.222 1.052c-.089-.111-.2-.267-.3-.407s-.2-.291-.3-.438-.2-.3-.3-.446-.2-.3-.293-.45c-.386-.606-.767-1.218-1.131-1.842s-.725-1.255-1.065-1.9-.661-1.306-.985-1.967-.643-1.328-.983-1.983q-.259-.488-.535-.966l-.285-.5-.146-.248-.133-.254c-.731-1.339-1.385-2.691-2.03-4.065s-1.307-2.761-1.855-4.194a22.62 22.62 0 0 1-1.192-4.4 30.448 30.448 0 0 1-.409-4.5c-.008-.753.01-1.507.067-2.262a16.476 16.476 0 0 1 .316-2.278z" class="cls-23" data-name="Path 1459" transform="translate(-230.926 -204.319)"/>
                        </g>
                    </g>
                    <g id="Group_770" data-name="Group 770" transform="translate(29.465 36.462)">
                        <path id="Path_1460" d="M140.606 344.607c.183 1 .264 1.953.359 2.886.048.465.1.922.164 1.363.027.222.075.433.111.645l.074.3.086.4a9.508 9.508 0 0 1 0 3.05 11 11 0 0 1-.805 2.863c-.172-.992-.254-1.953-.341-2.9a24.963 24.963 0 0 0-.325-2.713l-.073-.309-.088-.4a6.8 6.8 0 0 1-.089-.787 8.387 8.387 0 0 1 .055-1.525 9.618 9.618 0 0 1 .3-1.469 7.154 7.154 0 0 1 .548-1.4z" class="cls-23" data-name="Path 1460" transform="translate(-139.662 -344.602)"/>
                    </g>
                    <g id="Group_771" data-name="Group 771" transform="translate(39.444 9.936)">
                        <path id="Path_1461" d="M187.764 225.364l-.939 4.913-.042-.236.832 4.232-2.113-3.76-.042-.236-.939-4.913z" class="cls-23" data-name="Path 1461" transform="translate(-184.52 -225.364)"/>
                    </g>
                </g>
                <g id="Group_778" data-name="Group 778" transform="translate(27.463)">
                    <g id="Group_776" data-name="Group 776">
                        <g id="Group_774" data-name="Group 774" transform="translate(52.422 38.627)">
                            <path id="Path_1462" fill="#a56941" d="M390.03 237.121a1.452 1.452 0 0 1-2.053 0l-3.6-3.6a1.452 1.452 0 0 1 0-2.053 52.575 52.575 0 0 1-17.87-18.22 1.452 1.452 0 0 1 .222-1.766l4.816-4.816 18.817 18.817 1.486 1.486 3.14 3.14a1.452 1.452 0 0 1 0 2.053z" data-name="Path 1462" transform="translate(-366.304 -206.667)"/>
                            <path id="Path_1463" fill="#965028" d="M368.261 222.185a52.575 52.575 0 0 0 17.87 18.22 1.452 1.452 0 0 0 0 2.053l3.6 3.6a1.452 1.452 0 0 0 2.053 0l-1.756 1.756a1.452 1.452 0 0 1-2.053 0l-3.6-3.6a1.452 1.452 0 0 1 0-2.053 52.575 52.575 0 0 1-17.87-18.22 1.452 1.452 0 0 1 .222-1.766l1.756-1.756a1.453 1.453 0 0 0-.222 1.766z" data-name="Path 1463" transform="translate(-366.302 -217.36)"/>
                            <g id="Group_773" data-name="Group 773" transform="translate(7.281 7.497)">
                                <circle id="Ellipse_194" cx="1.099" cy="1.099" r="1.099" class="cls-23" data-name="Ellipse 194"/>
                                <circle id="Ellipse_195" cx="1.099" cy="1.099" r="1.099" class="cls-23" data-name="Ellipse 195" transform="translate(9.27 9.27)"/>
                            </g>
                        </g>
                        <path id="Path_1464" fill="#afe6ff" d="M153.419 34.389a4.284 4.284 0 0 0-6.155-.1L131.79 49.762a3.83 3.83 0 0 0-.393 4.967c8.02 10.95 18.478 19.685 30.984 26.561a3.846 3.846 0 0 0 4.576-.641l5.108-5.108a2.038 2.038 0 0 0 .487-.235 8.757 8.757 0 0 1 11.006 1.122l4.766-4.766zm-4.183 6.1c-1.87-1.87 1.034-4.767 2.9-2.9s-1.036 4.77-2.9 2.903z" data-name="Path 1464" transform="translate(-130.663 -33.033)"/>
                        <g id="Group_775" data-name="Group 775" transform="translate(0 13.514)">
                            <path id="Path_1465" d="M165.6 125.31c-12.506-6.876-22.964-15.611-30.984-26.561a3.83 3.83 0 0 1 .384-4.967L131.79 97a3.83 3.83 0 0 0-.393 4.967c8.02 10.95 18.478 19.685 30.984 26.561a3.846 3.846 0 0 0 4.576-.641l3.214-3.214a3.846 3.846 0 0 1-4.571.637z" class="cls-23" data-name="Path 1465" transform="translate(-130.663 -93.782)"/>
                        </g>
                    </g>
                    <g id="Group_777" data-name="Group 777" transform="translate(5.665 20.709)">
                        <path id="Path_1466" d="M190.937 126.12h-34.811v4.48h39z" class="cls-23" data-name="Path 1466" transform="translate(-156.126 -126.12)"/>
                        <path id="Path_1467" d="M217.776 161.024h-37.005v2.8H220.4z" class="cls-23" data-name="Path 1467" transform="translate(-175.288 -153.259)"/>
                    </g>
                </g>
            </g>
        </g>
    </g>
</svg>
