<svg xmlns="http://www.w3.org/2000/svg" width="70.602" height="65.891" viewBox="0 0 70.602 65.891">
    <defs>
        <style>
            .cls-5{fill:#a3d4f7}.cls-7{fill:#99c7e8}.cls-10{fill:#f74643}
        </style>
    </defs>
    <g id="grocery" transform="translate(-15.971 -32)">
        <path id="Path_1121" fill="#35a872" d="M220.482 67.766a5.9 5.9 0 0 0-1.289.143 5.882 5.882 0 0 0-8.958-7.618 8.311 8.311 0 0 0-7.4-4.292 8.193 8.193 0 0 0-7.866 5.375 5.883 5.883 0 0 0-8.223 7.3 5.883 5.883 0 0 0 3.146 10.853h30.592a5.883 5.883 0 0 0 0-11.766z" data-name="Path 1121" transform="translate(-143.323 -20.47)"/>
        <circle id="Ellipse_118" cx="10.59" cy="10.59" r="10.59" fill="#f7b030" data-name="Ellipse 118" transform="translate(33.625 47.296)"/>
        <circle id="Ellipse_119" cx="10.59" cy="10.59" r="10.59" fill="#b1bd70" data-name="Ellipse 119" transform="translate(52.451 50.826)"/>
        <path id="Path_1122" fill="#e9eef2" d="M66.826 86.119a2.353 2.353 0 0 1-2.353 2.353h-14.12A2.353 2.353 0 0 1 48 86.119a9.381 9.381 0 0 1 2.947-6.839 9.392 9.392 0 0 0 2.936-6.827V72h7.06v.453a9.392 9.392 0 0 0 2.936 6.827 9.381 9.381 0 0 1 2.947 6.839z" data-name="Path 1122" transform="translate(-27.318 -34.117)"/>
        <path id="Path_1123" d="M66.826 120.236a2.353 2.353 0 0 1-2.353 2.353h-14.12A2.353 2.353 0 0 1 48 120.236a9.376 9.376 0 0 1 2.947-6.839 9.323 9.323 0 0 0 1.212-1.4h10.507a9.322 9.322 0 0 0 1.212 1.4 9.381 9.381 0 0 1 2.948 6.839z" class="cls-5" data-name="Path 1123" transform="translate(-27.318 -68.234)"/>
        <path id="Path_1124" d="M50.353 280h14.12a2.353 2.353 0 0 1 2.353 2.353v10.59a4.706 4.706 0 0 1-4.706 4.706h-9.414A4.706 4.706 0 0 1 48 292.943v-10.59A2.353 2.353 0 0 1 50.353 280z" class="cls-5" data-name="Path 1124" transform="translate(-27.318 -211.525)"/>
        <path id="Path_1125" fill="#2d85cc" d="M74.353 40h7.06a2.353 2.353 0 0 1 2.353 2.353v2.353H72v-2.353A2.353 2.353 0 0 1 74.353 40z" data-name="Path 1125" transform="translate(-47.788 -6.823)"/>
        <rect id="Rectangle_3011" width="18.826" height="7.06" class="cls-5" data-name="Rectangle 3011" rx="3.53" transform="translate(20.682 54.356)"/>
        <rect id="Rectangle_3012" width="18.826" height="7.06" class="cls-5" data-name="Rectangle 3012" rx="3.53" transform="translate(20.682 61.415)"/>
        <path id="Path_1126" d="M71.3 226.353H57.177a1.177 1.177 0 0 1 0-2.353H71.3a1.177 1.177 0 1 1 0 2.353z" class="cls-7" data-name="Path 1126" transform="translate(-34.141 -163.761)"/>
        <path id="Path_1127" d="M71.3 274.353H57.177a1.177 1.177 0 0 1 0-2.353H71.3a1.177 1.177 0 1 1 0 2.353z" class="cls-7" data-name="Path 1127" transform="translate(-34.141 -204.701)"/>
        <path id="Path_1128" fill="#eb423f" d="M84.4 253.652H31.845a3.462 3.462 0 0 1-3.506-2.934L24 216h68.244L87.9 250.718a3.462 3.462 0 0 1-3.5 2.934z" data-name="Path 1128" transform="translate(-6.848 -156.938)"/>
        <path id="Rectangle_3013" fill="#d13330" d="M0 0H68.244V7.06H0z" data-name="Rectangle 3013" transform="translate(17.152 59.062)"/>
        <path id="Path_1129" d="M361.951 226.254l14.119 25.886a2.353 2.353 0 1 0 4.132-2.254L366.083 224z" class="cls-10" data-name="Path 1129" transform="translate(-295.094 -163.761)"/>
        <path id="Path_1130" d="M42.539 226.589l-14.12 25.885a2.353 2.353 0 1 1-4.132-2.254l14.119-25.886z" class="cls-10" data-name="Path 1130" transform="translate(-6.848 -164.047)"/>
        <path id="Path_1131" d="M89.177 376A1.177 1.177 0 0 0 88 377.177v7.06a1.177 1.177 0 1 0 2.353 0v-7.06A1.177 1.177 0 0 0 89.177 376z" data-name="Path 1131" transform="translate(-61.435 -293.405)"/>
        <path id="Path_1132" d="M121.177 376a1.177 1.177 0 0 0-1.177 1.177v7.06a1.177 1.177 0 1 0 2.353 0v-7.06a1.177 1.177 0 0 0-1.176-1.177z" data-name="Path 1132" transform="translate(-88.728 -293.405)"/>
        <path id="Path_1133" d="M153.177 296a1.177 1.177 0 0 0-1.177 1.177v7.06a1.177 1.177 0 0 0 2.353 0v-7.06a1.177 1.177 0 0 0-1.176-1.177z" data-name="Path 1133" transform="translate(-116.022 -225.172)"/>
        <path id="Path_1134" d="M153.177 376a1.177 1.177 0 0 0-1.177 1.177v7.06a1.177 1.177 0 1 0 2.353 0v-7.06a1.177 1.177 0 0 0-1.176-1.177z" data-name="Path 1134" transform="translate(-116.022 -293.405)"/>
        <path id="Path_1135" d="M185.177 296a1.177 1.177 0 0 0-1.177 1.177v7.06a1.177 1.177 0 0 0 2.353 0v-7.06a1.177 1.177 0 0 0-1.176-1.177z" data-name="Path 1135" transform="translate(-143.316 -225.172)"/>
        <path id="Path_1136" d="M185.177 376a1.177 1.177 0 0 0-1.177 1.177v7.06a1.177 1.177 0 1 0 2.353 0v-7.06a1.177 1.177 0 0 0-1.176-1.177z" data-name="Path 1136" transform="translate(-143.316 -293.405)"/>
        <path id="Path_1137" d="M313.177 296a1.177 1.177 0 0 0-1.177 1.177v7.06a1.177 1.177 0 0 0 2.353 0v-7.06a1.177 1.177 0 0 0-1.176-1.177z" data-name="Path 1137" transform="translate(-252.49 -225.172)"/>
        <path id="Path_1138" d="M313.177 376a1.177 1.177 0 0 0-1.177 1.177v7.06a1.177 1.177 0 1 0 2.353 0v-7.06a1.177 1.177 0 0 0-1.176-1.177z" data-name="Path 1138" transform="translate(-252.49 -293.405)"/>
        <path id="Path_1139" d="M345.177 296a1.177 1.177 0 0 0-1.177 1.177v7.06a1.177 1.177 0 0 0 2.353 0v-7.06a1.177 1.177 0 0 0-1.176-1.177z" data-name="Path 1139" transform="translate(-279.783 -225.172)"/>
        <path id="Path_1140" d="M345.177 376a1.177 1.177 0 0 0-1.177 1.177v7.06a1.177 1.177 0 1 0 2.353 0v-7.06a1.177 1.177 0 0 0-1.176-1.177z" data-name="Path 1140" transform="translate(-279.783 -293.405)"/>
        <path id="Path_1141" d="M377.177 376a1.177 1.177 0 0 0-1.177 1.177v7.06a1.177 1.177 0 1 0 2.353 0v-7.06a1.177 1.177 0 0 0-1.176-1.177z" data-name="Path 1141" transform="translate(-307.077 -293.405)"/>
        <path id="Path_1142" d="M409.177 376a1.177 1.177 0 0 0-1.177 1.177v7.06a1.177 1.177 0 1 0 2.353 0v-7.06a1.177 1.177 0 0 0-1.176-1.177z" data-name="Path 1142" transform="translate(-334.37 -293.405)"/>
        <path id="Path_1143" d="M249.177 296a1.177 1.177 0 0 0-1.177 1.177v7.06a1.177 1.177 0 0 0 2.353 0v-7.06a1.177 1.177 0 0 0-1.176-1.177z" data-name="Path 1143" transform="translate(-197.903 -225.172)"/>
        <path id="Path_1144" d="M249.177 376a1.177 1.177 0 0 0-1.177 1.177v7.06a1.177 1.177 0 1 0 2.353 0v-7.06a1.177 1.177 0 0 0-1.176-1.177z" data-name="Path 1144" transform="translate(-197.903 -293.405)"/>
        <path id="Path_1145" d="M217.177 296a1.177 1.177 0 0 0-1.177 1.177v7.06a1.177 1.177 0 0 0 2.353 0v-7.06a1.177 1.177 0 0 0-1.176-1.177z" data-name="Path 1145" transform="translate(-170.609 -225.172)"/>
        <path id="Path_1146" d="M217.177 376a1.177 1.177 0 0 0-1.177 1.177v7.06a1.177 1.177 0 1 0 2.353 0v-7.06a1.177 1.177 0 0 0-1.176-1.177z" data-name="Path 1146" transform="translate(-170.609 -293.405)"/>
        <path id="Path_1147" d="M281.177 296a1.177 1.177 0 0 0-1.177 1.177v7.06a1.177 1.177 0 1 0 2.353 0v-7.06a1.177 1.177 0 0 0-1.176-1.177z" data-name="Path 1147" transform="translate(-225.196 -225.172)"/>
        <path id="Path_1148" d="M281.177 376a1.177 1.177 0 0 0-1.177 1.177v7.06a1.177 1.177 0 1 0 2.353 0v-7.06a1.177 1.177 0 0 0-1.176-1.177z" data-name="Path 1148" transform="translate(-225.196 -293.405)"/>
        <path id="Path_1149" d="M83.8 81.278l1.749-13.991a1.177 1.177 0 0 0 1.019-1.165v-7.06a1.177 1.177 0 0 0-1.168-1.176h-2.98a7.055 7.055 0 0 0-4.5-11.726 7.058 7.058 0 0 0-10.755-8.128 9.555 9.555 0 0 0-7.651-3.678 9.436 9.436 0 0 0-8.5 5.023 7.058 7.058 0 0 0-9.149 6.743c0 .079 0 .159.005.238a11.79 11.79 0 0 0-2.376.75 10.616 10.616 0 0 0-2.121-2.8 8.246 8.246 0 0 1-2.533-5.248h1.142a1.177 1.177 0 0 0 1.177-1.177V35.53A3.534 3.534 0 0 0 33.625 32h-7.06a3.534 3.534 0 0 0-3.53 3.53v2.353a1.177 1.177 0 0 0 1.177 1.177h1.142a8.245 8.245 0 0 1-2.533 5.248A10.488 10.488 0 0 0 19.505 52a3.515 3.515 0 0 0 .9 2.353 3.515 3.515 0 0 0-.9 2.353v1.177h-2.353a1.177 1.177 0 0 0-1.177 1.177v7.06a1.177 1.177 0 0 0 1.019 1.165l1.754 14.031-2.341 4.294a3.523 3.523 0 0 0 3.527 5.19l.39 3.122A4.64 4.64 0 0 0 25 97.891h52.551a4.64 4.64 0 0 0 4.673-3.965l.4-3.171a3.486 3.486 0 0 0 2.112-.4 3.53 3.53 0 0 0 1.409-4.789zm.414-21.039v4.706H74.9l-2.567-4.706zM83.181 67.3l-1.306 10.441L76.18 67.3zm-34.26-25.887a4.652 4.652 0 0 1 2.178.534 1.177 1.177 0 0 0 1.662-.669 6.979 6.979 0 0 1 6.75-4.572 7.186 7.186 0 0 1 6.361 3.664 1.177 1.177 0 0 0 1.914.241 4.706 4.706 0 0 1 8.2 3.155 4.654 4.654 0 0 1-1.034 2.934 1.177 1.177 0 0 0 1.176 1.883 4.706 4.706 0 1 1 1.032 9.3h-2.894a11.769 11.769 0 0 0-18.618-5.623q-.4.32-.761.673a11.763 11.763 0 0 0-10.673-6.814 4.712 4.712 0 0 1 4.707-4.706zm22.846 16.473H54.314a9.414 9.414 0 0 1 17.453 0zm-31.425-8.58a9.417 9.417 0 0 1 12.836 5.7 11.781 11.781 0 0 0-1.364 2.879h-11.13v-1.176a3.515 3.515 0 0 0-.9-2.353 3.515 3.515 0 0 0 .9-2.353 10.685 10.685 0 0 0-.343-2.698zm28.19 10.934l-2.239 1.22a1.177 1.177 0 0 0-.469 1.6l1.031 1.889H35.72l1-1.84a1.177 1.177 0 0 0-.469-1.6l-2.329-1.27zM25.388 35.53a1.178 1.178 0 0 1 1.177-1.177h7.06A1.178 1.178 0 0 1 34.8 35.53v1.177h-9.412zm8.564 8.236h-7.715a10.633 10.633 0 0 0 1.476-4.706h4.763a10.633 10.633 0 0 0 1.477 4.706zm-9.617 2.353h11.519A8.151 8.151 0 0 1 38.331 52a1.178 1.178 0 0 1-1.177 1.177H23.035A1.178 1.178 0 0 1 21.859 52a8.151 8.151 0 0 1 2.477-5.881zm-2.478 10.59a1.178 1.178 0 0 1 1.177-1.177h14.121a1.178 1.178 0 0 1 1.177 1.177v1.177H21.859zm-3.53 8.236v-4.706h11.919l-2.567 4.706zM26.4 67.3l-5.722 10.481L19.367 67.3zm-5.861 20.564a1.178 1.178 0 0 1-1.035.614 1.162 1.162 0 0 1-.561-.144 1.178 1.178 0 0 1-.47-1.6l13.556-24.85 2.066 1.127zm59.35 5.77a2.286 2.286 0 0 1-2.339 1.9H25a2.286 2.286 0 0 1-2.339-1.9l-.5-4.007a3.531 3.531 0 0 0 .446-.636L31.272 73.1v5.963a1.177 1.177 0 0 0 2.353 0v-7.06a1.176 1.176 0 0 0-1.115-1.174l1.927-3.529h33.7l1.927 3.532a1.176 1.176 0 0 0-1.141 1.175v7.06a1.177 1.177 0 0 0 2.353 0v-6.015l8.667 15.889a3.529 3.529 0 0 0 .452.642zm4.282-6.051a1.177 1.177 0 0 1-2.162.231L68.453 62.962l2.066-1.127 13.556 24.853a1.17 1.17 0 0 1 .096.895z" data-name="Path 1149"/>
    </g>
</svg>
