<svg xmlns="http://www.w3.org/2000/svg" width="91.536" height="82.375" viewBox="0 0 91.536 82.375">
    <defs>
        <style>
            .cls-2{fill:#aa321e}.cls-4{fill:#fff}
        </style>
    </defs>
    <g id="meat" transform="translate(0 -33.033)">
        <g id="Group_686" data-name="Group 686" transform="translate(1.328 33.033)">
            <g id="Group_679" data-name="Group 679" transform="translate(0 27.189)">
                <g id="Group_676" data-name="Group 676">
                    <path id="Path_1150" d="M65.809 295.455l.024 8.793-58.618 8.317v-8z" class="cls-2" data-name="Path 1150" transform="translate(-7.215 -274.326)"/>
                    <path id="Path_1151" d="M7.215 255.378c0-6.178 5.025-11.6 12.237-14.024a52.273 52.273 0 0 0 19.28-11.754 14.457 14.457 0 0 1 9.974-4.234c9.468 0 17.143 10.156 17.143 22.685s-7.911 20.6-17.143 22.685c-26.584 6-41.491-6.235-41.491-15.355z" class="cls-2" data-name="Path 1151" transform="translate(-7.215 -217.14)"/>
                    <path id="Path_1152" fill="#e33442" d="M7.215 210.716c0-6.178 5.025-11.6 12.237-14.024a52.273 52.273 0 0 0 19.28-11.758 14.457 14.457 0 0 1 9.974-4.234c9.468 0 17.143 10.156 17.143 22.685s-7.911 20.6-17.143 22.685c-26.584 6-41.491-6.875-41.491-15.355z" data-name="Path 1152" transform="translate(-7.215 -180.701)"/>
                    <path id="Path_1153" d="M27.669 225.744a7.327 7.327 0 0 1 2.046-4.819 14.994 14.994 0 0 1 6.491-4.061A57.369 57.369 0 0 0 57.494 203.9a9.1 9.1 0 0 1 6.24-2.745c2.991 0 5.854 1.706 8.062 4.8a21.573 21.573 0 0 1 3.655 12.456 17.922 17.922 0 0 1-4.234 12.236 16.481 16.481 0 0 1-8.677 5.156c-18.034 4.07-27.592-1.577-30.865-4.193-3.162-2.528-4.006-4.878-4.006-5.868m-2.035 0c0 1.762 1.253 4.647 4.77 7.458s13.689 8.853 32.584 4.589c6.688-1.51 14.5-7.49 14.5-19.377 0-10.639-6.169-19.294-13.752-19.294a11.087 11.087 0 0 0-7.641 3.3A55.348 55.348 0 0 1 35.56 214.93a17.016 17.016 0 0 0-7.366 4.64 9.318 9.318 0 0 0-2.56 6.174z" class="cls-4" data-name="Path 1153" transform="translate(-22.243 -195.729)"/>
                    <circle id="Ellipse_121" cx="6.096" cy="6.096" r="6.096" class="cls-4" data-name="Ellipse 121" transform="translate(34.924 19.124)"/>
                    <circle id="Ellipse_122" cx="4.09" cy="4.09" r="4.09" class="cls-2" data-name="Ellipse 122" transform="translate(36.929 21.129)"/>
                    <g id="Group_673" data-name="Group 673" transform="translate(22.196 14.716)">
                        <path id="Path_1154" d="M128.783 260.626a8.17 8.17 0 0 1 .951.391c.3.145.591.3.873.474a13.7 13.7 0 0 1 1.612 1.144 14.515 14.515 0 0 1 1.439 1.365 6.36 6.36 0 0 1 1.03 1.745c.136.316.273.624.424.919a6.7 6.7 0 0 0 .508.831c.368.529.771 1.032 1.176 1.551.209.255.409.52.618.785.106.131.2.273.3.41s.2.275.288.422a7.267 7.267 0 0 1 .493.9 6.028 6.028 0 0 1 .361.968 7.887 7.887 0 0 1 .211 1.017 9.877 9.877 0 0 1 .083 1.039c0 .174.006.347 0 .521l-.01.464c-.009.3-.034.6-.036.91-.045 1.22-.055 2.468.009 3.718a21.5 21.5 0 0 0 .518 3.716 7.228 7.228 0 0 0 .589 1.783 5.4 5.4 0 0 0 .51.821 3.275 3.275 0 0 0 .722.724l-1.918.679a5.4 5.4 0 0 0 .133-1.067 7.3 7.3 0 0 0-.04-.982 8.1 8.1 0 0 0-.162-.938c-.073-.307-.168-.608-.251-.912-.343-1.214-.725-2.421-1.1-3.644-.2-.61-.37-1.229-.541-1.853-.078-.313-.161-.627-.235-.943s-.13-.637-.19-.958c-.034-.16-.057-.321-.077-.484l-.064-.487-.028-.244c-.009-.08-.018-.168-.028-.233-.021-.14-.038-.28-.053-.42a3.651 3.651 0 0 0-.064-.417l-.067-.416-.093-.412c-.028-.138-.053-.276-.087-.414s-.063-.276-.084-.418-.064-.278-.087-.421c-.05-.285-.114-.57-.169-.863a10.373 10.373 0 0 0-.487-1.749 6.429 6.429 0 0 0-.9-1.595 4.4 4.4 0 0 0-1.449-1.171c-.281-.154-.565-.3-.835-.454-.135-.078-.265-.158-.39-.244a4.068 4.068 0 0 1-.367-.263l-1.375-1.145c-.458-.383-.915-.769-1.367-1.164q-.339-.3-.674-.6c-.217-.2-.452-.418-.64-.619z" class="cls-4" data-name="Path 1154" transform="translate(-127.766 -260.626)"/>
                    </g>
                    <g id="Group_674" data-name="Group 674" transform="translate(13.602 18.971)">
                        <path id="Path_1155" d="M85.214 284.494a5.449 5.449 0 0 0-.363.543c-.115.192-.222.388-.326.587-.207.4-.389.808-.56 1.223a18.172 18.172 0 0 0-.812 2.564c-.105.436-.191.877-.266 1.319a5.869 5.869 0 0 0-.082 1.345c.055.91.3 1.814.334 2.688a13.752 13.752 0 0 1-.153 2.626 7.48 7.48 0 0 0 .043 2.651 12.155 12.155 0 0 0 .773 2.519 9.058 9.058 0 0 0 1.367 2.221l-1.8.956c-.263-.949-.55-1.852-.775-2.767s-.438-1.819-.6-2.735c-.047-.228-.078-.457-.125-.685s-.1-.454-.153-.682-.114-.455-.178-.683l-.176-.688a7.537 7.537 0 0 1-.23-2.8 15.259 15.259 0 0 1 .766-2.728 8.957 8.957 0 0 0 .306-1.344c.031-.226.075-.451.112-.677s.073-.451.112-.677l.457-2.719.222-1.379.106-.7.105-.732z" class="cls-4" data-name="Path 1155" transform="translate(-81.092 -283.735)"/>
                    </g>
                    <g id="Group_675" data-name="Group 675" transform="translate(41.19 4.349)">
                        <path id="Path_1156" d="M233.279 204.319a34.378 34.378 0 0 1 .654 3.533c.167 1.179.3 2.357.426 3.533s.2 2.357.256 3.552a23.284 23.284 0 0 0 .38 3.569 9.758 9.758 0 0 0 1.29 3.289 7.783 7.783 0 0 0 .517.7q.3.352.6.7l1.252 1.367.615.7q.3.354.589.717.57.731 1.077 1.508t.945 1.6c.142.278.284.557.409.847.063.146.128.289.184.441s.11.294.17.475l-1.839.871c-.074-.092-.164-.221-.245-.337s-.167-.241-.249-.363-.165-.245-.246-.369-.166-.246-.243-.373c-.319-.5-.634-1.008-.936-1.525s-.6-1.038-.881-1.572-.547-1.081-.815-1.628-.532-1.1-.814-1.641q-.215-.4-.443-.8l-.236-.416-.121-.205-.11-.21c-.605-1.108-1.146-2.227-1.68-3.364s-1.082-2.286-1.536-3.471a18.723 18.723 0 0 1-.987-3.639 25.2 25.2 0 0 1-.339-3.725c-.007-.623.008-1.248.055-1.872a13.643 13.643 0 0 1 .262-1.885z" class="cls-4" data-name="Path 1156" transform="translate(-230.926 -204.319)"/>
                    </g>
                </g>
                <g id="Group_677" data-name="Group 677" transform="translate(24.386 30.178)">
                    <path id="Path_1157" d="M140.443 344.606c.151.826.219 1.617.3 2.388.04.385.082.763.136 1.128.023.184.062.358.091.534l.061.25.071.328a7.87 7.87 0 0 1 0 2.524 9.1 9.1 0 0 1-.667 2.37c-.143-.821-.21-1.617-.282-2.4a20.662 20.662 0 0 0-.269-2.245l-.061-.256-.073-.333a5.632 5.632 0 0 1-.074-.651 6.942 6.942 0 0 1 .046-1.262 7.961 7.961 0 0 1 .246-1.216 5.92 5.92 0 0 1 .453-1.162z" class="cls-4" data-name="Path 1157" transform="translate(-139.662 -344.602)"/>
                </g>
                <g id="Group_678" data-name="Group 678" transform="translate(32.646 8.223)">
                    <path id="Path_1158" d="M187.2 225.364l-.777 4.066-.035-.2.688 3.5-1.748-3.112-.035-.2-.777-4.066z" class="cls-4" data-name="Path 1158" transform="translate(-184.52 -225.364)"/>
                </g>
            </g>
            <g id="Group_685" data-name="Group 685" transform="translate(22.729)">
                <g id="Group_683" data-name="Group 683">
                    <g id="Group_681" data-name="Group 681" transform="translate(43.386 31.97)">
                        <path id="Path_1159" fill="#a56941" d="M385.94 231.872a1.2 1.2 0 0 1-1.7 0l-2.979-2.979a1.2 1.2 0 0 1 0-1.7 43.514 43.514 0 0 1-14.79-15.079 1.2 1.2 0 0 1 .183-1.462l3.986-3.986 15.574 15.574 1.23 1.23 2.6 2.6a1.2 1.2 0 0 1 0 1.7z" data-name="Path 1159" transform="translate(-366.304 -206.667)"/>
                        <path id="Path_1160" fill="#965028" d="M367.924 221.881a43.513 43.513 0 0 0 14.79 15.079 1.2 1.2 0 0 0 0 1.7l2.979 2.979a1.2 1.2 0 0 0 1.7 0l-1.454 1.454a1.2 1.2 0 0 1-1.7 0l-2.979-2.979a1.2 1.2 0 0 1 0-1.7 43.514 43.514 0 0 1-14.79-15.079 1.2 1.2 0 0 1 .183-1.462l1.454-1.454a1.2 1.2 0 0 0-.183 1.462z" data-name="Path 1160" transform="translate(-366.302 -217.887)"/>
                        <g id="Group_680" data-name="Group 680" transform="translate(6.026 6.205)">
                            <circle id="Ellipse_123" cx=".91" cy=".91" r=".91" class="cls-4" data-name="Ellipse 123"/>
                            <circle id="Ellipse_124" cx=".91" cy=".91" r=".91" class="cls-4" data-name="Ellipse 124" transform="translate(7.672 7.672)"/>
                        </g>
                    </g>
                    <path id="Path_1161" fill="#697377" d="M149.5 34.155a3.545 3.545 0 0 0-5.094-.083L131.6 46.878a3.17 3.17 0 0 0-.325 4.111 77.34 77.34 0 0 0 25.644 21.983 3.183 3.183 0 0 0 3.788-.531l4.228-4.228a1.687 1.687 0 0 0 .4-.195 7.248 7.248 0 0 1 9.109.928L178.386 65zm-3.462 5.052a1.7 1.7 0 0 1 2.4-2.4 1.7 1.7 0 0 1-2.403 2.4z" data-name="Path 1161" transform="translate(-130.663 -33.033)"/>
                    <g id="Group_682" data-name="Group 682" transform="translate(0 11.185)">
                        <path id="Path_1162" d="M159.574 119.876a77.34 77.34 0 0 1-25.644-21.983 3.17 3.17 0 0 1 .325-4.111l-2.66 2.66a3.17 3.17 0 0 0-.325 4.111 77.34 77.34 0 0 0 25.644 21.983A3.183 3.183 0 0 0 160.7 122l2.66-2.66a3.183 3.183 0 0 1-3.788.531z" class="cls-4" data-name="Path 1162" transform="translate(-130.663 -93.782)"/>
                    </g>
                </g>
                <g id="Group_684" data-name="Group 684" transform="translate(4.688 17.139)">
                    <path id="Path_1163" d="M184.937 126.12h-28.811v3.706h32.282z" class="cls-4" data-name="Path 1163" transform="translate(-156.126 -126.12)"/>
                    <path id="Path_1164" d="M211.4 161.024h-30.629v2.317h32.8z" class="cls-4" data-name="Path 1164" transform="translate(-176.233 -154.597)"/>
                </g>
            </g>
        </g>
    </g>
</svg>
