<svg xmlns="http://www.w3.org/2000/svg" width="63.213" height="66.019" viewBox="0 0 63.213 66.019">
    <defs>
        <style>
            .cls-1{fill:#fc5d3d}.cls-2{fill:#cf941c}.cls-3{fill:#72c1e8}.cls-6{fill:#13bf6d}.cls-7{fill:#139c6d}.cls-8{fill:#f0c020}
        </style>
    </defs>
    <g id="grocery_1_" data-name="grocery (1)" transform="translate(-9.234 -5.151)">
        <path id="Path_1166" d="M52.181 75.35a3.624 3.624 0 0 1 1.865-2.936 2.486 2.486 0 0 1-.185-3.038 7.428 7.428 0 0 0-6.637-1.165c-5.664 2.241-6.113 7.4-4.414 10.589H55c-1.7-.754-2.819-2.018-2.819-3.45z" class="cls-1" data-name="Path 1166" transform="translate(-24.001 -46.046)"/>
        <path id="Path_1167" d="M149.639 38.3a6.464 6.464 0 0 0-12.71 1.669v13.596h12.929V39.973a6.411 6.411 0 0 0-.219-1.673z" class="cls-2" data-name="Path 1167" transform="translate(-93.712 -20.81)"/>
        <path id="Path_1168" d="M78.455 34.44v5.76a3.065 3.065 0 0 0-3.523-.17 2.535 2.535 0 0 0-1.7-.692c-1.672 0-3.033 1.8-3.1 4.064a4.178 4.178 0 0 0-1.693 1.424A7.428 7.428 0 0 0 61.8 43.66v-9.22z" class="cls-3" data-name="Path 1168" transform="translate(-38.575 -21.494)"/>
        <path id="Path_1169" fill="#f2e1d6" d="M75.314 21.31H64.937L61.8 24.8h16.654z" data-name="Path 1169" transform="translate(-38.575 -11.859)"/>
        <path id="Path_1170" d="M186.473 64.276c-.616.455-1.165.823-1.567 1.063V51.746a6.411 6.411 0 0 0-.219-1.669 5 5 0 0 1 1.429-.468 4.584 4.584 0 0 1 3.194.682 4.331 4.331 0 0 0 .59.695l1.572 1.517a4.566 4.566 0 0 0 .718.567c2.616 4.13-1.79 8.312-5.717 11.206z" class="cls-1" data-name="Path 1170" transform="translate(-128.761 -32.584)"/>
        <path id="Path_1171" fill="#b35034" d="M186.473 52.145v12.292c-.616.455-1.165.823-1.567 1.063V51.908a6.411 6.411 0 0 0-.219-1.669 5 5 0 0 1 1.429-.468 7.933 7.933 0 0 1 .357 2.374z" data-name="Path 1171" transform="translate(-128.761 -32.745)"/>
        <path id="Path_1172" d="M209.1 35.755c-1.9 1.974-4.008 3.01-6.438 1.468a4.565 4.565 0 0 1-.718-.567l-1.572-1.517a4.332 4.332 0 0 1-.59-.695c-1.637-2.388-.654-4.53 1.233-6.488 2.816 2.714 2.669 5.328.9 7.159 1.711-1.775 4.31-2.131 7.188.643z" class="cls-6" data-name="Path 1172" transform="translate(-139.222 -16.734)"/>
        <path id="Path_1173" d="M118.008 57.6v10.748h-4.9c3.534-1.546 3.591-4.707.953-6.386 1.324-1.656.407-3.531-1.51-4.461a4.722 4.722 0 0 0-1.4-3.372 3.065 3.065 0 0 1 3.523.17 5.975 5.975 0 0 1 2.207 3.017 5.767 5.767 0 0 1 1.127.284z" class="cls-7" data-name="Path 1173" transform="translate(-74.791 -35.593)"/>
        <path id="Path_1174" d="M91.514 61.368c1.324-1.656.407-3.531-1.51-4.461a4.722 4.722 0 0 0-1.4-3.372 2.535 2.535 0 0 0-1.7-.692c-1.672 0-3.033 1.8-3.1 4.064a4.178 4.178 0 0 0-1.693 1.424 2.486 2.486 0 0 0 .185 3.038 3.625 3.625 0 0 0-1.87 2.931c0 1.431 1.115 2.7 2.816 3.45h7.318c3.534-1.542 3.592-4.702.954-6.382z" class="cls-6" data-name="Path 1174" transform="translate(-52.246 -35)"/>
        <path id="Path_1175" d="M53.419 108.875h37.818v37.749H53.419z" class="cls-8" data-name="Path 1175" transform="translate(-32.426 -76.12)"/>
        <path id="Path_1176" fill="#f9e5af" d="M94.254 151.9H65.895a.665.665 0 1 1 0-1.331h27.694v-31.12a.665.665 0 1 1 1.331 0v31.785a.665.665 0 0 1-.666.666zm-31.021 0h-1.407a.665.665 0 0 1 0-1.331h1.407a.665.665 0 0 1 0 1.331z" data-name="Path 1176" transform="translate(-38.108 -83.396)"/>
        <path id="Path_1177" d="M73.6 7.651h10.373v3.635H73.6z" class="cls-3" data-name="Path 1177" transform="translate(-47.234 -1.835)"/>
        <g id="Group_687" data-name="Group 687" transform="translate(34.989 37.019)">
            <path id="Path_1178" d="M116.223 216.665c-1.234-.548-2.1-.292-2.387.365s.1 1.468 1.33 2.016a5.482 5.482 0 0 0 3.139-.031 5.481 5.481 0 0 0-2.082-2.349z" class="cls-7" data-name="Path 1178" transform="translate(-111.686 -192.024)"/>
            <path id="Path_1179" d="M107.245 179.741a5.483 5.483 0 0 0-1.233 2.887c.033 1.35.632 2.019 1.351 2s1.285-.715 1.253-2.065a5.482 5.482 0 0 0-1.371-2.822z" class="cls-7" data-name="Path 1179" transform="translate(-106.012 -165.146)"/>
            <path id="Path_1180" d="M137.054 189.915c-1.3.351-1.812 1.092-1.625 1.787s1 1.08 2.3.729a5.483 5.483 0 0 0 2.419-2 5.482 5.482 0 0 0-3.094-.516z" class="cls-7" data-name="Path 1180" transform="translate(-127.573 -172.551)"/>
            <path id="Path_1181" d="M123.427 153.4a5.483 5.483 0 0 0-2-2.419 5.482 5.482 0 0 0-.515 3.1c.351 1.3 1.092 1.812 1.787 1.625s1.079-1.001.728-2.306z" class="cls-7" data-name="Path 1181" transform="translate(-116.885 -144.041)"/>
            <path id="Path_1182" d="M135.857 127.318a5.483 5.483 0 0 0-2-2.419 5.482 5.482 0 0 0-.515 3.1c.351 1.3 1.092 1.812 1.787 1.625s1.079-1.002.728-2.306z" class="cls-7" data-name="Path 1182" transform="translate(-126.007 -124.899)"/>
            <path id="Path_1183" d="M150.042 153.86c-.918.991-.954 1.888-.427 2.377s1.42.384 2.337-.607a5.483 5.483 0 0 0 .985-2.981 5.483 5.483 0 0 0-2.895 1.211z" class="cls-7" data-name="Path 1183" transform="translate(-137.76 -145.265)"/>
        </g>
        <path id="Path_1184" d="M17.864 52.507c-1.141-.377-2.32-.707-2.981-3.556-.609 2.625-1.586 3.1-2.981 3.556 2.276.752 2.619 2 2.981 3.556.624-2.687 1.655-3.117 2.981-3.556z" class="cls-8" data-name="Path 1184" transform="translate(-1.958 -32.144)"/>
        <path id="Path_1185" d="M226.836 11.5c-1.141-.377-2.32-.707-2.981-3.556-.609 2.625-1.586 3.1-2.981 3.556 2.276.752 2.619 2 2.981 3.556.624-2.685 1.655-3.115 2.981-3.556z" class="cls-8" data-name="Path 1185" transform="translate(-155.317 -2.051)"/>
        <path id="Path_1186" d="M227.655 82.335c-1.141-.377-2.32-.707-2.981-3.556-.609 2.625-1.586 3.1-2.981 3.556 2.276.752 2.619 2 2.981 3.556.626-2.691 1.655-3.117 2.981-3.556z" class="cls-8" data-name="Path 1186" transform="translate(-155.918 -54.034)"/>
        <path id="Path_1187" d="M32.291 108.875v37.749l2.811-1.285 2.811 1.285v-37.749z" class="cls-2" data-name="Path 1187" transform="translate(-16.921 -76.12)"/>
        <path id="Path_1188" d="M193.7 142.17a.665.665 0 1 0 .662.665.665.665 0 0 0-.662-.665z" data-name="Path 1188" transform="translate(-134.883 -100.555)"/>
        <path id="Path_1189" d="M85.44 19.483a.666.666 0 0 0-.018-.941c-1.954-1.883-4-2.578-5.829-2.063.52-2.176-.647-4.182-2.263-5.738a.663.663 0 0 0-.941.018c-1.909 1.982-2.6 3.855-2.089 5.681a5.048 5.048 0 0 0-2.864.16 6.729 6.729 0 0 0-1.086-1.883.682.682 0 0 0-.937-.1.665.665 0 0 0-.1.934 5.785 5.785 0 0 1 1.251 3.611v12.929h-11.6v-2.469h3.512a.665.665 0 1 0 0-1.331h-3.507V25.5h3.512a.665.665 0 0 0 0-1.331h-3.512v-2.786h3.512a.665.665 0 0 0 0-1.331h-3.512v-.89a5.821 5.821 0 0 1 5.8-5.8c.146 0 .3.005.439.016a.666.666 0 0 0 .1-1.328c-.178-.013-.36-.019-.54-.019a7.122 7.122 0 0 0-7.129 7.129v1.92a6.624 6.624 0 0 0-2.008-2.709v-5.425a.694.694 0 0 0-.17-.445l-2.97-3.3V5.816a.665.665 0 0 0-.665-.665H41.449a.665.665 0 0 0-.665.665V9.2l-2.97 3.3a.69.69 0 0 0-.17.445v8.782a10.86 10.86 0 0 0-1.519.805 3.981 3.981 0 0 1-.071-2.025.665.665 0 1 0-1.3-.288 5.292 5.292 0 0 0 .254 3.156 8.026 8.026 0 0 0-1.375 1.572.666.666 0 0 0 .186.923.685.685 0 0 0 .923-.186 6.621 6.621 0 0 1 .917-1.09 7.218 7.218 0 0 0 .689.86 2.116 2.116 0 0 1-.441.11.665.665 0 0 0 .184 1.318 3.636 3.636 0 0 0 2.821-2.289.665.665 0 0 0-1.254-.445 2.339 2.339 0 0 1-.263.479 5.732 5.732 0 0 1-.7-.872 9.655 9.655 0 0 1 1.828-.959 6.8 6.8 0 0 1 5.558.749 3.122 3.122 0 0 0 .145 2.66 3.725 3.725 0 0 0-.351 5.884h-9.57a6.956 6.956 0 0 1-.534-1.79.665.665 0 0 0-1.315.208 8.281 8.281 0 0 0 .419 1.582h-2.42a.665.665 0 0 0-.665.665V70.5a.666.666 0 0 0 .942.6l2.535-1.159 2.533 1.168a.686.686 0 0 0 .278.06H73.9a.662.662 0 0 0 .662-.665V44.942a.664.664 0 1 0-1.328 0v24.9H36.745V33.421h36.486v6.2a.665.665 0 1 0 1.331 0v-6.865a.662.662 0 0 0-.662-.665h-.52c2.186-1.616 7.612-5.774 6.425-10.317 2.18.543 4.077-.674 5.635-2.291zm-8.555-7.293c1.682 1.856 2.131 3.941.409 5.728l-.3.306a4.288 4.288 0 0 1-.826-.91c-1.117-1.643-.9-3.243.712-5.124zm-37.91 9.137v-7.716H54.3v4.016a3.633 3.633 0 0 0-2.8.108c-2.308-1.572-5.185.3-5.5 3.761a5.293 5.293 0 0 0-1.186.93 8.043 8.043 0 0 0-5.837-1.1zm14.86 4.627a.666.666 0 0 0 .165.976c2.194 1.4 2.146 3.832-.742 5.16h-2.852v-1.04l2.853-2.722a.665.665 0 0 0-.919-.963l-1.934 1.846V25.2l1.532-1.487a.665.665 0 1 0-.927-.955l-.605.588v-2.982a.665.665 0 0 0-1.331 0v2.982l-.692-.671a.665.665 0 0 0-.927.955l1.619 1.57v4.009L47.1 27.322a.665.665 0 0 0-.918.963l2.9 2.764v1.041h-2.85c-2.776-1.3-3.053-3.647-.736-5.164a.666.666 0 0 0 .156-.971c-1.057-1.337-.229-2.7 1.282-3.45a.666.666 0 0 0 .369-.575c.059-1.885 1.153-3.42 2.438-3.42 1.4 0 2.387 1.694 2.438 3.419a.665.665 0 0 0 .375.579c1.416.686 2.381 2.071 1.281 3.447zm2.709-4.014a.665.665 0 0 0 .528.44 5.594 5.594 0 0 1 .567.117v9.593h-2.02a3.76 3.76 0 0 0-.359-5.89c.929-1.721.112-3.632-1.775-4.71a5.808 5.808 0 0 0-.95-2.714c1.607-.353 3.312 1.141 4.008 3.159zM42.115 6.482h9.046v2.3h-9.046zm-.369 3.635h9.784l1.945 2.164H39.8zm-8.2 58.5a.665.665 0 0 0-.553 0l-1.87.855V33.421h4.292v36.047zm43.371-41.57l-2.557-2.465a.665.665 0 1 0-.924.958l2.6 2.506a29.835 29.835 0 0 1-4.136 3.475V19.162a7.107 7.107 0 0 0-.115-1.277 4.1 4.1 0 0 1 .767-.2 3.9 3.9 0 0 1 2.626.526 22.411 22.411 0 0 0 2.859 2.758c1.063 1.802.702 3.813-1.12 6.078zm1.962-7.12a5.139 5.139 0 0 1-.922-.78l.3-.307c1.6-1.658 3.62-1.58 5.738.2-1.831 1.69-3.426 1.96-5.116.887z" data-name="Path 1189" transform="translate(-15.087)"/>
        <path id="Path_1190" d="M171.348 34.827a.666.666 0 0 0-.274-.9.681.681 0 0 0-.9.274.665.665 0 1 0 1.174.625z" data-name="Path 1190" transform="translate(-118.052 -21.064)"/>
        <path id="Path_1191" d="M40.527 88.914a.664.664 0 1 0 .269-1.3.672.672 0 0 0-.785.516.662.662 0 0 0 .516.785z" data-name="Path 1191" transform="translate(-22.575 -60.506)"/>
        <path id="Path_1192" d="M86.6 203.641a.666.666 0 0 0 .849.407 21.017 21.017 0 0 0 9.4-6.624.665.665 0 0 0-.1-.934.685.685 0 0 0-.937.1 19.7 19.7 0 0 1-8.8 6.2.668.668 0 0 0-.412.851z" data-name="Path 1192" transform="translate(-56.748 -140.315)"/>
        <path id="Path_1193" d="M127.535 188.258a.665.665 0 1 0 .218.915.666.666 0 0 0-.218-.915z" data-name="Path 1193" transform="translate(-86.075 -134.305)"/>
        <path id="Path_1194" d="M113.05 217.818a5.709 5.709 0 0 0 3.582 0 .668.668 0 0 0 .428-.926 5.751 5.751 0 0 0-2.414-2.675c-1.721-.757-2.882-.2-3.268.705-.486 1.112.222 2.258 1.672 2.896zm-.455-2.353c.252-.462 1.032-.242 1.512-.029a3.692 3.692 0 0 1 1.317 1.283 3.63 3.63 0 0 1-1.836-.117c-.488-.218-1.193-.691-.988-1.136z" data-name="Path 1194" transform="translate(-74.849 -153.17)"/>
        <path id="Path_1195" d="M105.5 183.461c.986 0 1.945-.765 1.945-2.746a5.754 5.754 0 0 0-1.541-3.252.666.666 0 0 0-1.006.024 5.919 5.919 0 0 0-1.387 3.327c.036 1.349.657 2.647 1.989 2.647zm-.66-2.72a3.751 3.751 0 0 1 .6-1.7 3.629 3.629 0 0 1 .679 1.711 2.127 2.127 0 0 1-.245 1.163.422.422 0 0 1-.745-.005 2.2 2.2 0 0 1-.285-1.166z" data-name="Path 1195" transform="translate(-69.187 -126.293)"/>
        <path id="Path_1196" d="M136.061 191.24a5.858 5.858 0 0 0 2.8-2.27.664.664 0 0 0-.306-.993 5.693 5.693 0 0 0-3.513-.538c-1.385.374-2.433 1.32-2.094 2.6s1.733 1.574 3.113 1.201zm-.676-2.515a3.626 3.626 0 0 1 1.831.168 3.673 3.673 0 0 1-1.5 1.062c-.491.135-1.346.228-1.488-.258s.653-.838 1.157-.972z" data-name="Path 1196" transform="translate(-90.741 -133.7)"/>
        <path id="Path_1197" d="M119.973 148.6a.666.666 0 0 0-.99.306 5.665 5.665 0 0 0-.54 3.516c.367 1.358 1.312 2.441 2.6 2.094 1.246-.329 1.578-1.713 1.2-3.119a5.727 5.727 0 0 0-2.27-2.797zm.721 4.628c-.474.145-.838-.665-.969-1.155a3.639 3.639 0 0 1 .165-1.831 3.622 3.622 0 0 1 1.064 1.5c.135.497.227 1.347-.26 1.486z" data-name="Path 1197" transform="translate(-80.067 -105.188)"/>
        <path id="Path_1198" d="M134.643 125.315a5.723 5.723 0 0 0-2.262-2.792l-.008-.005a.668.668 0 0 0-.974.263c0 .266-1 1.9-.556 3.558a2.712 2.712 0 0 0 1.717 2.094 19.53 19.53 0 0 1-1.653 9.511.665.665 0 0 0 1.214.543 20.842 20.842 0 0 0 1.76-10.24 2.5 2.5 0 0 0 .762-2.932zm-2.35-1.152a3.646 3.646 0 0 1 1.065 1.5c.133.492.23 1.341-.258 1.488-.509.1-.839-.656-.971-1.155a3.633 3.633 0 0 1 .164-1.834z" data-name="Path 1198" transform="translate(-89.161 -86.049)"/>
        <path id="Path_1199" d="M150.6 154.263a5.745 5.745 0 0 0 1.163-3.412.665.665 0 0 0-.748-.681 5.711 5.711 0 0 0-3.3 1.418c-1.014 1.091-1.323 2.474-.391 3.316.976.919 2.357.348 3.276-.641zm-.977-.9c-.348.378-1.006.9-1.4.572-.363-.364.109-1.06.463-1.437a3.64 3.64 0 0 1 1.639-.833 3.75 3.75 0 0 1-.7 1.693z" data-name="Path 1199" transform="translate(-100.931 -106.426)"/>
        <path id="Path_1200" d="M13.618 46.832a.712.712 0 0 0-1.386 0c-.556 2.4-1.376 2.667-2.511 3.042a.712.712 0 0 0 0 1.351c1.955.646 2.176 1.6 2.511 3.042a.712.712 0 0 0 1.387 0c.556-2.4 1.376-2.667 2.511-3.042a.712.712 0 0 0 0-1.351c-1.084-.359-1.941-.583-2.512-3.042zm-.677 5.117a3.948 3.948 0 0 0-1.3-1.382 3.781 3.781 0 0 0 1.287-1.452 3.884 3.884 0 0 0 1.244 1.442 3.776 3.776 0 0 0-1.231 1.392z" data-name="Path 1200" transform="translate(0 -30.186)"/>
        <path id="Path_1201" d="M225.1 8.87c-1.083-.359-1.94-.584-2.511-3.042a.712.712 0 0 0-1.386 0c-.556 2.4-1.376 2.667-2.511 3.042a.712.712 0 0 0 0 1.351c1.955.646 2.176 1.6 2.511 3.042a.712.712 0 0 0 1.387 0c.556-2.4 1.376-2.667 2.511-3.042a.712.712 0 0 0 0-1.352zm-3.188 2.075a3.948 3.948 0 0 0-1.3-1.382 3.781 3.781 0 0 0 1.288-1.452 3.884 3.884 0 0 0 1.244 1.442 3.774 3.774 0 0 0-1.231 1.392z" data-name="Path 1201" transform="translate(-153.359 -.095)"/>
        <path id="Path_1202" d="M225.921 79.7c-1.083-.359-1.94-.583-2.511-3.042a.712.712 0 0 0-1.386 0c-.556 2.4-1.376 2.667-2.511 3.042a.712.712 0 0 0 0 1.351c1.955.646 2.176 1.6 2.511 3.042a.712.712 0 0 0 1.387 0c.556-2.4 1.376-2.667 2.511-3.042a.712.712 0 0 0-.001-1.351zm-3.188 2.075a3.948 3.948 0 0 0-1.3-1.382 3.781 3.781 0 0 0 1.287-1.452 3.884 3.884 0 0 0 1.244 1.442 3.773 3.773 0 0 0-1.232 1.395z" data-name="Path 1202" transform="translate(-153.96 -52.077)"/>
    </g>
</svg>
