<svg xmlns="http://www.w3.org/2000/svg" width="476.348" height="330.066" viewBox="0 0 476.348 330.066">
    <defs>
        <style>
            .cls-2{fill:#5fa595}.cls-3,.cls-6{fill:#487f72}.cls-18,.cls-4{fill:#efc35d}.cls-5{fill:#f9edaa}.cls-18,.cls-6{opacity:.5;mix-blend-mode:multiply;isolation:isolate}.cls-8{fill:#202449}.cls-11{fill:#ebf097}.cls-15{fill:#7a423e}.cls-16{fill:#f3d387}.cls-19{opacity:.28}.cls-20{fill:#fc5d3d}.cls-21{fill:#cf941c}.cls-22{fill:#72c1e8}.cls-23{fill:#f2e1d6}.cls-25{fill:#13bf6d}.cls-26{fill:#139c6d}.cls-27{fill:#f0c020}.cls-33{fill:#79ff79}.cls-34{fill:#29e088}.cls-35{fill:#fe2544}.cls-36{fill:#f79a7c}.cls-37{fill:#fcad97}.cls-38{fill:#ffccb7}.cls-39{fill:#b55434}.cls-40{fill:#08c165}.cls-41{fill:#db765a}.cls-42{fill:#f4a698}.cls-44{fill:#52efff}.cls-46{fill:#e00e36}.cls-47{fill:#c4002f}
        </style>
    </defs>
    <g id="Group_781" data-name="Group 781" transform="translate(-1338.259 -212.008)">
        <g id="Group_532" data-name="Group 532" opacity="0.32" transform="translate(1399.049 212.008)">
            <g id="Group_530" data-name="Group 530" transform="translate(.599 .563)">
                <g id="Group_527" data-name="Group 527" transform="translate(19.345 .002)">
                    <path id="Path_950" d="M127.2 135.082a39.482 39.482 0 0 0-2.593-6.977 84.54 84.54 0 0 0-4.589-7.709c-.234-.368-.436-.754-.646-1.136a2.564 2.564 0 0 1 .33-2.975 6.611 6.611 0 0 1 5.515-2.63c.312.006.624.018.936.042a5.659 5.659 0 0 1 4.277 2.364 12.891 12.891 0 0 1 1.544 2.771 34.354 34.354 0 0 1 2.06 7.94c.244 1.478.494 2.955.69 4.439a9.01 9.01 0 0 0 .846 2.663 2.117 2.117 0 0 0 2.578 1.348 12.582 12.582 0 0 0 1.614-.452 9.73 9.73 0 0 1 4.243-.446c2.663.4 3.739 2.286 2.7 4.749-.316.748-.72 1.458-1.02 2.21-.522 1.308-.35 1.926.794 2.721a11.391 11.391 0 0 0 1.8.99 4.555 4.555 0 0 1 1.664 6.7 7.942 7.942 0 0 1-2.678 2.55 3.41 3.41 0 0 1-3.065.158c-.57-.254-1.126-.546-1.706-.77a4.09 4.09 0 0 0-4.4.568 30.265 30.265 0 0 1-3.105 2.4 13.547 13.547 0 0 1-10.17 2.126 7.371 7.371 0 0 1-4.289-2.472 2.988 2.988 0 0 1-.63-2.965 12.812 12.812 0 0 1 1.018-2.2c1.178-2.29 1.132-2.494-.872-4.005-.3-.226-.612-.436-.888-.688a5.276 5.276 0 0 1-1.756-4.177 4.244 4.244 0 0 1 1.75-3.177 7.737 7.737 0 0 1 4.435-1.808 6.216 6.216 0 0 1 2.887.646c.566.23.736.082.858-.548a6.356 6.356 0 0 0-.132-2.25z" class="cls-2" data-name="Path 950" transform="translate(-117.405 -113.654)"/>
                </g>
                <g id="Group_528" data-name="Group 528" transform="translate(20.949 6.032)">
                    <path id="Path_951" d="M129.342 129.13a2.84 2.84 0 0 1-1.022 2.45 1.714 1.714 0 0 1-2.214-.248 4.241 4.241 0 0 1-1.048-1.536q-2.16-5.375-4.277-10.764a3.592 3.592 0 0 1-.25-.892 1.447 1.447 0 0 1 .788-1.38 1.206 1.206 0 0 1 1.226.222 5.178 5.178 0 0 1 1.182 1.182 32.384 32.384 0 0 1 3.727 6.249 18.5 18.5 0 0 1 1.676 4.149 3.854 3.854 0 0 0 .212.568z" class="cls-3" data-name="Path 951" transform="translate(-115.891 -116.67)"/>
                    <path id="Path_952" d="M127.139 133.02a6.859 6.859 0 0 1-.462 3.667 3.077 3.077 0 0 1-2.468 2.028 2.92 2.92 0 0 1-3.357-3.391 5.41 5.41 0 0 1 2.621-3.883 2.26 2.26 0 0 1 3.666 1.579z" class="cls-3" data-name="Path 952" transform="translate(-115.6 -102.376)"/>
                    <path id="Path_953" d="M134.653 132.359a2.5 2.5 0 0 1-2.769 3 4.449 4.449 0 0 1-3.407-2.3 2.189 2.189 0 0 1 .73-3.071 2.377 2.377 0 0 1 1.2-.448 4.452 4.452 0 0 1 3.531 1.322 2.374 2.374 0 0 1 .715 1.497z" class="cls-3" data-name="Path 953" transform="translate(-108.291 -103.808)"/>
                    <path id="Path_954" d="M124.727 129.51a2.642 2.642 0 0 1-3.073 3.079 4.963 4.963 0 0 1-2.973-2.084 2.13 2.13 0 0 1 1.516-3.479 3.8 3.8 0 0 1 2.845.552c.777.522 1.549 1.052 1.685 1.932z" class="cls-3" data-name="Path 954" transform="translate(-118.208 -106.386)"/>
                    <path id="Path_955" d="M131.144 129.627a3.3 3.3 0 0 1-1.348.01 2.122 2.122 0 0 1-1.718-1.526 2.007 2.007 0 0 1 .682-2.012 3.394 3.394 0 0 1 2.262-1.156 2.187 2.187 0 0 1 2.19 1.118 2.036 2.036 0 0 1-.178 2.28 2.6 2.6 0 0 1-1.89 1.286z" class="cls-3" data-name="Path 955" transform="translate(-108.405 -108.403)"/>
                </g>
                <path id="Path_956" d="M179.411 152.274c.134.85.2 1.408.31 1.96a47.047 47.047 0 0 1 .436 12.674 57.641 57.641 0 0 1-2.729 14.113 25.5 25.5 0 0 1-3.8 7.269 11.932 11.932 0 0 1-7.972 4.771 8.953 8.953 0 0 1-4.255-.076.779.779 0 0 0-.96.354c-.366.506-.726 1.016-1.11 1.508a19.5 19.5 0 0 1-10.57 7 19.552 19.552 0 0 1-1.97.578 19.131 19.131 0 0 1-9.964-.586 3.347 3.347 0 0 1-.352-.13c-.5-.258-.992-.734-1.484-.726-.462.008-.884.62-1.382.792a9.286 9.286 0 0 1-5.339.332 16.894 16.894 0 0 1-7.707-4.427 28.619 28.619 0 0 1-4.733-6.247 65.61 65.61 0 0 1-5.925-14.311 52.321 52.321 0 0 1-2.01-11.41 49.854 49.854 0 0 1 2.074-19.044 36.45 36.45 0 0 1 3.031-7.431c1.588-2.749 3.617-4.915 6.749-5.841a.863.863 0 0 0 .678-.768c.97-5.249 4.367-8.252 9.264-9.708a6.48 6.48 0 0 1 5.071.662 1.923 1.923 0 0 1 .868.942 19.592 19.592 0 0 1 1.608 6.315c.056.824-.4 1.174-1.174.876a6.392 6.392 0 0 0-3.275-.564 7.938 7.938 0 0 0-4.831 2.635 3.447 3.447 0 0 0-.764 2.625 5.372 5.372 0 0 0 2.3 4.109 6.976 6.976 0 0 1 1.77 1.864 1.193 1.193 0 0 1 .1 1.228c-.228.512-.506 1-.74 1.512-.262.566-.48 1.152-.752 1.712a2.717 2.717 0 0 0 .76 3.369 8.2 8.2 0 0 0 4.991 2.332 12.875 12.875 0 0 0 8.084-1.758 12.255 12.255 0 0 0 2.466-1.69c.4-.384.908-.664 1.332-1.03a4.667 4.667 0 0 1 5.1-.64 13.249 13.249 0 0 1 1.364.618 2.89 2.89 0 0 0 2.184.184 6.146 6.146 0 0 0 4.133-6.195 3.822 3.822 0 0 0-1.876-2.861c-.59-.348-1.214-.638-1.816-.968-1.732-.954-1.776-2.332-1.05-3.8a18.387 18.387 0 0 1 1.38-1.76c.216-.332.4-.618.038-.986a2.1 2.1 0 0 1-.414-1.224 2.4 2.4 0 0 0-1.638-1.882 5.433 5.433 0 0 0-2.745-.426 13.076 13.076 0 0 0-2.745.562 9.409 9.409 0 0 1-1.988.49 2.128 2.128 0 0 1-2.274-1.3 12.259 12.259 0 0 1-.544-1.394 2.12 2.12 0 0 1 .44-2.266c2.923-3.191 6.429-4.913 10.844-4.117a7.75 7.75 0 0 1 5.455 3.9 9.9 9.9 0 0 1 1.168 2.743c.244 1.032.288 1.062 1.426.95a6.877 6.877 0 0 1 4.165.786 14.129 14.129 0 0 1 3.539 2.737 19.629 19.629 0 0 1 3.111 4.875 59.415 59.415 0 0 1 3.123 8.606 66.82 66.82 0 0 1 1.526 7.583z" class="cls-4" data-name="Path 956" transform="translate(-107.731 -107.414)"/>
                <path id="Path_957" d="M118.359 156.9a65.564 65.564 0 0 1-.61-13.6 13.121 13.121 0 0 1 .594-3.115 3.71 3.71 0 0 1 .816-1.456 1.452 1.452 0 0 1 2.162-.084 2.93 2.93 0 0 1 .954 1.782 52.557 52.557 0 0 1 .818 6.295 15.105 15.105 0 0 0 .618 4.243c.582 1.862.77 3.781 1.188 5.665s.942 3.737 1.468 5.593c.458 1.616.882 3.243 1.29 4.873a4.479 4.479 0 0 1-.178 2.757 2.407 2.407 0 0 1-3.8 1.154 5.105 5.105 0 0 1-1.832-2.308 33.471 33.471 0 0 1-2.092-5.991c-.509-2.248-1.34-4.426-1.396-5.808z" class="cls-5" data-name="Path 957" transform="translate(-97.851 -89.119)"/>
                <path id="Path_958" d="M145.848 137a2.833 2.833 0 0 1-.266 2c-.356.73-.722 1.454-1.03 2.2-.568 1.388-.384 2.026.85 2.857.566.382 1.206.652 1.8.99a4.4 4.4 0 0 1 1.7 6.4 7.083 7.083 0 0 1-2.57 2.66 3.534 3.534 0 0 1-3.4.242c-.566-.262-1.124-.552-1.708-.766a4.011 4.011 0 0 0-4.227.564c-.48.4-.994.758-1.458 1.172a14.713 14.713 0 0 1-8.462 3.611 9.641 9.641 0 0 1-6.113-1.29 6.034 6.034 0 0 1-1.878-1.788 2.108 2.108 0 0 1 .25-3.029 5.465 5.465 0 0 1 1.354-.982 11.727 11.727 0 0 1 3.873-1.318c1.236-.162 2.464-.4 3.689-.626 2.849-.532 4.365-2.468 5.213-5.053a3.6 3.6 0 0 0 .032-1.3 14.715 14.715 0 0 0-2.392-6.819 88.059 88.059 0 0 1-6.043-11.81 70.925 70.925 0 0 1-3-8.646c-.608-2.214-.15-2.739 2.1-2.615a15.122 15.122 0 0 1 1.672.17 4.922 4.922 0 0 1 2.753 1.468 13.538 13.538 0 0 1 2.955 5.561 66.036 66.036 0 0 1 1.972 10.084 10.575 10.575 0 0 0 .856 2.853 2.163 2.163 0 0 0 2.719 1.4 11.515 11.515 0 0 0 1.432-.41 9.375 9.375 0 0 1 4.053-.492 7.442 7.442 0 0 1 1.274.272 2.6 2.6 0 0 1 2 2.44z" class="cls-6" data-name="Path 958" transform="translate(-96.898 -113.654)"/>
                <g id="Group_529" data-name="Group 529" transform="translate(5.659 20.263)" style="mix-blend-mode:multiply;isolation:isolate">
                    <path id="Path_959" d="M149.911 150.557a61.514 61.514 0 0 1 .192 18.053 27.463 27.463 0 0 1-3.931 10.816 20.833 20.833 0 0 1-7.641 7.269 26.4 26.4 0 0 1-3.085 1.334 20.837 20.837 0 0 1-9.356 1.254 12.045 12.045 0 0 1-3.105-.646c-.292-.106-.678-.21-.656-.554.02-.316.394-.474.684-.57a22.035 22.035 0 0 0 4.355-2.134 16.7 16.7 0 0 0 6.693-7.82 23.292 23.292 0 0 0 1.864-8.906 45.419 45.419 0 0 0-.554-9.124q-.975-5.816-1.828-11.648a28 28 0 0 1-.252-5.957 16.137 16.137 0 0 1 2.318-7.043 6.121 6.121 0 0 1 .552-.754.962.962 0 0 1 1.158-.366 13.723 13.723 0 0 1 1.732.7 3.456 3.456 0 0 0 3.863-.326 9.83 9.83 0 0 1 1.1-.7.618.618 0 0 1 .922.336c.62 1.5 1.306 2.971 1.808 4.507a67.448 67.448 0 0 1 2.14 7.351c.335 1.637.743 3.271 1.027 4.928z" class="cls-4" data-name="Path 959" transform="translate(-98.799 -114.238)"/>
                    <path id="Path_960" d="M151.782 148.658c.1.616.176 1.236.292 1.85a46.515 46.515 0 0 1 .422 12.3 57.8 57.8 0 0 1-2.733 14.3 26.576 26.576 0 0 1-3.673 7.123 12.644 12.644 0 0 1-9.936 5.179.662.662 0 0 1-.666-.244.554.554 0 0 1 .126-.676c.386-.488.782-.97 1.18-1.45.28-.334.588-.646.852-.992a33.238 33.238 0 0 0 5.789-11.66 46.31 46.31 0 0 0 1.3-12.058 37.261 37.261 0 0 0-4.017-16.383 60.234 60.234 0 0 1-4.077-9.636 21.563 21.563 0 0 1-.632-10.534 5.262 5.262 0 0 1 .318-1.074c.342-.824.664-.988 1.612-.9a6.243 6.243 0 0 1 2.657.836 14.544 14.544 0 0 1 5.053 4.9 40.675 40.675 0 0 1 3.639 8.188 52.893 52.893 0 0 1 2.494 10.931z" class="cls-4" data-name="Path 960" transform="translate(-85.717 -123.787)"/>
                    <path id="Path_961" d="M128.589 193.544a7.252 7.252 0 0 1-3.047-.182 17.279 17.279 0 0 1-8.514-5.167 2.94 2.94 0 0 1-.8-2 36.582 36.582 0 0 0-1.16-6.991c-.826-3.135-1.78-6.227-2.711-9.328-.34-1.132-.628-2.282-.91-3.429a31.309 31.309 0 0 1-.532-12.072 62.806 62.806 0 0 1 2-9.89 45.5 45.5 0 0 1 3.689-8.37 23.358 23.358 0 0 1 4.9-6.083 6.707 6.707 0 0 1 1.874-1.216c.642-.27.982-.226 1.24.35a8.353 8.353 0 0 0 2.951 3.307c.558.4.556.754.1 1.24a7.965 7.965 0 0 1-.81.77 16.834 16.834 0 0 0-4.257 4.829 30.9 30.9 0 0 0-3.739 13.563 59.532 59.532 0 0 0 1.386 15.973 56.924 56.924 0 0 0 5.389 15.283c.608 1.156 1.32 2.26 2.02 3.365a18.3 18.3 0 0 0 3.729 4.163c.5.424.408.85-.172 1.172a8.4 8.4 0 0 1-2.626.713z" class="cls-4" data-name="Path 961" transform="translate(-110.561 -118.921)"/>
                </g>
            </g>
            <g id="Group_531" data-name="Group 531">
                <path id="Path_962" d="M180.5 158.989c.066.43.12.866.2 1.294a48.061 48.061 0 0 1 .544 11.928 56.345 56.345 0 0 1-1.576 11.1 34.992 34.992 0 0 1-3.779 9.93 16.36 16.36 0 0 1-3.6 4.273 11.719 11.719 0 0 1-10.13 2.649 1.182 1.182 0 0 0-1.408.574c-.21.31-.444.6-.662.91a19.052 19.052 0 0 1-7.814 6.217 23.87 23.87 0 0 1-10.555 2.036 12.375 12.375 0 0 1-4.375-.912 4.511 4.511 0 0 0-3.625 0 7.585 7.585 0 0 1-4.777.288 17.091 17.091 0 0 1-8.408-4.641 31.9 31.9 0 0 1-5.151-6.869 69.336 69.336 0 0 1-6.125-15.227 46.151 46.151 0 0 1-1.658-9.376 58.523 58.523 0 0 1 .188-10.83 44.9 44.9 0 0 1 1.356-7.161 44.339 44.339 0 0 1 1.968-6.237 26.687 26.687 0 0 1 2.761-5.087 11.816 11.816 0 0 1 5.153-4.193 1.828 1.828 0 0 0 1.318-1.4 12.174 12.174 0 0 1 5.865-7.878 9.5 9.5 0 0 1 7.157-1.472c.232.048.512.154.67-.126.14-.248-.034-.468-.148-.682a77.533 77.533 0 0 0-4.029-6.743 12.594 12.594 0 0 1-.906-1.418 3.28 3.28 0 0 1 .168-3.383 7.659 7.659 0 0 1 7.375-3.057 7.4 7.4 0 0 1 5.2 3.917 18.158 18.158 0 0 1 2.12 6.159c.278 2.052.982 3.993 1.308 6.023.046.3.236.446.518.212.192-.158.346-.36.534-.522a12.768 12.768 0 0 1 7.169-3.327 8.862 8.862 0 0 1 8.46 3.719 12.727 12.727 0 0 1 1.622 3.355.72.72 0 0 0 .824.546 8.495 8.495 0 0 1 4.2.7 12.331 12.331 0 0 1 4.439 3.641 31.571 31.571 0 0 1 4.507 8.582 55.58 55.58 0 0 1 3.102 12.488zm-16.395 12.094a65.033 65.033 0 0 0-1.566-7.749c-.744-2.58-1.626-5.109-2.523-7.633-.57-1.6-.732-1.654-2.2-.782a3.978 3.978 0 0 1-4.093.142c-.334-.168-.678-.32-1.026-.458a4.405 4.405 0 0 0-4.877.774 22.793 22.793 0 0 1-2.851 2.118 13.787 13.787 0 0 1-8.134 2.288 9.551 9.551 0 0 1-6.429-2.641 3.421 3.421 0 0 1-.9-3.937c.266-.7.638-1.352.954-2.03.186-.394.37-.79.526-1.2.028-.074-.07-.206-.132-.3-.018-.028-.128-.026-.166 0a14.747 14.747 0 0 0-1.352.99 17.885 17.885 0 0 0-4.323 6.269 27.919 27.919 0 0 0-2.218 8.664 42 42 0 0 0-.012 10.448 8.556 8.556 0 0 1 .124 1.674 10.344 10.344 0 0 0 .454 3.513c.394 1.262.592 2.548.862 3.827a57.567 57.567 0 0 0 4.1 12.206 35.877 35.877 0 0 0 3.563 6.143 12.088 12.088 0 0 0 8.97 5.145A20.824 20.824 0 0 0 162.49 195.2a31.183 31.183 0 0 0 2.1-8.516 54.974 54.974 0 0 0-.484-15.601zm15.213-11.394c-.42-2.3-.7-4.259-1.224-6.2-.584-2.168-1.17-4.331-1.914-6.447a31.547 31.547 0 0 0-4.127-8.148 12.6 12.6 0 0 0-4.133-3.449 4.993 4.993 0 0 0-3.079-.564 8.749 8.749 0 0 0-4.589 1.93 26.128 26.128 0 0 0-3.691 4.213 3.569 3.569 0 0 0-.49 1.206 1.22 1.22 0 0 0 .5 1.476c.41.284.834.548 1.264.8.484.282 1.006.508 1.47.818a4.269 4.269 0 0 1 1.984 4.339 4.789 4.789 0 0 1-.854 2.444 1.45 1.45 0 0 0-.074 1.708 53.116 53.116 0 0 1 4.575 14.773c.15 1.05.3 2.1.5 3.143a53.147 53.147 0 0 1 .758 9.494 38.665 38.665 0 0 1-2.172 13.413c-.442 1.23-1.044 2.4-1.566 3.6-.226.52-.046.82.532.866a16.491 16.491 0 0 0 3.527-.39 9.769 9.769 0 0 0 6.229-3.473 19.786 19.786 0 0 0 2.8-4.189 36.057 36.057 0 0 0 3.005-8.836 60.649 60.649 0 0 0 .77-22.527zM109.336 177c.29 1.534.61 3.049.99 4.565a70.209 70.209 0 0 0 4.389 12.308 33.937 33.937 0 0 0 6.1 9.362 15.822 15.822 0 0 0 8.288 4.8 5.954 5.954 0 0 0 4.2-.282c.6-.32.65-.378.114-.9a22.312 22.312 0 0 1-3.2-3.647 41.37 41.37 0 0 1-3.483-6.4 55.911 55.911 0 0 1-2.881-8.09c-.678-2.654-1.41-5.291-1.852-8-.272-1.658-.388-3.333-.548-5.005a48.692 48.692 0 0 1 .086-9.7A29.485 29.485 0 0 1 125 154.434a16.1 16.1 0 0 1 4.565-5.369c.906-.652.9-.688.1-1.3-2.082-1.592-3.317-3.519-2.671-6.281.152-.646-.062-.918-.724-1.068a10.629 10.629 0 0 0-6.785.388 11.666 11.666 0 0 0-5.537 5.1 37.957 37.957 0 0 0-3.479 9.046 55.122 55.122 0 0 0-1.133 22.05zm28.409-41.192c.1.616.228 1.23.284 1.85.158 1.766-.046 1.926-1.676 1.164a6.217 6.217 0 0 0-6.821 1.012 3.706 3.706 0 0 0-.818 5.331 6.069 6.069 0 0 0 1.414 1.482c.394.306.816.578 1.2.9a2.313 2.313 0 0 1 .718 3.005c-.188.46-.458.886-.674 1.336a15.671 15.671 0 0 0-.688 1.534 2.725 2.725 0 0 0 .816 3.2 8.065 8.065 0 0 0 4.947 1.952 12.722 12.722 0 0 0 8.27-2.372c.982-.656 1.878-1.444 2.815-2.166a4.486 4.486 0 0 1 3.437-1.142 8.138 8.138 0 0 1 3.007.968c1.572.9 2.887.362 4.1-.668a5.786 5.786 0 0 0 1.7-2.43 3.772 3.772 0 0 0-.338-3.741 4.527 4.527 0 0 0-1.612-1.25c-.548-.3-1.14-.518-1.666-.85a2.459 2.459 0 0 1-1.2-3.341c.174-.528.462-1.018.686-1.532a14.446 14.446 0 0 0 .708-1.728 2.218 2.218 0 0 0-1.152-2.685 3.051 3.051 0 0 0-1.794-.426 15.446 15.446 0 0 0-2.955.386 22.248 22.248 0 0 1-2.753.534 2.36 2.36 0 0 1-2.52-1.236 5.832 5.832 0 0 1-.8-2.084c-.5-3.073-.982-6.147-1.716-9.184a22.75 22.75 0 0 0-2.172-5.949 6.225 6.225 0 0 0-10.038-1.06 2.384 2.384 0 0 0-.542 2.588 5.6 5.6 0 0 0 .724 1.3c1.216 1.74 2.33 3.543 3.369 5.391a29.244 29.244 0 0 1 3.74 9.911zm15.187-8.528c-3.025.276-4.943 1.778-6.839 3.6a1.7 1.7 0 0 0-.522 1.7 7.427 7.427 0 0 0 .346 1.256 1.765 1.765 0 0 0 2.092 1.16c.366-.054.716-.216 1.08-.29a18.979 18.979 0 0 1 3.647-.676c2.232-.018 4.049.572 4.947 2.845.18.462.428.476.834.054a13.029 13.029 0 0 1 2.294-1.9c1.922-1.238 1.632-1.024.828-3.1a7.813 7.813 0 0 0-5.623-4.7 7.781 7.781 0 0 0-3.084.05zm-16.473 7.81a12.569 12.569 0 0 0-.634-2.542 3.65 3.65 0 0 0-3.8-2.643c-.25 0-.5.03-.746.044a9.615 9.615 0 0 0-4.707 1.654 11.427 11.427 0 0 0-4.913 6.145c-.262.786-.07 1.07.726 1.058a12.466 12.466 0 0 1 4.415.6 1.824 1.824 0 0 0 1.9-.4 9.754 9.754 0 0 1 1.372-.968 7.985 7.985 0 0 1 4.859-.93c.55.054 1.164.618 1.59.274.53-.428.034-1.152.018-1.748-.002-.124-.039-.248-.08-.544z" class="cls-8" data-name="Path 962" transform="translate(-107.431 -113.372)"/>
                <path id="Path_963" d="M128.536 132.113a8.2 8.2 0 0 1-6.4-2.1c-.17-.162-.32-.432-.06-.642a.61.61 0 0 1 .5-.12 8.721 8.721 0 0 1 1.138.622A7.462 7.462 0 0 0 128 130.89a5.145 5.145 0 0 0 3.889-1.928c.36-.422.712-.856 1.092-1.262a.349.349 0 0 1 .5 0 .39.39 0 0 1 .1.5c-1.081 1.884-2.381 3.505-5.045 3.913z" class="cls-8" data-name="Path 963" transform="translate(-92.934 -99.156)"/>
            </g>
        </g>
        <g id="Group_522" data-name="Group 522" opacity="0.311" transform="translate(1573.915 282.212)">
            <g id="Group_520" data-name="Group 520" transform="translate(.601 .632)">
                <path id="Path_918" fill="#c9ce74" d="M234.867 110.256a9.75 9.75 0 0 1-3.475-.561 17.141 17.141 0 0 1-4-1.92 9.47 9.47 0 0 1-3.77-4.832 4.259 4.259 0 0 1 .318-3.937 16.8 16.8 0 0 1 1.309-1.9 10.814 10.814 0 0 0 2.2-8.879 14.521 14.521 0 0 1 2.52-11.151c.245-.335.462-.691.721-1.016a10.126 10.126 0 0 0 2.1-7.854c-.021-.177-.074-.35-.078-.527a.815.815 0 0 1 .754-.834 1.159 1.159 0 0 1 .354.011 6.248 6.248 0 0 0 4.62-.776c.679-.36.915-.263 1.208.461a3.759 3.759 0 0 1 .32 1.014 21.9 21.9 0 0 1 .314 5.286c-.223 1.578-.147 3.189-.417 4.78a37.254 37.254 0 0 1-2.44 8.539 27.5 27.5 0 0 1-2.019 4.16.785.785 0 0 0 0 .991.835.835 0 0 0 .809.27 15.868 15.868 0 0 0 4.915-1.507 15.488 15.488 0 0 0 5.056-4.148c.4-.519.843-1 1.239-1.519a19.3 19.3 0 0 0 3.368-7.014c.369-1.437.765-2.868 1.174-4.293a8.03 8.03 0 0 1 .523-1.319.555.555 0 0 1 .752-.276 6.2 6.2 0 0 1 .634.324 8.2 8.2 0 0 0 7.7.055c.54-.242 1.06-.54 1.61-.759a.866.866 0 0 1 1.3.525 10.07 10.07 0 0 0 3.931 4.255 1.926 1.926 0 0 1 .405.339.427.427 0 0 1 0 .634 3.274 3.274 0 0 1-.721.5 27.744 27.744 0 0 0-12.4 13.53c-.074.16-.173.35.048.457.072.036.228-.046.32-.112a10.432 10.432 0 0 0 1.277-.963 13.174 13.174 0 0 1 9.039-3.631 23.89 23.89 0 0 0 4.04-.611 7.218 7.218 0 0 0 4.415-2.782c.07-.1.143-.19.221-.278.662-.738 1.108-.735 1.734.006.537.634 1.069 1.271 1.623 1.89a11.546 11.546 0 0 0 3.062 2.415.763.763 0 0 1 .384 1.189 15.552 15.552 0 0 1-4.843 6.268 8.838 8.838 0 0 1-7.111 1.482 20.418 20.418 0 0 1-3.243-.948 3.866 3.866 0 0 0-4.4.969 11.187 11.187 0 0 0-1.119 1.149 12.453 12.453 0 0 1-8.5 4.689c-1.76.244-3.52.54-5.292.655a8.022 8.022 0 0 0-5.728 3.2c-.691.818-1.4 1.612-2.135 2.388a5.6 5.6 0 0 1-4.626 1.916z" data-name="Path 918" transform="translate(-222.521 -32.415)"/>
                <path id="Path_919" d="M285.825 63.755a10.728 10.728 0 0 1-.6 4.008c-.116.4-.272.788-.369 1.191-.247 1.016-.093 1.343.866 1.85.578.3 1.163.6 1.764.856a9.305 9.305 0 0 1 3.637 3.066 6.587 6.587 0 0 1 .872 6.889 20.8 20.8 0 0 1-1.165 2.2c-.5.9-.451 1.144.373 1.785.56.44 1.119.875 1.671 1.324a9.649 9.649 0 0 1 3.574 6.908 8.9 8.9 0 0 1-.62 3.838 10.739 10.739 0 0 1-3.8 5.462 7.955 7.955 0 0 1-6.228 1.387 12.739 12.739 0 0 1-9.37-6.94c-.647-1.2-1.235-2.436-1.8-3.68a1.794 1.794 0 0 0-1.939-1.21c-2.725.188-4.773-1.128-6.561-3.007a7.383 7.383 0 0 1-1.427-2.443c-.224-.567-.392-.634-.936-.295a14.946 14.946 0 0 1-2.575 1.2 8.476 8.476 0 0 1-4.381.5c-3.18-.5-5.163-2.32-5.656-5.939a14.5 14.5 0 0 1 .029-2.487c.03-.755.481-1.435.419-2.209a14.112 14.112 0 0 1-1.758 1.18 5.1 5.1 0 0 1-5.684-.6c-.327-.253-.592-.586-.921-.839-.472-.36-.588-1.043-1.189-1.275-.611.481-.605 1.229-.822 1.886-.187.561-.421 1.108-.639 1.657a4.492 4.492 0 0 1-3.517 2.685 5.29 5.29 0 0 1-4.866-.932 1.074 1.074 0 0 0-.8-.3c-2.462.215-4.337-1.045-6.051-2.548a6.889 6.889 0 0 1-2.438-5.515 5.7 5.7 0 0 1 1.391-3.753c.154-.181.335-.341.483-.525.32-.4.959-.658.843-1.265-.093-.491-.706-.59-1.043-.912a3.824 3.824 0 0 1-.79-.948c-1.873-3.589-.893-8.655 3.709-10.308a13.843 13.843 0 0 1 8.223-.466c1.872.468 1.829.025 2.434-1.2a12.477 12.477 0 0 1 2.982-3.736 7.778 7.778 0 0 1 8.8-1.146 9.884 9.884 0 0 1 2.735 1.966 29.256 29.256 0 0 1 2.672 2.864.6.6 0 0 0 .931.128c.329-.251.677-.48 1-.736a12.281 12.281 0 0 1 5.146-2.308 7.971 7.971 0 0 1 4.04.206 6.152 6.152 0 0 1 3.458 3.165c.5.873.87 1.821 1.343 2.712.487.912.82 1.024 1.7.525a11.592 11.592 0 0 1 3.319-1.21 9.26 9.26 0 0 1 4.384.291 7.721 7.721 0 0 1 4.512 3.54 5.494 5.494 0 0 1 .635 3.463z" class="cls-3" data-name="Path 919" transform="translate(-222.87 -48.29)"/>
                <g id="Group_518" data-name="Group 518" transform="translate(6.9 3.684)">
                    <path id="Path_920" d="M257.844 66.053a7.54 7.54 0 0 1-1.212 3.446 2.318 2.318 0 0 1-2.3 1.049 2.51 2.51 0 0 1-2.015-1.787 2 2 0 0 1-.042-1.218 7.658 7.658 0 0 1 2.255-3.736 2.612 2.612 0 0 1 .744-.462 1.629 1.629 0 0 1 2.245.788 3.393 3.393 0 0 1 .325 1.92z" class="cls-2" data-name="Path 920" transform="translate(-203.307 -38.539)"/>
                    <path id="Path_921" d="M250.788 60.58a10.378 10.378 0 0 1-.46 2.792 3.147 3.147 0 0 1-.769 1.383 2.329 2.329 0 0 1-2.577.672 2.427 2.427 0 0 1-1.431-2.609 9.842 9.842 0 0 1 2.337-4.52 2.175 2.175 0 0 1 .923-.5 1.262 1.262 0 0 1 1.538.554 3.552 3.552 0 0 1 .439 2.228z" class="cls-2" data-name="Path 921" transform="translate(-209.352 -43.461)"/>
                    <path id="Path_922" d="M257.694 73.288a5.5 5.5 0 0 1-1.083 2.91 2.564 2.564 0 0 1-3.161.833 2.666 2.666 0 0 1-1.338-2.988 5.65 5.65 0 0 1 1.739-2.826 2.205 2.205 0 0 1 2.436-.586 2.254 2.254 0 0 1 1.4 2.08 4.785 4.785 0 0 1 .007.577z" class="cls-2" data-name="Path 922" transform="translate(-203.456 -31.941)"/>
                    <path id="Path_923" d="M245.9 56.023a8.4 8.4 0 0 1-.472 2.6 2.833 2.833 0 0 1-.986 1.439 1.943 1.943 0 0 1-2.828-.337A2.7 2.7 0 0 1 241 57.74a9.355 9.355 0 0 1 1.056-3.353 3.722 3.722 0 0 1 .413-.575 1.81 1.81 0 0 1 1.648-.851 2.008 2.008 0 0 1 1.589 1.492 4.436 4.436 0 0 1 .194 1.57z" class="cls-2" data-name="Path 923" transform="translate(-213.442 -47.771)"/>
                    <path id="Path_924" d="M231.211 60.142a3.97 3.97 0 0 1-.373 1.555 1.974 1.974 0 0 1-1.8 1.22 2.125 2.125 0 0 1-2.059-1.113 3.206 3.206 0 0 1-.442-2.042c.154-.988.346-1.973.592-2.942a1.916 1.916 0 0 1 1.659-1.619c.769-.088 1.545.569 1.821 1.646s.41 2.195.602 3.295z" class="cls-2" data-name="Path 924" transform="translate(-226.509 -45.742)"/>
                    <path id="Path_925" d="M246.913 69.443a5.78 5.78 0 0 1 2.5-3.874 1.685 1.685 0 0 1 2.6.881 4.009 4.009 0 0 1 .008 2.6A5.454 5.454 0 0 1 251 71.281a2.269 2.269 0 0 1-2.672.809 2.516 2.516 0 0 1-1.415-2.647z" class="cls-2" data-name="Path 925" transform="translate(-208.09 -36.661)"/>
                    <path id="Path_926" d="M233.414 64.5a4.258 4.258 0 0 1-.476 2.39 2.2 2.2 0 0 1-2.215 1.193 1.989 1.989 0 0 1-1.861-1.65 5.611 5.611 0 0 1 1.279-4.976c.938-1.111 2.251-.8 2.74.605a18.226 18.226 0 0 1 .533 2.438z" class="cls-2" data-name="Path 926" transform="translate(-224.51 -40.692)"/>
                    <path id="Path_927" d="M251.024 59.695a3.234 3.234 0 0 1 .143-.767 6.38 6.38 0 0 1 2.409-3 1.629 1.629 0 0 1 2.495.788 5.36 5.36 0 0 1-.932 4.834 2.248 2.248 0 0 1-2.573.649 2.571 2.571 0 0 1-1.542-2.504z" class="cls-2" data-name="Path 927" transform="translate(-204.373 -45.364)"/>
                    <path id="Path_928" d="M245.468 65.366a4.717 4.717 0 0 1-.691 2.67 2.116 2.116 0 0 1-3.968-.641 5.262 5.262 0 0 1 2.086-4.778 1.52 1.52 0 0 1 2.238.653 4.063 4.063 0 0 1 .335 2.096z" class="cls-2" data-name="Path 928" transform="translate(-213.654 -39.267)"/>
                    <path id="Path_929" d="M239.679 53.465c-.053.409-.089.944-.2 1.463a2.866 2.866 0 0 1-.868 1.524 2.088 2.088 0 0 1-3.41-.66 2.387 2.387 0 0 1-.23-1.387 7.828 7.828 0 0 1 1.319-3.273 2.491 2.491 0 0 1 .641-.605 1.431 1.431 0 0 1 1.943.177 2.244 2.244 0 0 1 .726 1.396c.043.409.049.824.079 1.365z" class="cls-2" data-name="Path 929" transform="translate(-218.889 -50.226)"/>
                    <path id="Path_930" d="M241.891 61.187a5.629 5.629 0 0 1-.453 2.422 2.181 2.181 0 0 1-4.217-1.009 6.212 6.212 0 0 1 1.76-3.783 1.535 1.535 0 0 1 2.674.626 4.309 4.309 0 0 1 .236 1.744z" class="cls-2" data-name="Path 930" transform="translate(-216.852 -42.969)"/>
                    <path id="Path_931" d="M237.432 58.972a3.683 3.683 0 0 1-.567 1.941 1.982 1.982 0 0 1-3.5-.061 2.147 2.147 0 0 1-.377-.982A5.218 5.218 0 0 1 234 56.051a1.554 1.554 0 0 1 2.813.447 16.857 16.857 0 0 1 .619 2.474z" class="cls-2" data-name="Path 931" transform="translate(-220.685 -45.613)"/>
                    <path id="Path_932" d="M262.043 73.043a4.527 4.527 0 0 1-1.376 3.524 2.154 2.154 0 0 1-2.455.394 2.22 2.22 0 0 1-1.012-2.441 6.1 6.1 0 0 1 2.048-3.049 1.626 1.626 0 0 1 1.814-.337 1.606 1.606 0 0 1 .982 1.555c.003.118-.001.236-.001.354z" class="cls-2" data-name="Path 932" transform="translate(-198.856 -31.477)"/>
                </g>
                <g id="Group_519" data-name="Group 519" transform="translate(8.281 38.745)">
                    <path id="Path_933" d="M234.088 71.934a30.355 30.355 0 0 1-2.354 10.512 4.551 4.551 0 0 1-1.467 1.971 1.825 1.825 0 0 1-2.98-1.176 2.8 2.8 0 0 1 .162-1.57c.4-1.115.754-2.251 1.222-3.336a43.1 43.1 0 0 0 2.08-6.605c.129-.518.253-1.039.428-1.541a3.47 3.47 0 0 1 .489-.938 1.139 1.139 0 0 1 1.206-.571 1.311 1.311 0 0 1 .946.961 7.347 7.347 0 0 1 .268 2.293z" class="cls-11" data-name="Path 933" transform="translate(-227.235 -68.651)"/>
                    <path id="Path_934" d="M236.979 82.19a6.016 6.016 0 0 1 .634-2.072 28.079 28.079 0 0 1 6.461-8.169 10.682 10.682 0 0 1 1.625-1.075 1.112 1.112 0 0 1 1.517 1.477c-.282.521-.531 1.062-.851 1.557a86.149 86.149 0 0 0-4.47 7.671 6.847 6.847 0 0 1-1.76 2.2 1.713 1.713 0 0 1-1.96.407 2.282 2.282 0 0 1-1.196-1.996z" class="cls-11" data-name="Path 934" transform="translate(-218.436 -66.785)"/>
                </g>
                <path id="Path_935" fill="#c9ce74" d="M271.606 87.648a12.085 12.085 0 0 1-3.387-.6 11.843 11.843 0 0 1-1.349-.457c-1.9-.833-3.427-.276-4.843 1.1-.851.826-1.543 1.779-2.438 2.58a13.009 13.009 0 0 1-7.081 3.062c-1.7.244-3.4.527-5.115.636a8.2 8.2 0 0 0-5.857 3.309c-.617.723-1.275 1.408-1.892 2.128-1.7 1.983-3.909 2.348-6.322 1.985a15.555 15.555 0 0 1-5.909-2.377 9.526 9.526 0 0 1-3.783-4.82 4.308 4.308 0 0 1 .287-3.943 13.307 13.307 0 0 1 .776-1.191 21.442 21.442 0 0 0 2.206-3.441c.2-.421.523-.457.816-.065a5.2 5.2 0 0 0 2.067 1.642 5.7 5.7 0 0 0 3.623.468 30.83 30.83 0 0 0 5.716-1.952 11.976 11.976 0 0 1 5.179-1.082 9.426 9.426 0 0 1 4.879 1.465c.693.459 1.389.913 2.108 1.33a3.08 3.08 0 0 0 2.577.23 8.643 8.643 0 0 0 2.921-1.667c.826-.674 1.638-1.37 2.409-2.107a10.218 10.218 0 0 1 5.163-2.649 16.561 16.561 0 0 1 3.88-.447c.95.036 1.9 0 2.851-.011a6.24 6.24 0 0 0 5.372-3.275 4.859 4.859 0 0 0 .327-.634c.632-1.418.679-1.789 1.983-.4a11.352 11.352 0 0 0 2.685 2.036c.577.329.681.649.424 1.178-1.258 2.592-2.754 5-5.273 6.579a8.787 8.787 0 0 1-5 1.39z" data-name="Path 935" transform="translate(-222.519 -23.637)" style="mix-blend-mode:multiply;isolation:isolate" opacity="0.5"/>
                <path id="Path_936" d="M251.091 76.691c.042-.474.1-.946.118-1.42.032-.7.554-1.292.4-2.023a15.332 15.332 0 0 1-1.593 1.113 5.23 5.23 0 0 1-6.122-.761 8.657 8.657 0 0 1-1.536-1.722.312.312 0 0 0-.573.046 10.208 10.208 0 0 0-.495 1.515 12.708 12.708 0 0 1-.761 1.99 4.2 4.2 0 0 1-2.932 2.39 5.485 5.485 0 0 1-5.382-.811 1.068 1.068 0 0 0-.8-.3c-2.462.211-4.335-1.047-6.049-2.552a6.884 6.884 0 0 1-2.434-5.517 5.708 5.708 0 0 1 1.395-3.753c.116-.135.244-.259.36-.4.341-.4.934-.674.97-1.226.04-.641-.693-.719-1.06-1.073a3.061 3.061 0 0 1-.6-.651 7.4 7.4 0 0 1-.343-7.157 1.279 1.279 0 0 1 1.433-.8 6.866 6.866 0 0 1 5.777 3.9 16.905 16.905 0 0 1 .78 2.362 13.565 13.565 0 0 0 .931 2.687 6.648 6.648 0 0 0 5.456 3.517 13.046 13.046 0 0 0 8.086-1.52c.464-.265.972-.451 1.429-.727a15.309 15.309 0 0 1 5.536-1.819 8.083 8.083 0 0 1 4.025.36 11.917 11.917 0 0 1 7.985 7.768c.186.563.379 1.127.584 1.684a4.323 4.323 0 0 0 2.519 2.609 11.376 11.376 0 0 0 6.1.778 20.485 20.485 0 0 0 5.231-1.7c1.193-.527 2.369-1.094 3.56-1.627a18.506 18.506 0 0 1 4.236-1.342 9.38 9.38 0 0 1 1.947-.137c2.552.067 2.932.489 3.267 3.186a6.437 6.437 0 0 1-.742 3.793c-.3.58-.636 1.14-.955 1.709-.5.892-.447 1.134.384 1.781.653.512 1.332 1 1.949 1.549a9.386 9.386 0 0 1 3.26 7.932 11.724 11.724 0 0 1-1.882 5.326 8.574 8.574 0 0 1-6.99 4.293 9.041 9.041 0 0 1-3.321-.537 12.772 12.772 0 0 1-7.64-6.28c-.689-1.245-1.309-2.535-1.876-3.84a2.022 2.022 0 0 0-2.206-1.368c-2.952.145-5.066-1.412-6.82-3.564a8.213 8.213 0 0 1-.908-1.724c-.354-.746-.443-.811-1.178-.365a12.143 12.143 0 0 1-3.96 1.536 8.237 8.237 0 0 1-3.363 0 6.316 6.316 0 0 1-5.134-5.859 11.785 11.785 0 0 1-.006-1.245z" class="cls-6" data-name="Path 936" transform="translate(-222.883 -43.526)"/>
            </g>
            <g id="Group_521" data-name="Group 521">
                <path id="Path_937" d="M287.579 105.456a8.6 8.6 0 0 1-3.524-.489c-.86-.282-.953-.217-1.4.594-.316.571-.6 1.159-.919 1.73a12.732 12.732 0 0 1-3.528 3.968 9.462 9.462 0 0 1-8.074 1.756 15.253 15.253 0 0 1-2.55-.784 3.7 3.7 0 0 0-4.894 1.241 16.224 16.224 0 0 1-3.344 3.174 11.117 11.117 0 0 1-3.5 1.692 39.487 39.487 0 0 1-6.493 1.029c-.529.057-1.058.129-1.587.186a7.9 7.9 0 0 0-5.334 3.2 30.34 30.34 0 0 1-2.567 2.714 5.813 5.813 0 0 1-4.424 1.509 14.335 14.335 0 0 1-8.084-2.906 9.623 9.623 0 0 1-3.876-5.971 3.886 3.886 0 0 1 .493-2.894c.487-.813 1.047-1.585 1.612-2.348a8.985 8.985 0 0 0 2-5.945 29 29 0 0 0-.3-4.788 7.3 7.3 0 0 1 .2-2.289 14.025 14.025 0 0 1 2.961-7.144c.39-.523.786-1.045 1.138-1.593a7.722 7.722 0 0 0 1.351-4.535c-.034-.95 0-1.9-.082-2.847a1.343 1.343 0 0 0-1.5-1.412 9.3 9.3 0 0 1-7.3-4.2 6.551 6.551 0 0 1 .341-8.668c.194-.223.411-.428.611-.647.3-.327.261-.6-.091-.883-3.2-2.607-2.942-8.419.32-11.009a10.91 10.91 0 0 1 5.545-2.221 15.9 15.9 0 0 1 5.8.388c.826.2.868.177 1.245-.575a14.186 14.186 0 0 1 3.368-4.329 9.121 9.121 0 0 1 4.809-2.143 5.615 5.615 0 0 1 2.811.278 11.687 11.687 0 0 1 4.392 2.639c.875.885 1.734 1.791 2.594 2.693a.572.572 0 0 0 .792.127c.445-.295.879-.607 1.3-.932a10.792 10.792 0 0 1 8.082-2.019 5.274 5.274 0 0 1 3.753 2.154 11.882 11.882 0 0 1 1.838 3.237 8.388 8.388 0 0 0 .529 1.125.5.5 0 0 0 .731.257c.158-.08.323-.15.476-.242a9.407 9.407 0 0 1 6.006-1.212 8.43 8.43 0 0 1 6.95 4.622c.894 1.667.695 3.461.413 5.227-.147.934-.449 1.844-.679 2.765-.383 1.522-.39 1.541 1.151 2.234a12.7 12.7 0 0 1 4.51 3.4 7.119 7.119 0 0 1 .725 8.744c-1.29 2.131-1.1 1.836.658 3.189a11.262 11.262 0 0 1 4.424 8.019 7.493 7.493 0 0 1-.318 2.462 11.763 11.763 0 0 1-4.554 7.22 7.057 7.057 0 0 1-5.007 1.452zm-54.986-49.6a10.665 10.665 0 0 0-5.48 1.144 5.794 5.794 0 0 0-3.012 3.57 7.047 7.047 0 0 0 .365 5.028 2.5 2.5 0 0 0 1.1 1.353 4.288 4.288 0 0 1 .839.657.823.823 0 0 1 .063 1.26c-.386.449-.849.835-1.224 1.294a5.278 5.278 0 0 0-1.33 4.771 8.068 8.068 0 0 0 7.526 6.179 1.828 1.828 0 0 1 1.319.4 4.385 4.385 0 0 0 3.827.991 4.461 4.461 0 0 0 4.023-3.031c.333-.95.55-1.939.82-2.912a5.734 5.734 0 0 1 .257-.841.437.437 0 0 1 .609-.181 1.456 1.456 0 0 1 .719.761 6.908 6.908 0 0 0 1.429 1.8 4.94 4.94 0 0 0 7.01-.388c.318-.428.643-.853.982-1.265a.415.415 0 0 1 .615-.1.553.553 0 0 1 .167.462c-.194.683-.434 1.355-.658 2.03a8.431 8.431 0 0 0-.057 5.912 5.1 5.1 0 0 0 4.354 3.467 9.583 9.583 0 0 0 6.354-1.208c.51-.3 1.007-.632 1.526-.917.455-.249.887-.042.866.464a4.339 4.339 0 0 0 1.53 3.279 7.758 7.758 0 0 0 6.008 2.63 2.218 2.218 0 0 1 2.381 1.458c.164.383.36.752.535 1.128.424.913.782 1.867 1.279 2.74a12.259 12.259 0 0 0 8.409 6.327 7.488 7.488 0 0 0 8.348-3.378 11.276 11.276 0 0 0 1.764-4.061 9.155 9.155 0 0 0-.152-4.582 10.511 10.511 0 0 0-4.126-5.427 10.988 10.988 0 0 1-1-.742 1.212 1.212 0 0 1-.268-1.741c.293-.516.653-.993.948-1.507a6.76 6.76 0 0 0-.97-8.065 11.134 11.134 0 0 0-3.617-2.542 15.17 15.17 0 0 1-1.435-.7 1.457 1.457 0 0 1-.767-1.8c.147-.514.285-1.03.413-1.549.226-.921.512-1.834.651-2.771.5-3.4-.582-5.768-4.01-7.305a8.085 8.085 0 0 0-7.237.215c-.422.219-.833.462-1.264.66a1.108 1.108 0 0 1-1.671-.443 16.976 16.976 0 0 1-.991-1.89 14.271 14.271 0 0 0-.742-1.614c-.889-1.359-1.9-2.611-3.659-2.864a10.009 10.009 0 0 0-6.691 1.275c-.613.362-1.191.784-1.768 1.2-1.589 1.155-1.585 1.161-2.8-.341-.076-.091-.133-.2-.213-.287a16.776 16.776 0 0 0-4.145-3.61 6.66 6.66 0 0 0-3.884-1.085 8.028 8.028 0 0 0-4.822 2.065 13.178 13.178 0 0 0-3 4.156c-.514 1.09-.786 1.21-1.958.938a13.609 13.609 0 0 0-4.085-.47zm7.793 32.227a18.039 18.039 0 0 0-.445-4.415c-.179-.761-.422-.908-1.113-.584a6.645 6.645 0 0 1-2.39.647c-.744.051-1.682-.358-2.188.31-.455.6-.175 1.5-.164 2.259a9.257 9.257 0 0 1-1.075 4.453 17.256 17.256 0 0 1-1.764 2.672 12.98 12.98 0 0 0-2.634 9.012c.1 1.777.067 3.562.116 5.343a7.5 7.5 0 0 1-.735 3.273 13.1 13.1 0 0 1-1.5 2.421c-.457.62-.927 1.239-1.33 1.893a3.682 3.682 0 0 0-.489 2.719 7.421 7.421 0 0 0 2.508 4.4 12.429 12.429 0 0 0 8.62 3.26 5.252 5.252 0 0 0 3.827-1.591 24.8 24.8 0 0 0 1.785-1.983 9.725 9.725 0 0 1 7.42-4.008 45.6 45.6 0 0 0 5.288-.674 11.547 11.547 0 0 0 6.822-3.878c.554-.618 1.132-1.222 1.737-1.791a4.061 4.061 0 0 1 4.565-1.039c.662.261 1.344.478 2.023.693a8.759 8.759 0 0 0 9.113-1.873 15.542 15.542 0 0 0 3.317-4.8.685.685 0 0 0-.306-1.028 16.5 16.5 0 0 1-4.266-4c-.51-.641-.563-.66-1.018-.063a8.3 8.3 0 0 1-4.841 3.1 19.073 19.073 0 0 1-3.332.542 25.132 25.132 0 0 0-3.353.411 10.411 10.411 0 0 0-5.142 2.3c-.531.476-1.087.923-1.629 1.383a3.458 3.458 0 0 1-1.378.79.727.727 0 0 1-.9-.8 4.236 4.236 0 0 1 .306-.832 29.3 29.3 0 0 1 6.963-9.593 27.962 27.962 0 0 1 5.155-3.789c.792-.44.824-.573.008-1.155a12.826 12.826 0 0 1-2.875-2.9c-.3-.415-.28-1.2-.841-1.233-.472-.032-.974.369-1.46.582-.219.1-.424.217-.647.3a9.479 9.479 0 0 1-6.769.3c-.573-.207-1.174-.9-1.781-.426-.495.39-.521 1.163-.674 1.8-.126.52-.245 1.041-.405 1.551a44.65 44.65 0 0 1-1.509 4.748 25.512 25.512 0 0 1-3.667 5.657 15.805 15.805 0 0 1-9.37 5.732 5.943 5.943 0 0 1-1.589.118c-1.108-.072-1.477-.679-1.066-1.688a12.2 12.2 0 0 1 .569-1.109 37.816 37.816 0 0 0 4.503-17.42zm10.63-7.553c.057-.746-.074-.854-.559-.668-.221.086-.428.206-.651.284a5.665 5.665 0 0 1-5.971-1.1c-.223-.194-.424-.413-.639-.617-.769-.721-.834-.723-1.123.2a10.793 10.793 0 0 1-1.043 2.447 2 2 0 0 0-.194 1.85 13.466 13.466 0 0 1 .71 4.544c-.008 1.538-.135 3.068-.28 4.605a38.048 38.048 0 0 1-2.733 10.451 37 37 0 0 1-1.914 4.008c-.236.438-.076.639.449.609a3.529 3.529 0 0 0 .531-.048 14.51 14.51 0 0 0 7.235-3.578 20.755 20.755 0 0 0 6.246-10.556 24.3 24.3 0 0 1 1.448-4.757 1.156 1.156 0 0 0-.15-1.311 8.652 8.652 0 0 1-1.366-3.058 6.659 6.659 0 0 1 .004-3.308zm24.894 17.462a2.216 2.216 0 0 0-.1-.424c-.512-1.069-1.033-2.135-1.549-3.2a1.181 1.181 0 0 0-1.163-.655 7.8 7.8 0 0 1-1.941-.156 2.94 2.94 0 0 0-2.369.363 27.374 27.374 0 0 0-7.829 6.62 26.752 26.752 0 0 0-2.752 3.93 7.892 7.892 0 0 0-.5 1.13c-.015.034.166.2.2.188a2.866 2.866 0 0 0 .761-.43 11.42 11.42 0 0 1 5.532-2.691c1.206-.276 2.462-.331 3.694-.495 1.056-.141 2.126-.228 3.163-.459a7.136 7.136 0 0 0 4.554-3.167 5.723 5.723 0 0 0 .3-.558z" class="cls-8" data-name="Path 937" transform="translate(-222.567 -47.958)"/>
                <path id="Path_938" d="M244.25 81.944a1.187 1.187 0 0 1-.177.325.558.558 0 0 1-.312.145c-3.861.268-6.934 2.221-9.863 4.535-1.359 1.075-2.52 2.343-3.766 3.526a12.087 12.087 0 0 1-1.081.913.334.334 0 0 1-.47-.107.577.577 0 0 1-.069-.48 8.836 8.836 0 0 1 .875-1.117 31.789 31.789 0 0 1 7.992-6.466 17.12 17.12 0 0 1 5.186-1.827 1.789 1.789 0 0 1 1.376.173 1.64 1.64 0 0 1 .309.38z" class="cls-8" data-name="Path 938" transform="translate(-217.226 -17.821)"/>
                <path id="Path_939" d="M227.9 86.506c-.084-.074-.225-.141-.236-.225a.784.784 0 0 1 .051-.508 11.505 11.505 0 0 1 3.355-3.14.42.42 0 0 1 .613.143.348.348 0 0 1-.008.327q-1.7 1.684-3.439 3.34c-.064.067-.218.044-.336.063z" class="cls-8" data-name="Path 939" transform="translate(-217.977 -16.718)"/>
            </g>
        </g>
        <g id="Group_543" data-name="Group 543" opacity="0.304" transform="translate(1704.614 222.573)">
            <g id="Group_539" data-name="Group 539">
                <g id="Group_538" data-name="Group 538" transform="translate(.531 .648)">
                    <path id="Path_971" fill="#965a4d" d="M399.421 86.1a24.24 24.24 0 0 1-4.773 17.528 51.853 51.853 0 0 1-14.288 13.036 84.469 84.469 0 0 1-22.576 10.272c-3.082.892-6.2 1.587-9.343 2.23-2.259.463-4.521.834-6.806 1.09-.617.069-1.213.313-1.828.422a9.267 9.267 0 0 1-2.277.286 63.964 63.964 0 0 0-6.677.3 6.534 6.534 0 0 1-.836.011c-.275-.029-.59-.076-.686-.387-.134-.429.188-.63.5-.775a14.588 14.588 0 0 0 6.051-5.008 21.146 21.146 0 0 0 2.994-6.192 38.538 38.538 0 0 0 1.414-9.278 42.019 42.019 0 0 0-.731-9.571 61.394 61.394 0 0 0-4.7-14.7 54.241 54.241 0 0 0-10.309-15.125A31.11 31.11 0 0 0 314.5 63.2a16.449 16.449 0 0 0-10.239-1.032 3.079 3.079 0 0 1-1.216.239c-.32-.054-.576-.547-.371-.807a4.965 4.965 0 0 1 .708-.76 62.879 62.879 0 0 1 9.4-6.6c1.218-.682 2.413-1.4 3.642-2.058a63.064 63.064 0 0 1 14.86-5.526 40.732 40.732 0 0 1 8.243-1.323 48.617 48.617 0 0 1 15.336 1.43 40.488 40.488 0 0 1 8.958 4 47.885 47.885 0 0 1 8.844 6.981c1.922 1.821 3.667 3.826 5.723 5.51a22.952 22.952 0 0 0 3.83 2.538c1.725.914 3.466 1.8 5.175 2.744a23.3 23.3 0 0 1 11.34 13.649 21.025 21.025 0 0 1 .688 3.915z" data-name="Path 971" transform="translate(-291.975 -45.274)"/>
                    <g id="Group_536" data-name="Group 536" transform="translate(27.848 9.167)">
                        <path id="Path_972" d="M343.948 99.711a38.6 38.6 0 0 1-.119 12.02 10.945 10.945 0 0 1-.592 2.427 2.021 2.021 0 0 1-2.322 1.352 2.35 2.35 0 0 1-1.913-2.19 6.779 6.779 0 0 1 .067-1.039 55.152 55.152 0 0 0-.572-14.572 61.428 61.428 0 0 0-2.988-10.858 78.015 78.015 0 0 0-17.548-26.962c-1.937-2-4.011-3.866-6.031-5.785a6.146 6.146 0 0 1-1.47-1.75 1.151 1.151 0 0 1 .031-1.193 1.169 1.169 0 0 1 1.247-.581 7.39 7.39 0 0 1 1.58.518 27.926 27.926 0 0 1 4.822 2.914 62.471 62.471 0 0 1 15.49 16.815 69.293 69.293 0 0 1 8.071 17.38 47.654 47.654 0 0 1 2.247 11.504z" class="cls-15" data-name="Path 972" transform="translate(-310.309 -47.923)"/>
                        <path id="Path_973" d="M348.043 98.259c.007 3.953.6 7.91 0 11.87a16.732 16.732 0 0 1-.762 3.251 5.234 5.234 0 0 1-.932 1.62 2 2 0 0 1-2.161.921 2.278 2.278 0 0 1-1.73-1.9 13.386 13.386 0 0 1-.261-3.117 73.207 73.207 0 0 0 .049-8.344 41.086 41.086 0 0 0-.438-6.237 72.283 72.283 0 0 0-2.429-10.14c-.838-2.438-1.716-4.86-2.559-7.3a33.57 33.57 0 0 0-3.079-6.393 170.331 170.331 0 0 0-12.396-17.59 29.5 29.5 0 0 1-2.6-3.531 3.927 3.927 0 0 1-.422-.945.936.936 0 0 1 1-1.048 2.961 2.961 0 0 1 1.642.856c1.506 1.343 3.1 2.61 4.478 4.074a106.889 106.889 0 0 1 12.453 15.434 68.978 68.978 0 0 1 7.823 17.5 38.811 38.811 0 0 1 1.642 7.325c.122 1.241.739 2.405.682 3.694z" class="cls-15" data-name="Path 973" transform="translate(-300.443 -49.376)"/>
                        <path id="Path_974" d="M351.543 94.043a27.149 27.149 0 0 1-.346 6.136 8.906 8.906 0 0 1-.708 1.957 2.132 2.132 0 0 1-1.383 1.189 2.3 2.3 0 0 1-3.224-1.975 7.918 7.918 0 0 1-.123-2.08 31.871 31.871 0 0 0-.876-8.891 74.208 74.208 0 0 0-3.59-11.779 114.354 114.354 0 0 0-6.722-14.145c-1.236-2.261-2.561-4.474-3.837-6.713q-1.14-1.994-2.246-4.009a7.7 7.7 0 0 1-.478-1.158 1.3 1.3 0 0 1 .364-1.519 1.2 1.2 0 0 1 1.533.19 7.371 7.371 0 0 1 1.041 1.021 78.48 78.48 0 0 1 8.726 11.718 122.432 122.432 0 0 1 6.939 13.815 74.822 74.822 0 0 1 3.767 10.842c.45 1.817.792 3.665 1.163 5.401z" class="cls-15" data-name="Path 974" transform="translate(-288.58 -47.542)"/>
                        <path id="Path_975" d="M348.107 73.781a3.865 3.865 0 0 1-.44 2.413 1.839 1.839 0 0 1-2.994.512 4.761 4.761 0 0 1-.954-1.352 8.36 8.36 0 0 1-.657-1.756 57.139 57.139 0 0 0-3.1-8.858c-.331-.769-.644-1.546-.914-2.335a7.281 7.281 0 0 1-.3-1.421 1.159 1.159 0 0 1 .6-1.236 1.213 1.213 0 0 1 1.361.219 6.91 6.91 0 0 1 1.6 1.631 33.116 33.116 0 0 1 5.526 11.164c.1.407.216.807.272 1.019z" class="cls-15" data-name="Path 975" transform="translate(-275.218 -36.73)"/>
                    </g>
                    <path id="Path_976" d="M346.024 94.485a38.876 38.876 0 0 1-.387 12.967 21.36 21.36 0 0 1-4.659 10.149 13.19 13.19 0 0 1-10.288 4.769 18.727 18.727 0 0 1-8.259-2.038 31.521 31.521 0 0 1-7.8-5.555 49.129 49.129 0 0 1-8.2-10.268 60.412 60.412 0 0 1-6.631-15.521 53.649 53.649 0 0 1-1.9-11.736c-.237-5.77.378-11.421 3.126-16.652a15.883 15.883 0 0 1 4.525-5.412 13.526 13.526 0 0 1 10.916-2.36 22.137 22.137 0 0 1 8.932 3.9c6.134 4.308 10.534 10.069 14.049 16.594a59.8 59.8 0 0 1 5.213 13.421 37.946 37.946 0 0 1 1.363 7.742z" class="cls-16" data-name="Path 976" transform="translate(-297.847 -36.278)"/>
                    <g id="Group_537" data-name="Group 537" transform="translate(6.293 24.469)">
                        <path id="Path_977" d="M300.747 73.667c-.074-4.016-.355-8.056.8-12.015a11.326 11.326 0 0 1 1.913-4.369c.494-.583.988-1.238 1.9-1.014.668.165 1.041.907.979 2.109-.087 1.669-.259 3.334-.375 5-.045.623-.058 1.249-.056 1.875.007 1.251.134 2.494.051 3.759a10.253 10.253 0 0 0 .427 3.515 8.54 8.54 0 0 1 .306 1.213 53.717 53.717 0 0 0 3.474 12.66 46.232 46.232 0 0 0 8.013 13.39 24.518 24.518 0 0 0 7.345 5.788 10.045 10.045 0 0 1 1.949 1.2 2.31 2.31 0 0 1-.161 3.77 3.39 3.39 0 0 1-2.547.688 14.265 14.265 0 0 1-6.5-2.69 32.008 32.008 0 0 1-7.176-7.546 61.54 61.54 0 0 1-9.133-20.741c-.538-2.152-.808-4.373-1.209-6.592z" class="cls-5" data-name="Path 977" transform="translate(-300.663 -56.224)"/>
                        <path id="Path_978" d="M326.067 84.093a22.12 22.12 0 0 1-.769 10.1 5.969 5.969 0 0 1-1.629 2.869 2.086 2.086 0 0 1-3.531-.827 3.6 3.6 0 0 1-.241-1.218 6.127 6.127 0 0 1 .121-1.658c.988-3.9.458-7.79-.317-11.6a36.3 36.3 0 0 0-4.664-11.783 46.489 46.489 0 0 0-6.5-8.409 11.956 11.956 0 0 1-1.468-1.756 1.182 1.182 0 0 1 .961-1.821 4.3 4.3 0 0 1 1.423.25 14.139 14.139 0 0 1 5.852 3.519 38.2 38.2 0 0 1 9.736 16.793 24.756 24.756 0 0 1 1.026 5.541z" class="cls-5" data-name="Path 978" transform="translate(-292.989 -54.047)"/>
                        <path id="Path_979" d="M306.657 69.383a7.923 7.923 0 0 1 0-3.037 8.629 8.629 0 0 1 .36-1.191 1.79 1.79 0 0 1 1.511-1.272c.838-.038 1.175.637 1.491 1.263a10 10 0 0 1 .572 1.341 39.729 39.729 0 0 0 5.941 10.713 10.809 10.809 0 0 1 1.3 2.364 2.466 2.466 0 0 1-.751 2.831 2.2 2.2 0 0 1-2.681.4 4.711 4.711 0 0 1-1.5-1.088 30.269 30.269 0 0 1-4.6-6.918 12.741 12.741 0 0 1-1.643-5.406z" class="cls-5" data-name="Path 979" transform="translate(-293.45 -46.769)"/>
                    </g>
                    <path id="Path_980" fill="#965a4d" d="M384.643 85.42a23.96 23.96 0 0 1-4.657 17.336 51.248 51.248 0 0 1-14.069 12.956 84.306 84.306 0 0 1-22.717 10.424c-3.144.914-6.328 1.633-9.539 2.279-2.261.456-4.518.836-6.8 1.082a5.013 5.013 0 0 0-1.225.253 6.8 6.8 0 0 1-2.876.456 64.28 64.28 0 0 0-6.467.3c-.349.009-.7.038-1.044.016-.279-.02-.581-.1-.67-.407a.564.564 0 0 1 .36-.664c.246-.132.507-.232.755-.36a14.411 14.411 0 0 0 6.536-6.547 6.312 6.312 0 0 1 3.057-2.954 51.089 51.089 0 0 1 11.242-3.846c2.235-.536 4.518-.816 6.777-1.227a67.408 67.408 0 0 0 9.975-2.212 25.361 25.361 0 0 0 11.028-6.925 15.964 15.964 0 0 0 4.208-11.488 20.482 20.482 0 0 0-3.162-10.27 34.975 34.975 0 0 0-8.248-9.367c-1.922-1.493-4.011-2.773-6.071-4.076a46.569 46.569 0 0 1-7.372-5.477 17.085 17.085 0 0 1-4.708-7.3 21.354 21.354 0 0 1-.693-9.483 5.362 5.362 0 0 1 .134-.612c.375-1.446.666-1.654 2.038-1.216 1.193.384 2.366.838 3.522 1.325a42.987 42.987 0 0 1 14.033 9.658c1.417 1.439 2.831 2.885 4.311 4.261a24.572 24.572 0 0 0 5.258 3.759 79.423 79.423 0 0 1 6.972 3.808 23.237 23.237 0 0 1 9.732 13.407 3.886 3.886 0 0 1 .129.612c.083.834.166 1.666.251 2.499z" data-name="Path 980" transform="translate(-277.228 -44.515)" style="mix-blend-mode:multiply;isolation:isolate" opacity="0.5"/>
                    <path id="Path_981" d="M341.837 94.37a39.629 39.629 0 0 1-.349 12.931 21.626 21.626 0 0 1-4.724 10.346 13.122 13.122 0 0 1-9.682 4.717 18.339 18.339 0 0 1-8.313-1.8 29.637 29.637 0 0 1-7.135-4.7 2.638 2.638 0 0 1-.281-.308.517.517 0 0 1 .248-.831c.735-.217 1.466-.456 2.215-.608a12.779 12.779 0 0 0 7.586-4.878 24.64 24.64 0 0 0 5.3-13.848c.342-4.889-1.008-9.381-3.059-13.711a34.774 34.774 0 0 0-11.11-13.121c-1.683-1.242-3.394-2.442-5.068-3.694a17.745 17.745 0 0 1-4.885-5.108 15.042 15.042 0 0 1-1.3-3.515 1.13 1.13 0 0 1 .487-1.283 9.6 9.6 0 0 1 3.314-1.747 16.421 16.421 0 0 1 6.628-.5 23.041 23.041 0 0 1 9.542 4.042c5.955 4.183 10.266 9.754 13.738 16.058a59.7 59.7 0 0 1 5.5 13.979 36.34 36.34 0 0 1 1.348 7.579z" class="cls-18" data-name="Path 981" transform="translate(-293.672 -36.28)"/>
                </g>
                <path id="Path_982" d="M343.614 131.806a58.724 58.724 0 0 1-9.756.291c-1.318-.056-2.635.215-3.966.1a23.333 23.333 0 0 1-12-5 47.121 47.121 0 0 1-12.518-14.719 57.824 57.824 0 0 1-7.62-24.982 32.816 32.816 0 0 1 2.333-15.977 20.475 20.475 0 0 1 3.989-6.069 69.18 69.18 0 0 1 13.206-10.54 65.885 65.885 0 0 1 20.135-8.51 51.86 51.86 0 0 1 11.6-1.417 38.094 38.094 0 0 1 18.96 4.335 48.092 48.092 0 0 1 6.42 3.91 72.874 72.874 0 0 1 5.437 4.887c1.723 1.625 3.327 3.379 5.095 4.952a21.841 21.841 0 0 0 4.38 2.833c2.031 1.079 4.127 2.065 6.051 3.314 6.672 4.326 10.6 10.415 11.112 18.431a24.132 24.132 0 0 1-3.039 13.282 37.161 37.161 0 0 1-6.726 8.762 72.667 72.667 0 0 1-18.163 12.567 87.216 87.216 0 0 1-17.012 6.353c-3.155.851-6.375 1.461-9.6 2.045-2.401.437-4.812.739-8.318 1.152zm.527-1.488v.016c1.942-.2 3.9-.308 5.821-.623 2.261-.369 4.485-.97 6.744-1.372a74.953 74.953 0 0 0 11.861-3.3 83.485 83.485 0 0 0 14.386-6.688 71.116 71.116 0 0 0 11.18-8.042 35.237 35.237 0 0 0 7.7-9.294c3.133-5.66 4.188-11.613 2.418-17.932a21.687 21.687 0 0 0-9.244-12.491c-2.268-1.508-4.762-2.621-7.157-3.9a22.127 22.127 0 0 1-3.479-2.3c-2.284-1.846-4.246-4.027-6.359-6.049a49.232 49.232 0 0 0-8.552-6.666 38.078 38.078 0 0 0-20.36-5.327 50.9 50.9 0 0 0-11.189 1.35 64.6 64.6 0 0 0-18.893 7.678 75.866 75.866 0 0 0-8.406 5.846c-.156.127-.317.295-.188.5.049.076.266.087.391.06a9.112 9.112 0 0 1 1.823-.411 20.74 20.74 0 0 1 7.584 1.222 32.2 32.2 0 0 1 11.284 7.765 53.394 53.394 0 0 1 9.627 13.85 67.794 67.794 0 0 1 5.919 19.514 9.306 9.306 0 0 1 .025 1.457 15.4 15.4 0 0 0-.007 1.667 31.475 31.475 0 0 1-.947 11.191c-1.231 4.862-3.466 9.113-7.745 12.029a1.089 1.089 0 0 0-.313.273.443.443 0 0 0-.067.362.415.415 0 0 0 .317.2c1.945-.183 3.885-.386 5.826-.585zm-44.812-40.933a37.215 37.215 0 0 0 1.488 8.97c2.822 9.749 7.477 18.464 14.875 25.541a25.974 25.974 0 0 0 11.47 6.628 14.477 14.477 0 0 0 7.85-.2 12.711 12.711 0 0 0 6.941-5.443 23.043 23.043 0 0 0 3.164-7.7 44.179 44.179 0 0 0 .731-12.058 41.181 41.181 0 0 0-1.274-7.4 57.633 57.633 0 0 0-5.569-14.833c-3.484-6.377-7.8-12.035-13.81-16.27a21.414 21.414 0 0 0-10.849-4.022 10.738 10.738 0 0 0-3.928.465 14.044 14.044 0 0 0-8.941 8.219A30.7 30.7 0 0 0 299.2 79.3a33.167 33.167 0 0 0 .129 10.085z" class="cls-8" data-name="Path 982" transform="translate(-297.609 -44.984)"/>
            </g>
            <g id="Group_542" data-name="Group 542" transform="translate(49.855 43.351)">
                <g id="Group_541" data-name="Group 541" transform="translate(.61 .643)">
                    <path id="Path_983" d="M351.937 64.829A12.681 12.681 0 0 1 359 65.8a12.345 12.345 0 0 1 3.173 1.989 2.793 2.793 0 0 0 2.011.921c.787-.038 1.41.556 2.038.974a25.691 25.691 0 0 1 6.33 6.029 29.112 29.112 0 0 1 5.242 10.621c.621 2.608 1.542 5.238 1.082 8.018a38.6 38.6 0 0 1-1.294 12 50.752 50.752 0 0 1-6.111 14.373 48.606 48.606 0 0 1-4.822 6.813c-2.86 3.242-5.8 6.4-9.714 8.462a19.332 19.332 0 0 1-7.311 2.353 23.726 23.726 0 0 1-12.63-2.1 24.534 24.534 0 0 1-4.172-2.378c-.659-.5-1.461-.811-1.732-1.721-.13-.429-.619-.534-.985-.72a16.248 16.248 0 0 1-8.091-9.43 18.4 18.4 0 0 1-1.2-4.639 10.942 10.942 0 0 0-.319-1.421 7.208 7.208 0 0 1-.248-1.225 52.841 52.841 0 0 1 3.005-20.737 65.216 65.216 0 0 1 5.81-12.026 42.252 42.252 0 0 1 14.122-14.266 20.568 20.568 0 0 1 8.753-2.861z" class="cls-16" data-name="Path 983" transform="translate(-320.193 -64.671)"/>
                    <g id="Group_540" data-name="Group 540" transform="translate(6.037 8.403)">
                        <path id="Path_984" d="M342.247 68.437a3.565 3.565 0 0 1 .478.007 1.272 1.272 0 0 1 1.086 1.828 5.5 5.5 0 0 1-1.343 1.848 53.128 53.128 0 0 0-3.629 4.04 35.087 35.087 0 0 0-3.685 5.575 51.273 51.273 0 0 0-5.9 18.63 30.468 30.468 0 0 0 1.289 13.209 18.647 18.647 0 0 1 .59 2 2.585 2.585 0 0 1-4.353 2.534 8.259 8.259 0 0 1-2.268-3.468 27.1 27.1 0 0 1-1.62-9.615 48.451 48.451 0 0 1 2.438-14.791 45.71 45.71 0 0 1 10.027-17.45 18.817 18.817 0 0 1 4.393-3.515 5.55 5.55 0 0 1 2.497-.832z" class="cls-5" data-name="Path 984" transform="translate(-322.895 -68.432)"/>
                        <path id="Path_985" d="M347.449 76.375c.324 7.363-.089 14.632-2.778 21.608a51.027 51.027 0 0 1-3.3 7.68 19.477 19.477 0 0 1-6.125 6.753 9.076 9.076 0 0 1-1.654.887 2.377 2.377 0 0 1-3.1-3 4.885 4.885 0 0 1 1.182-1.951 29.635 29.635 0 0 0 6.058-10.172A58.079 58.079 0 0 0 341.444 86c.619-3.852 1.207-7.714 1.54-11.606.06-.695.141-1.39.252-2.076a3.183 3.183 0 0 1 .313-.99 1.365 1.365 0 0 1 2.4-.139 4.366 4.366 0 0 1 .543 1.126 16.774 16.774 0 0 1 .957 4.06z" class="cls-5" data-name="Path 985" transform="translate(-313.706 -65.823)"/>
                        <path id="Path_986" d="M358.638 80.914a17.94 17.94 0 0 1-.36 5.575 43.833 43.833 0 0 1-6.494 15.054 54.669 54.669 0 0 1-4.679 6.136 40.592 40.592 0 0 1-8.574 7.58 12.1 12.1 0 0 1-1.651.887 2.789 2.789 0 0 1-2.038.114 1.806 1.806 0 0 1-1.316-2.26 3.391 3.391 0 0 1 .883-1.636c.485-.5.994-.972 1.52-1.428a64.515 64.515 0 0 0 10.925-12.281 73.512 73.512 0 0 0 8.225-16.37c.264-.72.527-1.439.807-2.152a5.582 5.582 0 0 1 .447-.941 1.115 1.115 0 0 1 1.234-.581 1.059 1.059 0 0 1 .84.836c.12.542.175 1.098.231 1.467z" class="cls-5" data-name="Path 986" transform="translate(-309.846 -55.902)"/>
                        <path id="Path_987" d="M337.145 76.946a43.444 43.444 0 0 1-.771 7.687c-.268 1.437-.61 2.86-.921 4.288a11.285 11.285 0 0 1-1.421 3.24 4.931 4.931 0 0 1-2.141 1.935 1.644 1.644 0 0 1-2.2-.565 3.9 3.9 0 0 1-.722-2.563 13.084 13.084 0 0 1 .362-2.051c1.066-3.459 2.089-6.936 3.423-10.306.384-.968.863-1.9 1.316-2.842a2.637 2.637 0 0 1 .934-1.1 1.185 1.185 0 0 1 1.767.465 4.162 4.162 0 0 1 .374 1.812z" class="cls-5" data-name="Path 987" transform="translate(-315.431 -61.006)"/>
                    </g>
                    <path id="Path_988" d="M341.2 64.725a12.94 12.94 0 0 1 9.155 2.836c.7.552 1.269 1.249 2.355 1.14.688-.069 1.276.518 1.846.9a26.191 26.191 0 0 1 6.6 6.342 29.111 29.111 0 0 1 5.028 10.268c.639 2.677 1.564 5.374 1.106 8.223a38.386 38.386 0 0 1-1.271 11.8 50.927 50.927 0 0 1-6.082 14.384 47.4 47.4 0 0 1-4.816 6.82c-2.773 3.128-5.586 6.2-9.329 8.281a20.526 20.526 0 0 1-7.251 2.538 22.394 22.394 0 0 1-8.3-.416 2.508 2.508 0 0 1-.57-.257c-.051-.027-.118-.121-.1-.161.038-.112.089-.277.177-.308 1.251-.427 2.5-.874 3.768-1.242 5.164-1.506 8.8-4.954 11.711-9.276a43.126 43.126 0 0 0 6.809-17.38 29.258 29.258 0 0 0-1.108-14.2A46.129 46.129 0 0 0 344.56 83.3a33.322 33.322 0 0 1-4.914-8.938 24.633 24.633 0 0 1-.869-7.026 5.9 5.9 0 0 1 .183-1.238 1.433 1.433 0 0 1 1.412-1.294c.278-.014.555-.052.828-.079z" class="cls-18" data-name="Path 988" transform="translate(-308.615 -64.641)"/>
                </g>
                <path id="Path_989" d="M379.676 91.318a42.266 42.266 0 0 1-1.982 18.518 56.366 56.366 0 0 1-15.226 23.653 21.5 21.5 0 0 1-18.113 5.763 26.464 26.464 0 0 1-11.048-4.208 57.025 57.025 0 0 1-6.471-4.956 17.583 17.583 0 0 1-5.146-7.749 32.493 32.493 0 0 1-1.756-11.707 55.8 55.8 0 0 1 8.8-28.209 48.236 48.236 0 0 1 10.029-11.709 26.906 26.906 0 0 1 12.23-6.08 14.156 14.156 0 0 1 7.421.594 33.382 33.382 0 0 1 12.259 7.41 30.58 30.58 0 0 1 7.387 11.533 24.029 24.029 0 0 1 1.616 7.147zm-58.2 24.515a27.7 27.7 0 0 0 1.093 5.039 17.6 17.6 0 0 0 3.238 6.286 12.463 12.463 0 0 0 11.175 4.938 20.948 20.948 0 0 0 9.6-3.271 42 42 0 0 0 13.146-13.519 59.867 59.867 0 0 0 7.142-16.214 52.2 52.2 0 0 0 1.671-15.935 24.4 24.4 0 0 0-.972-4.914 19.476 19.476 0 0 0-3.055-6.833 12.71 12.71 0 0 0-12.1-5.613 20.944 20.944 0 0 0-10.214 3.966A41.532 41.532 0 0 0 331.87 80a58.971 58.971 0 0 0-8.57 17.588 47.9 47.9 0 0 0-1.821 18.245zm56.8-23.539a31.444 31.444 0 0 0-.407-3.741 31.314 31.314 0 0 0-8.035-14.911 17.94 17.94 0 0 0-3.417-2.746.4.4 0 0 0-.366 0 .394.394 0 0 0-.08.366c.48.927 1.035 1.821 1.473 2.766 2.047 4.4 2.491 9.126 2.442 13.865a47.353 47.353 0 0 1-2.632 14.563 57.483 57.483 0 0 1-11.64 20.361A38.171 38.171 0 0 1 345.373 131a18.682 18.682 0 0 1-7.736 2.393 20.4 20.4 0 0 1-3.544 0c-.081-.009-.192.132-.264.221-.022.029.022.143.067.181a5.193 5.193 0 0 0 .652.518 24.147 24.147 0 0 0 13.083 3.75 20.643 20.643 0 0 0 14.165-5.832 49.406 49.406 0 0 0 7.034-7.977 56.286 56.286 0 0 0 7.265-14.073 40.178 40.178 0 0 0 2.187-17.887z" class="cls-8" data-name="Path 989" transform="translate(-319.92 -64.384)"/>
            </g>
        </g>
        <g id="grocery_1_" class="cls-19" data-name="grocery (1)" transform="translate(1542.766 416.769)">
            <path id="Path_1351" d="M60.58 81.464c0-2.082 1.3-3.969 3.394-5.343a4.524 4.524 0 0 1-.338-5.528 13.519 13.519 0 0 0-12.079-2.12c-10.309 4.078-11.126 13.46-8.034 19.272H65.7c-3.091-1.375-5.12-3.676-5.12-6.281z" class="cls-20" data-name="Path 1351" transform="translate(-16.864 -32.354)"/>
            <path id="Path_1352" d="M160.06 42.236a11.765 11.765 0 0 0-23.131 3.037v24.739h23.531V45.274a11.666 11.666 0 0 0-.4-3.038z" class="cls-21" data-name="Path 1352" transform="translate(-65.847 -14.622)"/>
            <path id="Path_1353" d="M92.113 34.44v10.482a5.577 5.577 0 0 0-6.413-.309 4.613 4.613 0 0 0-3.094-1.26c-3.042 0-5.519 3.28-5.647 7.4a7.6 7.6 0 0 0-3.08 2.591A13.519 13.519 0 0 0 61.8 51.221V34.44z" class="cls-22" data-name="Path 1353" transform="translate(-27.105 -15.103)"/>
            <path id="Path_1354" d="M86.4 21.31H67.512L61.8 27.67h30.313z" class="cls-23" data-name="Path 1354" transform="translate(-27.104 -8.332)"/>
            <path id="Path_1355" d="M187.938 76.35c-1.122.827-2.12 1.5-2.852 1.934V53.546a11.668 11.668 0 0 0-.4-3.038 9.106 9.106 0 0 1 2.6-.851A8.342 8.342 0 0 1 193.1 50.9a7.88 7.88 0 0 0 1.074 1.265l2.862 2.762a8.307 8.307 0 0 0 1.307 1.032c4.757 7.518-3.26 15.124-10.405 20.391z" class="cls-20" data-name="Path 1355" transform="translate(-90.473 -22.895)"/>
            <path id="Path_1356" fill="#b35034" d="M187.938 54.092v22.371c-1.122.827-2.12 1.5-2.852 1.934V53.66a11.668 11.668 0 0 0-.4-3.038 9.107 9.107 0 0 1 2.6-.851 14.438 14.438 0 0 1 .651 4.321z" data-name="Path 1356" transform="translate(-90.473 -23.009)"/>
            <path id="Path_1357" d="M217.423 42.153c-3.461 3.592-7.295 5.477-11.718 2.672a8.31 8.31 0 0 1-1.307-1.032l-2.861-2.762a7.883 7.883 0 0 1-1.074-1.265c-2.98-4.346-1.19-8.244 2.244-11.808 5.126 4.939 4.857 9.7 1.645 13.03 3.102-3.236 7.832-3.888 13.071 1.165z" class="cls-25" data-name="Path 1357" transform="translate(-97.824 -11.758)"/>
            <path id="Path_1358" d="M123.634 60.842V80.4h-8.923c6.432-2.814 6.536-8.566 1.735-11.623 2.41-3.014.742-6.427-2.748-8.119a8.594 8.594 0 0 0-2.552-6.137 5.577 5.577 0 0 1 6.413.309 10.875 10.875 0 0 1 4.017 5.491 10.5 10.5 0 0 1 2.058.523z" class="cls-26" data-name="Path 1358" transform="translate(-52.552 -25.009)"/>
            <path id="Path_1359" d="M100.605 68.359c2.41-3.014.742-6.427-2.748-8.119a8.594 8.594 0 0 0-2.552-6.14 4.613 4.613 0 0 0-3.094-1.26c-3.042 0-5.519 3.28-5.647 7.4a7.6 7.6 0 0 0-3.08 2.591 4.524 4.524 0 0 0 .338 5.528c-2.1 1.374-3.394 3.261-3.394 5.343 0 2.6 2.03 4.906 5.124 6.28H98.87c6.43-2.814 6.537-8.566 1.735-11.623z" class="cls-25" data-name="Path 1359" transform="translate(-36.711 -24.593)"/>
            <path id="Path_1360" d="M53.419 108.875h68.828v68.7H53.419z" class="cls-27" data-name="Path 1360" transform="translate(-22.784 -53.486)"/>
            <path id="Path_1361" fill="#f9e5af" d="M121.39 179.059H69.776a1.211 1.211 0 0 1 0-2.422h50.4V120a1.211 1.211 0 0 1 2.422 0v57.848a1.211 1.211 0 0 1-1.208 1.211zm-56.457 0h-2.561a1.211 1.211 0 1 1 0-2.422h2.561a1.211 1.211 0 0 1 0 2.422z" data-name="Path 1361" transform="translate(-26.776 -58.598)"/>
            <path id="Path_1362" d="M73.6 7.651h18.882v6.616H73.6z" class="cls-22" data-name="Path 1362" transform="translate(-33.189 -1.289)"/>
            <g id="Group_737" data-name="Group 737" transform="translate(56.108 63.15)">
                <path id="Path_1363" d="M118.256 216.909c-2.246-1-3.813-.532-4.345.664s.175 2.671 2.421 3.668 5.713-.057 5.713-.057-1.545-3.277-3.789-4.275z" class="cls-26" data-name="Path 1363" transform="translate(-109.999 -172.065)"/>
                <path id="Path_1364" d="M108.256 179.741s-2.3 2.8-2.243 5.254 1.151 3.674 2.46 3.643 2.339-1.3 2.28-3.758-2.497-5.139-2.497-5.139z" class="cls-26" data-name="Path 1364" transform="translate(-106.012 -153.179)"/>
                <path id="Path_1365" d="M138.417 189.984c-2.373.639-3.3 1.988-2.957 3.252s1.817 1.965 4.191 1.326 4.4-3.641 4.4-3.641-3.261-1.577-5.634-.937z" class="cls-26" data-name="Path 1365" transform="translate(-121.162 -158.382)"/>
                <path id="Path_1366" d="M125.559 155.385c-.639-2.373-3.641-4.4-3.641-4.4s-1.576 3.263-.937 5.636 1.988 3.3 3.252 2.957 1.967-1.82 1.326-4.193z" class="cls-26" data-name="Path 1366" transform="translate(-113.652 -138.349)"/>
                <path id="Path_1367" d="M137.989 129.3c-.639-2.373-3.641-4.4-3.641-4.4s-1.576 3.263-.937 5.636 1.988 3.3 3.252 2.957 1.965-1.818 1.326-4.193z" class="cls-26" data-name="Path 1367" transform="translate(-120.061 -124.899)"/>
                <path id="Path_1368" d="M150.673 154.853c-1.67 1.8-1.737 3.436-.776 4.326s2.584.7 4.254-1.1 1.794-5.425 1.794-5.425-3.6.4-5.271 2.2z" class="cls-26" data-name="Path 1368" transform="translate(-128.32 -139.209)"/>
            </g>
            <path id="Path_1369" d="M22.753 55.424c-2.077-.686-4.222-1.286-5.426-6.473-1.109 4.778-2.886 5.634-5.426 6.473 4.142 1.369 4.767 3.635 5.426 6.473 1.136-4.897 3.013-5.676 5.426-6.473z" class="cls-27" data-name="Path 1369" transform="translate(-1.376 -22.586)"/>
            <path id="Path_1370" d="M231.725 14.419c-2.077-.686-4.222-1.286-5.426-6.473-1.109 4.778-2.886 5.634-5.426 6.473 4.142 1.369 4.767 3.635 5.426 6.473 1.135-4.892 3.013-5.676 5.426-6.473z" class="cls-27" data-name="Path 1370" transform="translate(-109.133 -1.441)"/>
            <path id="Path_1371" d="M232.544 85.252c-2.077-.686-4.222-1.286-5.426-6.473-1.109 4.778-2.886 5.634-5.426 6.473 4.142 1.369 4.767 3.635 5.426 6.473 1.136-4.892 3.013-5.676 5.426-6.473z" class="cls-27" data-name="Path 1371" transform="translate(-109.556 -37.967)"/>
            <path id="Path_1372" d="M32.291 108.875v68.7l5.117-2.339 5.117 2.339v-68.7z" class="cls-21" data-name="Path 1372" transform="translate(-11.889 -53.486)"/>
            <path id="Path_1373" d="M194.241 142.17a1.211 1.211 0 1 0 1.206 1.211 1.211 1.211 0 0 0-1.206-1.211z" data-name="Path 1373" transform="translate(-94.775 -70.655)"/>
            <path id="Path_1374" d="M131.071 31.234a1.211 1.211 0 0 0-.032-1.712c-3.556-3.426-7.285-4.692-10.609-3.755.946-3.961-1.178-7.611-4.118-10.444a1.206 1.206 0 0 0-1.712.032c-3.475 3.607-4.73 7.016-3.8 10.34a9.186 9.186 0 0 0-5.213.291 12.247 12.247 0 0 0-1.976-3.428 1.242 1.242 0 0 0-1.705-.179 1.21 1.21 0 0 0-.179 1.7A10.529 10.529 0 0 1 104 30.651v23.53H82.894v-4.493h6.392a1.211 1.211 0 0 0 0-2.422h-6.391v-5.075h6.392a1.211 1.211 0 1 0 0-2.422h-6.392v-5.076h6.392a1.211 1.211 0 1 0 0-2.422h-6.392v-1.62A10.594 10.594 0 0 1 93.448 20.1c.266 0 .538.01.8.029a1.212 1.212 0 0 0 .184-2.417c-.325-.024-.654-.034-.983-.034a12.962 12.962 0 0 0-12.976 12.973v3.49a12.055 12.055 0 0 0-3.654-4.931v-9.873a1.264 1.264 0 0 0-.309-.81l-5.405-6.014V6.362a1.211 1.211 0 0 0-1.211-1.211H51.008A1.211 1.211 0 0 0 49.8 6.362v6.151l-5.406 6.014a1.256 1.256 0 0 0-.309.81v15.984a19.764 19.764 0 0 0-2.765 1.465 7.246 7.246 0 0 1-.129-3.685 1.211 1.211 0 0 0-2.364-.525 9.632 9.632 0 0 0 .462 5.744 14.607 14.607 0 0 0-2.5 2.861 1.213 1.213 0 0 0 .339 1.681 1.247 1.247 0 0 0 1.681-.339 12.05 12.05 0 0 1 1.67-1.983 13.135 13.135 0 0 0 1.25 1.56 3.85 3.85 0 0 1-.8.2 1.211 1.211 0 0 0 .334 2.4 6.617 6.617 0 0 0 5.135-4.165 1.211 1.211 0 0 0-2.282-.81 4.258 4.258 0 0 1-.48.872 10.432 10.432 0 0 1-1.272-1.587 17.571 17.571 0 0 1 3.326-1.745A12.38 12.38 0 0 1 55.8 38.63a5.682 5.682 0 0 0 .263 4.842c-3.635 2.975-4.022 7.4-.639 10.709H38.006a12.661 12.661 0 0 1-.973-3.258 1.211 1.211 0 0 0-2.393.378 15.071 15.071 0 0 0 .762 2.88H31a1.211 1.211 0 0 0-1.211 1.211v68.7a1.211 1.211 0 0 0 1.715 1.1l4.613-2.109 4.613 2.109a1.249 1.249 0 0 0 .507.109h68.826a1.2 1.2 0 0 0 1.206-1.211V77.57a1.208 1.208 0 1 0-2.416 0v45.31H42.447V56.6h66.4l.005 11.28a1.211 1.211 0 1 0 2.422 0h-.005V55.392a1.2 1.2 0 0 0-1.206-1.211h-.945c3.982-2.941 13.857-10.509 11.697-18.781 3.967.988 7.421-1.227 10.256-4.17zM115.5 17.96c3.062 3.378 3.879 7.172.745 10.424l-.537.557a7.8 7.8 0 0 1-1.5-1.655c-2.033-2.99-1.641-5.9 1.3-9.326zm-69 16.629V20.548h27.9v7.309a6.613 6.613 0 0 0-5.1.2c-4.2-2.862-9.437.554-10.012 6.845a9.633 9.633 0 0 0-2.159 1.693 14.638 14.638 0 0 0-10.623-2zm27.05 8.421a1.212 1.212 0 0 0 .3 1.778c3.992 2.542 3.906 6.974-1.351 9.39h-5.19v-1.891l5.191-4.954a1.211 1.211 0 1 0-1.672-1.752l-3.52 3.359v-7.3l2.792-2.703a1.211 1.211 0 0 0-1.69-1.737l-1.1 1.069v-5.431a1.211 1.211 0 0 0-2.422 0v5.428l-1.259-1.222a1.211 1.211 0 1 0-1.686 1.738l2.946 2.86v7.3l-3.6-3.435a1.211 1.211 0 1 0-1.671 1.752l5.272 5.03v1.9h-5.178c-5.053-2.373-5.557-6.637-1.339-9.4a1.212 1.212 0 0 0 .284-1.767c-1.924-2.434-.416-4.915 2.334-6.28a1.211 1.211 0 0 0 .672-1.047c.107-3.432 2.1-6.224 4.437-6.224 2.544 0 4.344 3.083 4.437 6.222a1.21 1.21 0 0 0 .682 1.053c2.576 1.249 4.333 3.769 2.331 6.273zm4.93-7.31a1.21 1.21 0 0 0 .961.8 10.179 10.179 0 0 1 1.031.212v17.466h-3.677c3.364-3.291 2.9-7.8-.651-10.711 1.691-3.133.2-6.609-3.23-8.573a10.57 10.57 0 0 0-1.73-4.939c2.924-.643 6.028 2.077 7.3 5.75zM52.219 7.573h16.464v4.194H52.219zm-.671 6.616h17.807l3.539 3.938H48.009zM36.623 120.651a1.21 1.21 0 0 0-1.007 0l-3.4 1.555V56.6h7.812v65.6zM115.558 45l-4.658-4.486a1.211 1.211 0 1 0-1.681 1.743l4.73 4.561a54.3 54.3 0 0 1-7.529 6.326V30.651a12.935 12.935 0 0 0-.21-2.325 7.452 7.452 0 0 1 1.4-.369 7.1 7.1 0 0 1 4.78.957 40.789 40.789 0 0 0 5.2 5.02c1.95 3.284 1.284 6.945-2.032 11.066zm3.572-12.958a9.353 9.353 0 0 1-1.679-1.42l.539-.558c2.91-3.018 6.589-2.876 10.443.368-3.324 3.068-6.233 3.562-9.303 1.612z" data-name="Path 1374" transform="translate(-10.601)"/>
            <path id="Path_1375" d="M172.374 35.625a1.213 1.213 0 0 0-.5-1.637 1.239 1.239 0 0 0-1.637.5 1.21 1.21 0 1 0 2.136 1.138z" data-name="Path 1375" transform="translate(-82.949 -14.801)"/>
            <path id="Path_1376" d="M40.962 89.992a1.209 1.209 0 1 0 .489-2.368 1.223 1.223 0 0 0-1.429.94 1.2 1.2 0 0 0 .94 1.428z" data-name="Path 1376" transform="translate(-15.863 -42.515)"/>
            <path id="Path_1377" d="M86.628 209.62a1.213 1.213 0 0 0 1.545.741 38.251 38.251 0 0 0 17.1-12.055 1.21 1.21 0 0 0-.179-1.7 1.246 1.246 0 0 0-1.7.179 35.853 35.853 0 0 1-16.022 11.29 1.216 1.216 0 0 0-.744 1.545z" data-name="Path 1377" transform="translate(-39.874 -98.592)"/>
            <path id="Path_1378" d="M128.366 188.339a1.21 1.21 0 1 0 .4 1.666 1.212 1.212 0 0 0-.4-1.666z" data-name="Path 1378" transform="translate(-60.48 -94.37)"/>
            <path id="Path_1379" d="M114.546 221.06c1.925.841 4.548.563 6.519 0a1.216 1.216 0 0 0 .779-1.686 10.466 10.466 0 0 0-4.393-4.868c-3.132-1.377-5.245-.368-5.948 1.283-.885 2.018.4 4.1 3.042 5.265zm-.828-4.282c.459-.841 1.879-.44 2.751-.053a6.718 6.718 0 0 1 2.4 2.335 6.606 6.606 0 0 1-3.342-.213c-.884-.397-2.174-1.258-1.809-2.069z" data-name="Path 1379" transform="translate(-52.593 -107.625)"/>
            <path id="Path_1380" d="M107.133 188.56c1.794 0 3.541-1.392 3.541-5a10.472 10.472 0 0 0-2.8-5.919 1.212 1.212 0 0 0-1.831.044c-.7.817-2.523 3.463-2.523 6.054.058 2.461 1.188 4.821 3.613 4.821zm-1.2-4.95a6.826 6.826 0 0 1 1.085-3.1 6.606 6.606 0 0 1 1.235 3.114 3.871 3.871 0 0 1-.446 2.117.768.768 0 0 1-1.356-.01 4.013 4.013 0 0 1-.519-2.121z" data-name="Path 1380" transform="translate(-48.614 -88.74)"/>
            <path id="Path_1381" d="M138.668 194.442c2.3-.639 4.37-3.022 5.09-4.131a1.208 1.208 0 0 0-.557-1.807c-1.866-.842-4.409-1.514-6.393-.978-2.52.681-4.428 2.4-3.812 4.737.604 2.311 3.162 2.859 5.672 2.179zm-1.23-4.577a6.6 6.6 0 0 1 3.332.305 6.685 6.685 0 0 1-2.727 1.933c-.894.246-2.45.416-2.707-.47-.248-.869 1.186-1.523 2.102-1.768z" data-name="Path 1381" transform="translate(-63.759 -93.944)"/>
            <path id="Path_1382" d="M121.316 148.7a1.211 1.211 0 0 0-1.8.557c-.856 1.872-1.515 4.409-.983 6.4.668 2.471 2.387 4.442 4.737 3.812 2.268-.6 2.872-3.118 2.18-5.676a10.424 10.424 0 0 0-4.134-5.093zm1.313 8.423c-.863.263-1.525-1.21-1.763-2.1a6.623 6.623 0 0 1 .3-3.332 6.592 6.592 0 0 1 1.937 2.727c.243.901.412 2.446-.474 2.7z" data-name="Path 1382" transform="translate(-56.259 -73.911)"/>
            <path id="Path_1383" d="M137.853 127.7a10.416 10.416 0 0 0-4.117-5.081l-.014-.01a1.216 1.216 0 0 0-1.773.479c0 .484-1.827 3.463-1.012 6.476.462 1.71 1.422 3.358 3.125 3.812a35.545 35.545 0 0 1-3.009 17.31 1.21 1.21 0 0 0 2.209.988 37.932 37.932 0 0 0 3.2-18.636c1.785-1.067 1.927-3.319 1.391-5.338zm-4.277-2.1a6.634 6.634 0 0 1 1.937 2.727c.242.895.418 2.441-.47 2.707-.926.185-1.526-1.194-1.767-2.1a6.611 6.611 0 0 1 .3-3.334z" data-name="Path 1383" transform="translate(-62.649 -60.462)"/>
            <path id="Path_1384" d="M153.747 157.619c1.462-1.609 2.011-4.22 2.117-6.209a1.21 1.21 0 0 0-1.361-1.24 10.394 10.394 0 0 0-6.011 2.582c-1.845 1.986-2.408 4.5-.712 6.035 1.78 1.672 4.291.633 5.967-1.168zm-1.778-1.647c-.634.688-1.83 1.645-2.543 1.041-.661-.662.2-1.929.843-2.615a6.627 6.627 0 0 1 2.984-1.516 6.825 6.825 0 0 1-1.284 3.09z" data-name="Path 1384" transform="translate(-70.919 -74.78)"/>
            <path id="Path_1385" d="M17.214 47.282a1.3 1.3 0 0 0-2.523 0c-1.012 4.361-2.5 4.854-4.57 5.536a1.3 1.3 0 0 0 0 2.459c3.559 1.176 3.961 2.91 4.57 5.536a1.3 1.3 0 0 0 2.523 0c1.012-4.36 2.5-4.853 4.57-5.536a1.3 1.3 0 0 0 0-2.459c-1.972-.653-3.532-1.061-4.57-5.536zm-1.232 9.312a7.185 7.185 0 0 0-2.366-2.515 6.881 6.881 0 0 0 2.342-2.643 7.07 7.07 0 0 0 2.264 2.624 6.871 6.871 0 0 0-2.241 2.535z" data-name="Path 1385" transform="translate(0 -21.21)"/>
            <path id="Path_1386" d="M230.756 11.814c-1.972-.653-3.531-1.062-4.57-5.536a1.3 1.3 0 0 0-2.523 0c-1.012 4.361-2.5 4.854-4.57 5.536a1.3 1.3 0 0 0 0 2.459c3.559 1.176 3.961 2.91 4.57 5.536a1.3 1.3 0 0 0 2.523 0c1.012-4.36 2.5-4.853 4.57-5.536a1.3 1.3 0 0 0 0-2.46zm-5.8 3.776a7.185 7.185 0 0 0-2.366-2.515 6.881 6.881 0 0 0 2.342-2.643 7.07 7.07 0 0 0 2.264 2.624 6.868 6.868 0 0 0-2.24 2.533z" data-name="Path 1386" transform="translate(-107.758 -.067)"/>
            <path id="Path_1387" d="M231.575 82.647c-1.972-.653-3.531-1.062-4.57-5.536a1.3 1.3 0 0 0-2.523 0c-1.012 4.361-2.5 4.854-4.57 5.536a1.3 1.3 0 0 0 0 2.459c3.559 1.176 3.961 2.91 4.57 5.536a1.3 1.3 0 0 0 2.523 0c1.012-4.36 2.5-4.853 4.57-5.536a1.3 1.3 0 0 0 0-2.459zm-5.8 3.776a7.185 7.185 0 0 0-2.366-2.515 6.881 6.881 0 0 0 2.342-2.643 7.07 7.07 0 0 0 2.264 2.624 6.867 6.867 0 0 0-2.243 2.534z" data-name="Path 1387" transform="translate(-108.18 -36.592)"/>
        </g>
        <g id="healthy-food" class="cls-19" transform="translate(1319.882 407.007)">
            <path id="Path_1388" fill="#878787" d="M126.927 234.454v5.929a2.444 2.444 0 0 1-2.444 2.444H82.695a2.444 2.444 0 0 1-2.444-2.444v-5.929c.684.044 1.373.068 2.067.068h42.542c.694 0 1.383-.022 2.067-.068z" data-name="Path 1388" transform="translate(-31.633 -118.885)"/>
            <path id="Path_1389" d="M172.632 29.968c.4 3.639 3.759 5.31 7.9 3.908 3.08 2.9 7.269 3.482 9.481 1.27s1.629-6.4-1.27-9.481c1.412-4.169-.3-7.5-3.908-7.9.525-2.524.1-4.837-1.418-6.351-3.057-3.057-9.37-1.7-14.1 3.033s-6.089 11.045-3.033 14.1c1.516 1.517 3.824 1.947 6.348 1.421z" class="cls-25" data-name="Path 1389" transform="translate(-74.78 -4.022)"/>
            <path id="Path_1390" d="M57.092 86.292c3.9-.43 5.684-4.023 4.183-8.454 3.1-3.3 3.728-7.781 1.36-10.149s-6.852-1.744-10.149 1.36c-4.462-1.512-8.028.317-8.454 4.183-2.7-.563-5.178-.1-6.8 1.518-3.272 3.272-1.819 10.03 3.246 15.095s11.822 6.518 15.096 3.246c1.62-1.621 2.08-4.097 1.518-6.799z" class="cls-25" data-name="Path 1390" transform="translate(-8.746 -32.892)"/>
            <path id="Path_1391" d="M67.147 24.351a6.914 6.914 0 0 0 9.779 0l-9.779-9.779a6.914 6.914 0 0 0 0 9.779z" class="cls-20" data-name="Path 1391" transform="translate(-23.898 -6.472)"/>
            <circle id="Ellipse_170" cx="2.952" cy="2.952" r="2.952" class="cls-25" data-name="Ellipse 170" transform="rotate(-13.3 203.932 -254.186)"/>
            <circle id="Ellipse_171" cx="2.952" cy="2.952" r="2.952" class="cls-20" data-name="Ellipse 171" transform="rotate(-13.3 183.172 -333.602)"/>
            <path id="Path_1392" fill="#f0ab20" d="M111.071 6.769c-3.412 3.412-2.8 9.562-.162 12.2 2.094 2.094 4.947 1.445 7.741-.624a20.213 20.213 0 0 0 4-4c2.069-2.795 2.718-5.647.624-7.741-2.639-2.639-8.789-3.25-12.2.162z" data-name="Path 1392" transform="translate(-46.186 -1.279)"/>
            <path id="Path_1393" d="M137.818 33.516a3.5 3.5 0 0 1-5.214-.3l-3.565-4.482a20.213 20.213 0 0 0 4-4l4.482 3.565a3.5 3.5 0 0 1 .297 5.217z" class="cls-23" data-name="Path 1393" transform="translate(-56.575 -11.668)"/>
            <path id="Path_1394" fill="#fff" d="M184.865 75.311A14.2 14.2 0 1 1 164.778 95.4l4.189-4.189 11.71-11.71z" data-name="Path 1394" transform="translate(-74.846 -37.524)"/>
            <path id="Path_1395" d="M185.058 83.881a8.28 8.28 0 0 1-11.71 11.71z" class="cls-27" data-name="Path 1395" transform="translate(-79.228 -41.905)"/>
            <path id="Path_1396" d="M185.058 83.881a8.28 8.28 0 0 1-11.71 11.71z" class="cls-27" data-name="Path 1396" transform="translate(-79.228 -41.905)"/>
            <path id="Path_1397" d="M127.575 145.411H34.711c0-6.652 4.3-13.069 12.048-13.069A12.018 12.018 0 0 1 57 138.07a8.83 8.83 0 0 1 9.428-3.983 10.414 10.414 0 1 1 20.336-4.487 8.845 8.845 0 0 1 12.155 4.873 6.026 6.026 0 0 1 10.274 1.857c7.331-5.904 18.382-.43 18.382 9.081z" class="cls-23" data-name="Path 1397" transform="translate(-8.351 -60.966)"/>
            <path id="Path_1398" d="M123.145 170.774H23.33a2.445 2.445 0 0 0-2.439 2.644A31.186 31.186 0 0 0 49.9 201.9c.684.044 1.373.068 2.067.068h42.541c.694 0 1.383-.024 2.067-.068a31.188 31.188 0 0 0 29.008-28.475 2.446 2.446 0 0 0-2.439-2.649z" class="cls-22" data-name="Path 1398" transform="translate(-1.281 -86.329)"/>
            <path id="Path_1399" fill="#c5e5ff" d="M125.744 202.18H91.19a1.222 1.222 0 1 1 0-2.444h34.554a24.021 24.021 0 0 0 23.45-18.523 1.222 1.222 0 1 1 2.378.565 26.458 26.458 0 0 1-25.828 20.402zm-39.441 0H83.2a1.222 1.222 0 1 1 0-2.444h3.1a1.222 1.222 0 0 1 0 2.444z" data-name="Path 1399" transform="translate(-32.517 -91.185)"/>
            <path id="Path_1400" d="M188.809 24.067c1.134-4.185-.578-7.559-3.891-8.561a7.493 7.493 0 0 0-1.939-6.255c-3.588-3.587-10.542-2.256-15.83 3.033s-6.621 12.242-3.033 15.83a7.493 7.493 0 0 0 6.254 1.939c1.006 3.33 4.394 5.02 8.562 3.891 3.527 2.947 8.094 3.317 10.643.766s2.182-7.11-.766-10.643zm-.962 8.916c-1.712 1.713-5.2 1.131-7.78-1.3a1.221 1.221 0 0 0-1.23-.267c-3.031 1.027-5.948.242-6.292-2.884a1.222 1.222 0 0 0-1.464-1.062c-2.214.46-4.077.076-5.239-1.086-2.355-2.355-1.314-7.42 2.2-11.477l2.334 2.334-.174 7.384a1.222 1.222 0 1 0 2.443.058l.119-5.053 5.35 5.349-.06 4a1.222 1.222 0 0 0 2.444.036l.024-1.63 3.984 3.984a1.222 1.222 0 1 0 1.728-1.728l-3.985-3.985 1.861-.028a1.222 1.222 0 1 0-.036-2.443l-4.233.063L174.5 17.9l5.172-.122a1.222 1.222 0 0 0-.058-2.443l-7.5.176-2.334-2.334c4.057-3.516 9.123-4.557 11.477-2.2 1.162 1.162 1.547 3.022 1.086 5.239a1.222 1.222 0 0 0 1.062 1.464c3.012.332 3.963 3.109 2.884 6.292a1.222 1.222 0 0 0 .268 1.23c2.427 2.578 3.008 6.067 1.3 7.78z" data-name="Path 1400" transform="translate(-73.479 -2.723)"/>
            <path id="Path_1401" d="M55.136 92.679a7.956 7.956 0 0 0 2.043-6.7c3.6-1.047 5.384-4.682 4.163-9.122 3.152-3.747 3.56-8.606.854-11.311s-7.564-2.3-11.312.854c-4.475-1.231-8.083.6-9.122 4.163a7.96 7.96 0 0 0-6.7 2.043c-3.806 3.806-2.381 11.2 3.246 16.823s13.02 7.058 16.828 3.25zM36.795 74.338c1.457-1.457 3.677-1.6 5.685-1.185a1.223 1.223 0 0 0 1.464-1.063c.373-3.383 3.519-4.287 6.847-3.159a1.224 1.224 0 0 0 1.23-.267c2.793-2.629 6.582-3.25 8.447-1.386s1.243 5.654-1.386 8.447a1.222 1.222 0 0 0-.267 1.23c1.115 3.291.25 6.471-3.159 6.848a1.223 1.223 0 0 0-1.063 1.464c.5 2.4.079 4.421-1.185 5.685-2.565 2.565-8.086 1.43-12.474-2.412l2.591-2.591 7.969.187a1.222 1.222 0 0 0 .028-2.443l-5.609-.132 5.894-5.894 4.339.065a1.222 1.222 0 0 0 .018-2.444l-1.949-.029 4.409-4.409a1.222 1.222 0 0 0-1.724-1.728l-4.409 4.409-.033-2.2a1.222 1.222 0 0 0-1.221-1.2h-.019a1.221 1.221 0 0 0-1.2 1.24l.068 4.567-5.895 5.893-.14-5.731a1.222 1.222 0 1 0-2.443.057l.19 8.067-2.591 2.591c-3.841-4.388-4.977-9.908-2.412-12.474z" data-name="Path 1401" transform="translate(-7.444 -31.616)"/>
            <path id="Path_1402" d="M65 12.43a8.136 8.136 0 0 0 11.51 11.506 1.222 1.222 0 0 0 0-1.728l-9.779-9.778a1.222 1.222 0 0 0-1.731 0zm1.728 9.779a5.694 5.694 0 0 1-.772-7.094l7.865 7.865a5.7 5.7 0 0 1-7.09-.771z" data-name="Path 1402" transform="translate(-22.618 -5.194)"/>
            <path id="Path_1403" d="M110.344 80.209a4.174 4.174 0 1 0 4.174-4.174 4.178 4.178 0 0 0-4.174 4.174zm5.9 0a1.73 1.73 0 1 1-1.73-1.73 1.732 1.732 0 0 1 1.733 1.73z" data-name="Path 1403" transform="translate(-47.017 -37.894)"/>
            <path id="Path_1404" d="M154.945 66.084a4.173 4.173 0 1 0-4.174 4.173 4.179 4.179 0 0 0 4.174-4.173zm-5.9 0a1.729 1.729 0 1 1 1.729 1.73 1.732 1.732 0 0 1-1.732-1.73z" data-name="Path 1404" transform="translate(-65.552 -30.673)"/>
            <path id="Path_1405" d="M119.974 22.309a4.72 4.72 0 1 0 6.633-6.63l-3.593-2.858c2.734-4.347 1.119-7.075-.162-8.356-3.095-3.1-10.015-3.752-13.929.162s-3.28 10.811-.162 13.929c2.4 2.4 5.491 1.958 8.353.159zm5.307-1.325a2.274 2.274 0 0 1-3.394-.2l-2.8-3.526a22.91 22.91 0 0 0 2.476-2.477l3.527 2.805a2.274 2.274 0 0 1 .191 3.398zm-14.792-4.157c-2.272-2.272-2.652-7.659.162-10.473s8.171-2.463 10.473-.162c1.453 1.454 1.2 3.522-.744 6.153a19.136 19.136 0 0 1-3.74 3.74c-2.628 1.945-4.698 2.195-6.151.742z" data-name="Path 1405" transform="translate(-44.902)"/>
            <path id="Path_1406" d="M118.92 21.361l-.442-.089a1.222 1.222 0 0 0-.482 2.4l.442.089a1.222 1.222 0 0 0 .482-2.4z" data-name="Path 1406" transform="translate(-50.428 -9.885)"/>
            <path id="Path_1407" d="M127.1 15.576a1.222 1.222 0 0 0 .957-1.439l-.089-.442a1.222 1.222 0 1 0-2.4.482l.089.442a1.222 1.222 0 0 0 1.443.957z" data-name="Path 1407" transform="translate(-54.791 -5.522)"/>
            <path id="Path_1408" d="M147.7 99.682l.965-.965a1.222 1.222 0 0 0-1.728-1.728l-.965.965a1.222 1.222 0 0 0 1.728 1.728z" data-name="Path 1408" transform="translate(-65.047 -48.424)"/>
            <path id="Path_1409" d="M51.872 50.666l.965.965a1.222 1.222 0 1 0 1.727-1.731l-.965-.965a1.222 1.222 0 0 0-1.728 1.728z" data-name="Path 1409" transform="translate(-16.941 -23.858)"/>
            <path id="Path_1410" d="M188.927 85.242a15.338 15.338 0 0 0-4.477-12.062 1.252 1.252 0 0 0-1.725 0l-20.089 20.088a1.226 1.226 0 0 0 0 1.73 15.406 15.406 0 0 0 22.058-.249 1.222 1.222 0 0 0-.039-1.73 1.252 1.252 0 0 0-1.725.039 12.981 12.981 0 0 1-17.659 1.036l2.482-2.482a9.493 9.493 0 0 0 13.313-13.316l2.48-2.481a12.973 12.973 0 0 1 2.942 9.242 1.223 1.223 0 0 0 2.438.186zm-9.6-5.206a7.06 7.06 0 0 1-9.832 9.834l9.832-9.834z" data-name="Path 1410" transform="translate(-73.569 -36.258)"/>
            <path id="Path_1411" d="M211.1 105.294a1.244 1.244 0 0 0-1.613.616 1.223 1.223 0 1 0 1.613-.616z" data-name="Path 1411" transform="translate(-97.65 -52.801)"/>
            <path id="Path_1412" d="M21.155 157.507a1.247 1.247 0 0 0 1.618.606 1.224 1.224 0 0 0 .606-1.618 30.069 30.069 0 0 1-2.556-9.839 1.232 1.232 0 0 1 1.227-1.3h99.814a1.231 1.231 0 0 1 1.222 1.329A29.969 29.969 0 0 1 93.227 174.1H50.685a29.815 29.815 0 0 1-22.16-9.795 1.258 1.258 0 0 0-1.725-.078 1.226 1.226 0 0 0-.083 1.725A32.277 32.277 0 0 0 47.4 176.373v4.812a3.67 3.67 0 0 0 3.666 3.666h41.785a3.67 3.67 0 0 0 3.666-3.666v-4.81a32.4 32.4 0 0 0 29-29.488 3.674 3.674 0 0 0-3.656-3.978h-1.474c-.856-9.287-11.345-14.533-19.083-9.682a7.264 7.264 0 0 0-10.347-2.043 10.08 10.08 0 0 0-11.711-4.5 11.652 11.652 0 0 0-14.707-7.439 1.222 1.222 0 0 0 .762 2.322 9.207 9.207 0 0 1 11.911 6.994 1.219 1.219 0 0 0 1.73.865 7.635 7.635 0 0 1 10.479 4.2 1.222 1.222 0 0 0 2.077.362 4.8 4.8 0 0 1 8.192 1.481 1.223 1.223 0 0 0 1.916.538c6.249-5.024 15.444-.794 16.317 6.9H27.638c.509-5.8 4.4-10.607 10.77-10.626a10.762 10.762 0 0 1 9.2 5.152 1.223 1.223 0 0 0 2.077 0A7.581 7.581 0 0 1 57.816 134a1.226 1.226 0 0 0 1.452-1.486 9.146 9.146 0 0 1 .166-5.059 1.218 1.218 0 0 0-.782-1.54 1.236 1.236 0 0 0-1.54.782 11.482 11.482 0 0 0-.513 4.682 10.037 10.037 0 0 0-7.918 3.343 13.213 13.213 0 0 0-10.274-4.888h-.034c-7.562 0-12.661 5.807-13.189 13.069h-3.135a3.674 3.674 0 0 0-3.656 3.983 31.975 31.975 0 0 0 2.761 10.615zm72.918 23.677a1.223 1.223 0 0 1-1.222 1.222H51.062a1.224 1.224 0 0 1-1.222-1.222v-4.65c.286.008.568.011.846.011h42.541c.277 0 .56 0 .846-.011z" data-name="Path 1412" transform="translate(0 -59.686)"/>
            <path id="Path_1413" d="M29.213 203.561a1.223 1.223 0 1 0 1.691.352 1.25 1.25 0 0 0-1.691-.352z" data-name="Path 1413" transform="translate(-5.258 -102.994)"/>
            <path id="Path_1414" d="M104.769 125.308a1.253 1.253 0 0 0-1.73 0 1.223 1.223 0 1 0 1.73 0z" data-name="Path 1414" transform="translate(-43.101 -62.907)"/>
            <path id="Path_1415" d="M118.827 139.448v-.979a1.222 1.222 0 1 0-2.444 0v.979a1.222 1.222 0 1 0 2.444 0z" data-name="Path 1415" transform="translate(-50.105 -69.188)"/>
            <path id="Path_1416" d="M147.681 148.438a1.221 1.221 0 0 0 0-1.728l-.693-.693a1.222 1.222 0 0 0-1.728 1.728l.693.693a1.221 1.221 0 0 0 1.728 0z" data-name="Path 1416" transform="translate(-64.685 -73.489)"/>
            <path id="Path_1417" d="M107.6 153.42l.693-.693a1.222 1.222 0 1 0-1.734-1.727l-.693.693a1.222 1.222 0 1 0 1.728 1.728z" data-name="Path 1417" transform="translate(-44.546 -76.036)"/>
            <path id="Path_1418" d="M56.525 152.192a1.222 1.222 0 0 0 0 1.728l.693.693a1.222 1.222 0 0 0 1.728-1.728l-.693-.693a1.222 1.222 0 0 0-1.728 0z" data-name="Path 1418" transform="translate(-19.32 -76.646)"/>
            <path id="Path_1419" d="M157.079 154.612l.693-.693a1.222 1.222 0 1 0-1.728-1.728l-.693.693a1.222 1.222 0 1 0 1.728 1.728z" data-name="Path 1419" transform="translate(-69.844 -76.646)"/>
            <path id="Path_1420" d="M203.978 159.053l.693-.693a1.222 1.222 0 0 0-1.728-1.728l-.693.693a1.222 1.222 0 0 0 1.728 1.728z" data-name="Path 1420" transform="translate(-93.821 -78.916)"/>
        </g>
        <g id="love-and-romance" class="cls-19" transform="translate(1679.053 432.131)">
            <g id="Group_742" data-name="Group 742" transform="translate(56.367 28.14)">
                <g id="Group_739" data-name="Group 739" transform="translate(51.928 .182)">
                    <g id="Group_738" data-name="Group 738">
                        <ellipse id="Ellipse_172" cx="6.563" cy="3.797" class="cls-33" data-name="Ellipse 172" rx="6.563" ry="3.797" transform="rotate(-45 11.202 4.64)"/>
                    </g>
                </g>
                <g id="Group_741" data-name="Group 741">
                    <g id="Group_740" data-name="Group 740">
                        <ellipse id="Ellipse_173" cx="3.797" cy="6.563" class="cls-33" data-name="Ellipse 173" rx="3.797" ry="6.563" transform="rotate(-45 6.693 2.772)"/>
                        <ellipse id="Ellipse_174" cx="3.797" cy="6.563" class="cls-34" data-name="Ellipse 174" rx="3.797" ry="6.563" transform="rotate(-21.099 11.146 -19.067)"/>
                    </g>
                </g>
            </g>
            <g id="Group_749" data-name="Group 749" transform="translate(46.182 54.103)">
                <g id="Group_745" data-name="Group 745">
                    <g id="Group_744" data-name="Group 744">
                        <g id="Group_743" data-name="Group 743">
                            <ellipse id="Ellipse_175" cx="3.797" cy="6.563" class="cls-33" data-name="Ellipse 175" rx="3.797" ry="6.563" transform="rotate(-45 9.826 4.07)"/>
                            <path id="Path_1421" d="M70.4 265.257a1.61 1.61 0 0 0-1.268-1.573 1.609 1.609 0 0 0-3.145 0 1.609 1.609 0 0 0 0 3.145 1.609 1.609 0 0 0 3.145 0 1.61 1.61 0 0 0 1.268-1.572z" class="cls-35" data-name="Path 1421" transform="translate(-61.321 -260.37)"/>
                            <ellipse id="Ellipse_176" cx="3.797" cy="6.563" class="cls-34" data-name="Ellipse 176" rx="3.797" ry="6.563" transform="rotate(-21.099 10.191 -13.942)"/>
                        </g>
                    </g>
                </g>
                <g id="Group_748" data-name="Group 748" transform="translate(71.169 .033)">
                    <g id="Group_747" data-name="Group 747">
                        <g id="Group_746" data-name="Group 746">
                            <ellipse id="Ellipse_177" cx="6.563" cy="3.797" class="cls-33" data-name="Ellipse 177" rx="6.563" ry="3.797" transform="rotate(-45 15.917 2.632)"/>
                            <ellipse id="Ellipse_178" cx="6.563" cy="3.797" class="cls-34" data-name="Ellipse 178" rx="6.563" ry="3.797" transform="rotate(-68.901 8.926 6.123)"/>
                        </g>
                    </g>
                </g>
            </g>
            <g id="Group_761" data-name="Group 761" transform="translate(45.454 13.947)">
                <g id="Group_751" data-name="Group 751" transform="translate(25.783)">
                    <g id="Group_750" data-name="Group 750">
                        <path id="Path_1422" d="M200.463 65.182h-30.481a4.026 4.026 0 0 0-4.026 4.026v22.309h38.533V69.208a4.026 4.026 0 0 0-4.026-4.026z" class="cls-36" data-name="Path 1422" transform="translate(-165.955 -65.182)"/>
                        <path id="Path_1423" d="M198.936 65.182h-28.954a4.026 4.026 0 0 0-4.026 4.026v22.309h18.92c8.95-7.063 14.694-7.054 14.694-19.339a38.73 38.73 0 0 0-.634-6.996z" class="cls-37" data-name="Path 1423" transform="translate(-165.955 -65.182)"/>
                        <path id="Path_1424" d="M193.325 65.182h-23.343a4.026 4.026 0 0 0-4.026 4.026v22.309h10.453c10.344-7.8 17.03-9.242 17.03-23.2q0-1.58-.114-3.135z" class="cls-38" data-name="Path 1424" transform="translate(-165.955 -65.182)"/>
                        <path id="Path_1425" d="M203.121 146.333a4.924 4.924 0 0 0-6.963 0l-.1.1a4.924 4.924 0 0 1-6.964 0l-.095-.095a4.924 4.924 0 0 0-6.964 0l-.1.1a4.925 4.925 0 0 1-6.963 0l-.1-.1a4.925 4.925 0 0 0-6.963 0l-.1.1a4.876 4.876 0 0 1-1.871 1.164v6.577h38.533V147.7z" class="cls-39" data-name="Path 1425" transform="translate(-165.953 -127.836)"/>
                    </g>
                </g>
                <g id="Group_757" data-name="Group 757" transform="translate(8.638 14.22)">
                    <g id="Group_754" data-name="Group 754" transform="translate(3.327 13.435)">
                        <path id="Path_1426" d="M167.545 198.455v23.416h-66.17v-23.416a4.027 4.027 0 0 1 4.026-4.026h58.118a4.027 4.027 0 0 1 4.026 4.026z" class="cls-36" data-name="Path 1426" transform="translate(-101.375 -194.429)"/>
                        <path id="Path_1427" d="M162.631 201.426c0 12.285-5.643 18.441-14.695 20.444h-46.554v-23.416a4.026 4.026 0 0 1 4.026-4.026H162a38.566 38.566 0 0 1 .631 6.998z" class="cls-37" data-name="Path 1427" transform="translate(-101.38 -194.428)"/>
                        <path id="Path_1428" d="M155.578 201.426c0 12.285-5.641 18.441-14.693 20.444h-39.5v-23.416a4.026 4.026 0 0 1 4.026-4.026h49.537a38.758 38.758 0 0 1 .63 6.998z" class="cls-38" data-name="Path 1428" transform="translate(-101.381 -194.428)"/>
                        <path id="Path_1429" d="M167.545 282.116v6.473h-66.17v-6.473l1.366-1.365a4.924 4.924 0 0 1 6.963 0l.1.1a4.925 4.925 0 0 0 6.963 0l.1-.1a4.925 4.925 0 0 1 6.964 0l.095.095a4.924 4.924 0 0 0 6.964 0l.1-.1a4.925 4.925 0 0 1 6.963 0l.1.1a4.925 4.925 0 0 0 6.963 0l.1-.1a4.924 4.924 0 0 1 6.964 0l.095.095a4.924 4.924 0 0 0 6.964 0l.1-.1a4.924 4.924 0 0 1 6.963 0z" class="cls-39" data-name="Path 1429" transform="translate(-101.375 -261.147)"/>
                        <g id="Group_753" data-name="Group 753" transform="translate(9.757 14.3)">
                            <g id="Group_752" data-name="Group 752">
                                <circle id="Ellipse_179" cx="2.191" cy="2.191" r="2.191" class="cls-34" data-name="Ellipse 179"/>
                                <circle id="Ellipse_180" cx="2.191" cy="2.191" r="2.191" class="cls-34" data-name="Ellipse 180" transform="translate(14.091)"/>
                                <circle id="Ellipse_181" cx="2.191" cy="2.191" r="2.191" class="cls-34" data-name="Ellipse 181" transform="translate(28.182)"/>
                            </g>
                            <circle id="Ellipse_182" cx="2.191" cy="2.191" r="2.191" class="cls-40" data-name="Ellipse 182" transform="translate(42.273)"/>
                        </g>
                    </g>
                    <g id="Group_756" data-name="Group 756">
                        <ellipse id="Ellipse_183" cx="6.563" cy="3.797" class="cls-34" data-name="Ellipse 183" rx="6.563" ry="3.797" transform="rotate(-68.901 34.503 -31.16)"/>
                        <path id="Path_1430" d="M357.429 166.654a9.486 9.486 0 1 0-1.268 1.573 1.61 1.61 0 0 0 1.268-1.573z" class="cls-35" data-name="Path 1430" transform="translate(-294.848 -156.929)"/>
                        <path id="Path_1431" d="M155.343 189.489H89.132a3.306 3.306 0 0 1 0-6.613h66.211a3.306 3.306 0 0 1 0 6.613z" class="cls-41" data-name="Path 1431" transform="translate(-85.826 -171.913)"/>
                        <g id="Group_755" data-name="Group 755" transform="translate(9.484 10.963)">
                            <path id="Path_1432" d="M148.377 189.489h-14.92a3.306 3.306 0 0 1 0-6.613h14.92a3.306 3.306 0 1 1 0 6.613z" class="cls-42" data-name="Path 1432" transform="translate(-130.151 -182.876)"/>
                            <circle id="Ellipse_184" cx="3.306" cy="3.306" r="3.306" class="cls-42" data-name="Ellipse 184" transform="translate(24.962)"/>
                        </g>
                    </g>
                </g>
                <g id="Group_758" data-name="Group 758" transform="translate(0 53.093)">
                    <path id="Path_1433" d="M150.843 325.6v28.882H72.179V325.6a4.788 4.788 0 0 1 4.786-4.786h69.091a4.788 4.788 0 0 1 4.787 4.786z" class="cls-36" data-name="Path 1433" transform="translate(-66.461 -319.21)"/>
                    <path id="Path_1434" d="M145 329.132c0 14.6-6.828 16.953-17.468 25.35H72.183V325.6a4.787 4.787 0 0 1 4.786-4.786h67.274a46.016 46.016 0 0 1 .757 8.318z" class="cls-37" data-name="Path 1434" transform="translate(-66.464 -319.21)"/>
                    <path id="Path_1435" d="M137.71 324.545c0 16.59-7.949 20.662-20.246 29.937H72.183V325.6a4.787 4.787 0 0 1 4.786-4.786h60.6q.14 1.848.141 3.731z" class="cls-38" data-name="Path 1435" transform="translate(-66.464 -319.21)"/>
                    <path id="Path_1436" d="M150.843 429.94v7.7H72.179v-7.7l1.624-1.623a5.854 5.854 0 0 1 8.278 0l.115.115a5.854 5.854 0 0 0 8.278 0l.114-.114a5.854 5.854 0 0 1 8.279 0l.113.113a5.854 5.854 0 0 0 8.279 0l.114-.114a5.854 5.854 0 0 1 8.278 0l.115.115a5.854 5.854 0 0 0 8.278 0l.114-.114a5.854 5.854 0 0 1 8.279 0l.113.113a5.854 5.854 0 0 0 8.279 0l.114-.114a5.854 5.854 0 0 1 8.278 0z" class="cls-39" data-name="Path 1436" transform="translate(-66.461 -402.364)"/>
                    <path id="Path_1437" fill="#06d0ff" d="M133.473 479.475H47.535a2.081 2.081 0 0 1-2.081-2.081V472.7a2.081 2.081 0 0 1 2.081-2.081h85.938a2.081 2.081 0 0 1 2.081 2.081v4.692a2.081 2.081 0 0 1-2.081 2.083z" data-name="Path 1437" transform="translate(-45.454 -436.963)"/>
                    <path id="Path_1438" d="M143 319.932H67.559a3.306 3.306 0 1 1 0-6.613H143a3.306 3.306 0 1 1 0 6.613z" class="cls-41" data-name="Path 1438" transform="translate(-60.231 -313.319)"/>
                    <path id="Path_1439" d="M117.217 319.932H102.3a3.306 3.306 0 1 1 0-6.613h14.92a3.306 3.306 0 1 1 0 6.613z" class="cls-42" data-name="Path 1439" transform="translate(-87.536 -313.319)"/>
                    <circle id="Ellipse_185" cx="3.306" cy="3.306" r="3.306" class="cls-42" data-name="Ellipse 185" transform="translate(36.417)"/>
                    <path id="Path_1440" d="M100.808 476.754H72.781a3.066 3.066 0 1 1 0-6.132h28.027a3.066 3.066 0 1 1 0 6.132z" class="cls-44" data-name="Path 1440" transform="translate(-64.524 -436.964)"/>
                    <circle id="Ellipse_186" cx="3.186" cy="3.186" r="3.186" class="cls-44" data-name="Ellipse 186" transform="translate(43.367 33.658)"/>
                    <path id="Path_1441" fill="#00addb" d="M423.87 472.7v4.693a2.08 2.08 0 0 1-2.081 2.081h-9.535a10.675 10.675 0 0 0 7.334-8.855h2.2a2.08 2.08 0 0 1 2.082 2.081z" data-name="Path 1441" transform="translate(-333.771 -436.96)"/>
                </g>
                <g id="Group_760" data-name="Group 760" transform="translate(17.318 72.741)">
                    <g id="Group_759" data-name="Group 759">
                        <circle id="Ellipse_187" cx="2.605" cy="2.605" r="2.605" class="cls-34" data-name="Ellipse 187"/>
                        <circle id="Ellipse_188" cx="2.605" cy="2.605" r="2.605" class="cls-34" data-name="Ellipse 188" transform="translate(16.752)"/>
                        <circle id="Ellipse_189" cx="2.605" cy="2.605" r="2.605" class="cls-34" data-name="Ellipse 189" transform="translate(33.503)"/>
                    </g>
                    <circle id="Ellipse_190" cx="2.605" cy="2.605" r="2.605" class="cls-40" data-name="Ellipse 190" transform="translate(50.255)"/>
                </g>
            </g>
            <g id="Group_764" data-name="Group 764" transform="translate(73.083)">
                <g id="Group_762" data-name="Group 762" transform="translate(3.538 8.473)">
                    <path id="Path_1442" d="M244.591 39.6a107.993 107.993 0 0 1 6.848 24.622 2.315 2.315 0 0 0 2.289 1.955h5.092a2.316 2.316 0 0 0 2.287-2.69 107.171 107.171 0 0 0-6.73-23.886h-9.786z" class="cls-46" data-name="Path 1442" transform="translate(-233.15 -39.604)"/>
                    <path id="Path_1443" d="M254.376 39.6a107.131 107.131 0 0 1 6.731 23.888 2.317 2.317 0 0 1-2.286 2.69h-4.635a15.233 15.233 0 0 0-7.984-22.55c-.5-1.347-1.033-2.7-1.61-4.026z" class="cls-47" data-name="Path 1443" transform="translate(-233.15 -39.601)"/>
                    <path id="Path_1444" d="M207.667 39.6a107.994 107.994 0 0 0-6.848 24.622 2.315 2.315 0 0 1-2.289 1.955h-5.092a2.316 2.316 0 0 1-2.287-2.69 107.171 107.171 0 0 1 6.73-23.886h9.786z" class="cls-46" data-name="Path 1444" transform="translate(-191.12 -39.604)"/>
                    <path id="Path_1445" d="M219.706 39.6a107.932 107.932 0 0 0-6.847 24.623 2.315 2.315 0 0 1-2.288 1.954h-4.134a11.749 11.749 0 0 0 .684-19.088c.8-2.481 1.724-5.019 2.8-7.489z" class="cls-47" data-name="Path 1445" transform="translate(-203.159 -39.603)"/>
                </g>
                <g id="Group_763" data-name="Group 763">
                    <path id="Path_1446" d="M190.1 3.245L180.373.207a4.459 4.459 0 0 0-5.79 4.256v6.9a4.46 4.46 0 0 0 5.79 4.256l9.722-3.039A2.72 2.72 0 0 0 192 9.988V5.841a2.72 2.72 0 0 0-1.909-2.6z" class="cls-35" data-name="Path 1446" transform="translate(-174.583)"/>
                    <path id="Path_1447" d="M195.659 9.76v4.147a2.721 2.721 0 0 1-1.908 2.6l-9.722 3.039a4.448 4.448 0 0 1-4.8-1.45 11.877 11.877 0 0 0 7.715-11.125 11.692 11.692 0 0 0-.166-1.981l6.969 2.178a2.722 2.722 0 0 1 1.912 2.592z" class="cls-46" data-name="Path 1447" transform="translate(-178.239 -3.919)"/>
                    <path id="Path_1448" d="M257.908 3.245l9.723-3.038a4.459 4.459 0 0 1 5.79 4.256v6.9a4.46 4.46 0 0 1-5.79 4.256l-9.722-3.039A2.72 2.72 0 0 1 256 9.988V5.841a2.72 2.72 0 0 1 1.908-2.6z" class="cls-46" data-name="Path 1448" transform="translate(-238.579)"/>
                    <path id="Path_1449" d="M271.028.514a12.919 12.919 0 0 1-3.64 11.117 12.864 12.864 0 0 1-3.925 2.692l-5.555-1.737A2.721 2.721 0 0 1 256 9.989V5.842a2.717 2.717 0 0 1 1.909-2.595L267.63.208a4.426 4.426 0 0 1 3.4.305z" class="cls-35" data-name="Path 1449" transform="translate(-238.579 -.003)"/>
                </g>
            </g>
            <path id="Path_1450" d="M421.277 273.3a9.489 9.489 0 1 0-1.268 1.573 1.61 1.61 0 0 0 1.268-1.573z" class="cls-35" data-name="Path 1450" transform="translate(-290.943 -212.586)"/>
            <g id="Group_765" data-name="Group 765" transform="translate(79.75 .956)">
                <path id="Path_1451" fill="#fc708a" d="M225.612 6.106a5.589 5.589 0 0 0-7.9 0l-1.213 1.213-1.213-1.213a5.589 5.589 0 1 0-7.887 7.92l7.4 7.337a2.42 2.42 0 0 0 3.409 0l7.4-7.337a5.589 5.589 0 0 0 .016-7.92z" data-name="Path 1451" transform="translate(-205.741 -4.469)"/>
                <path id="Path_1452" fill="#f7a6b7" d="M212.608 36.687l4.648 4.622a2.194 2.194 0 0 0 3.094 0l.031-.031a2.2 2.2 0 0 0 0-3.114l-4.648-4.623a2.194 2.194 0 0 0-3.1.011l-.032.032a2.194 2.194 0 0 0 .007 3.103z" data-name="Path 1452" transform="translate(-210.628 -26.818)"/>
            </g>
        </g>
    </g>
</svg>
