<svg xmlns="http://www.w3.org/2000/svg" xmlns:xlink="http://www.w3.org/1999/xlink" width="1920" height="700" viewBox="0 0 1920 700"><defs><clipPath id="b"><rect width="1920" height="700"/></clipPath></defs><g id="a" clip-path="url(#b)"><rect width="1920" height="700" fill="#fff"/><rect width="1920" height="700" fill="#faf8d2"/><rect width="1925" height="128" transform="translate(0 572)" fill="#656464"/><g transform="translate(935.622 79.14)"><rect width="56.201" height="450.53" transform="translate(89.444 44.899)" fill="#efebc2"/><path d="M397.407,539.153h-56.2V252.9l56.2-24.81Z" transform="translate(-141.767 -150.074)" fill="#efebc2"/><rect width="133.382" height="314.529" transform="translate(117.545 180.9)" fill="#efebc2"/><rect width="192.213" height="248.851" transform="translate(0 246.578)" fill="#efebc2"/><rect width="171.013" height="271.193" transform="translate(192.355 224.235)" fill="#efebc2"/><rect width="78.682" height="367.263" transform="translate(288.558 128.166)" fill="#efebc2"/><rect width="83.295" height="428.755" transform="translate(325.593)" fill="#efebc2"/><rect width="78.682" height="286.373" transform="translate(595.822 209.055)" fill="#efebc2"/><rect width="52.918" height="352.384" transform="translate(554.312 143.045)" fill="#efebc2"/><rect width="78.682" height="279.986" transform="translate(375.342 215.442)" fill="#efebc2"/><rect width="78.682" height="233.027" transform="translate(482.124 262.401)" fill="#efebc2"/><path d="M509.209,613.759H430.527V246.5l78.682,42.863Z" transform="translate(12.256 -118.331)" fill="#efebc2"/></g><rect width="22.892" height="16.243" rx="2" transform="translate(1895.158 13.584)" fill="#fec9b1"/><rect width="1824" height="701" transform="translate(1639 -404)" fill="none"/><path d="M579.249,174.581c-2.948-3.3-8.235-5.51-14.286-5.51a24.375,24.375,0,0,0-2.777.171,15.17,15.17,0,0,0-8.091-5.663c-2.215-8.8-13.358-15.5-26.807-15.5-13.335,0-24.411,6.584-26.756,15.272a23.481,23.481,0,0,0-6.495-.9c-7.5,0-13.847,3.381-15.989,8.044a22.876,22.876,0,0,0-8.083-1.429c-6.052,0-11.34,2.209-14.288,5.51Z" transform="translate(1030.598 -11.439)" fill="#fffeee"/><path d="M535.877,144.919c-2.341-5.119-10.328-8.9-19.851-8.9a34.251,34.251,0,0,0-6.059.532c-3.444-3.809-10.294-6.41-18.2-6.41-1.2,0-2.365.073-3.508.187-4.578-7.567-16.925-13-31.478-13-15.806,0-29.018,6.4-32.488,14.994-7.007.205-13.077,2.445-16.517,5.734a38.228,38.228,0,0,0-5.06-.343c-8.794,0-16.4,2.93-20.137,7.2Z" transform="translate(955.285 -43.118)" fill="#fffeee"/><rect width="358.295" height="499.545" transform="translate(1566.868 -0.907)" fill="#ff7334"/><rect width="445.264" height="22.684" transform="translate(1479.899 544.007)" fill="#b7623c"/><rect width="417.465" height="22.684" transform="translate(1507.698 521.322)" fill="#d58461"/><rect width="387.16" height="22.684" transform="translate(1538.003 498.638)" fill="#e5a285"/><rect width="51.436" height="16.243" rx="2" transform="translate(1615.377 94.866)" fill="#ffc9b1"/><rect width="51.436" height="16.243" rx="2" transform="translate(1616.054 308.253)" fill="#fec9b1"/><rect width="22.892" height="16.243" rx="2" transform="translate(1651.585 159.464)" fill="#b6c453" opacity="0.36"/><rect width="22.892" height="16.243" rx="2" transform="translate(1624.176 461.212)" fill="#fec9b1"/><rect width="22.892" height="16.243" rx="2" transform="translate(1835.534 98.496)" fill="#fec9b1"/><path d="M0,0H10.82a2,2,0,0,1,2,2V14.243a2,2,0,0,1-2,2H0a0,0,0,0,1,0,0V0A0,0,0,0,1,0,0Z" transform="translate(1566.868 58.827)" fill="#fec9b1"/><rect width="22.892" height="16.243" rx="2" transform="translate(1587.583 219.908)" fill="#ffc9b1"/><rect width="22.892" height="16.243" rx="2" transform="translate(1891.12 280.574)" fill="#b6c453" opacity="0.36"/><rect width="51.435" height="16.243" rx="2" transform="translate(1774.613 79.012)" fill="#ffc9b1"/><rect width="148.021" height="376.37" transform="translate(1747.953 122.267)" fill="#9d9d9d"/><rect width="366.895" height="127.534" transform="translate(1885.73 131.742) rotate(90)" fill="#fff"/><rect width="7.445" height="376.37" transform="translate(1662.583 498.638) rotate(180)" fill="#b7623c"/><rect width="104.793" height="376.37" transform="translate(1662.583 122.267)" fill="#9d9d9d"/><g transform="translate(1672.755 138.51)"><rect width="84.451" height="162.629" transform="translate(0 181.256)" fill="none" stroke="#ffee93" stroke-miterlimit="10" stroke-width="0.746"/><rect width="84.451" height="162.629" fill="none" stroke="#ffee93" stroke-miterlimit="10" stroke-width="0.746"/></g><path d="M556.979,236.086a4.728,4.728,0,1,1-4.729-4.729A4.729,4.729,0,0,1,556.979,236.086Z" transform="translate(1125.231 74.367)" fill="#9ab12d"/><g transform="translate(1711.732 521.321)"><g transform="translate(0 119.274)"><path d="M688.087,508.467c-4.55,2.459-9.051,5.953-14.208,5.583-3.779-.27-7.07-2.609-9.941-5.08a74.575,74.575,0,0,1-16.564-20.356c-3.322-6-6.217-12.9-12.286-16.1-6.292-3.316-14.095-1.586-20.876-3.724-7.514-2.369-12.747-9.108-16.771-15.881s-7.49-14.131-13.435-19.3c-5.681-4.944-13.68-8.026-16.428-15.037-2.43-6.2.542-13.628,5.835-17.664s12.365-5.11,18.986-4.432,12.962,2.936,19.288,5,12.832,3.975,19.487,3.91c7.722-.077,15.5-2.8,23.028-1.088,7.459,1.7,13.291,7.476,17.936,13.557s8.627,12.8,14.446,17.767c6.968,5.951,16.028,8.921,23.333,14.454a40.973,40.973,0,0,1,15.431,25.18c1.372,7.685,1.429,23.459-7.007,27.609-3.581,1.762-8.17.918-11.993.995A39.84,39.84,0,0,0,688.087,508.467Z" transform="translate(-566.721 -396.29)" fill="#9ab12d"/><path d="M700.24,491.117S666,439.394,583.162,408.035" transform="translate(-549.781 -384.189)" fill="none" stroke="#dbea90" stroke-miterlimit="10" stroke-width="1.077"/></g><g transform="translate(164.975 84.682)"><path d="M693.923,504.563c3.9-1.3,8.383-2.012,10.978-5.206,1.9-2.339,2.335-5.523,2.465-8.536a59.318,59.318,0,0,0-2.794-20.7c-1.675-5.2-4.1-10.633-2.65-15.9,1.5-5.458,6.755-9.043,9.208-14.145,2.717-5.65,1.657-12.357-.083-18.383s-4.122-12.042-3.886-18.308c.225-5.989,2.792-12.31.221-17.723-2.274-4.786-8.2-7.108-13.431-6.233s-9.7,4.392-12.913,8.6-5.354,9.122-7.6,13.92-4.68,9.612-8.343,13.439c-4.25,4.44-10.069,7.47-13.173,12.773-3.078,5.254-2.9,11.784-1.9,17.792s2.729,11.977,2.445,18.06c-.341,7.287-3.551,14.162-4.319,21.414a32.614,32.614,0,0,0,6.209,22.669c3.713,4.983,12.836,13.605,19.84,10.97,2.973-1.119,4.982-4.241,7.11-6.418A31.681,31.681,0,0,1,693.923,504.563Z" transform="translate(-647.975 -379.253)" fill="#9ab12d"/><path d="M662.513,505.323s-11.374-48.038,15.544-113.2" transform="translate(-635.455 -365.987)" fill="none" stroke="#dbea90" stroke-miterlimit="10" stroke-width="0.857"/></g><g transform="translate(79.659)"><path d="M639.8,541.117c-2.575-13.583,5.866-27.686,2.42-41.074-4.489-17.451-26.421-24.882-33.655-41.385-8.221-18.754,5.589-39.736,5.506-60.212-.047-11.784-4.759-23.156-4.981-34.936s6.735-25.461,18.507-25.952c10.517-.437,18.373,9.79,21.822,19.735s4.692,21.022,11.149,29.334c9.463,12.186,28.407,16.076,34,30.457,4.759,12.241-2.751,26.041-.688,39.011,1.693,10.657,9.5,19.124,14.836,28.5,8.757,15.382,15.585,34.932,10.523,51.894-4.426,14.836-22.5,36.936-40.377,36.808C663.221,573.188,642.68,556.287,639.8,541.117Z" transform="translate(-605.955 -337.544)" fill="#637c1e"/><path d="M668.028,550.228s.983-101.394-49.894-192.573" transform="translate(-593.405 -316.823)" fill="none" stroke="#dbea90" stroke-miterlimit="10" stroke-width="1.222"/></g></g><g transform="translate(1555.773 567.336)"><g transform="translate(0 74.849)"><path d="M283.02,490.363c-3.3,1.781-6.556,4.312-10.29,4.045-2.737-.195-5.118-1.89-7.2-3.679a53.968,53.968,0,0,1-12-14.742c-2.406-4.347-4.5-9.34-8.9-11.656-4.556-2.4-10.207-1.147-15.118-2.7-5.441-1.715-9.23-6.6-12.145-11.5s-5.423-10.233-9.727-13.977c-4.116-3.579-9.908-5.813-11.9-10.889-1.76-4.489.394-9.87,4.227-12.793s8.954-3.7,13.747-3.21,9.386,2.128,13.969,3.624,9.293,2.881,14.113,2.832c5.592-.055,11.226-2.028,16.675-.788,5.4,1.23,9.626,5.415,12.99,9.817s6.247,9.268,10.46,12.868c5.047,4.31,11.608,6.461,16.9,10.466a29.685,29.685,0,0,1,11.175,18.237c.995,5.565,1.035,16.988-5.076,19.993-2.593,1.277-5.914.666-8.684.721A28.864,28.864,0,0,0,283.02,490.363Z" transform="translate(-195.128 -409.127)" fill="#9ab12d"/><path d="M291.821,477.8s-24.795-37.458-84.787-60.165" transform="translate(-182.86 -400.363)" fill="none" stroke="#dbea90" stroke-miterlimit="10" stroke-width="0.78"/></g><g transform="translate(101.853 94.369)"><path d="M265.308,475.712c2.412,1.75,4.716,4.091,7.691,4.274,2.178.134,4.237-.95,6.067-2.142a42.992,42.992,0,0,0,11.017-10.367c2.355-3.173,4.538-6.893,8.247-8.255,3.849-1.415,8.174.171,12.212-.534,4.473-.78,7.977-4.231,10.793-7.792s5.358-7.5,9.147-10c3.624-2.39,8.428-3.541,10.533-7.336,1.862-3.354.731-7.827-1.984-10.535s-6.674-3.864-10.509-3.984a53.913,53.913,0,0,0-11.4,1.387c-3.772.7-7.634,1.291-11.433.747-4.4-.633-8.639-2.786-13.072-2.382-4.392.4-8.164,3.257-11.283,6.375s-5.9,6.654-9.608,9.047c-4.436,2.869-9.839,3.874-14.434,6.477A23.618,23.618,0,0,0,246.556,453.9c-1.373,4.284-2.609,13.291,1.894,16.308,1.913,1.279,4.6,1.147,6.775,1.484A22.933,22.933,0,0,1,265.308,475.712Z" transform="translate(-245.293 -418.741)" fill="#9ab12d"/><path d="M247.162,463.78s23.509-26.937,73.231-38.524" transform="translate(-243.367 -412.029)" fill="none" stroke="#dbea90" stroke-miterlimit="10" stroke-width="0.621"/></g><g transform="translate(71.439)"><path d="M283.729,517.044c3.287-9.455-1.261-20.456,2.627-29.68,5.07-12.026,23.063-15.153,30.561-25.832,12.728-18.125,7.261-29.6,5.547-44.333-1.58-13.577,12.649-40.664-8.377-44.68-16.462-3.143-20.147,23.345-28.829,31.651-8.073,7.723-22.056,8.5-27.588,18.206-9.342,16.4,9.437,12.74-17.3,46.86-20.89,26.658-5.415,64.261,11.969,66.713C263.547,537.532,280.058,527.608,283.729,517.044Z" transform="translate(-230.313 -372.262)" fill="#779929"/><path d="M240.676,519.282s10.062-72.739,56.192-132.653" transform="translate(-219.636 -357.459)" fill="none" stroke="#dbea90" stroke-miterlimit="10" stroke-width="0.885"/></g></g><g transform="translate(1534.436 356.157)"><g transform="translate(58.477)"><path d="M512.959,353.871s3.7-54.962,53.092-93.8" transform="translate(-503.296 -252.207)" fill="none" stroke="#779929" stroke-miterlimit="10" stroke-width="0.456"/><path d="M513.185,307.87s11.953-10.359,13.961-5.72C528.806,305.992,513.185,307.87,513.185,307.87Z" transform="translate(-503.063 -210.08)" fill="#9ab12d"/><path d="M519.233,307.382s-6.921-14.221-10.592-10.741C505.605,299.52,519.233,307.382,519.233,307.382Z" transform="translate(-508.2 -215.09)" fill="#9ab12d"/><path d="M520.451,300.128s-4.309-15.217-8.534-12.44C508.421,289.988,520.451,300.128,520.451,300.128Z" transform="translate(-505.026 -224.099)" fill="#9ab12d"/><path d="M521.993,293.614s-.932-15.788-5.655-13.985C512.428,281.121,521.993,293.614,521.993,293.614Z" transform="translate(-500.781 -232.201)" fill="#9ab12d"/><path d="M524.908,286.929s.39-15.81-4.469-14.407C516.419,273.681,524.908,286.929,524.908,286.929Z" transform="translate(-496.702 -239.467)" fill="#779929"/><path d="M527.3,281.933s3.364-15.453-1.671-14.994C521.465,267.321,527.3,281.933,527.3,281.933Z" transform="translate(-491.784 -245.139)" fill="#779929"/><path d="M531.311,276.544s3.364-15.453-1.671-14.992C525.474,261.934,531.311,276.544,531.311,276.544Z" transform="translate(-487.654 -250.689)" fill="#779929"/><path d="M534.3,272.98s5.07-14.982.014-15.086C530.134,257.807,534.3,272.98,534.3,272.98Z" transform="translate(-483.21 -254.448)" fill="#779929"/><path d="M514.451,302.522s9.756-12.45,12.613-8.278C529.429,297.7,514.451,302.522,514.451,302.522Z" transform="translate(-501.759 -217.876)" fill="#9ab12d"/><path d="M516.847,294.384s10.531-11.8,13.116-7.453C532.1,290.528,516.847,294.384,516.847,294.384Z" transform="translate(-499.29 -225.52)" fill="#779929"/><path d="M519.539,288.206s10.531-11.8,13.116-7.453C534.793,284.35,519.539,288.206,519.539,288.206Z" transform="translate(-496.516 -231.886)" fill="#779929"/><path d="M523.312,280.919s12.464-9.736,14.235-5C539.011,279.839,523.312,280.919,523.312,280.919Z" transform="translate(-492.629 -237.214)" fill="#779929"/><path d="M526.977,275.042s12.994-9.015,14.493-4.187C542.71,274.853,526.977,275.042,526.977,275.042Z" transform="translate(-488.853 -242.558)" fill="#779929"/><path d="M531.089,269.337s14.253-6.854,14.972-1.852C546.656,271.629,531.089,269.337,531.089,269.337Z" transform="translate(-484.616 -246.449)" fill="#779929"/><path d="M534.783,265.423s14.253-6.855,14.972-1.852C550.35,267.713,534.783,265.423,534.783,265.423Z" transform="translate(-480.81 -250.481)" fill="#779929"/><path d="M538.379,265.175s9.928-12.312,12.726-8.1C553.422,260.56,538.379,265.175,538.379,265.175Z" transform="translate(-477.104 -256.197)" fill="#779929"/></g><g transform="translate(0 21.082)"><g transform="translate(47.351 51.011)"><path d="M518.951,339.683c1.947,1.05,3.872,2.544,6.077,2.388a7.684,7.684,0,0,0,4.252-2.172,31.884,31.884,0,0,0,7.084-8.708c1.421-2.566,2.66-5.516,5.255-6.883,2.692-1.417,6.028-.678,8.93-1.592,3.212-1.015,5.451-3.9,7.171-6.794s3.2-6.044,5.746-8.255c2.43-2.114,5.852-3.431,7.027-6.43,1.04-2.65-.231-5.829-2.5-7.555a11.483,11.483,0,0,0-8.121-1.9,39.968,39.968,0,0,0-8.249,2.142,26.318,26.318,0,0,1-8.334,1.671c-3.3-.033-6.629-1.2-9.849-.465-3.19.727-5.683,3.2-7.671,5.8s-3.689,5.474-6.178,7.6c-2.981,2.546-6.854,3.817-9.979,6.182a17.519,17.519,0,0,0-6.6,10.769c-.589,3.287-.611,10.034,3,11.809,1.531.753,3.492.394,5.129.426A17.028,17.028,0,0,1,518.951,339.683Z" transform="translate(-502.72 -291.705)" fill="#85a328"/><path d="M504.586,332.261s14.641-22.123,50.072-35.533" transform="translate(-500.797 -286.529)" fill="none" stroke="#dbea90" stroke-miterlimit="10" stroke-width="0.461"/></g><g transform="translate(0 55.351)"><path d="M513.747,338.083c-1.683.52-3.417,1.389-5.114.924a6.12,6.12,0,0,1-2.982-2.353,25.427,25.427,0,0,1-4.183-7.894c-.711-2.225-1.222-4.719-3.035-6.188-1.882-1.525-4.6-1.464-6.724-2.627-2.351-1.287-3.653-3.884-4.548-6.412s-1.563-5.216-3.206-7.336c-1.569-2.026-4.036-3.586-4.489-6.107a5.411,5.411,0,0,1,3.119-5.512,9.123,9.123,0,0,1,6.633-.221,31.866,31.866,0,0,1,6.107,2.948,21,21,0,0,0,6.247,2.6c2.583.485,5.362.091,7.762,1.161,2.377,1.062,3.943,3.377,5.09,5.713s2.032,4.844,3.647,6.889c1.933,2.449,4.761,4.04,6.834,6.373a13.951,13.951,0,0,1,3.484,9.429c-.051,2.656-1.076,7.927-4.168,8.755-1.314.349-2.79-.236-4.071-.463A13.559,13.559,0,0,0,513.747,338.083Z" transform="translate(-479.398 -293.842)" fill="#9ab12d"/><path d="M518.316,333.73s-8.006-19.536-33.588-35.493" transform="translate(-473.907 -289.314)" fill="none" stroke="#dbea90" stroke-miterlimit="10" stroke-width="0.367"/></g><g transform="translate(33.812)"><path d="M529.183,353.645c1.1-5.809-2.51-11.841-1.036-17.567,1.919-7.464,11.3-10.643,14.393-17.7,3.517-8.022-2.39-16.994-2.355-25.753.02-5.039,2.036-9.9,2.13-14.941s-2.879-10.889-7.914-11.1c-4.5-.187-7.857,4.187-9.334,8.44s-2.006,8.99-4.767,12.545c-4.046,5.212-12.15,6.875-14.539,13.027-2.036,5.234,1.175,11.136.294,16.683-.725,4.558-4.063,8.18-6.347,12.19a28.48,28.48,0,0,0-2.507,21.956c1.892,6.345,7.632,16.036,15.276,15.981C519.167,367.362,527.953,360.134,529.183,353.645Z" transform="translate(-496.052 -266.58)" fill="#abbc30"/><path d="M503.781,357.542s-.42-43.366,21.337-82.361" transform="translate(-488.089 -257.718)" fill="none" stroke="#dbea90" stroke-miterlimit="10" stroke-width="0.523"/></g></g><path d="M524.951,313.92,520,339.2H501.744L496.79,313.92Z" transform="translate(-461.479 -196.722)" fill="#6a8424"/><path d="M520.1,313.92,515.145,339.2H500.77l-4.954-25.278Z" transform="translate(-462.483 -196.722)" fill="#779929"/></g><path d="M1283.538,77.789V804.533a13.31,13.31,0,0,1-13.3,13.319H91.459a13.31,13.31,0,0,1-13.3-13.319V701.756c111.955-26,258.691,125.118,358.371-23.044C508.35,571.889,477.769,434.207,586.779,394.25c64.88-23.782,158.3-33.349,200.8-167.291C804.3,174.348,807.449,64.47,881.634,64.47h388.6A13.31,13.31,0,0,1,1283.538,77.789Z" transform="translate(612.822 -34.837)" fill="none"/><g transform="translate(1687.805 160.453)"><g transform="translate(63.201 151.865)"><g transform="translate(0 192.256)"><path d="M620.445,335.114a215.3,215.3,0,0,1-42.385,1.068s-4-4.339,6.5-6.5c1.513-.312,2.982-.6,4.383-.935h.022c8.388-1.847,14.84-3.894,17.933-8.41l2.937-.289,7.943-.8C621.135,331.176,626.008,334.068,620.445,335.114Z" transform="translate(-577.311 -319.25)" fill="#f46640"/><path d="M607.133,322.525c-10.835,10.3-23.9,6.03-24.586,5.785,8.388-1.847,14.84-3.894,17.933-8.41l2.937-.289Z" transform="translate(-570.896 -318.809)" fill="#ffb38f"/></g><g transform="translate(62.884 191.642)"><path d="M622.034,320.049s2.988,1.56,4.194,10.366c.449,3.28-3.838,4.637-9.362,4.637-3.5,0-8.88-.247-9.643-1.484,0,0-5.335-2.212,3.193-13.459Z" transform="translate(-605.574 -317.657)" fill="#f46640"/><path d="M609.468,318.974s-2.921,7.99-1.669,9.178,8.853,1.6,11.082.28c1.633-.972-.514-9.073-.514-9.073Z" transform="translate(-603.23 -318.974)" fill="#ffb38f"/></g><path d="M651.368,428.812H630.321L615.213,288.085,611.7,428.812H590.272c-6.942-180.353-3.938-195.972-3.938-195.972l58,1.157,4.361.089Z" transform="translate(-567.051 -232.84)" fill="#004238"/><path d="M605.009,274l-10.99-29.667,10.473,42.345Z" transform="translate(-556.844 -218.759)" fill="#013028"/><path d="M621.234,428.175H617.5c-1.78-65.079-7.209-188.83-7.209-188.83l3.916-5.985,4.361.089Z" transform="translate(-536.916 -232.203)" fill="#013028"/></g><path d="M651.464,224.829c.022-6.991-18.551-7.945-15.6-18.4,2.334-8.266,7.718-10.791,4.457-20.523-2.149-6.414-12.135-17.337-21.313-19.755-13.846-3.647-25.889,5.2-30.568,22.1s13.868,21.168,2.953,40.142S651.364,257.269,651.464,224.829Z" transform="translate(-501.426 -163.659)" fill="#013028"/><path d="M622.875,216.294l-17.488,9.075s-30.052-19.148-34.128-22.394c0,0-4.23-6.868-4.7-8.13s-2.314-5.3-2.314-6.931v-1.86a2.989,2.989,0,0,0-2.661,2.837,25.109,25.109,0,0,0,.908,6.141l-11.51,0c-1.766,0-2.975,1.3-1.208,3.162,0,0-.656,2.325,1.248,2.883,0,0-.447,2.136,1.366,2.414,0,0-.445,2.189,3.135,2.374,1.776.093,3.656,1.15,5.612,1.707a24.944,24.944,0,0,1,5.8,2.045c5.307,3.153,30.5,30.419,35.986,32.144,5.943,1.867,27.722-13.1,27.722-13.1Z" transform="translate(-548.905 -138.283)" fill="#ffb38f"/><path d="M620.8,197.057a19.034,19.034,0,0,1-9.48,22.356c-7.9,4.448-26.279,12.346-26.279,12.346l-9.178-18.066s15.06-9.458,21.746-13.485c3.929-2.365,10.284-7.08,17.917-8.39C620.277,191,618.808,194.063,620.8,197.057Z" transform="translate(-515.881 -131.388)" fill="#e15f3d"/><g transform="translate(81.061 56.945)"><path d="M645.388,278c4.005,8.677,2.114,12.549-4.539,14.24-4.361,1.112-10.813,1.268-19,1.224-19.468-.156-32.528-2.091-34-4.227-2.937-4.227.868-9.367,1.513-19,.846-12.593,4.739-20.781.289-27.5-8.344-12.571-2.336-21.715-.556-31.327,1.735-9.345.067-12.549,8.165-16.309,12.371-5.763,16.487-4.873,16.487-4.873,16.887-.623,31.149,6.5,33.352,8.788.6.623.534,4,.111,9.078C645.744,226.249,639.871,266.053,645.388,278Z" transform="translate(-585.338 -190.178)" fill="#f46640"/><path d="M611.346,282.377c-4.962-48.948,1.246-76.693,1.246-76.693s2.225-3.293,5.117-7.454c-1.469,18.155-7.342,57.959-1.825,69.907C619.89,276.814,618,280.686,611.346,282.377Z" transform="translate(-555.835 -180.314)" fill="#e15f3d"/></g><g transform="translate(84.824 0)"><g transform="translate(6.618 10.616)"><path d="M590.349,174.63s-3.119,31.438,9.4,37.223c9.047,4.183,19.41-5.062,20.943-14.3,1.079-6.51,2.414-18.669-3.827-22.661S595.055,164.869,590.349,174.63Z" transform="translate(-590.004 -169.355)" fill="#ffb38f"/><path d="M603.956,179.684s2.628-2.863,4.692-.485c2.425,2.792-1.422,7.963-4.975,8.635Z" transform="translate(-573.259 -158.454)" fill="#ffb38f"/></g><path d="M625.251,195.673s-4.717-6.688-15.659-7.992c-14.073-1.678-23.64-3.282-22.465-11.287.823-5.609,16.774-14.513,29.707-11.022S636.58,187.159,625.251,195.673Z" transform="translate(-587.029 -164.584)" fill="#013028"/></g><g transform="translate(131.106 65.774)"><path d="M634.323,232.488a198.613,198.613,0,0,0-3.3-26.53l-15.214-1.319s5.491,24.158,5.271,29.32c-.207,4.853-4.826,35.116-5.231,39.108h0s-4.385,3.9-5.16,4.419-1.11,2.067-1.651,3.678-1.213,3.829-1.213,3.829a2.578,2.578,0,0,0,2.023-.432c.743-.694,2.32-4.3,2.32-4.3s.65,3.787-.1,5.8-2.728,8.208-2.959,9.011,1.192,1.31,1.791,0,3.584-7.994,3.584-7.994a46.848,46.848,0,0,1-.705,5.473c-.347,1.05-1.3,3.44-1.7,4.376s.465,1.326,1.068.906,2.042-3.691,2.349-4.279,1.787-5.482,1.787-5.482-.6,4.788-.854,5.558-1.571,4.2-1.571,4.2a.493.493,0,0,0,.407.683c.61.091.923-.521,1.486-1.537s1.535-2.67,1.671-3.084,1.793-4.922,1.793-4.922-1.11,4.739-1.241,5.146-1.342,3.36-.777,3.54,1.3-1.088,2.1-2.372a7.988,7.988,0,0,0,1.657-3.758c.438-2.214,1.13-5.238,1.186-6.3.049-.93.372-7.518.454-9.169l.067-.7S634.819,245.013,634.323,232.488Z" transform="translate(-607.831 -181.293)" fill="#ffb38f"/><path d="M616.065,194.146s-9.536,12.94-3.253,44.167c0,0,9.819,4.147,18.872-4.721C631.684,233.592,628.075,207.08,616.065,194.146Z" transform="translate(-604.353 -194.146)" fill="#f46640"/></g><g transform="translate(98.515 35.874)"><g transform="translate(4.938)"><path d="M0,0H18.405a0,0,0,0,1,0,0V26.265A3.634,3.634,0,0,1,14.771,29.9H3.634A3.634,3.634,0,0,1,0,26.265V0A0,0,0,0,1,0,0Z" fill="#ffb38f"/><path d="M595.4,198.56s10.613,3.9,18.4-8.975l.271-7.941L595.4,187.658Z" transform="translate(-595.402 -179.56)" fill="rgba(235,140,108,0.35)"/></g><path d="M621.745,192.49s-2.85,7.22-21.8,17.824c0,0-8.808-7.046-6.312-17.624C593.628,192.69,605.725,186.925,621.745,192.49Z" transform="translate(-593.183 -169.242)" fill="#ffb38f"/></g><g transform="translate(93.514 28.13)"><path d="M597.631,178.253s3.791-1.773,6.217,1.219" transform="translate(-582.733 -176.608)" fill="none" stroke="#013028" stroke-linecap="round" stroke-linejoin="round" stroke-width="0.576"/><path d="M590.935,178.676s3.122-2.792,6.3-.625" transform="translate(-590.935 -177.227)" fill="none" stroke="#013028" stroke-linecap="round" stroke-linejoin="round" stroke-width="0.576"/><path d="M594.147,180.266a1.148,1.148,0,1,1-1.048-1.239A1.147,1.147,0,0,1,594.147,180.266Z" transform="translate(-589.807 -175.027)" fill="#013028"/><path d="M600.05,180.768A1.148,1.148,0,1,1,599,179.528,1.149,1.149,0,0,1,600.05,180.768Z" transform="translate(-582.576 -174.412)" fill="#013028"/><path d="M597.094,179.474s-.429,4.428-2.606,6.065,1.3,3.164,1.3,3.164" transform="translate(-587.458 -174.474)" fill="none" stroke="rgba(235,140,108,0.35)" stroke-linecap="round" stroke-linejoin="round" stroke-width="0.331"/><path d="M595.89,185.5a4.487,4.487,0,0,0,4.777-.748" transform="translate(-584.865 -168.013)" fill="none" stroke="rgba(235,140,108,0.35)" stroke-linecap="round" stroke-linejoin="round" stroke-width="0.331"/></g><g transform="translate(92.355 30.827)"><path d="M616.31,180.732s-3.785,4.668-13.454.861c-1.342-.527-2.777-2.018-5.48-.532s-6.962.948-6.962.948,1.143,14.914,10.021,17.325c5.685,1.544,12.086-1.751,16.622-8.188C614.363,188.622,614.9,183.622,616.31,180.732Z" transform="translate(-590.414 -176.013)" fill="#fafafa"/><path d="M605.754,182.54a19.394,19.394,0,0,1-3.62,6.25" transform="translate(-576.058 -173.416)" fill="none" stroke="#fafafa" stroke-linecap="round" stroke-linejoin="round" stroke-width="0.184"/><path d="M607.216,178.439s-2.3,1.3-5.464,6" transform="translate(-576.526 -178.439)" fill="none" stroke="#fafafa" stroke-linecap="round" stroke-linejoin="round" stroke-width="0.184"/></g></g><g transform="translate(1503.872 267.846)"><path d="M491.079,247.74s5.264-1.6,6.639-1.831,4.577-.343,6.179-1.259a38.674,38.674,0,0,0,4.879-4.118,2.247,2.247,0,0,1,.843,2.174c-.343,1.259-1.944,1.945-2.516,3.433s1.945,2.289,3.433,2.174,3.891,1.146,5.38,1.489,5.72-.572,8.352-1.259.458,3.09-2.174,3.435-4.806.685-6.179,1.831-7.669,2.174-10.644.914-13.163,1.373-13.163,1.373Z" transform="translate(-441.893 -199.911)" fill="#ffb38f"/><path d="M472.024,223.008c10.473-3.273,11.454,4.454,17.346,22.127s5.665,19.969,5.665,19.969l32.426,1.442-1.048,11.912s-25.593-.074-34.1.908-18.99-12.015-22.263-32.633S472.024,223.008,472.024,223.008Z" transform="translate(-468.972 -222.274)" fill="#e58720"/></g><g transform="translate(1443.358 384.557)"><g transform="translate(0 204.175)"><path d="M445.646,368.031s-2.594-.033-3.858,13.534c-.329,3.524,5.311,3.041,11.218,3.041,3.745,0,9.781.018,10.6-1.3,0,0,3.58-3.186-5.536-15.207Z" transform="translate(-441.774 -364.618)" fill="#20201e"/><path d="M467.178,366.5c-3.578,12.76-8.8,15.846-2.859,16.947a228.992,228.992,0,0,0,45.309,1.159s4.287-4.635-6.942-6.953-19.993-4.345-23.871-9.994Z" transform="translate(-417.457 -366.497)" fill="#20201e"/></g><path d="M518.4,276.265s-4.873,114.628-11.681,206.607h-17.51L485.942,329.13,462.669,482.872H441.777l.044-1.179,5.852-206.963,4.227.089Z" transform="translate(-441.77 -274.73)" fill="#464340"/><path d="M461.625,311.678l7.23-22.7-6.816,42.185Z" transform="translate(-417.457 -257.277)" fill="#898989"/><path d="M460.331,283.986l-11.392,198.33-7.142-.623,5.852-206.963,4.228.089Z" transform="translate(-441.745 -274.73)" fill="#898989"/></g><g transform="translate(1535.279 238.328)"><g transform="translate(0 0)"><g transform="translate(15.223)"><path d="M516.424,233.717a1.083,1.083,0,0,1-1.081-1.081V219.954a8.8,8.8,0,0,0-8.788-8.786h-5.676a8.8,8.8,0,0,0-8.789,8.786v12.682a1.08,1.08,0,1,1-2.16,0V219.954a10.959,10.959,0,0,1,10.949-10.947h5.676a10.963,10.963,0,0,1,10.951,10.947v12.682A1.083,1.083,0,0,1,516.424,233.717Z" transform="translate(-489.93 -209.007)" fill="#1370fc"/></g><path d="M538.513,281.9H490.232a7.144,7.144,0,0,1-7.129-7.609l3.827-58.358h54.882l3.827,58.358A7.141,7.141,0,0,1,538.513,281.9Z" transform="translate(-483.088 -200.523)" fill="#0070ff"/><path d="M497.031,215.933l-2.2,65.967h-4.595a7.144,7.144,0,0,1-7.129-7.609l3.827-58.358Z" transform="translate(-483.088 -200.523)" fill="#8fbcf5"/><g transform="translate(24.078)"><path d="M520.4,233.717a1.082,1.082,0,0,1-1.081-1.081V219.954a8.8,8.8,0,0,0-8.786-8.786h-5.676a8.8,8.8,0,0,0-8.791,8.786v12.682a1.08,1.08,0,1,1-2.16,0V219.954a10.961,10.961,0,0,1,10.951-10.947h5.676a10.961,10.961,0,0,1,10.949,10.947v12.682A1.082,1.082,0,0,1,520.4,233.717Z" transform="translate(-493.91 -209.007)" fill="#8fbcf5"/></g></g></g><path d="M516.79,277.82v70.686s-24.63,6.853-58.738,3.426c-4.628-.445-9.456-1.09-14.4-1.98l1.6-109.6.111-8.41c0-6.1,20-11.948,35.221-12.682,0,0,15.508,1.2,28.056,6.586C521.218,231.23,516.79,258.2,516.79,277.82Z" transform="translate(1003.891 41.88)" fill="#1370fc"/><path d="M479.675,250.032l-1.2.69a3.433,3.433,0,0,1-2.625.287l-3.834-1.124a2.455,2.455,0,0,1-1.92-2.238V235.532h10.822v12.549A2.287,2.287,0,0,1,479.675,250.032Z" transform="translate(1036.271 61.812)" fill="#8fbcf5"/><g transform="translate(1488.535 277.692)"><ellipse cx="1.316" cy="1.316" rx="1.316" ry="1.316" transform="translate(0 0)" fill="#8fbcf5"/><ellipse cx="1.316" cy="1.316" rx="1.316" ry="1.316" transform="translate(0 8.385)" fill="#8fbcf5"/><ellipse cx="1.316" cy="1.316" rx="1.316" ry="1.316" transform="translate(0 16.77)" fill="#8fbcf5"/></g><path d="M461.968,256.6l-3.916,83.724c-4.628-.445-9.456-1.09-14.4-1.98l1.6-109.6Z" transform="translate(1003.891 53.493)" fill="#8fbcf5" opacity="0.51"/><g transform="translate(1444.154 270.217)"><path d="M478.61,248.988s5.645-1.72,7.118-1.965,4.91-.367,6.628-1.351a41.681,41.681,0,0,0,5.231-4.416,2.416,2.416,0,0,1,.906,2.332c-.369,1.348-2.087,2.085-2.7,3.68s2.085,2.456,3.68,2.332,4.174,1.228,5.769,1.6,6.136-.614,8.958-1.351.492,3.313-2.332,3.682-5.153.734-6.626,1.962-8.223,2.332-11.414.981-14.115,1.473-14.115,1.473Z" transform="translate(-397.448 -201.393)" fill="#ffb38f"/><path d="M448.7,224.044c10.473-3.273,12.8,4.957,18.687,22.63a289.683,289.683,0,0,0,11.127,28.8l48.317-7.215,2.147,11.961s-45.555,15.219-54.064,16.2-28.8-25.527-32.072-46.145S448.7,224.044,448.7,224.044Z" transform="translate(-442.132 -223.339)" fill="#ed9529"/></g><path d="M484,201.676s-5.767,4.581-15.908-1.84C468.091,199.836,473.353,196.886,484,201.676Z" transform="translate(1033.82 16.986)" fill="#1370fc"/><g transform="translate(1464.836 210.205)"><path d="M463.933,198.765s-11.278-1.8-12.482,8.234c-.211,1.747,1.064,2.9,1.522,4.928,2.172,9.612,9.761,22.169,15.646,26.931C468.618,238.859,472.861,204.581,463.933,198.765Z" transform="translate(-451.427 -193.583)" fill="#04383d"/><path d="M475.736,212.432s7.783-3.858,5.124-10.132-18.1-1.193-15.263,4.468S475.736,212.432,475.736,212.432Z" transform="translate(-434.495 -192.639)" fill="#04383d"/><g transform="translate(11.929 28.379)"><path d="M467.356,239.234c5.1,0,9.238-1.288,9.238-6.39V209.122H456.919v23.722C456.919,237.946,467.356,239.234,467.356,239.234Z" transform="translate(-456.63 -209.122)" fill="#ffb38f"/><path d="M476.753,229.4s-11.345,2-19.675-11.763l-.289-8.141,19.964,6.43Z" transform="translate(-456.789 -208.665)" fill="rgba(235,140,108,0.35)"/></g><path d="M490.978,201.338s3.8,38.442-9.645,42.9c-9.487,3.144-20.661-6.6-23.264-16.273-1.833-6.811-4.534-19.606,1.684-24.508S484.944,191.448,490.978,201.338Z" transform="translate(-445.973 -196.367)" fill="#ffb38f"/><path d="M459.49,207.657s-2.857-3.3-5.113-.8c-1.6,1.773,2.421,9.1,6.27,9.44Z" transform="translate(-448.257 -184.662)" fill="#ffb38f"/><path d="M460.175,217.55s.2-3.871,3.293-5.622c3.943-2.238,4.356-7.32,2.826-11.683,0,0-8.94-4.441-11.423.312S456.31,215.407,460.175,217.55Z" transform="translate(-448.163 -193.925)" fill="#04383d"/></g><g transform="translate(1487.796 225.969)"><path d="M468.375,204.913s-4.081-1.84-6.628,1.393" transform="translate(-461.747 -202.301)" fill="none" stroke="#013028" stroke-linecap="round" stroke-linejoin="round" stroke-width="0.615"/><path d="M475.132,204.509s-3.858-2.741-6.744.607" transform="translate(-453.612 -203.452)" fill="none" stroke="#013028" stroke-linecap="round" stroke-linejoin="round" stroke-width="0.615"/><path d="M469.606,206.826a1.227,1.227,0,1,0,1.1-1.342A1.225,1.225,0,0,0,469.606,206.826Z" transform="translate(-452.127 -200.97)" fill="#013028"/><path d="M463.329,207.464a1.226,1.226,0,1,0,1.1-1.342A1.226,1.226,0,0,0,463.329,207.464Z" transform="translate(-459.816 -200.189)" fill="#013028"/><path d="M467.811,206.436s.525,4.728,2.872,6.446-1.344,3.4-1.344,3.4" transform="translate(-454.319 -199.797)" fill="none" stroke="#eb8c6c" stroke-linecap="round" stroke-linejoin="round" stroke-width="0.41"/><path d="M470.415,213.692s-3.34,1.593-5.929-.845" transform="translate(-458.392 -191.944)" fill="none" stroke="#eb8c6c" stroke-linecap="round" stroke-linejoin="round" stroke-width="0.41"/></g><path d="M457.025,206.053s7.872,7.732,13.59,5.38,8.906-7.947,17.641-7.818a36.362,36.362,0,0,1,9.3,1.842,41.8,41.8,0,0,0-8.508-5.549S476.767,187.513,457.025,206.053Z" transform="translate(1020.265 13.205)" fill="#8fbcf5"/><path d="M454.065,222.582s5.335-6.713,12.56-8.9c10.711-11.7,22.332-10.911,30.048-7.845,0,0,.407-5.064-6.477-11.441-4.579-4.241-16.164-4.539-25.117-.725a25.917,25.917,0,0,0-13.292,13.238C448.623,214.817,454.065,222.582,454.065,222.582Z" transform="translate(1012.639 7.271)" fill="#1370fc"/><g transform="translate(1475.003 232.259)"><path d="M459.195,211.564s4.6,2.946,14.9-2.334c1.428-.732,3.542-1.945,6.421-.056s6.372.278,6.372.278-.719,18.075-8.266,20.483c-6.25,1.991-13.381-.107-19.117-6.746C462.219,220.095,459.413,214.7,459.195,211.564Z" transform="translate(-452.079 -203.966)" fill="#fafafa"/><path d="M456.864,210.567s2.294,6.561,6.154,9.888" transform="translate(-454.935 -201.027)" fill="none" stroke="#fafafa" stroke-linecap="round" stroke-linejoin="round" stroke-width="0.205"/><path d="M456,206.279s3.963,2.187,8,8.94" transform="translate(-455.997 -206.279)" fill="none" stroke="#fafafa" stroke-linecap="round" stroke-linejoin="round" stroke-width="0.205"/></g><path d="M458.192,218.538s4.866,7.945,12.344,8.944c0,0-2.174,8.395-6.4,7.282-5.186-1.364-8.259-13.565-8.259-13.565Z" transform="translate(1018.863 40.996)" fill="#ed9529"/><path d="M462.467,226.8s3.94-.681,7.331-7.7l1.057,2.423s.619,8.76-2.2,11.409C466.033,235.4,462.467,226.8,462.467,226.8Z" transform="translate(1026.931 41.679)" fill="#ed9529"/><g transform="translate(1557.599 276.15)"><path d="M281.875,331.128c-5.777,3.345.443,23.79,4.285,25.564,3.522,1.625,15.629-1.34,19.948-4.285,3.251-2.216,5.615-14.333,2.955-17.141C305.758,331.777,287.49,327.878,281.875,331.128Z" transform="translate(-279.525 -329.91)" fill="#fff"/><g transform="translate(6.152 7.182)"><path d="M350.8,419.97a.555.555,0,0,1-.473-.256l-3.471-4.911c0-.02-.02-.02-.02-.039a4.638,4.638,0,0,1,7.238-5.7,4.575,4.575,0,0,1,.67,5.7.019.019,0,0,1-.02.02l-3.432,4.931a.617.617,0,0,1-.493.256Zm-2.978-5.818,2.978,4.2,2.958-4.2a3.432,3.432,0,0,0-.513-4.221,3.461,3.461,0,0,0-5.424,4.221Z" transform="translate(-346.166 -407.702)" fill="#0070ff"/><path d="M375.766,441.849a2.012,2.012,0,1,1,2.012-2.012A2.02,2.02,0,0,1,375.766,441.849Zm0-2.84a.828.828,0,1,0,0,1.657.833.833,0,0,0,.828-.828A.809.809,0,0,0,375.766,439.008Z" transform="translate(-371.207 -435.044)" fill="#0070ff"/></g><g transform="translate(15.807 7.216)"><path d="M454.8,420.309a.616.616,0,0,1-.493-.256l-3.452-4.911a.594.594,0,1,1,.966-.69l2.978,4.24,2.978-4.221a3.433,3.433,0,0,0-.513-4.221,3.5,3.5,0,0,0-4.911,0,.586.586,0,0,1-.829-.828,4.679,4.679,0,0,1,6.568,0,4.575,4.575,0,0,1,.671,5.7c0,.02-.02.02-.02.039l-3.451,4.891A.617.617,0,0,1,454.8,420.309Z" transform="translate(-450.747 -408.076)" fill="#0070ff"/><path d="M474.039,441.849a2.012,2.012,0,1,1,2.012-2.012A2.02,2.02,0,0,1,474.039,441.849Zm0-2.84a.828.828,0,1,0,0,1.657.833.833,0,0,0,.828-.828A.809.809,0,0,0,474.039,439.008Z" transform="translate(-470.062 -435.079)" fill="#0070ff"/></g></g><g transform="translate(1485.911 201.043)"><path d="M280.246,330.284c-1.773,1.027.136,7.3,1.315,7.846,1.081.5,4.8-.411,6.123-1.315,1-.68,1.723-4.4.907-5.261C287.577,330.483,281.97,329.286,280.246,330.284Z" transform="translate(-279.525 -329.91)" fill="#fff"/><g transform="translate(1.888 2.204)"><path d="M347.59,411.467a.17.17,0,0,1-.145-.079l-1.065-1.507c0-.006-.006-.006-.006-.012a1.424,1.424,0,0,1,2.222-1.75,1.4,1.4,0,0,1,.206,1.75.006.006,0,0,1-.006.006l-1.053,1.513a.189.189,0,0,1-.151.079Zm-.914-1.786.914,1.289.908-1.289a1.053,1.053,0,0,0-.158-1.3,1.062,1.062,0,0,0-1.665,1.3Z" transform="translate(-346.166 -407.702)" fill="#0070ff"/><path d="M374.371,439.06a.617.617,0,1,1,.618-.617A.62.62,0,0,1,374.371,439.06Zm0-.872a.254.254,0,1,0,0,.508.256.256,0,0,0,.254-.254A.248.248,0,0,0,374.371,438.188Z" transform="translate(-372.972 -436.971)" fill="#0070ff"/></g><g transform="translate(4.852 2.215)"><path d="M451.991,411.831a.189.189,0,0,1-.151-.079l-1.06-1.507a.182.182,0,1,1,.3-.212l.914,1.3.914-1.3a1.053,1.053,0,0,0-.157-1.3,1.074,1.074,0,0,0-1.507,0,.18.18,0,1,1-.254-.254,1.436,1.436,0,0,1,2.016,0,1.4,1.4,0,0,1,.206,1.749c0,.006-.006.006-.006.012l-1.059,1.5A.19.19,0,0,1,451.991,411.831Z" transform="translate(-450.747 -408.076)" fill="#0070ff"/><path d="M472.644,439.06a.617.617,0,1,1,.618-.617A.62.62,0,0,1,472.644,439.06Zm0-.872a.254.254,0,0,0,0,.508.256.256,0,0,0,.254-.254A.248.248,0,0,0,472.644,438.188Z" transform="translate(-471.424 -436.982)" fill="#0070ff"/></g></g><g transform="translate(1509.09 301.366)"><path d="M279.968,330.139c-1.088.63.084,4.482.807,4.816.664.306,2.944-.252,3.758-.807.612-.418,1.058-2.7.557-3.229C284.467,330.261,281.026,329.527,279.968,330.139Z" transform="translate(-279.525 -329.91)" fill="#0070ff"/><g transform="translate(1.159 1.353)"><path d="M347.04,410.013a.1.1,0,0,1-.089-.048l-.654-.925s0,0,0-.007a.874.874,0,0,1,1.364-1.074.862.862,0,0,1,.126,1.074,0,0,0,0,1,0,0l-.647.929a.116.116,0,0,1-.093.048Zm-.561-1.1.561.791.557-.791a.647.647,0,0,0-.1-.8.652.652,0,0,0-1.022.8Z" transform="translate(-346.166 -407.702)" fill="#fff"/><path d="M374.133,438.583a.379.379,0,1,1,.379-.379A.381.381,0,0,1,374.133,438.583Zm0-.535a.156.156,0,1,0,0,.312.157.157,0,0,0,.156-.156A.153.153,0,0,0,374.133,438.048Z" transform="translate(-373.274 -437.301)" fill="#fff"/></g><g transform="translate(2.978 1.36)"><path d="M451.511,410.381a.116.116,0,0,1-.093-.048l-.65-.925a.112.112,0,1,1,.182-.13l.561.8.561-.8a.647.647,0,0,0-.1-.8.66.66,0,0,0-.925,0,.11.11,0,0,1-.156-.156.882.882,0,0,1,1.237,0,.862.862,0,0,1,.126,1.074s0,0,0,.007l-.65.921A.116.116,0,0,1,451.511,410.381Z" transform="translate(-450.747 -408.076)" fill="#fff"/><path d="M472.406,438.583a.379.379,0,1,1,.379-.379A.381.381,0,0,1,472.406,438.583Zm0-.535a.156.156,0,0,0,0,.312.157.157,0,0,0,.156-.156A.153.153,0,0,0,472.406,438.048Z" transform="translate(-471.657 -437.308)" fill="#fff"/></g></g><ellipse cx="77.165" cy="6.675" rx="77.165" ry="6.675" transform="translate(1414.139 597.804)" fill="#9ab12d" opacity="0.26"/><g transform="translate(-825.094 -76.214)"><path d="M393.906,362.343a60.548,60.548,0,1,0,1.312,85.616A60.546,60.546,0,0,0,393.906,362.343Zm-76.182,41.286a34.146,34.146,0,0,1,16.986-27.338,32.23,32.23,0,0,1,4.179-2.047,32.967,32.967,0,0,1,4.435-1.462,33.316,33.316,0,0,1,35.466,12.4,34.531,34.531,0,0,0-4.225-4.716l-18.911,18.911a7.531,7.531,0,0,0-4.369-1.068l-7.961-25.529a32.967,32.967,0,0,0-4.435,1.462,32.23,32.23,0,0,0-4.179,2.047l12.149,23.82a7.529,7.529,0,0,0-2.391,3.836l-26.744-.318q-.068,1.146-.062,2.305Q317.658,404.776,317.724,403.629Zm21.464,33.839a34.024,34.024,0,0,1-20.762-24.57,32.647,32.647,0,0,1-.673-4.645,32.647,32.647,0,0,0,.673,4.645l26.375-4.185a7.484,7.484,0,0,0,2.927,3.452l-8.54,25.3a33.206,33.206,0,0,0,4.421,1.437A33.206,33.206,0,0,1,339.188,437.469Zm25.424-.1a33.825,33.825,0,0,1-16.424,2.331l4.176-26.412a7.477,7.477,0,0,0,2.237-.5,7.4,7.4,0,0,0,1.942-1.2l21.447,15.97a34.023,34.023,0,0,0,3.745-5.721,32.969,32.969,0,0,1-17.123,15.536Zm18.27-17.708h0l-23.806-12.12a7.472,7.472,0,0,0-.318-4.52l21.784-15.436h0a34.033,34.033,0,0,1,2.339,32.076Z" transform="translate(612.962 282.21)"/><path d="M307.435,343.63l-21.986,44.849s2.515,2.723,6.286-1.678c0,0,6.286.42,13.829-10.266s20.007-24.78,20.007-24.78Z" transform="translate(602.376 279.215)"/><path d="M475.988,345.258a60.548,60.548,0,1,0,60.55,60.55A60.549,60.549,0,0,0,475.988,345.258Zm17.841,31.506a34.194,34.194,0,0,1,16.231,27.778l-26.742-.409a7.506,7.506,0,0,0-2.277-3.878l12.787-23.491a33.041,33.041,0,0,0-4.139-2.163A32.848,32.848,0,0,1,493.829,376.764ZM444.51,418.831a34.057,34.057,0,0,1,40.8-45.806q1.1.307,2.2.7-1.1-.4-2.2-.7l-8.642,25.3a7.505,7.505,0,0,0-4.415.954l-18.392-19.42a33.773,33.773,0,0,0-6.169,6.956l21.37,16.021a7.487,7.487,0,0,0-.443,4.506l-24.11,11.484A33.384,33.384,0,0,0,446.557,423,33.384,33.384,0,0,1,444.51,418.831Zm17.773,18.185a33.842,33.842,0,0,1-13.108-10.17l21.867-15.391a6.831,6.831,0,0,0,4.131,1.817l3.466,26.515a34.07,34.07,0,0,0,5.914-1.065,32.934,32.934,0,0,1-22.27-1.706ZM507.19,419.5a34,34,0,0,1-19.476,18.3h0l-7.873-25.527a7.5,7.5,0,0,0,3.021-3.376l26.25,4.892A33.639,33.639,0,0,1,507.19,419.5Zm2.4-8.018a33.708,33.708,0,0,0,.468-4.633A33.708,33.708,0,0,1,509.594,411.48Z" transform="translate(841.446 282.209)"/><g transform="translate(1241.766 595.942)"><path d="M527.172,377.2h-.017a53.307,53.307,0,0,1-10.893-.619c-15.084-1.962-44.418-7.26-70.112,17.043-25.711,24.306-36.034,15.641-36.034,15.641s9.554-35.719,28.678-57.909c8.194-9.505,18.133-16.527,29.816-17.2,0,0,38.146,1.357,61.612,41.582C530.221,375.736,530.675,376.86,527.172,377.2Z" transform="translate(-410.115 -334.154)" fill="#ddda57"/><path d="M508.595,377.2h-.017l-.017-.017s-28.644-44.935-88.345-25.827c8.194-9.505,18.134-16.527,29.817-17.2,0,0,38.146,1.357,61.612,41.582C511.644,375.736,512.1,376.86,508.595,377.2Z" transform="translate(-391.538 -334.154)" fill="#ddda57"/></g><g transform="translate(909.188 567.067)"><path d="M330.491,326.023l-2.933,16.14L295.027,355.74a11.285,11.285,0,0,1-1.425-3.1,13.175,13.175,0,0,1-.622-2.413c-.318-2.078,10.476-14.65,11.953-19.275,1.457-4.594-.84-4.812,6.269-6.487a28.541,28.541,0,0,1,8.631-.3A70.062,70.062,0,0,1,330.491,326.023Z" transform="translate(-292.974 -323.984)" fill="#04383d"/><path d="M319.833,324.164a17.6,17.6,0,0,0-5.582,6.067c-1.76,3.336-16.123,17.883-20.649,22.409a13.175,13.175,0,0,1-.622-2.413c-.318-2.078,10.476-14.65,11.953-19.275,1.457-4.594-.84-4.812,6.269-6.487A28.541,28.541,0,0,1,319.833,324.164Z" transform="translate(-292.974 -323.984)" fill="#ee534e"/></g><path d="M691.082,431.544c-.42,10.9-17.6,6.706-33.942,48.608s-53.216,56.146-59.919,59.079-42.839-4.188-59.752,0c-16.93,4.191-38.717,10.476-53.8,2.1s-28.493-26.4-29.748-37.712c0,0-93.861-10.894-164.257-48.606,0,0-1.542-1.306,1.826-6.6l.017-.017c3.5-5.5,12.336-15.337,33.774-32.482,18.15-14.53,48.185-35.063,48.185-35.063S490.371,397.8,516.769,412.789c0,0,3.353,8.282-3.353,17.918s-13.827,30.589.42,41.9,48.606,29.751,85.48,10.894c9.168-4.693,22.341-38,22.341-61.461,0-15.939-17.012-57.909-28.794-85.463-5.565-13.023-9.974-22.829-10.86-25.16-2.8-7.257,25.14-27.923,30.169-30.722,3.435-1.911,17.934,1.258,27.673,4.091,4.526,1.306,8.029,2.547,8.915,3.169,2.8,1.959-2.513,5.312-6.419,15.922-3.921,10.627-1.675,14.247-6.7,15.655-.988.267-2.212.636-3.555,1.039-4.741,1.439-10.877,3.418-12.336,3.887a.049.049,0,0,1-.031.017,1.56,1.56,0,0,0-.2.051.742.742,0,0,0-.085.034s28.209,22.895,45.255,53.9S691.5,420.65,691.082,431.544Z" transform="translate(609.473 162.402)" fill="#ddda57"/><path d="M481.137,380.854c-1.692,38.549-27.219,42.32-27.219,42.32s-93.861-10.894-164.257-48.606c0,0-1.542-1.306,1.828-6.6l.017-.017c39.958-39.688,87.425-45.866,120.092-43.722C445.677,326.459,482.832,342.3,481.137,380.854Z" transform="translate(609.477 242.843)" fill="#f6f578"/><path d="M584.454,402.752c-.417,10.9-17.6,6.706-33.939,48.609S497.3,507.507,490.593,510.44s-42.839-4.188-59.752,0-38.717,10.477-53.8,2.1-28.493-26.4-29.751-37.712c0,0,93.861,17.182,108.108,19.278s36.037,7.961,50.283-5.031,37.292-49.443,43.578-64.527,14.247-19.7,5.445-36.454-33.521-60.473-41.062-71.937-.837-20.382-.837-20.382,28.207,22.895,45.253,53.9S584.874,391.859,584.454,402.752Z" transform="translate(716.107 191.193)" fill="#f6f578"/><path d="M452.866,303.877c-3.921,10.627-1.675,14.247-6.7,15.655-.988.267-2.212.636-3.554,1.039-4.741,1.439-10.877,3.418-12.336,3.887a.049.049,0,0,1-.031.017,1.568,1.568,0,0,0-.2.051.286.286,0,0,1-.085.034c-5.414,1.743-26.566,12.018-26.566,12.018-5.565-13.023-9.974-22.829-10.859-25.16-2.8-7.257,25.14-27.923,30.168-30.722,3.435-1.911,17.935,1.258,27.673,4.091,4.525,1.306,8.029,2.547,8.915,3.169C462.085,289.915,456.773,293.268,452.866,303.877Z" transform="translate(798.947 162.402)" fill="#f6f578"/><path d="M420.3,300.85c-3.924,10.627-1.678,14.247-6.706,15.655-.988.267-2.212.636-3.552,1.039,3.821-12.521,6.987-31.176,7.643-35.063.066-.471.116-.721.116-.721,4.526,1.306,8.029,2.547,8.918,3.168C429.52,286.887,424.206,290.24,420.3,300.85Z" transform="translate(831.52 165.429)" fill="#ddda57"/><g transform="translate(1181.985 401.196)"><g transform="translate(0 61.978)"><path d="M400.785,294.3a5.863,5.863,0,1,1-5.863-5.863A5.863,5.863,0,0,1,400.785,294.3Z" transform="translate(-389.059 -285.465)" fill="#04383d"/><path d="M406.444,294.181a6.791,6.791,0,1,1-6.791-6.791A6.791,6.791,0,0,1,406.444,294.181Z" transform="translate(-382.065 -287.39)" fill="#04383d"/><path d="M392.8,298.433c20.811,2.927,34.864,2.1,34.864-.977s-6.751-5.025-12.8-7.822c-4.19-1.942-15.57-1.848-15.57-1.848L391.836,290Z" transform="translate(-383.952 -286.662)" fill="#04383d"/></g><g transform="translate(10.312 0)"><g transform="translate(11.254 20.831)"><path d="M405.076,319.22l-1.635-.361,3.313-15.141a8.711,8.711,0,0,0-.383-5.005L396.655,273.5l1.564-.6,9.715,25.214a10.365,10.365,0,0,1,.454,5.965Z" transform="translate(-396.655 -272.897)" fill="#04383d"/></g><path d="M396.62,265.56s8.659,5.028,11.558,10.476,4.154,9.846-2.97,15.925-10.056,3.14-11.1,2.513S390.544,270.381,396.62,265.56Z" transform="translate(-392.691 -265.56)" fill="#04383d"/></g></g><g transform="translate(958.983 524.37)"><path d="M501.067,361.378c-.082.287-.165.554-.267.843v.02c-2.916,8.909-9.67,17.225-15.482,14.187-8.787-4.619-41.477-18.437-69.564-25.972-28.067-7.558-103.917-14.681-103.917-14.681s-2.853-6.942-.185-12.855a2.437,2.437,0,0,1,.207-.471,11.412,11.412,0,0,1,4.392-4.682c9.426-5.871,23.306-7.924,30.018-8.747,6.695-.841,44.659,5.647,64.843,8.727,18.684,2.853,33.141,3.367,52.83,2.524s34.373,19.28,37.72,29.342C502.73,352.8,502.361,357.108,501.067,361.378Z" transform="translate(-310.512 -308.945)" fill="#013028"/><path d="M500.328,361.378c-.267-16.16-8.727-21.149-20.348-29.936-12.648-9.59-30.45-5.133-63.3-2.322-32.854,2.794-49.278-10.349-59.545-13.426-9.2-2.751-39.875,5.46-46.221,7.226a2.433,2.433,0,0,1,.207-.471,11.41,11.41,0,0,1,4.392-4.682c9.426-5.871,23.306-7.924,30.018-8.747,6.695-.841,44.659,5.647,64.843,8.727,18.684,2.853,33.141,3.367,52.83,2.524s34.373,19.28,37.721,29.342C501.992,352.8,501.623,357.108,500.328,361.378Z" transform="translate(-309.774 -308.945)" fill="#004238"/></g><g transform="translate(946.794 521.29)"><path d="M359.607,345.106a3.259,3.259,0,0,1-.332-.014l-39.861-4.25a3.08,3.08,0,0,1-2.541-1.948l-10.442-26.835a3.08,3.08,0,1,1,5.741-2.234l9.761,25.089,38,4.049a3.081,3.081,0,0,1-.324,6.144Z" transform="translate(-306.219 -307.86)" fill="#004238"/></g><rect width="86.616" height="84.696" transform="translate(940.817 436.736)" fill="#1370fc" opacity="0.745"/><rect width="86.616" height="38.459" transform="translate(940.817 482.973)" fill="#0070ff"/><rect width="90.282" height="12.21" transform="translate(938.984 436.736)" fill="#0070ff"/><g transform="translate(955.085 436.736)"><rect width="11" height="84.696" fill="#a0c6f7"/><rect width="11" height="84.696" transform="translate(47.082)" fill="#a0c6f7"/></g><path d="M393.837,313.245H305.546a2.667,2.667,0,0,1-2.666-2.669h0a2.666,2.666,0,0,1,2.666-2.666h88.291a2.669,2.669,0,0,1,2.669,2.666h0A2.669,2.669,0,0,1,393.837,313.245Z" transform="translate(634.433 213.522)" fill="#013028"/><rect width="86.616" height="1.893" transform="translate(940.817 448.946)" fill="#fff" opacity="0.42"/><path d="M407.69,366.6l-6.132,39.055a4.086,4.086,0,0,1-.3.786c-.9,1.945-4.355,6.99-16.189,8.767-14.8,2.246-27.287,5.63-38.368,1.559l-2.01-4.358-11.941-29.041,17.319-30.728Z" transform="translate(689.36 295.782)" fill="#a5a5a5"/><ellipse cx="23.745" cy="23.745" rx="23.745" ry="23.745" transform="translate(1016.269 695.36) rotate(-76.766)"/><path d="M364.507,372.286a14.42,14.42,0,1,1-14.42-14.42A14.42,14.42,0,0,1,364.507,372.286Z" transform="translate(694.732 305.397)" fill="#a5a5a5"/><path d="M393.518,373.585c-.9,1.945-4.355,6.99-16.189,8.767-14.8,2.246-27.287,5.63-38.368,1.559l-2.01-4.358,3.9-.335a26.985,26.985,0,0,0,10.073,1.457c5.6-.267,29.2-4.037,31.009-4.457a12.942,12.942,0,0,0,7.174-5.715Z" transform="translate(697.096 328.636)"/><path d="M395.184,411.907,308.3,388.024A14.866,14.866,0,0,1,297.9,369.752h0a14.86,14.86,0,0,1,18.27-10.391l86.891,23.883a14.864,14.864,0,0,1,10.394,18.27h0A14.866,14.866,0,0,1,395.184,411.907Z" transform="translate(624.293 307.159)" fill="#a5a5a5"/><ellipse cx="259.299" cy="8.517" rx="259.299" ry="8.517" transform="translate(873.605 737.458)" fill="#f0f0f0" opacity="0.26"/></g><g transform="translate(-796 -32)"><path d="M283.145,331.787c-8.9,5.153.683,36.655,6.6,39.387,5.426,2.5,24.08-2.064,30.735-6.6,5.009-3.415,8.652-22.084,4.553-26.41C319.944,332.786,291.8,326.779,283.145,331.787Z" transform="translate(679.693 216.749)" fill="#0070ff"/><path d="M353.311,426.6a.855.855,0,0,1-.729-.4l-5.348-7.566c0-.03-.03-.03-.03-.061a7.146,7.146,0,0,1,11.152-8.782,7.048,7.048,0,0,1,1.033,8.782.03.03,0,0,1-.03.03l-5.287,7.6a.95.95,0,0,1-.76.4Zm-4.588-8.964,4.588,6.473,4.558-6.473a5.288,5.288,0,0,0-.79-6.5,5.333,5.333,0,0,0-8.356,6.5Z" transform="translate(622.53 150.022)" fill="#fff"/><path d="M376.853,444.024a3.1,3.1,0,1,1,3.1-3.1A3.113,3.113,0,0,1,376.853,444.024Zm0-4.376a1.276,1.276,0,0,0,0,2.553,1.284,1.284,0,0,0,1.276-1.276A1.246,1.246,0,0,0,376.853,439.648Z" transform="translate(598.867 124.184)" fill="#fff"/><path d="M456.995,426.924a.949.949,0,0,1-.76-.4l-5.318-7.567a.915.915,0,0,1,1.489-1.064l4.589,6.533,4.589-6.5a5.289,5.289,0,0,0-.79-6.5,5.393,5.393,0,0,0-7.566,0,.9.9,0,0,1-1.276-1.276,7.209,7.209,0,0,1,10.119,0,7.048,7.048,0,0,1,1.033,8.782c0,.031-.03.031-.03.061l-5.318,7.536A.95.95,0,0,1,456.995,426.924Z" transform="translate(532.826 149.701)" fill="#fff"/><path d="M475.127,444.024a3.1,3.1,0,1,1,3.1-3.1A3.113,3.113,0,0,1,475.127,444.024Zm0-4.376a1.276,1.276,0,1,0,0,2.553,1.284,1.284,0,0,0,1.276-1.276A1.246,1.246,0,0,0,475.127,439.648Z" transform="translate(514.572 124.184)" fill="#fff"/></g></g></svg>