<svg xmlns="http://www.w3.org/2000/svg" width="61.737" height="76.167" viewBox="0 0 61.737 76.167">
    <defs>
        <style>
            .cls-1{fill:#f9e99b}.cls-2{fill:#ffccd3}.cls-3{fill:#ffabb9}.cls-6{fill:#fff3ac}.cls-10{fill:#fffddb}
        </style>
    </defs>
    <g id="food-and-restaurant" transform="translate(-48.501)">
        <g id="Group_718" data-name="Group 718" transform="translate(68.768 48.162)">
            <path id="Path_1308" d="M195.338 323.749h-10.6l7.626 23.914h5.951l7.626-23.914z" class="cls-1" data-name="Path 1308" transform="translate(-184.736 -323.749)"/>
        </g>
        <g id="Group_719" data-name="Group 719" transform="translate(55.846 1.116)">
            <circle id="Ellipse_163" cx="23.523" cy="23.523" r="23.523" class="cls-2" data-name="Ellipse 163"/>
        </g>
        <g id="Group_720" data-name="Group 720" transform="translate(55.846 1.247)">
            <path id="Path_1309" d="M142.3 34.4a23.523 23.523 0 0 1-23.523-23.523 23.765 23.765 0 0 1 .131-2.492 23.524 23.524 0 1 0 25.883 25.883 23.727 23.727 0 0 1-2.491.132z" class="cls-3" data-name="Path 1309" transform="translate(-97.876 -8.383)"/>
        </g>
        <g id="Group_721" data-name="Group 721" transform="translate(50.018 18.362)">
            <circle id="Ellipse_164" cx="8.926" cy="8.926" r="8.926" fill="#ff7591" data-name="Ellipse 164"/>
        </g>
        <g id="Group_722" data-name="Group 722" transform="translate(50.018 18.676)">
            <path id="Path_1310" fill="#fd5c70" d="M73.893 136.812a8.926 8.926 0 0 1-8.612-11.272 8.926 8.926 0 1 0 10.958 10.96 8.931 8.931 0 0 1-2.346.312z" data-name="Path 1310" transform="translate(-58.701 -125.54)"/>
        </g>
        <g id="Group_723" data-name="Group 723" transform="translate(53.891 36.388)">
            <path id="Path_1311" d="M84.736 244.6c0 11.5 11.407 20.827 25.478 20.827s25.478-9.325 25.478-20.827z" class="cls-6" data-name="Path 1311" transform="translate(-84.736 -244.605)"/>
        </g>
        <g id="Group_726" data-name="Group 726" transform="translate(53.891 36.388)">
            <g id="Group_724" data-name="Group 724">
                <path id="Path_1312" d="M96.425 244.6H84.736c0 11.5 11.407 20.827 25.478 20.827a31.385 31.385 0 0 0 3.3-.174c-9.64-1.318-17.089-10.06-17.089-20.653z" class="cls-1" data-name="Path 1312" transform="translate(-84.736 -244.605)"/>
            </g>
            <g id="Group_725" data-name="Group 725" transform="translate(50.956)"/>
        </g>
        <g id="Group_727" data-name="Group 727" transform="translate(83.796 8.826)">
            <circle id="Ellipse_165" cx="2.975" cy="2.975" r="2.975" class="cls-3" data-name="Ellipse 165"/>
        </g>
        <g id="Group_728" data-name="Group 728" transform="translate(65.696 11.355)">
            <circle id="Ellipse_166" cx="2.975" cy="2.975" r="2.975" class="cls-2" data-name="Ellipse 166"/>
        </g>
        <g id="Group_729" data-name="Group 729" transform="translate(71.115 20.659)">
            <circle id="Ellipse_167" cx="2.231" cy="2.231" r="2.231" class="cls-2" data-name="Ellipse 167"/>
        </g>
        <g id="Group_730" data-name="Group 730" transform="translate(86.287 10.413)">
            <path id="Path_1314" fill="#899bb0" d="M309.941 94.487l6.025-18.537h6.4a2.975 2.975 0 1 0 0-5.951h-7.578a5.95 5.95 0 0 0-5.659 4.111L302.5 94.487h7.438z" data-name="Path 1314" transform="translate(-302.503 -70)"/>
        </g>
        <g id="Group_731" data-name="Group 731" transform="translate(86.287 24.876)">
            <path id="Path_1315" fill="#6c8199" d="M308.248 171.556a3.54 3.54 0 0 1-2.486-4.338l-3.262 10.025h7.438l2.593-7.978a3.539 3.539 0 0 1-4.283 2.291z" data-name="Path 1315" transform="translate(-302.503 -167.218)"/>
        </g>
        <g id="Group_732" data-name="Group 732" transform="translate(49.617 33.413)">
            <path id="Path_1316" d="M56 227.58a2.975 2.975 0 0 1 2.975-2.975h53.555a2.975 2.975 0 0 1 0 5.951H58.975A2.975 2.975 0 0 1 56 227.58z" class="cls-10" data-name="Path 1316" transform="translate(-56 -224.605)"/>
        </g>
        <g id="Group_733" data-name="Group 733" transform="translate(65.981 69.101)">
            <path id="Path_1317" d="M166 467.475a2.975 2.975 0 0 1 2.975-2.975H189.8a2.975 2.975 0 0 1 0 5.951h-20.825a2.975 2.975 0 0 1-2.975-2.976z" class="cls-10" data-name="Path 1317" transform="translate(-166 -464.5)"/>
        </g>
        <g id="Group_734" data-name="Group 734" transform="translate(65.981 69.101)">
            <path id="Path_1318" d="M180.381 467.475a2.975 2.975 0 0 1 2.975-2.975h-14.381a2.975 2.975 0 0 0 0 5.951h14.381a2.975 2.975 0 0 1-2.975-2.976z" class="cls-6" data-name="Path 1318" transform="translate(-166 -464.5)"/>
        </g>
        <g id="Group_735" data-name="Group 735" transform="translate(49.617 33.413)">
            <path id="Path_1319" d="M68.88 227.58a2.975 2.975 0 0 1 2.975-2.975h-12.88a2.975 2.975 0 0 0 0 5.951h12.88a2.975 2.975 0 0 1-2.975-2.976z" class="cls-6" data-name="Path 1319" transform="translate(-56 -224.605)"/>
        </g>
        <g id="Group_736" data-name="Group 736" transform="translate(68.919 31.926)">
            <path id="Path_1320" d="M185.753 214.6v16.364a2.975 2.975 0 1 0 5.951 0v-5.951a2.975 2.975 0 1 1 5.951 0 2.975 2.975 0 0 0 5.951 0V214.6z" class="cls-3" data-name="Path 1320" transform="translate(-185.753 -214.605)"/>
        </g>
        <path id="Path_1321" d="M106.147 32.3h-3.354a24.747 24.747 0 0 0 .157-14.818h3.2a4.091 4.091 0 1 0 0-8.182h-7.5a24.643 24.643 0 0 0-42.95 8.489 10.039 10.039 0 0 0-3.328 1.921 5.569 5.569 0 0 1 1.8-5.331A1.116 1.116 0 1 0 52.7 12.7a7.793 7.793 0 0 0-2.054 8.943 10.025 10.025 0 0 0-.073 11.192 4.09 4.09 0 0 0 2.018 7.647h.645a21.5 21.5 0 0 0 8.908 12.634 28.351 28.351 0 0 0 8.288 3.942l3.485 10.93h-4.961a4.091 4.091 0 1 0 0 8.182h20.827a4.091 4.091 0 1 0 0-8.182H84.82l3.48-10.923a28.913 28.913 0 0 0 6.232-2.644 1.116 1.116 0 0 0-1.11-1.936A28.267 28.267 0 0 1 79.369 56.1c-11.631 0-21.474-6.513-23.836-15.62H67.8v7.81a4.091 4.091 0 0 0 8.182 0v-5.951a1.86 1.86 0 0 1 3.719 0 4.091 4.091 0 1 0 8.182 0v-1.86H103.2a18.752 18.752 0 0 1-6.255 9.547 1.116 1.116 0 1 0 1.439 1.706 20.825 20.825 0 0 0 7.116-11.253h.645a4.091 4.091 0 0 0 0-8.182zm-14.5 39.779a1.862 1.862 0 0 1-1.86 1.86H68.956a1.86 1.86 0 1 1 0-3.719h20.827a1.862 1.862 0 0 1 1.859 1.856zm-5.886-14.387l-3.283 10.293h-6.217l-3.284-10.3a32.182 32.182 0 0 0 12.784 0zm16.016-33.053a22.313 22.313 0 0 1-1.343 7.659h-4.689l4.816-14.818h.047a22.353 22.353 0 0 1 1.169 7.159zm6.23-11.25a1.862 1.862 0 0 1-1.86 1.86h-6.4a1.116 1.116 0 0 0-1.061.771L93.4 32.3h-5.093l5.664-17.43a4.823 4.823 0 0 1 4.6-3.341h7.578a1.862 1.862 0 0 1 1.86 1.86zM67.8 38.248H52.592a1.86 1.86 0 1 1 0-3.719H67.8zm17.852 4.091a1.86 1.86 0 1 1-3.719 0 4.091 4.091 0 1 0-8.182 0v5.951a1.86 1.86 0 1 1-3.719 0V33.413a1.116 1.116 0 0 0-1.113-1.113h-1.272a10.045 10.045 0 0 0-.052-10.111 1.116 1.116 0 1 0-1.921 1.135 7.815 7.815 0 0 1-.737 8.976H52.952a7.811 7.811 0 0 1 9.92-11.761A1.116 1.116 0 0 0 64 18.608a10.038 10.038 0 0 0-5.052-1.362c-.251 0-.5.012-.745.03A22.412 22.412 0 0 1 96.1 9.739a7.048 7.048 0 0 0-4.255 4.442l-6.087 18.74-.018.068a1.113 1.113 0 0 0-.084.424v8.926zm20.492-4.091H87.887v-3.719h18.26a1.86 1.86 0 1 1 0 3.719z" data-name="Path 1321"/>
    </g>
</svg>
