<svg xmlns="http://www.w3.org/2000/svg" width="66" height="76" viewBox="0 0 66 76">
    <defs>
        <style>
            .cls-2{fill:#13bf6d}.cls-3{fill:#fc5d3d}.cls-5{fill:#f2e1d6}.cls-7{fill:#f0c020}
        </style>
    </defs>
    <g id="healthy-food" transform="translate(-18.377 -1.913)">
        <path id="Path_1235" fill="#878787" d="M109.489 234.454v3.714a1.531 1.531 0 0 1-1.531 1.531H81.782a1.531 1.531 0 0 1-1.531-1.531v-3.714c.429.028.86.043 1.3.043h26.648c.43.003.861-.015 1.29-.043z" data-name="Path 1235" transform="translate(-43.492 -162.551)"/>
        <path id="Path_1236" d="M169.649 22.426c.251 2.28 2.355 3.326 4.947 2.448 1.929 1.816 4.553 2.181 5.939.8s1.02-4.01-.8-5.939c.884-2.611-.186-4.7-2.448-4.947a4.247 4.247 0 0 0-.887-3.988c-1.915-1.915-5.87-1.064-8.833 1.9s-3.814 6.919-1.9 8.833a4.244 4.244 0 0 0 3.982.893z" class="cls-2" data-name="Path 1236" transform="translate(-102.612 -5.459)"/>
        <path id="Path_1237" d="M49.019 78.8c2.44-.269 3.56-2.52 2.62-5.3 1.944-2.065 2.335-4.874.852-6.357S48.2 66.06 46.134 68c-2.795-.947-5.029.2-5.3 2.62a4.546 4.546 0 0 0-4.259.951c-2.049 2.049-1.139 6.283 2.033 9.455s7.406 4.083 9.455 2.033a4.546 4.546 0 0 0 .956-4.259z" class="cls-2" data-name="Path 1237" transform="translate(-11.87 -45.04)"/>
        <path id="Path_1238" d="M66.39 20.7a4.331 4.331 0 0 0 6.125 0l-6.125-6.128a4.331 4.331 0 0 0 0 6.128z" class="cls-3" data-name="Path 1238" transform="translate(-32.702 -8.783)"/>
        <circle id="Ellipse_144" cx="1.849" cy="1.849" r="1.849" class="cls-2" data-name="Ellipse 144" transform="rotate(-13.3 132.35 -186.304)"/>
        <circle id="Ellipse_145" cx="1.849" cy="1.849" r="1.849" class="cls-3" data-name="Ellipse 145" transform="rotate(-13.3 119.55 -235.165)"/>
        <path id="Path_1239" fill="#f0ab20" d="M110.192 5.89a5.846 5.846 0 0 0-.1 7.643c1.312 1.312 3.1.905 4.849-.391a12.661 12.661 0 0 0 2.5-2.5c1.3-1.751 1.7-3.537.391-4.849a5.846 5.846 0 0 0-7.64.097z" data-name="Path 1239" transform="translate(-63.225 -1.736)"/>
        <path id="Path_1240" d="M134.538 30.236a2.191 2.191 0 0 1-3.266-.187l-2.233-2.807a12.661 12.661 0 0 0 2.5-2.5l2.807 2.233a2.191 2.191 0 0 1 .187 3.266z" class="cls-5" data-name="Path 1240" transform="translate(-77.406 -15.836)"/>
        <path id="Path_1241" fill="#fff" d="M177.361 75.311a8.9 8.9 0 0 1-12.583 12.583l2.622-2.624 7.335-7.335z" data-name="Path 1241" transform="translate(-102.702 -51.363)"/>
        <path id="Path_1242" d="M180.683 83.881a5.187 5.187 0 1 1-7.335 7.335z" class="cls-7" data-name="Path 1242" transform="translate(-108.44 -57.315)"/>
        <path id="Path_1243" d="M180.683 83.881a5.187 5.187 0 1 1-7.335 7.335z" class="cls-7" data-name="Path 1243" transform="translate(-108.44 -57.315)"/>
        <path id="Path_1244" d="M91.758 136.352H34.711c0-4.167 2.639-8.187 7.4-8.187a7.354 7.354 0 0 1 6.293 3.588 5.381 5.381 0 0 1 5.792-2.5 6.408 6.408 0 1 1 12.49-2.807 5.4 5.4 0 0 1 7.467 3.052 3.671 3.671 0 0 1 6.311 1.163c4.506-3.695 11.294-.269 11.294 5.691z" class="cls-5" data-name="Path 1244" transform="translate(-11.333 -83.45)"/>
        <path id="Path_1245" fill="#72c1e8" d="M83.843 170.774H22.39a1.521 1.521 0 0 0-1.5 1.656 19.362 19.362 0 0 0 17.859 17.84c.421.028.846.043 1.273.043h26.19c.427 0 .852-.015 1.273-.043a19.364 19.364 0 0 0 17.859-17.837 1.522 1.522 0 0 0-1.5-1.659z" data-name="Path 1245" transform="translate(-1.738 -118.367)"/>
        <path id="Path_1246" fill="#c5e5ff" d="M109.393 194H87.749a.765.765 0 1 1 0-1.531h21.644a15.047 15.047 0 0 0 14.689-11.6.765.765 0 0 1 1.489.354A16.573 16.573 0 0 1 109.393 194zm-24.706 0h-1.942a.765.765 0 1 1 0-1.531h1.942a.765.765 0 0 1 0 1.531z" data-name="Path 1246" transform="translate(-45.253 -124.957)"/>
        <path id="Path_1247" d="M178.832 17.781c.71-2.622-.362-4.735-2.437-5.362A4.694 4.694 0 0 0 175.18 8.5c-2.247-2.247-6.6-1.413-9.916 1.9s-4.147 7.668-1.9 9.916a4.694 4.694 0 0 0 3.918 1.215c.63 2.086 2.752 3.145 5.363 2.437 2.21 1.846 5.07 2.078 6.667.48s1.366-4.457-.48-6.667zm-.6 5.585c-1.072 1.073-3.258.708-4.873-.812a.765.765 0 0 0-.77-.167c-1.9.643-3.726.152-3.941-1.807a.766.766 0 0 0-.917-.665 3.5 3.5 0 0 1-3.281-.68c-1.475-1.475-.823-4.648 1.379-7.189l1.462 1.462-.109 4.625a.765.765 0 1 0 1.53.036l.072-3.169 3.351 3.351-.037 2.507a.765.765 0 0 0 1.531.023l.015-1.021 2.5 2.5a.765.765 0 0 0 1.082-1.082l-2.5-2.5 1.166-.017a.765.765 0 1 0-.023-1.53l-2.652.039-3.351-3.351 3.239-.076a.765.765 0 0 0-.036-1.53l-4.7.111-1.462-1.462c2.541-2.2 5.714-2.855 7.189-1.379a3.5 3.5 0 0 1 .68 3.281.766.766 0 0 0 .665.917c1.887.208 2.482 1.947 1.807 3.941a.766.766 0 0 0 .168.77c1.52 1.615 1.884 3.8.812 4.873z" data-name="Path 1247" transform="translate(-100.847 -3.696)"/>
        <path id="Path_1248" d="M46.842 81.873a4.984 4.984 0 0 0 1.28-4.194c2.253-.656 3.372-2.933 2.608-5.714 1.975-2.347 2.23-5.391.535-7.085s-4.738-1.44-7.086.535c-2.8-.771-5.063.375-5.714 2.608a4.986 4.986 0 0 0-4.194 1.28c-2.384 2.384-1.491 7.013 2.029 10.537s8.157 4.418 10.542 2.033zM35.354 70.384a3.841 3.841 0 0 1 3.561-.742.766.766 0 0 0 .917-.666c.234-2.119 2.2-2.686 4.289-1.979a.767.767 0 0 0 .77-.167c1.75-1.647 4.123-2.036 5.291-.868s.779 3.542-.868 5.291a.766.766 0 0 0-.167.77c.7 2.062.156 4.053-1.979 4.289a.766.766 0 0 0-.666.917 3.794 3.794 0 0 1-.742 3.561c-1.607 1.607-5.065.9-7.813-1.511l1.623-1.623 4.992.117a.765.765 0 0 0 .018-1.53l-3.513-.083 3.692-3.692 2.718.04a.765.765 0 0 0 .011-1.531l-1.221-.018 2.762-2.759a.765.765 0 0 0-1.082-1.082l-2.762 2.762-.021-1.38a.765.765 0 0 0-.765-.754h-.012a.765.765 0 0 0-.754.777l.043 2.861-3.693 3.691-.083-3.59a.765.765 0 1 0-1.53.036l.119 5.053-1.625 1.626c-2.406-2.748-3.118-6.206-1.511-7.813z" data-name="Path 1248" transform="translate(-10.103 -43.303)"/>
        <path id="Path_1249" d="M64.112 12.3a5.1 5.1 0 0 0 7.208 7.2.765.765 0 0 0 0-1.083L65.194 12.3a.765.765 0 0 0-1.082 0zm1.082 6.126a3.567 3.567 0 0 1-.483-4.444l4.926 4.918a3.573 3.573 0 0 1-4.443-.478z" data-name="Path 1249" transform="translate(-30.958 -7.049)"/>
        <path id="Path_1250" d="M110.344 78.649a2.614 2.614 0 1 0 2.614-2.614 2.617 2.617 0 0 0-2.614 2.614zm3.7 0a1.083 1.083 0 1 1-1.083-1.083 1.085 1.085 0 0 1 1.08 1.083z" data-name="Path 1250" transform="translate(-64.321 -51.808)"/>
        <path id="Path_1251" d="M151.826 64.524a2.614 2.614 0 1 0-2.614 2.614 2.617 2.617 0 0 0 2.614-2.614zm-3.7 0a1.083 1.083 0 1 1 1.083 1.083 1.085 1.085 0 0 1-1.08-1.083z" data-name="Path 1251" transform="translate(-89.677 -41.935)"/>
        <path id="Path_1252" d="M114.831 14.689a2.957 2.957 0 1 0 4.155-4.153l-2.251-1.79c1.713-2.723.7-4.432-.1-5.234a6.6 6.6 0 0 0-8.725.1 6.593 6.593 0 0 0-.1 8.725c1.5 1.5 3.439 1.227 5.233.1zm3.324-.83a1.425 1.425 0 0 1-2.126-.123l-1.756-2.209a14.349 14.349 0 0 0 1.551-1.551l2.209 1.757a1.424 1.424 0 0 1 .122 2.126zm-9.266-2.6a5.1 5.1 0 0 1 .1-6.56 5.09 5.09 0 0 1 6.56-.1c.91.911.754 2.206-.466 3.854a11.986 11.986 0 0 1-2.343 2.343c-1.64 1.213-2.94 1.369-3.851.459z" data-name="Path 1252" transform="translate(-61.507)"/>
        <path id="Path_1253" d="M118.209 21.319l-.277-.056a.765.765 0 0 0-.3 1.5l.277.056a.765.765 0 0 0 .3-1.5z" data-name="Path 1253" transform="translate(-68.959 -13.415)"/>
        <path id="Path_1254" d="M126.522 14.506a.765.765 0 0 0 .6-.9l-.056-.277a.765.765 0 0 0-1.5.3l.056.277a.766.766 0 0 0 .9.6z" data-name="Path 1254" transform="translate(-74.923 -7.494)"/>
        <path id="Path_1255" d="M146.917 98.542l.6-.6a.765.765 0 0 0-1.082-1.082l-.6.6a.765.765 0 1 0 1.082 1.082z" data-name="Path 1255" transform="translate(-88.953 -66.184)"/>
        <path id="Path_1256" d="M51.738 49.887l.6.6a.765.765 0 1 0 1.082-1.082l-.6-.6a.765.765 0 1 0-1.082 1.082z" data-name="Path 1256" transform="translate(-22.992 -32.609)"/>
        <path id="Path_1257" d="M178.971 80.607a9.608 9.608 0 0 0-2.8-7.556.784.784 0 0 0-1.081 0L162.5 85.634a.768.768 0 0 0 0 1.084 9.65 9.65 0 0 0 13.817-.156.765.765 0 0 0-.025-1.084.784.784 0 0 0-1.08.024 8.131 8.131 0 0 1-11.062.649l1.555-1.555a5.946 5.946 0 0 0 8.339-8.341L175.6 74.7a8.126 8.126 0 0 1 1.843 5.789.766.766 0 0 0 1.527.116zm-6.014-3.261a4.422 4.422 0 0 1-6.159 6.16z" data-name="Path 1257" transform="translate(-100.968 -49.641)"/>
        <path id="Path_1258" d="M210.459 105.256a.779.779 0 0 0-1.01.386.766.766 0 1 0 1.01-.386z" data-name="Path 1258" transform="translate(-133.651 -72.163)"/>
        <path id="Path_1259" d="M20.088 142.994a.763.763 0 0 0 1 .38.772.772 0 0 0 .373-1.013 19.1 19.1 0 0 1-1.574-6.163.766.766 0 0 1 .756-.817h61.473a.767.767 0 0 1 .753.833 18.585 18.585 0 0 1-18.39 17.175h-26.2a18.226 18.226 0 0 1-13.649-6.135.766.766 0 0 0-1.063-.049.777.777 0 0 0-.051 1.081 19.767 19.767 0 0 0 12.734 6.524v3.014a2.28 2.28 0 0 0 2.258 2.3h25.739a2.28 2.28 0 0 0 2.258-2.3v-3.013a20.137 20.137 0 0 0 17.863-18.471 2.286 2.286 0 0 0-2.252-2.492h-.908c-.527-5.818-6.987-9.1-11.754-6.065a4.429 4.429 0 0 0-6.373-1.28 6.162 6.162 0 0 0-7.213-2.82 7.18 7.18 0 0 0-6.812-5.024 7.061 7.061 0 0 0-2.246.364.771.771 0 0 0-.479.967.757.757 0 0 0 .948.487 5.628 5.628 0 0 1 1.779-.288 5.694 5.694 0 0 1 5.557 4.669.749.749 0 0 0 1.066.542 4.676 4.676 0 0 1 6.454 2.633.747.747 0 0 0 1.279.227 2.938 2.938 0 0 1 5.045.928.748.748 0 0 0 1.18.337c3.849-3.147 9.512-.5 10.05 4.323H24.081c.314-3.633 2.708-6.644 6.633-6.656a6.605 6.605 0 0 1 5.669 3.227.747.747 0 0 0 1.279 0 4.637 4.637 0 0 1 5.006-2.149.762.762 0 0 0 .894-.931 5.822 5.822 0 0 1 .1-3.169.753.753 0 1 0-1.43-.475 7.307 7.307 0 0 0-.316 2.933 6.134 6.134 0 0 0-4.877 2.094 8.087 8.087 0 0 0-6.328-3.062h-.021c-4.658 0-7.8 3.638-8.123 8.187h-1.928a2.286 2.286 0 0 0-2.252 2.5 20.312 20.312 0 0 0 1.7 6.649zM65 157.825a.76.76 0 0 1-.753.765H38.509a.76.76 0 0 1-.753-.765v-2.912c.176 0 .35.007.521.007h26.2c.171 0 .345 0 .521-.007z" data-name="Path 1259" transform="translate(0 -82.208)"/>
        <path id="Path_1260" d="M29.007 203.49a.766.766 0 1 0 1.059.22.783.783 0 0 0-1.059-.22z" data-name="Path 1260" transform="translate(-7.135 -140.761)"/>
        <path id="Path_1261" d="M103.99 125.178a.785.785 0 0 0-1.084 0 .766.766 0 1 0 1.084 0z" data-name="Path 1261" transform="translate(-58.937 -85.975)"/>
        <path id="Path_1262" d="M117.914 138.626v-.613a.765.765 0 1 0-1.531 0v.613a.765.765 0 0 0 1.531 0z" data-name="Path 1262" transform="translate(-68.514 -94.565)"/>
        <path id="Path_1263" d="M146.643 147.4a.765.765 0 0 0 0-1.082l-.434-.434a.765.765 0 0 0-1.082 1.082l.434.434a.765.765 0 0 0 1.082 0z" data-name="Path 1263" transform="translate(-88.456 -100.441)"/>
        <path id="Path_1264" d="M106.816 152.381l.434-.434a.765.765 0 0 0-1.083-1.083l-.434.434a.765.765 0 1 0 1.083 1.083z" data-name="Path 1264" transform="translate(-60.916 -103.922)"/>
        <path id="Path_1265" d="M56.391 152.058a.766.766 0 0 0 0 1.083l.434.434a.765.765 0 1 0 1.083-1.083l-.434-.434a.766.766 0 0 0-1.083 0z" data-name="Path 1265" transform="translate(-26.42 -104.756)"/>
        <path id="Path_1266" d="M156.3 153.574l.434-.434a.765.765 0 1 0-1.082-1.083l-.434.434a.765.765 0 1 0 1.082 1.083z" data-name="Path 1266" transform="translate(-95.511 -104.756)"/>
        <path id="Path_1267" d="M203.2 158.015l.434-.434a.765.765 0 0 0-1.082-1.082l-.434.434a.765.765 0 0 0 1.082 1.082z" data-name="Path 1267" transform="translate(-128.453 -107.858)"/>
    </g>
</svg>
